<?xml version="1.0" standalone="no"?>
<!DOCTYPE svg PUBLIC "-//W3C//DTD SVG 20010904//EN"
 "http://www.w3.org/TR/2001/REC-SVG-20010904/DTD/svg10.dtd">
<svg version="1.0" xmlns="http://www.w3.org/2000/svg"
 width="433.000000pt" height="179.000000pt" viewBox="0 0 433.000000 179.000000"
 preserveAspectRatio="xMidYMid meet">

<g transform="translate(0.000000,179.000000) scale(0.100000,-0.100000)"
fill="#000000" stroke="none">
<path d="M730 1310 l0 -140 25 0 c24 0 25 3 25 58 0 68 9 85 41 80 22 -3 24
-8 27 -70 3 -65 4 -68 27 -68 24 0 25 2 25 70 0 62 -3 74 -25 95 -26 27 -46
31 -76 15 -17 -10 -19 -7 -19 20 0 37 -13 65 -35 74 -13 5 -15 -13 -15 -134z"/>
<path d="M600 1385 c0 -14 -4 -25 -10 -25 -5 0 -10 -9 -10 -20 0 -11 5 -20 10
-20 6 0 10 -25 10 -55 0 -81 45 -118 96 -81 21 16 13 32 -21 38 -16 2 -21 12
-23 51 -3 44 -2 47 22 47 31 0 29 34 -2 38 -16 2 -22 10 -22 28 0 19 -5 24
-25 24 -20 0 -25 -5 -25 -25z"/>
<path d="M1376 1339 c-33 -39 -34 -84 -2 -147 43 -85 42 -89 -5 -97 -50 -9
-106 -56 -118 -102 -10 -33 -10 -33 27 -33 29 0 44 7 64 30 55 63 147 22 134
-60 -7 -43 -29 -60 -78 -60 -30 0 -42 6 -60 30 -16 23 -30 30 -54 30 -18 0
-35 -4 -38 -9 -11 -18 40 -96 75 -113 71 -37 173 -15 209 44 33 54 27 118 -26
260 -81 219 -96 258 -99 258 -2 0 -15 -14 -29 -31z"/>
<path d="M968 1345 c-78 -44 -40 -175 51 -175 24 0 71 20 71 30 0 19 -29 31
-49 20 -15 -8 -27 -8 -41 0 -36 19 -21 30 43 30 l63 0 -4 34 c-2 19 -12 42
-22 51 -25 23 -80 28 -112 10z m70 -37 c20 -20 14 -28 -23 -28 -38 0 -46 13
-17 29 22 13 26 13 40 -1z"/>
<path d="M1461 1331 c-12 -7 -8 -26 19 -105 18 -53 35 -94 37 -92 6 5 -29 206
-36 206 -3 0 -12 -4 -20 -9z"/>
<path d="M1516 1291 c-6 -9 22 -175 34 -206 5 -12 9 26 9 98 1 109 0 117 -18
117 -11 0 -22 -4 -25 -9z"/>
<path d="M2567 1212 c-24 -26 -21 -49 8 -68 23 -15 27 -15 50 0 29 19 32 47 9
70 -21 21 -47 20 -67 -2z"/>
<path d="M1846 1189 c-18 -22 -26 -42 -26 -70 0 -39 0 -40 -22 -25 -33 23
-109 21 -142 -5 -110 -87 -46 -292 87 -275 21 2 47 12 58 22 18 16 19 16 19
-2 0 -16 7 -19 40 -19 l40 0 0 202 c0 223 -3 233 -54 172z m-73 -150 c48 -22
61 -89 26 -133 -26 -33 -62 -34 -94 -1 -35 34 -33 78 4 116 34 33 32 33 64 18z"/>
<path d="M3795 1113 c-68 -18 -88 -65 -83 -202 l3 -94 40 0 40 0 3 84 c3 122
5 128 53 135 39 7 40 8 37 43 -3 34 -5 36 -38 38 -19 0 -44 -1 -55 -4z"/>
<path d="M2008 1085 c-40 -27 -58 -67 -58 -130 0 -77 70 -145 149 -145 35 0
121 35 121 50 0 4 -11 15 -25 24 -19 12 -30 14 -44 6 -40 -21 -121 -1 -121 31
0 5 46 9 105 9 l105 0 0 45 c0 24 -5 54 -11 67 -30 68 -150 91 -221 43z m132
-55 c33 -33 24 -40 -45 -40 -36 0 -65 4 -65 9 0 15 51 51 71 51 11 0 28 -9 39
-20z"/>
<path d="M2311 1081 c-56 -53 -38 -100 55 -142 37 -17 64 -35 64 -44 0 -23
-70 -23 -107 1 -20 12 -24 12 -38 -8 -22 -32 -20 -37 28 -58 95 -43 197 -5
197 75 0 44 -17 62 -85 88 -62 24 -79 49 -37 55 13 2 37 -1 54 -7 26 -9 33 -8
44 7 7 9 14 22 14 28 0 18 -48 34 -104 34 -46 0 -59 -4 -85 -29z"/>
<path d="M2586 1079 c-25 -29 -26 -36 -26 -147 l0 -117 40 0 40 0 0 147 c0
164 -5 175 -54 117z"/>
<path d="M2752 1090 c-57 -35 -79 -126 -47 -194 18 -38 80 -76 121 -76 16 0
44 9 62 20 30 18 32 18 32 2 0 -56 -77 -86 -145 -58 -21 9 -39 15 -40 14 -8
-10 -25 -48 -25 -56 0 -16 77 -42 123 -42 54 0 106 26 134 69 21 32 23 45 23
187 l0 154 -40 0 c-30 0 -40 -4 -40 -16 0 -14 -2 -14 -22 0 -31 22 -96 20
-136 -4z m143 -73 c21 -30 19 -70 -6 -101 -48 -60 -131 -4 -113 77 4 20 16 33
36 42 37 15 64 9 83 -18z"/>
<path d="M3060 970 c0 -77 0 -143 0 -147 0 -3 17 -6 38 -6 l37 0 5 102 c4 87
8 105 24 117 58 42 86 1 86 -126 l0 -95 40 0 40 0 0 110 c0 113 -7 139 -50
172 -21 17 -91 16 -118 -3 -20 -14 -22 -14 -22 0 0 12 -10 16 -40 16 l-40 0 0
-140z"/>
<path d="M3443 1090 c-44 -26 -63 -68 -63 -136 0 -52 3 -59 38 -94 57 -57 148
-66 204 -20 l23 19 -21 21 c-18 18 -25 20 -42 11 -41 -22 -122 -2 -122 30 0 5
46 9 105 9 l105 0 0 40 c0 86 -57 140 -145 140 -32 0 -62 -7 -82 -20z m110
-51 c26 -14 38 -30 31 -41 -7 -10 -124 -11 -124 0 0 12 14 28 35 40 25 14 32
15 58 1z"/>
<path d="M3951 1084 c-61 -51 -34 -117 63 -150 44 -15 67 -37 52 -51 -10 -11
-75 -4 -103 11 -25 13 -28 12 -45 -9 -10 -13 -18 -25 -18 -28 0 -2 23 -15 52
-27 71 -31 132 -24 170 19 52 58 30 108 -62 142 -46 16 -60 26 -60 41 0 17 5
19 38 15 20 -3 46 -8 58 -12 15 -5 23 -1 32 19 10 24 9 27 -18 41 -48 25 -123
20 -159 -11z"/>
<path d="M400 1077 c-49 -23 -87 -57 -123 -109 -71 -103 -55 -198 34 -198 47
0 72 11 117 53 l32 31 0 -52 c0 -39 -6 -60 -26 -89 -112 -164 -142 -326 -74
-395 34 -33 36 -34 77 -8 47 28 63 92 70 275 6 160 12 183 66 233 l24 23 38
-25 c45 -31 118 -35 171 -10 67 32 94 136 55 212 -48 95 -217 97 -266 3 -8
-17 -15 -54 -15 -83 -1 -47 -5 -58 -36 -91 -20 -21 -38 -36 -42 -32 -3 3 0 38
6 77 13 75 5 103 -19 73 -41 -50 -70 -75 -88 -75 -28 0 -55 43 -47 76 16 64
100 101 101 44 1 -20 5 -24 25 -22 49 5 78 60 48 90 -15 15 -95 14 -128 -1z
m364 -68 c21 -17 26 -29 26 -66 0 -29 -6 -53 -17 -65 -19 -21 -62 -24 -85 -5
-37 29 -26 130 16 147 30 12 30 12 60 -11z m-314 -533 c-16 -42 -35 -26 -38
33 -2 38 3 63 20 98 l23 46 3 -75 c1 -41 -2 -87 -8 -102z"/>
<path d="M969 1067 c-126 -84 -67 -277 85 -277 33 0 62 7 84 20 35 22 72 88
72 130 0 42 -37 108 -72 130 -47 28 -124 27 -169 -3z m139 -78 c15 -27 10 -93
-8 -114 -19 -23 -76 -19 -94 7 -18 26 -21 80 -5 109 23 44 83 42 107 -2z"/>
</g>
</svg>
