<svg width="100" height="100" viewBox="0 0 100 100" fill="none" xmlns="http://www.w3.org/2000/svg">
<path fill-rule="evenodd" clip-rule="evenodd" d="M55.7338 32.2392C55.4838 32.2409 55.2378 32.1774 55.0203 32.0551C54.7099 31.8993 54.4674 31.6362 54.3387 31.3155C54.2099 30.9947 54.2038 30.6383 54.3212 30.3133L60.0286 15.501C60.1082 15.2925 60.2362 15.1056 60.4023 14.9555C60.5685 14.8054 60.768 14.6964 60.9846 14.6372C61.1995 14.5795 61.4248 14.5726 61.6428 14.6169C61.8609 14.6611 62.0655 14.7554 62.2403 14.8921L65.6504 17.5543L72.5993 11.7342C72.8569 11.532 73.177 11.4241 73.5054 11.4289C73.8339 11.4337 74.1507 11.5508 74.4022 11.7605C74.6538 11.9702 74.8247 12.2597 74.8861 12.5799C74.9476 12.9002 74.8958 13.2317 74.7395 13.5184L67.0345 26.0509C66.9332 26.2126 66.8002 26.3523 66.6433 26.4618C66.4864 26.5713 66.3088 26.6483 66.1213 26.6881C65.9341 26.7302 65.7403 26.7341 65.5516 26.7001C65.3628 26.666 65.1829 26.5945 65.0226 26.4898L62.3829 24.7622L56.8467 31.7011C56.7139 31.868 56.5448 32.003 56.3522 32.0961C56.1594 32.1893 55.9481 32.2382 55.7338 32.2392ZM47.7291 21.4486L42.4355 22.9638L37.2845 13.0511C37.1317 12.7461 36.8731 12.5061 36.5565 12.3748C36.2398 12.2437 35.886 12.2302 35.56 12.3369C35.2341 12.4435 34.9579 12.6633 34.7819 12.9557C34.6059 13.2481 34.5421 13.5938 34.602 13.9291L37.4557 31.4886C37.4854 31.679 37.5537 31.8612 37.6569 32.0244C37.7599 32.1875 37.8953 32.328 38.055 32.4374C38.2114 32.545 38.3879 32.6205 38.5741 32.6595C38.7604 32.6984 38.9525 32.7 39.1394 32.664L43.1774 31.8568L46.2594 42.4209C46.3458 42.7272 46.5334 42.9957 46.7922 43.1833C47.0511 43.3708 47.3661 43.4664 47.6863 43.4546H47.8718C48.2172 43.4097 48.5341 43.2409 48.7629 42.9799C48.9914 42.7191 49.1161 42.3843 49.1132 42.0385L49.5697 22.8222C49.5759 22.5987 49.5287 22.3771 49.4319 22.1753C49.3353 21.9735 49.1918 21.7972 49.0133 21.661C48.8315 21.527 48.6203 21.4378 48.397 21.401C48.1737 21.364 47.9448 21.3803 47.7291 21.4486ZM87.9665 68.3778C87.4556 70.0497 86.584 71.5912 85.4124 72.8952C85.528 73.0749 85.6012 73.2782 85.6265 73.4899L88.4802 86.872C88.523 87.0801 88.5181 87.2951 88.4659 87.5011C88.4137 87.7072 88.3154 87.8989 88.1784 88.062C88.0413 88.2252 87.8691 88.3557 87.6743 88.444C87.4795 88.5321 87.2673 88.5755 87.0533 88.5713L66.0642 87.8066C65.8545 87.7992 65.649 87.746 65.4624 87.6508C65.2757 87.5557 65.1125 87.4207 64.9844 87.2557C64.8564 87.0908 64.7665 86.8997 64.7213 86.6964C64.6762 86.4929 64.6768 86.2822 64.723 86.079L67.3912 74.467C65.8207 73.5206 64.4298 72.308 63.2819 70.8843C62.4537 69.7953 61.7187 68.6395 61.0845 67.429C58.899 63.4089 56.0921 59.7534 52.7659 56.5959C50.8397 54.7125 51.0537 52.8716 51.8099 51.8804C52.8658 50.5209 55.5768 49.7845 59.8574 52.2344C61.1687 52.9586 62.5164 53.6155 63.8954 54.2027C63.9239 51.1298 63.9953 45.5929 64.1237 43.6812V42.0527C64.2664 37.238 64.4804 30.639 68.1903 30.639C69.0183 30.603 69.8306 30.8702 70.4732 31.3895C70.6911 30.384 71.1849 29.4577 71.9001 28.7131C72.2337 28.3779 72.6316 28.1125 73.0703 27.9326C73.5089 27.7526 73.9794 27.6617 74.4542 27.6652C76.5374 27.6652 77.4078 29.4636 77.7645 31.4603C77.9528 31.1908 78.1988 30.966 78.485 30.802C78.7711 30.6379 79.0903 30.5387 79.4196 30.5115C79.849 30.4579 80.2849 30.4958 80.6984 30.6227C81.1117 30.7497 81.493 30.9628 81.8167 31.2479C83.1437 32.4091 83.7715 34.8023 83.8857 39.2347C83.8783 39.3715 83.8783 39.5085 83.8857 39.6453C84.0188 39.6377 84.1521 39.6377 84.2852 39.6453C86.8536 39.5179 89.0509 43.6812 89.7073 50.1102C90.4203 56.2532 89.8273 62.4764 87.9665 68.3778ZM63.4959 66.0554C64.0592 67.1294 64.7081 68.1569 65.4364 69.1283H65.4507C66.9311 70.9501 68.8848 72.3359 71.101 73.1359C72.5897 73.6831 74.1651 73.9612 75.7526 73.9572C77.7068 73.9557 79.6297 73.4688 81.3459 72.5411C83.2219 71.3699 84.5672 69.522 85.0985 67.3866C86.8448 61.8513 87.399 56.0135 86.7251 50.2519C86.5884 47.8322 85.9676 45.4638 84.8988 43.2847C84.6648 46.3518 84.6075 49.4298 84.7275 52.5034C84.7491 52.7328 84.7231 52.9641 84.6511 53.183C84.579 53.4019 84.4624 53.604 84.3086 53.7765C84.1549 53.949 83.9672 54.0885 83.757 54.186C83.5468 54.2837 83.3187 54.3376 83.0867 54.3444C82.8201 54.3445 82.5579 54.2785 82.3236 54.1523C82.0893 54.0263 81.8905 53.8441 81.7454 53.6222C81.5414 53.3049 81.4324 52.9365 81.4315 52.5601L81.246 48.3118C81.2203 47.638 81.1862 47.0756 81.1563 46.5835C81.1195 45.9791 81.0891 45.4806 81.0891 45.0123L81.0825 44.8768C81.0141 43.4535 80.9581 42.2836 80.875 39.2771C80.881 37.7349 80.7184 36.1964 80.3899 34.689C80.3133 34.1976 80.101 33.7368 79.7763 33.3579C79.4482 33.9526 78.8917 35.9918 78.8917 40.764L78.5064 51.8096C78.5067 52.2483 78.3442 52.6718 78.0499 52.9991C77.8875 53.1676 77.6927 53.3021 77.477 53.3946C77.2614 53.4869 77.0291 53.5355 76.7942 53.5372C76.5569 53.5373 76.3222 53.49 76.1036 53.3983C75.8852 53.3065 75.6875 53.1721 75.5225 53.003C75.3575 52.834 75.2284 52.6336 75.1429 52.4139C75.0574 52.1943 75.0172 51.9599 75.0249 51.7246V35.4395C75.0249 31.4037 74.5112 30.6248 74.2972 30.4691C74.1985 30.47 74.1009 30.4906 74.0103 30.5295C73.9195 30.5685 73.8376 30.625 73.7693 30.6956C72.7705 31.7011 72.7705 35.0855 72.7705 36.1901V36.445C72.7705 37.656 72.6208 43.491 72.5154 47.6006C72.458 49.8344 72.4137 51.5585 72.4137 51.7529V52.0928C72.4137 52.4683 72.2634 52.8286 71.9958 53.0941C71.7283 53.3597 71.3653 53.5089 70.9869 53.5089C70.6085 53.5089 70.2455 53.3597 69.978 53.0941C69.7104 52.8286 69.56 52.4683 69.56 52.0928V51.7104L69.1605 40.3817V38.385C69.1034 34.7315 68.9322 33.4287 68.1189 33.4287C67.5196 33.896 67.063 36.8273 66.9061 42.0952V43.8228C66.7634 45.9753 66.6492 53.1973 66.6492 55.548C68.918 56.8367 73.0416 59.4423 74.2116 62.6285C74.2748 62.8042 74.3026 62.9906 74.2931 63.1769C74.2835 63.3633 74.237 63.546 74.1561 63.7143C74.0752 63.8829 73.9616 64.0337 73.8218 64.1584C73.6818 64.2832 73.5186 64.3792 73.3412 64.4411C73.1857 64.4972 73.0216 64.5259 72.8561 64.5261C72.5629 64.5259 72.2768 64.4361 72.0368 64.2689C71.7968 64.1017 71.6146 63.8652 71.5148 63.5914C70.5588 60.9717 65.7789 58.2669 64.0096 57.4456L63.8526 57.3323C61.9746 56.5543 60.1406 55.6751 58.3592 54.6984C57.2649 53.9903 56.0089 53.5666 54.7064 53.4664C54.4623 53.4382 54.2159 53.4931 54.0073 53.6222C54.1721 53.991 54.4099 54.3233 54.7064 54.5993C58.2167 57.9431 61.1818 61.8079 63.4959 66.0554ZM36.0717 54.2169C37.4473 53.6325 38.7904 52.9754 40.0954 52.2485C44.3617 49.7987 47.1013 50.5351 48.1572 51.937C48.9134 52.9283 49.1274 54.755 47.2012 56.6526C43.875 59.8102 41.0681 63.4655 38.8826 67.4857C38.2483 68.6962 37.5134 69.852 36.6852 70.9409C36.0337 71.7525 35.2972 72.4931 34.4879 73.1501C34.5873 73.2917 34.6598 73.45 34.7019 73.6174L37.3986 85.3709C37.435 85.569 37.4283 85.7725 37.3791 85.9679C37.3299 86.1632 37.2393 86.346 37.1133 86.5038C36.9833 86.6715 36.8172 86.8081 36.627 86.9037C36.4369 86.9993 36.2276 87.0512 36.0146 87.0561L14.9542 87.8066C14.747 87.8049 14.5427 87.7584 14.3553 87.6704C14.1681 87.5823 14.0023 87.4548 13.8698 87.2968C13.7311 87.1318 13.632 86.9378 13.5801 86.7292C13.5282 86.5208 13.5247 86.3031 13.5701 86.0931L16.0386 74.2971C14.063 72.8168 12.6257 70.7394 11.9435 68.3778C10.1331 62.4952 9.57905 56.3024 10.3169 50.1952C10.9732 43.7803 13.2134 39.5887 15.7389 39.7303C15.8721 39.7234 16.0053 39.7234 16.1385 39.7303C16.1459 39.5935 16.1459 39.4564 16.1385 39.3196C16.1387 37.5618 16.3349 35.8093 16.7235 34.0943C16.8978 33.0282 17.3955 32.0402 18.1503 31.2621C18.4741 30.977 18.8553 30.7639 19.2687 30.6369C19.6822 30.51 20.1181 30.472 20.5475 30.5257C20.8768 30.5529 21.196 30.6522 21.482 30.8161C21.7683 30.9801 22.0143 31.205 22.2026 31.4745C22.5593 29.4778 23.4297 27.6794 25.5129 27.6794C25.9876 27.6758 26.4582 27.7667 26.8968 27.9467C27.3354 28.1267 27.7334 28.3922 28.067 28.7273C28.7821 29.4718 29.276 30.3981 29.4939 31.4037C30.1365 30.8844 30.9488 30.6173 31.7768 30.6532C35.5009 30.6532 35.7007 37.2521 35.8434 42.081V43.6953C35.9718 45.5929 36.0717 51.144 36.0717 54.2169ZM36.3998 66.0554C38.7139 61.8079 41.6792 57.9431 45.1893 54.5993C45.7743 54.0187 45.9741 53.7071 45.8171 53.5513C45.6602 53.3956 44.1191 53.2115 41.5365 54.6984C39.7567 55.678 37.9226 56.5574 36.0431 57.3323L35.8862 57.4456C34.0883 58.2669 29.3369 60.9717 28.3809 63.5914C28.2766 63.8793 28.0813 64.1259 27.8241 64.2944C27.5669 64.4628 27.2617 64.544 26.954 64.5261C26.7934 64.5242 26.6341 64.4956 26.4832 64.4411C26.3058 64.3792 26.1425 64.2832 26.0026 64.1584C25.8628 64.0337 25.7492 63.8829 25.6683 63.7143C25.5874 63.546 25.5409 63.3633 25.5313 63.1769C25.5219 62.9906 25.5494 62.8042 25.6128 62.6285C26.7686 59.4564 30.8922 56.8508 33.1609 55.6188L33.1515 54.8199V54.8196C33.1181 51.9312 33.0473 45.8261 32.9183 43.8794V42.166C32.7614 36.884 32.3048 33.9526 31.5913 33.457C30.8922 33.4853 30.6639 34.7881 30.6639 38.4417V40.4383L30.2644 52.1211C30.2644 52.4966 30.114 52.8569 29.8464 53.1224C29.5789 53.3881 29.2159 53.5372 28.8375 53.5372C28.4591 53.5372 28.0961 53.3881 27.8286 53.1224C27.561 52.8569 27.4106 52.4966 27.4106 52.1211V51.7387C27.3964 51.229 27.0539 38.3425 27.0539 36.4733V36.2184V36.1729C27.0541 35.0241 27.0546 31.7159 26.0551 30.724C25.9861 30.6512 25.9016 30.5944 25.808 30.5577C25.7143 30.5209 25.6135 30.5052 25.5129 30.5115C25.3132 30.6531 24.7995 31.432 24.7995 35.4679V51.7671C24.8072 52.0024 24.7671 52.2368 24.6815 52.4564C24.596 52.6761 24.4669 52.8764 24.3019 53.0455C24.1369 53.2146 23.9392 53.349 23.7208 53.4409C23.5022 53.5326 23.2675 53.5798 23.0302 53.5797C22.7953 53.578 22.563 53.5294 22.3474 53.4371C22.1317 53.3446 21.9369 53.2101 21.7746 53.0415C21.4686 52.7034 21.3007 52.2641 21.3037 51.8096L20.9327 40.9198C20.9327 36.0485 20.3762 33.9951 20.0481 33.4004C19.7627 33.6553 19.0635 34.7315 18.9494 39.3196C18.9163 40.5229 18.8833 41.4558 18.8568 42.2031C18.8489 42.4233 18.8418 42.6273 18.8352 42.8174L18.8241 43.1479C18.802 43.8139 18.7846 44.3361 18.7353 45.069C18.695 45.6697 18.6617 46.3552 18.6206 47.2058C18.6035 47.5584 18.5851 47.9394 18.5641 48.3543L18.3358 52.8008C18.3474 53.2416 18.1829 53.6692 17.8782 53.9902C17.5735 54.3111 17.1532 54.4996 16.7092 54.5143C16.4427 54.5144 16.1804 54.4484 15.9461 54.3224C15.7118 54.1962 15.5131 54.014 15.368 53.7921C15.1639 53.4749 15.0549 53.1064 15.054 52.73C15.1856 49.6378 15.1332 46.5407 14.8971 43.4546C13.8284 45.6337 13.2074 48.0021 13.0707 50.4218C12.3968 56.1834 12.951 62.0213 14.6973 67.5565C15.1723 69.1735 16.1091 70.6195 17.3941 71.7198C18.157 72.3264 19.015 72.8048 19.9339 73.1359C21.2991 73.6622 22.75 73.9358 24.2145 73.9431C25.2916 73.946 26.365 73.8176 27.4106 73.5607C28.5322 73.2966 29.6123 72.8821 30.6211 72.3287C32.095 71.5155 33.3979 70.429 34.4593 69.1283C35.1876 68.1569 35.8365 67.1294 36.3998 66.0554Z" fill="#021414"/>
</svg>
