<svg width="100" height="100" viewBox="0 0 100 100" fill="none" xmlns="http://www.w3.org/2000/svg">
<path fill-rule="evenodd" clip-rule="evenodd" d="M61.9951 22.0462C63.2994 22.2059 64.5144 22.7932 65.4507 23.7164C66.3871 24.6395 66.9923 25.8469 67.1719 27.1503C67.2444 27.7246 67.52 28.2539 67.949 28.642C68.3778 29.0302 68.9315 29.2516 69.5094 29.266H69.6679C70.2405 29.2571 70.7904 29.0404 71.2155 28.6562C71.6406 28.2719 71.9119 27.7463 71.979 27.1768C72.1521 25.8792 72.746 24.6744 73.6692 23.7475C74.5926 22.8207 75.7942 22.2229 77.0898 22.0462C77.6656 21.9789 78.1972 21.7045 78.5859 21.274C78.9747 20.8433 79.1939 20.2861 79.2028 19.7057V19.547C79.1915 18.9696 78.9732 18.4154 78.5878 17.9857C78.2023 17.5559 77.6752 17.2794 77.103 17.2066C75.8081 17.036 74.6052 16.444 73.6794 15.5217C72.7535 14.5995 72.1561 13.3981 71.979 12.1025C71.917 11.525 71.6441 10.9908 71.2126 10.6027C70.781 10.2146 70.2215 10 69.6415 10H69.483C68.9112 10.0116 68.3627 10.2293 67.9383 10.613C67.5138 10.9968 67.2416 11.5209 67.1719 12.0892C67.0091 13.3913 66.4209 14.6031 65.4989 15.5357C64.577 16.4685 63.373 17.0697 62.0743 17.2462C61.4976 17.3141 60.9656 17.591 60.5788 18.0245C60.1919 18.4581 59.977 19.0185 59.9745 19.5999V19.8115C59.997 20.3619 60.2114 20.8869 60.5807 21.2953C60.9498 21.7036 61.4503 21.9693 61.9951 22.0462ZM63.461 19.6528C64.9206 19.2536 66.2496 18.4764 67.3137 17.3992C68.3779 16.3221 69.1398 14.9831 69.5226 13.5173C69.9163 14.9879 70.692 16.3278 71.7706 17.4007C72.8493 18.4737 74.1923 19.2417 75.6635 19.6264C74.1919 20.0148 72.8491 20.7854 71.7707 21.8606C70.6923 22.9356 69.9168 24.2769 69.5226 25.7487C69.1337 24.2902 68.369 22.9595 67.3053 21.8896C66.2415 20.8199 64.9159 20.0486 63.461 19.6528ZM69.5226 38.8527C78.9782 38.8527 88.566 41.2858 88.566 45.9403C88.568 46.3281 88.5009 46.7132 88.3679 47.0775C88.4949 47.299 88.5631 47.5494 88.566 47.8047V54.9452C88.5731 55.0332 88.5731 55.1216 88.566 55.2096C88.4734 55.8886 88.2233 56.5364 87.8357 57.1013C87.4481 57.6662 86.9339 58.1323 86.3341 58.4625C85.82 58.8206 85.2766 59.1346 84.7097 59.4014C85.2788 59.6587 85.8226 59.9685 86.3341 60.327C86.9355 60.6585 87.4508 61.1267 87.8384 61.694C88.226 62.2612 88.4752 62.9117 88.566 63.5931C88.5731 63.6811 88.5731 63.7695 88.566 63.8575V81.4839C88.566 86.1384 78.9782 88.5714 69.5226 88.5714C62.8535 88.5714 56.1051 87.3549 52.7375 85.0144L49.1982 86.7599C49.0221 86.8485 48.8274 86.8938 48.6304 86.8921C48.4187 86.8933 48.2098 86.8434 48.0213 86.7468C47.8327 86.6501 47.6703 86.5094 47.5475 86.3367L16.9883 43.6527C16.7989 43.391 16.7119 43.0689 16.7436 42.7473C16.7751 42.4257 16.9233 42.1269 17.16 41.9072L39.32 21.3057C39.4498 21.1871 39.6018 21.0956 39.7674 21.0365C39.9329 20.9775 40.1085 20.9521 40.284 20.9619C40.4613 20.9664 40.6355 21.0089 40.7949 21.0865C40.9544 21.164 41.0954 21.2748 41.2085 21.4115L57.637 40.294C61.5192 39.2974 65.5149 38.8129 69.5226 38.8527ZM53.5035 82.264C53.7293 82.4895 53.9722 82.6972 54.2298 82.8855H54.2034C54.6341 83.1448 55.0795 83.3787 55.5372 83.5863C58.1521 84.8161 62.9327 85.9797 69.6018 85.9797C78.6745 85.9797 84.2343 83.8243 85.6474 82.264C85.8494 82.0722 85.976 81.8142 86.004 81.5368V76.6442C82.5043 78.826 76.0201 79.95 69.6018 79.95C64.9144 80.0407 60.2451 79.3434 55.7881 77.8872C55.3377 77.7276 54.8967 77.5422 54.4675 77.3318C54.0128 77.1318 53.5716 76.9021 53.1469 76.6442V81.5368C53.1749 81.8142 53.3014 82.0722 53.5035 82.264ZM19.8144 43.0577L49.0794 83.8905L50.8754 83.0177C50.8098 82.9065 50.7609 82.7862 50.7302 82.6607C50.6027 82.3773 50.531 82.072 50.5189 81.7615C50.5125 81.6867 50.5125 81.6116 50.5189 81.5368V64.0955C50.0148 64.2549 49.4892 64.3351 48.9605 64.3336C48.5169 64.3362 48.0743 64.2918 47.6399 64.2013C45.2664 63.5906 43.2272 62.0711 41.9612 59.9699C39.5049 56.122 39.835 51.4278 42.7272 49.5105C43.3322 49.1237 44.0095 48.8644 44.718 48.7485C45.4264 48.6325 46.151 48.6624 46.8475 48.8361C48.2 49.1367 49.4514 49.7837 50.4792 50.7138V46.5882C50.4728 46.509 50.4728 46.4294 50.4792 46.3502V45.9535C50.4792 43.97 52.2093 42.3965 54.9297 41.2461L40.1256 24.1883L19.8144 43.0577ZM69.5754 41.4973C66.2366 41.4604 62.9046 41.8065 59.6444 42.5287H59.5915C59.3113 42.6222 59.0702 42.6649 58.8276 42.7078C58.6244 42.7437 58.4204 42.7798 58.1917 42.8461C57.6898 42.9915 57.2144 43.1502 56.7918 43.2957C54.4675 44.2345 53.1469 45.1998 53.1469 45.9403C53.1469 46.6808 54.5732 47.7651 57.2144 48.6642C58.9361 49.2274 60.7036 49.6389 62.4969 49.894L64.4646 50.132C64.5404 50.1394 64.6189 50.1473 64.6994 50.1555L64.7071 50.1562L64.7093 50.1565C65.2018 50.2063 65.7739 50.2642 66.3267 50.2642C67.3568 50.37 68.4396 50.37 69.5753 50.37C73.7515 50.4661 77.9162 49.8901 81.91 48.6642C84.5777 47.7651 85.9775 46.6808 85.9775 45.9403C85.9775 44.4328 80.1404 41.4973 69.5754 41.4973ZM69.5226 77.3054C80.1404 77.3054 85.9247 74.3699 85.9247 72.8624V67.5732C82.4251 69.755 75.9408 70.879 69.5226 70.879C64.8167 70.9722 60.1289 70.2703 55.6561 68.803C55.1939 68.6178 54.7449 68.4327 54.3355 68.2344C53.9151 68.0434 53.5091 67.8225 53.1205 67.5732V72.8624C53.1205 73.2723 53.5431 73.7748 54.3619 74.3037C54.781 74.5751 55.2229 74.8095 55.6825 75.0046C60.0956 76.6913 64.8019 77.4737 69.5226 77.3054ZM69.5226 59.3749C72.2259 59.392 74.9255 59.1752 77.5916 58.727C78.6476 58.5317 79.6923 58.28 80.7215 57.9733C84.0362 57.0344 85.8191 55.8047 85.9115 54.9716C85.9177 54.9456 85.9177 54.9183 85.9115 54.8923V49.6692C82.4119 51.8378 75.9276 52.9617 69.5094 52.9617H68.6246H66.8682C66.6084 52.9506 66.3464 52.928 66.0849 52.9054C65.7216 52.8741 65.3593 52.8427 65.0061 52.8427C60.199 52.3799 55.7617 51.3882 53.1205 49.7353V56.6113C53.2356 56.7025 53.3595 56.7823 53.4903 56.8493C53.6619 56.9286 53.8336 57.008 54.0581 57.0873L54.3355 57.1931C54.4159 57.2209 54.4922 57.2481 54.5687 57.2752C54.8562 57.3776 55.145 57.4804 55.6561 57.6162C56.3032 57.7881 57.0295 57.9733 57.8483 58.1452C58.8784 58.37 60.0273 58.5815 61.2687 58.7667C64.0024 59.1629 66.7605 59.3662 69.5226 59.3749ZM25.1598 74.523C26.0855 75.4453 27.2885 76.0373 28.5833 76.2079C29.1531 76.2814 29.6768 76.5588 30.0581 76.9891C30.4392 77.4194 30.6518 77.9733 30.6567 78.5483V78.6938C30.655 79.2712 30.4438 79.8282 30.0623 80.2613C29.6809 80.6943 29.1553 80.9737 28.5833 81.0475C27.2759 81.2108 26.0592 81.8025 25.1228 82.7305C24.1863 83.6585 23.5829 84.8707 23.4065 86.178C23.3418 86.7473 23.0709 87.2732 22.6449 87.6557C22.219 88.0384 21.6676 88.2513 21.0954 88.2541H20.9501C20.377 88.2444 19.8271 88.0254 19.4038 87.6383C18.9807 87.251 18.7134 86.7223 18.6523 86.1516C18.4703 84.8557 17.8695 83.6552 16.9419 82.7336C16.0142 81.8118 14.8106 81.2197 13.515 81.0475C12.9595 80.9825 12.4448 80.7222 12.0628 80.3131C11.6807 79.9038 11.4559 79.3723 11.4285 78.8128V78.588C11.4397 78.0106 11.658 77.4564 12.0435 77.0266C12.429 76.5969 12.956 76.3204 13.5283 76.2475C14.8268 76.0673 16.0302 75.4651 16.9536 74.5334C17.8769 73.6017 18.4691 72.3921 18.6391 71.0905C18.7032 70.5186 18.9732 69.9898 19.3986 69.6028C19.8239 69.2159 20.3755 68.9973 20.9501 68.9881H21.1086C21.6905 68.9938 22.2503 69.2118 22.6831 69.6014C23.1158 69.9909 23.3918 70.5251 23.4593 71.1038C23.6364 72.3994 24.2339 73.6008 25.1598 74.523ZM23.2907 80.8618C24.3691 79.7867 25.7119 79.016 27.1835 78.6277C25.7135 78.2405 24.3717 77.4717 23.2935 76.3991C22.2152 75.3264 21.4388 73.9878 21.0426 72.5186C20.6572 73.9832 19.8946 75.3209 18.8308 76.3976C17.7671 77.4744 16.4394 78.2525 14.9809 78.6541C16.4371 79.0475 17.764 79.818 18.8282 80.8882C19.8923 81.9583 20.656 83.2903 21.0426 84.75C21.4368 83.2782 22.2123 81.9369 23.2907 80.8618Z" fill="#021414"/>
</svg>
