<svg width="100" height="100" viewBox="0 0 100 100" fill="none" xmlns="http://www.w3.org/2000/svg">
<path fill-rule="evenodd" clip-rule="evenodd" d="M38.1439 9.78102C37.9383 9.66479 37.7659 9.49659 37.6435 9.29288L36.6886 7.62061C36.5631 7.31214 36.5519 6.96829 36.6572 6.65222C36.7624 6.33614 36.977 6.06927 37.2611 5.90094C37.5454 5.73247 37.8801 5.67401 38.2036 5.73606C38.5271 5.79811 38.8175 5.97653 39.0214 6.23857L39.9899 7.85556C40.1756 8.16914 40.231 8.54437 40.1441 8.89928C40.0572 9.25418 39.835 9.55975 39.5261 9.74895C39.3129 9.88274 39.0675 9.95446 38.8167 9.95626C38.5813 9.95764 38.3495 9.89725 38.1439 9.78102ZM88.0919 51.9288C87.5217 50.4449 86.5253 49.1685 85.2314 48.2644C83.9378 47.3602 82.406 46.8699 80.8343 46.8568C80.4935 46.8351 80.1519 46.8351 79.8112 46.8568C80.0033 44.2716 79.9301 41.6733 79.5929 39.1035C79.5996 39.0484 79.5996 38.9927 79.5929 38.9377C79.5929 37.4589 78.7471 35.4687 75.664 33.6306C75.3599 33.434 75.0457 33.254 74.7227 33.0916C74.8725 32.8411 75.0092 32.5828 75.1319 32.3177C76.4821 29.4555 76.9207 26.2391 76.387 23.1133C75.9615 21.084 75.0857 19.1796 73.826 17.5441C72.5661 15.9086 70.9554 14.5851 69.1158 13.674C58.8842 8.00758 46.1016 12.4301 45.5968 12.6098L29.6083 17.8615C28.936 17.5936 28.217 17.4665 27.4949 17.488C26.7727 17.5093 26.0623 17.6787 25.4066 17.9859C25.0824 18.1494 24.7798 18.3538 24.5062 18.594C23.9361 18.2101 23.2967 17.9442 22.6248 17.8114C21.9528 17.6786 21.2617 17.6815 20.5909 17.8201C18.0262 18.1518 17.0576 20.5842 16.7984 22.5052C15.4683 22.4952 14.1742 22.9436 13.1287 23.7767C12.5587 24.2807 12.11 24.9101 11.8169 25.6167C11.5237 26.3234 11.3938 27.0885 11.4371 27.8537C11.4371 31.2535 14.1655 33.064 16.8939 33.8932C17.4703 34.5429 18.2109 35.0208 19.0357 35.2752L33.2508 40.3612L33.8783 40.5823C33.8134 40.7111 33.7761 40.8523 33.7692 40.9969C33.624 43.0443 33.624 45.0996 33.7692 47.147C33.0614 46.9073 32.3189 46.7906 31.5728 46.8015C29.9674 46.794 28.3996 47.2946 27.0886 48.2333C25.7775 49.1721 24.7886 50.5022 24.2598 52.0379C23.7309 53.5735 23.6886 55.2381 24.1388 56.7994C24.589 58.3606 25.5092 59.7404 26.7708 60.7463C29.0826 62.7404 31.8414 64.1307 34.806 64.7956C37.0997 65.4395 39.3395 66.2667 41.5042 67.2695C41.5862 67.3094 41.6735 67.3374 41.7634 67.3524C43.4243 69.5684 45.2195 71.6777 47.1384 73.6683C47.6295 74.1935 48.0797 74.6634 48.5026 75.0504C49.3133 75.9893 49.9244 77.0877 50.2976 78.2766C50.6707 79.4655 50.7982 80.7195 50.6717 81.9606C50.6132 82.5144 50.419 83.0447 50.107 83.5032C49.7949 83.9618 49.3747 84.3341 48.8846 84.5865C47.425 85.2843 45.8852 85.7949 44.3008 86.1067C42.0473 86.4551 39.9273 87.4097 38.1619 88.8708C37.8159 89.213 37.5592 89.6369 37.4149 90.1045C37.2707 90.5721 37.2432 91.0687 37.3352 91.5495C37.4271 92.0304 37.6356 92.4807 37.9419 92.8599C38.248 93.239 38.6424 93.5352 39.0896 93.7218C42.2409 95.0209 48.3662 95.7119 56.8243 95.7119C65.2824 95.7119 71.3804 95.0209 74.559 93.7218C75.0078 93.5263 75.4014 93.2205 75.7039 92.8319C76.0065 92.4434 76.2084 91.9844 76.2915 91.4967C76.3821 91.017 76.3534 90.5221 76.2082 90.0564C76.0629 89.5908 75.8056 89.169 75.4593 88.8293C73.6872 87.3706 71.5636 86.4164 69.3068 86.0652C67.7195 85.7678 66.1752 85.2711 64.7094 84.5865C64.1764 84.3213 63.7123 83.9329 63.3545 83.4529C62.9968 82.9728 62.7552 82.4143 62.6494 81.8224C62.5553 80.6011 62.725 79.3738 63.1467 78.2258C63.5684 77.0777 64.2321 76.0365 65.0914 75.1748C65.4143 74.8195 65.7497 74.4643 66.0893 74.1047C66.2518 73.9327 66.4151 73.7598 66.5784 73.5854C68.685 71.43 70.632 69.1203 72.4035 66.6752C74.1185 65.9661 75.872 65.357 77.6557 64.8509C80.6223 64.1918 83.3824 62.8009 85.6909 60.8015C86.9533 59.76 87.8633 58.3452 88.2937 56.7547C88.7241 55.1639 88.6535 53.4769 88.0919 51.9288ZM40.5493 17.2258L46.429 15.3048C46.4369 15.3048 46.4946 15.2872 46.5979 15.2557C48.0972 14.7996 59.2154 11.4167 67.7789 16.1616C69.2785 16.8825 70.5932 17.9449 71.6203 19.266C72.6474 20.5871 73.359 22.1308 73.6995 23.7767C74.0119 25.5227 73.9327 27.3176 73.4676 29.0284C71.585 22.6158 65.8008 18.9533 59.8255 17.5575C56.5787 16.7974 50.2761 17.8615 43.9598 19.3541C43.0058 18.3781 41.8157 17.6729 40.5083 17.3087L40.5493 17.2258ZM16.2664 30.6869C15.6929 30.4762 15.1907 30.1045 14.8185 29.6148C14.4464 29.1252 14.2198 28.5382 14.1655 27.9228C14.1272 27.5711 14.1688 27.2152 14.2869 26.8823C14.4052 26.5493 14.5969 26.2482 14.8476 26.0018C15.4373 25.5968 16.1414 25.3979 16.853 25.4351C17.1687 25.4317 17.4839 25.4594 17.7943 25.518C18.0082 25.5595 18.2288 25.5486 18.4376 25.4861C18.6465 25.4235 18.8375 25.3113 18.9948 25.1587C19.153 25.0187 19.2772 24.8436 19.3577 24.6471C19.438 24.4504 19.4727 24.2377 19.4586 24.0254C19.4586 24.0254 19.3495 20.8744 20.932 20.6809C21.2137 20.6632 21.4961 20.6632 21.7778 20.6809C22.1613 20.6535 22.5435 20.7503 22.8691 20.9573C22.9618 21.0337 23.0324 21.1339 23.0738 21.2475C23.053 21.3617 23.053 21.4788 23.0738 21.593C23.1004 21.704 23.1417 21.811 23.1965 21.9109C23.2979 22.0899 23.4375 22.2436 23.605 22.3608C23.7727 22.478 23.9641 22.5556 24.1651 22.5881H24.5471C24.7358 22.5706 24.9179 22.5091 25.0792 22.4084C25.3454 22.2519 25.5448 22.0006 25.6385 21.7036C25.8295 21.1508 26.5116 19.9484 28.7079 20.7085C28.924 20.7768 29.1238 20.8897 29.2946 21.0402C29.4212 21.1154 29.5285 21.2195 29.6083 21.3443C29.2756 21.9662 29.0845 22.6556 29.049 23.3621C29.0422 23.431 29.0422 23.5004 29.049 23.5694L27.18 24.0807C27.0709 24.0807 24.3698 24.8408 21.2048 26.0709C20.0928 26.4162 19.0717 27.0105 18.2171 27.8095C17.3622 28.6084 16.6956 29.5917 16.2664 30.6869ZM22.7464 33.6997L20.7683 32.9811L20.0316 32.7185C19.6087 32.5665 18.8993 32.2348 18.8993 31.751C18.8861 31.6825 18.8861 31.6121 18.8993 31.5437C19.2163 30.8574 19.6751 30.2481 20.2447 29.7569C20.8142 29.2657 21.4813 28.9042 22.2007 28.6967C25.2429 27.522 27.8894 26.8033 27.9986 26.7757L29.581 26.2505L30.9452 25.8221L31.3818 25.6977L31.8593 25.5457L32.8551 25.2416L34.765 24.6612C36.4294 24.1775 38.2165 23.6661 40.0582 23.1824H40.1264C40.713 23.0027 41.3269 22.8369 41.9135 22.7125H42.009L43.8234 22.2564C50.1533 20.7224 56.3604 19.6305 59.2116 20.2939C63.0723 21.1923 71.2849 24.2189 71.3258 33.4648V33.8103C71.3029 34.9295 71.1797 36.0444 70.9575 37.141C70.5738 39.301 69.7159 41.3461 68.4473 43.1252C67.9211 43.8163 67.3167 44.4425 66.6466 44.991C63.4116 45.6352 60.1211 45.95 56.8243 45.9308H56.606L52.7589 44.5487L36.1974 38.523L34.0011 37.7491L22.7464 33.6997ZM35.6381 62.1974C33.0677 61.6523 30.669 60.4752 28.6534 58.7699C26.0887 56.379 26.457 54.0986 26.8936 52.9377C27.2714 51.9761 27.9207 51.1485 28.7602 50.5586C29.5997 49.9687 30.5922 49.6425 31.6137 49.6208C32.0571 49.5871 32.5025 49.6486 32.9209 49.8009C33.3393 49.9534 33.7213 50.1934 34.042 50.5053C34.1221 50.5912 34.1951 50.6836 34.2603 50.7817C34.6699 53.3208 35.399 55.7963 36.4294 58.148C37.2086 59.9186 38.0923 61.64 39.0759 63.303C38.839 63.222 38.6079 63.1422 38.3814 63.0639L38.3809 63.0637C37.4085 62.7276 36.5232 62.4216 35.6381 62.1974ZM73.3585 59.7927C72.5776 61.3298 71.7027 62.816 70.7392 64.2428C68.8985 66.8879 66.8403 69.3706 64.5866 71.6644L63.0723 73.2952C61.9188 74.4596 61.0371 75.8706 60.4918 77.425C59.9465 78.9794 59.7514 80.6377 59.921 82.2785C60.081 83.3046 60.4817 84.2769 61.0895 85.1137C61.6971 85.9507 62.4941 86.6276 63.4134 87.088C65.0691 87.8967 66.8205 88.4866 68.6247 88.8432C70.4114 89.078 72.1104 89.7673 73.5631 90.8471C73.5777 90.8696 73.5856 90.896 73.5856 90.9231C73.5856 90.9501 73.5777 90.9765 73.5631 90.9991C73.558 91.0313 73.5455 91.062 73.5265 91.0884C73.5076 91.1148 73.4826 91.1362 73.454 91.1512C71.8715 91.8145 67.5606 92.8787 56.797 92.8787C46.0334 92.8787 41.7907 91.7593 40.1264 91.0959C40.0943 91.0839 40.0661 91.0635 40.0445 91.0367C40.023 91.0101 40.0088 90.978 40.0036 90.9439C39.9916 90.9204 39.9853 90.8942 39.9853 90.8678C39.9853 90.8413 39.9916 90.8153 40.0036 90.7918C41.4539 89.7361 43.1425 89.0659 44.9147 88.8432C46.7189 88.4866 48.4703 87.8967 50.126 87.088C50.9758 86.6425 51.7093 85.9996 52.2666 85.2116C52.8239 84.4237 53.1889 83.5132 53.3319 82.5549C53.5226 80.8995 53.3698 79.2219 52.8836 77.6298C52.3973 76.0377 51.5882 74.566 50.508 73.309L49.1438 71.8164C44.87 67.5557 41.3941 62.5454 38.8849 57.0286C38.6545 56.5187 38.4496 55.9976 38.271 55.4669C38.0619 54.9232 37.8846 54.3842 37.739 53.8499C37.3348 52.526 37.0337 51.172 36.8386 49.8005C36.5592 48.0083 36.4134 46.1972 36.4021 44.3829C39.7717 46.9259 46.1971 48.1697 52.6498 48.529C53.2177 48.529 53.7889 48.5533 54.3585 48.5775C54.9246 48.6017 55.489 48.6258 56.0467 48.6258L56.6469 48.8469C56.7009 48.7648 56.7705 48.6943 56.8516 48.6396H57.0153H59.3344H59.8664H60.7123C61.3562 48.6396 61.9837 48.5568 62.6076 48.4746C62.7899 48.4505 62.9721 48.4265 63.1542 48.4046H63.3725C64.8549 48.2203 66.2874 47.9853 67.6697 47.6998C68.611 47.4925 69.525 47.2575 70.3981 46.995C72.7961 46.3703 75.0521 45.2815 77.0418 43.7886C77.0628 45.2935 76.99 46.7984 76.8235 48.2941C76.597 50.646 76.1072 52.9643 75.3638 55.2043C75.1319 55.8815 74.8727 56.5863 74.5726 57.2359C74.2588 57.9822 73.8223 58.9081 73.3585 59.7927ZM36.4021 44.3829C36.4021 43.3187 36.4021 42.3789 36.4839 41.6188C36.4839 41.9856 36.4662 42.3854 36.4472 42.8126V42.8128V42.8129C36.4254 43.303 36.4021 43.8291 36.4021 44.3829ZM83.7947 58.7699C81.779 60.4752 79.3803 61.6523 76.8099 62.1974C76.6697 62.2405 76.5282 62.2838 76.3851 62.3275C75.8878 62.4793 75.3722 62.6369 74.8318 62.8193C75.6926 61.3088 76.4758 59.7542 77.1782 58.1618C78.3189 55.518 79.0945 52.7278 79.4837 49.8696C79.9236 49.7228 80.3849 49.6526 80.848 49.6623C81.8695 49.684 82.8619 50.0102 83.7015 50.6C84.541 51.19 85.1902 52.0176 85.5681 52.9792C85.991 54.0986 86.3594 56.379 83.7947 58.7699ZM32.8415 28.8488C32.5856 28.7023 32.2965 28.6251 32.0025 28.6251C31.7085 28.6251 31.4194 28.7023 31.1635 28.8488C30.9 29.0052 30.6867 29.2356 30.5496 29.5121C30.4294 29.7268 30.3682 29.9701 30.3723 30.217C30.3421 30.5585 30.4113 30.9014 30.5713 31.2035C30.7312 31.5056 30.9751 31.7535 31.2727 31.9169C31.6748 32.1267 32.1423 32.1673 32.5738 32.0302C33.0055 31.8931 33.3663 31.5892 33.5782 31.1844C33.7842 30.7753 33.8224 30.3005 33.6844 29.8629C33.5464 29.4255 33.2435 29.061 32.8415 28.8488ZM60.2894 42.6692C60.5885 42.8296 60.9281 42.8964 61.2649 42.8606C61.6016 42.8249 61.9201 42.6884 62.18 42.4686C62.4399 42.2489 62.6294 41.9556 62.7242 41.6264C62.819 41.2972 62.815 40.9467 62.7126 40.6199C62.6101 40.2929 62.4141 40.0043 62.1492 39.7908C61.8843 39.5771 61.5626 39.4483 61.2252 39.4205C60.8877 39.3928 60.5498 39.4674 60.2543 39.635C59.9589 39.8025 59.7194 40.0553 59.5663 40.3612C59.3677 40.7658 59.3321 41.2327 59.467 41.6633C59.6019 42.094 59.8969 42.4547 60.2894 42.6692ZM57.7246 31.5576C57.5384 31.5595 57.3549 31.5118 57.1926 31.4194C57.0499 31.337 56.9255 31.2257 56.8269 31.0926C56.7284 30.9594 56.6578 30.8073 56.6196 30.6454C56.5608 30.3781 56.5996 30.0983 56.7288 29.8577C56.7526 29.8064 56.785 29.7597 56.8243 29.7194C56.9809 29.4957 57.2098 29.3344 57.4714 29.2638C57.7331 29.193 58.0109 29.2174 58.2567 29.3325C58.4447 29.4309 58.6025 29.5794 58.7132 29.7621C58.8238 29.9449 58.883 30.1546 58.8842 30.369C58.886 30.5621 58.8391 30.7524 58.7478 30.9218C58.6519 31.1132 58.5057 31.274 58.325 31.3862C58.1444 31.4985 57.9365 31.5578 57.7246 31.5576ZM73.2766 12.8447C73.4373 12.909 73.6085 12.9419 73.7814 12.9415C74.0546 12.9417 74.3216 12.8588 74.5478 12.7036C74.774 12.5484 74.949 12.3278 75.0501 12.0708L76.1824 9.22378C76.2495 9.05503 76.2832 8.8744 76.2815 8.69239C76.2799 8.51051 76.2428 8.33056 76.1726 8.16306C76.1022 7.9957 76 7.84381 75.8717 7.71639C75.7436 7.58882 75.5918 7.48821 75.4252 7.42022C75.2587 7.35208 75.0804 7.31795 74.9008 7.31974C74.7212 7.3214 74.5435 7.35899 74.3783 7.43017C74.213 7.50134 74.0631 7.60485 73.9373 7.73477C73.8115 7.86468 73.7121 8.0185 73.645 8.18725L72.5127 11.0481C72.4462 11.2168 72.4132 11.3972 72.4157 11.5789C72.4181 11.7605 72.4559 11.94 72.5268 12.1069C72.5978 12.2738 72.7005 12.4249 72.8292 12.5515C72.9579 12.6781 73.1099 12.7777 73.2766 12.8447ZM70.0417 50.1797C70.3205 49.9464 70.6793 49.8349 71.0393 49.8696C71.2214 49.8866 71.3982 49.9406 71.5592 50.0284C71.7203 50.116 71.8623 50.2356 71.9769 50.38C72.0914 50.5244 72.1761 50.6907 72.226 50.8688C72.2758 51.0471 72.2899 51.2337 72.2671 51.4175C72.0926 53.1689 71.736 54.8969 71.203 56.5725C71.11 56.8421 70.9367 57.076 70.707 57.2418C70.4774 57.4077 70.2026 57.4974 69.9207 57.4985C69.7671 57.4967 69.6148 57.4686 69.4705 57.4155C69.2964 57.3621 69.1345 57.2739 68.9945 57.1563C68.8545 57.0385 68.7391 56.8936 68.6552 56.7301C68.5715 56.5666 68.5206 56.3876 68.506 56.2039C68.4914 56.0202 68.5132 55.8353 68.5701 55.6604C69.041 54.1802 69.3699 52.6575 69.5523 51.1134C69.5868 50.7487 69.7628 50.4129 70.0417 50.1797Z" fill="#021414"/>
</svg>
