<svg width="100" height="100" viewBox="0 0 100 100" fill="none" xmlns="http://www.w3.org/2000/svg">
<path d="M74.2 30.55V74.37C74.2 74.6352 74.0946 74.8896 73.9071 75.0771C73.7196 75.2647 73.4652 75.37 73.2 75.37H58.62C58.4375 75.3721 58.2579 75.3242 58.1006 75.2315C57.9434 75.1389 57.8145 75.0049 57.728 74.8442C57.6414 74.6835 57.6005 74.5021 57.6097 74.3198C57.6189 74.1375 57.6778 73.9612 57.78 73.81C58.6926 72.5367 59.2365 71.0364 59.3519 69.474C59.4672 67.9117 59.1496 66.3478 58.4339 64.9542C57.7181 63.5606 56.632 62.3914 55.295 61.575C53.9579 60.7586 52.4216 60.3267 50.855 60.3267C49.2884 60.3267 47.7521 60.7586 46.415 61.575C45.078 62.3914 43.9919 63.5606 43.2761 64.9542C42.5604 66.3478 42.2428 67.9117 42.3581 69.474C42.4735 71.0364 43.0174 72.5367 43.93 73.81C44.0433 73.9572 44.1134 74.133 44.1324 74.3178C44.1514 74.5025 44.1186 74.6889 44.0376 74.8561C43.9566 75.0233 43.8307 75.1645 43.6739 75.2641C43.5171 75.3638 43.3357 75.4177 43.15 75.42H28.54C28.2748 75.42 28.0204 75.3147 27.8329 75.1271C27.6454 74.9396 27.54 74.6852 27.54 74.42V62.08C27.5393 61.8797 27.4785 61.6843 27.3654 61.5189C27.2523 61.3536 27.0922 61.226 26.9058 61.1528C26.7194 61.0795 26.5153 61.0639 26.3199 61.108C26.1245 61.1521 25.9469 61.2538 25.81 61.4C24.659 62.6848 23.1452 63.59 21.4687 63.9958C19.7922 64.4017 18.0319 64.2891 16.4208 63.673C14.8096 63.0568 13.4234 61.9662 12.4455 60.5452C11.4676 59.1243 10.944 57.44 10.944 55.715C10.944 53.9901 11.4676 52.3058 12.4455 50.8848C13.4234 49.4639 14.8096 48.3732 16.4208 47.7571C18.0319 47.1409 19.7922 47.0284 21.4687 47.4342C23.1452 47.8401 24.659 48.7452 25.81 50.03C25.9475 50.1727 26.1243 50.2714 26.318 50.3134C26.5117 50.3554 26.7135 50.339 26.8978 50.2661C27.0821 50.1932 27.2405 50.0673 27.3531 49.9042C27.4657 49.7411 27.5273 49.5482 27.53 49.35V31.55C27.53 31.2848 27.6354 31.0304 27.8229 30.8429C28.0104 30.6554 28.2648 30.55 28.53 30.55H43.47C43.6584 30.5513 43.8426 30.6057 44.0014 30.707C44.1602 30.8084 44.2871 30.9525 44.3676 31.1229C44.4481 31.2932 44.4788 31.4828 44.4562 31.6698C44.4336 31.8569 44.3587 32.0337 44.24 32.18C43.2258 33.4487 42.5959 34.9811 42.4246 36.5963C42.2533 38.2115 42.5478 39.842 43.2733 41.2952C43.9989 42.7483 45.1251 43.9635 46.5191 44.7972C47.913 45.6309 49.5165 46.0483 51.14 46C52.9299 45.9503 54.6584 45.3366 56.0789 44.2465C57.4994 43.1563 58.5394 41.6454 59.0504 39.9293C59.5615 38.2132 59.5175 36.3795 58.9249 34.6899C58.3322 33.0002 57.2211 31.5409 55.75 30.52L74.2 30.55Z" fill="#434D59"/>
<path d="M71.04 44.27C79.871 44.27 87.03 37.1111 87.03 28.28C87.03 19.449 79.871 12.29 71.04 12.29C62.209 12.29 55.05 19.449 55.05 28.28C55.05 37.1111 62.209 44.27 71.04 44.27Z" fill="white"/>
<path d="M79.81 13.6599C76.9179 11.9937 73.5968 11.2224 70.2664 11.4433C66.936 11.6642 63.7459 12.8674 61.0992 14.901C58.4525 16.9345 56.4681 19.7071 55.3968 22.8682C54.3255 26.0292 54.2153 29.437 55.0803 32.6607C55.9452 35.8843 57.7464 38.7792 60.2563 40.9795C62.7661 43.1797 65.8719 44.5864 69.1811 45.0219C72.4902 45.4575 75.8542 44.9022 78.8479 43.4262C81.8415 41.9503 84.3304 39.62 86 36.7299C87.1177 34.811 87.8443 32.6899 88.138 30.4887C88.4317 28.2876 88.2866 26.0501 87.7111 23.9054C87.1357 21.7606 86.1412 19.751 84.7851 17.9925C83.429 16.2341 81.7381 14.7615 79.81 13.6599ZM67.55 13.9999C68.8022 13.663 70.0932 13.4915 71.39 13.4899C73.9782 13.4936 76.5196 14.1796 78.7581 15.4788C80.9966 16.778 82.8529 18.6444 84.14 20.8899H71.37C69.7294 20.8828 68.1337 21.4256 66.8377 22.4316C65.5417 23.4376 64.6201 24.8488 64.22 26.4399L59.91 18.9999C61.8571 16.5598 64.5346 14.8075 67.55 13.9999ZM75.94 30.9099C75.6047 31.5317 75.1481 32.0798 74.5971 32.5219C74.0462 32.964 73.4121 33.291 72.7325 33.4837C72.0529 33.6763 71.3415 33.7306 70.6405 33.6433C69.9396 33.5561 69.2632 33.3291 68.6515 32.9757C68.0399 32.6224 67.5053 32.1499 67.0796 31.5862C66.6538 31.0226 66.3455 30.3792 66.1728 29.6943C66.0002 29.0093 65.9667 28.2966 66.0744 27.5985C66.1822 26.9004 66.4289 26.231 66.8 25.6299C67.5296 24.4803 68.675 23.657 69.9971 23.3319C71.3193 23.0068 72.7159 23.2049 73.8954 23.885C75.0749 24.5651 75.9461 25.6745 76.3271 26.9817C76.7081 28.2888 76.5694 29.6926 75.94 30.8999V30.9099ZM58.57 20.9099L65 31.9999C65.644 33.1234 66.5729 34.0571 67.6931 34.7067C68.8133 35.3564 70.0851 35.6989 71.38 35.6999C72.0563 35.6973 72.729 35.6031 73.38 35.4199L69.07 42.8899C66.6958 42.5234 64.4471 41.5821 62.5197 40.148C60.5924 38.7139 59.0448 36.8304 58.0116 34.6616C56.9785 32.4927 56.4911 30.1042 56.5919 27.704C56.6927 25.3037 57.3786 22.9645 58.59 20.8899L58.57 20.9099ZM84.16 35.6699C82.8592 37.9047 80.9938 39.7583 78.7507 41.0448C76.5077 42.3313 73.9658 43.0056 71.38 42.9999L77.77 31.9999C78.2547 31.1588 78.5686 30.2303 78.6939 29.2676C78.8192 28.305 78.7533 27.3271 78.5 26.3899C78.1556 25.1071 77.4634 23.9443 76.5 23.0299H85.13C85.9181 25.0764 86.24 27.2729 86.0722 29.4594C85.9044 31.646 85.2512 33.7676 84.16 35.6699Z" fill="#434D59"/>
</svg>
