<svg width="100" height="100" viewBox="0 0 100 100" fill="none" xmlns="http://www.w3.org/2000/svg">
<path d="M62.45 47C62.45 48.5356 63.06 50.0083 64.1459 51.0941C65.2317 52.18 66.7044 52.79 68.24 52.79V61.05H50.12V58.85C50.0903 58.4978 49.9294 58.1697 49.6692 57.9305C49.409 57.6914 49.0684 57.5586 48.715 57.5586C48.3616 57.5586 48.0211 57.6914 47.7608 57.9305C47.5006 58.1697 47.3397 58.4978 47.31 58.85V61.07H13.1V52.74C13.335 52.7782 13.5721 52.8015 13.81 52.81C15.3053 52.7479 16.7187 52.1102 17.7547 51.0302C18.7907 49.9502 19.3692 48.5116 19.3692 47.015C19.3692 45.5184 18.7907 44.0798 17.7547 42.9998C16.7187 41.9198 15.3053 41.2821 13.81 41.22C13.57 41.22 13.34 41.27 13.1 41.29V33H47.31V35C47.2997 35.0461 47.2997 35.0939 47.31 35.14C47.3378 35.4857 47.4957 35.808 47.7518 36.0418C48.0079 36.2756 48.3432 36.4037 48.69 36.4C49.0389 36.404 49.3766 36.2767 49.6359 36.0433C49.8953 35.8098 50.0574 35.4874 50.09 35.14C50.09 35.14 50.09 35.03 50.09 35V33H68.24V41.25C66.7121 41.2526 65.2469 41.8579 64.1628 42.9346C63.0787 44.0112 62.4632 45.4722 62.45 47Z" fill="#434D59"/>
<path d="M48.71 44.7998C48.3387 44.7998 47.9826 44.9473 47.72 45.2099C47.4575 45.4724 47.31 45.8285 47.31 46.1998V47.6098C47.3397 47.962 47.5006 48.2901 47.7608 48.5293C48.021 48.7684 48.3616 48.9012 48.715 48.9012C49.0684 48.9012 49.4089 48.7684 49.6692 48.5293C49.9294 48.2901 50.0903 47.962 50.12 47.6098V46.1998C50.1174 45.8276 49.9676 45.4715 49.7035 45.2092C49.4394 44.947 49.0822 44.7998 48.71 44.7998Z" fill="white"/>
<path d="M80 43.5302C80 46.7802 83.07 49.4102 86.86 49.4102C87.3022 49.4091 87.7437 49.3724 88.18 49.3002C88.5036 49.2512 88.8335 49.3301 89.1 49.5202L92.31 51.8002C92.4156 51.9183 92.5618 51.9923 92.7195 52.0075C92.8772 52.0226 93.0348 51.9778 93.1609 51.8819C93.2871 51.7861 93.3725 51.6462 93.4001 51.4902C93.4277 51.3342 93.3955 51.1735 93.31 51.0402L92.17 48.3902C92.0774 48.168 92.0499 47.924 92.0906 47.6868C92.1313 47.4495 92.2386 47.2288 92.4 47.0502C93.2635 46.0795 93.7465 44.8292 93.76 43.5302C93.76 40.2902 90.69 37.6602 86.9 37.6602C83.11 37.6602 80 40.2902 80 43.5302Z" fill="#434D59"/>
<path d="M61.08 73.5901C61.08 78.2701 56.65 82.0701 51.2 82.0701C50.5565 82.073 49.9141 82.0195 49.28 81.9101C49.0513 81.8747 48.8179 81.8848 48.5931 81.9397C48.3683 81.9946 48.1566 82.0933 47.97 82.2301L43.32 85.5201C43.1567 85.6127 42.969 85.6531 42.782 85.6359C42.5951 85.6187 42.4179 85.5447 42.2742 85.4239C42.1305 85.3031 42.0273 85.1412 41.9782 84.96C41.9292 84.7788 41.9368 84.5869 42 84.4101L43.63 80.5901C43.7659 80.2713 43.8081 79.9204 43.7514 79.5785C43.6947 79.2366 43.5416 78.918 43.31 78.6601C42.0483 77.27 41.3372 75.4672 41.31 73.5901C41.31 68.9101 45.74 65.1201 51.21 65.1201C56.68 65.1201 61.08 68.9101 61.08 73.5901Z" fill="#434D59"/>
<path d="M48.72 79.5598C48.4548 79.5598 48.2004 79.4545 48.0129 79.2669C47.8254 79.0794 47.72 78.825 47.72 78.5598C47.72 78.2946 47.8254 78.0402 48.0129 77.8527C48.2004 77.6652 48.4548 77.5598 48.72 77.5598H49.72C49.9852 77.5532 50.2422 77.6522 50.4344 77.835C50.6267 78.0179 50.7384 78.2696 50.745 78.5348C50.7516 78.8 50.6526 79.057 50.4698 79.2492C50.2869 79.4415 50.0352 79.5532 49.77 79.5598H48.72ZM57.61 78.3798C57.3448 78.4156 57.0762 78.3446 56.8634 78.1824C56.6505 78.0202 56.5108 77.78 56.475 77.5148C56.4392 77.2496 56.5102 76.981 56.6724 76.7682C56.8347 76.5553 57.0748 76.4156 57.34 76.3798L58.28 76.1098C58.5276 76.0512 58.7882 76.0891 59.0088 76.2159C59.2294 76.3427 59.3934 76.5489 59.4673 76.7923C59.5412 77.0358 59.5196 77.2983 59.4067 77.5263C59.2939 77.7544 59.0984 77.9309 58.86 78.0198L57.86 78.3098L57.61 78.3798ZM65.87 74.8898C65.6948 74.8915 65.5222 74.8472 65.3695 74.7612C65.2168 74.6752 65.0894 74.5506 65 74.3998C64.9287 74.2851 64.8814 74.1571 64.8609 74.0235C64.8404 73.89 64.8472 73.7537 64.8808 73.6229C64.9145 73.492 64.9743 73.3694 65.0566 73.2623C65.139 73.1552 65.2422 73.0659 65.36 72.9998L66.19 72.4898C66.301 72.4195 66.4247 72.3718 66.5541 72.3494C66.6835 72.327 66.8161 72.3302 66.9442 72.359C67.0724 72.3878 67.1936 72.4415 67.3009 72.5172C67.4083 72.5928 67.4997 72.6888 67.57 72.7998C67.6403 72.9108 67.688 73.0345 67.7104 73.1639C67.7329 73.2933 67.7296 73.4259 67.7008 73.554C67.672 73.6822 67.6183 73.8034 67.5426 73.9108C67.467 74.0181 67.371 74.1096 67.26 74.1798C66.97 74.3698 66.68 74.5398 66.38 74.7198C66.2287 74.822 66.0523 74.8808 65.87 74.8898ZM72.93 69.3398C72.6691 69.3414 72.4179 69.2409 72.23 69.0598C72.1363 68.9668 72.0619 68.8562 72.0111 68.7344C71.9603 68.6125 71.9342 68.4818 71.9342 68.3498C71.9342 68.2178 71.9603 68.0871 72.0111 67.9652C72.0619 67.8434 72.1363 67.7328 72.23 67.6398C72.45 67.4098 72.68 67.1798 72.89 66.9398C72.9786 66.8426 73.0856 66.7639 73.2046 66.708C73.3237 66.6521 73.4526 66.6203 73.584 66.6143C73.7154 66.6082 73.8467 66.6281 73.9704 66.6728C74.0941 66.7175 74.2078 66.7862 74.305 66.8748C74.4022 66.9635 74.4809 67.0704 74.5368 67.1895C74.5927 67.3085 74.6245 67.4375 74.6306 67.5688C74.6366 67.7002 74.6167 67.8315 74.572 67.9552C74.5273 68.0789 74.4586 68.1926 74.37 68.2898L73.66 69.0398C73.565 69.1367 73.4514 69.2133 73.3259 69.2649C73.2004 69.3164 73.0657 69.3419 72.93 69.3398ZM78.27 62.1398C78.1025 62.1406 77.9374 62.0994 77.79 62.0198C77.6751 61.9562 77.5738 61.8705 77.492 61.7677C77.4101 61.6649 77.3494 61.5469 77.3132 61.4206C77.2769 61.2943 77.266 61.1621 77.2809 61.0316C77.2958 60.901 77.3363 60.7747 77.4 60.6598L77.86 59.7998C77.9144 59.6737 77.9943 59.5601 78.0945 59.4662C78.1948 59.3722 78.3133 59.3 78.4427 59.2539C78.5722 59.2078 78.7097 59.1889 78.8468 59.1983C78.9838 59.2078 79.1175 59.2453 79.2394 59.3087C79.3613 59.372 79.4688 59.4598 79.5553 59.5666C79.6417 59.6734 79.7053 59.7968 79.7419 59.9292C79.7786 60.0616 79.7876 60.2001 79.7683 60.3362C79.749 60.4722 79.702 60.6028 79.63 60.7198C79.48 61.0198 79.32 61.3298 79.15 61.6298C79.0623 61.7858 78.9345 61.9153 78.7797 62.005C78.6249 62.0947 78.4489 62.1413 78.27 62.1398ZM81.54 53.7898C81.4603 53.7994 81.3797 53.7994 81.3 53.7898C81.1718 53.7593 81.0508 53.7037 80.9441 53.6263C80.8375 53.5489 80.7471 53.4512 80.6784 53.3387C80.6096 53.2262 80.5637 53.1013 80.5434 52.9711C80.5231 52.8408 80.5287 52.7079 80.56 52.5798C80.64 52.2698 80.71 51.9498 80.78 51.6298C80.8035 51.4951 80.8544 51.3667 80.9295 51.2524C81.0046 51.1382 81.1024 51.0406 81.2167 50.9656C81.3311 50.8906 81.4596 50.8399 81.5943 50.8165C81.729 50.7932 81.8671 50.7977 82 50.8298C82.2505 50.8917 82.4673 51.048 82.6052 51.2661C82.7431 51.4841 82.7914 51.747 82.74 51.9998C82.67 52.3298 82.59 52.6698 82.51 52.9998C82.4622 53.2222 82.3401 53.4216 82.1638 53.5652C81.9874 53.7088 81.7674 53.7881 81.54 53.7898ZM82.47 44.8598C82.2048 44.8598 81.9504 44.7545 81.7629 44.5669C81.5754 44.3794 81.47 44.125 81.47 43.8598C81.47 43.5398 81.47 43.2098 81.47 42.8598C81.4554 42.5946 81.5468 42.3344 81.724 42.1366C81.9012 41.9387 82.1498 41.8194 82.415 41.8048C82.6802 41.7902 82.9404 41.8816 83.1382 42.0588C83.3361 42.236 83.4554 42.4846 83.47 42.7498C83.47 43.0898 83.47 43.4298 83.47 43.7498C83.47 44.015 83.3646 44.2694 83.1771 44.4569C82.9896 44.6445 82.7352 44.7498 82.47 44.7498V44.8598ZM81.05 35.9998C80.8269 36.0087 80.6072 35.9426 80.4259 35.8121C80.2447 35.6816 80.1124 35.4942 80.05 35.2798C79.96 34.9698 79.86 34.6598 79.76 34.3598C79.7074 34.2333 79.6813 34.0973 79.6834 33.9603C79.6855 33.8233 79.7158 33.6882 79.7723 33.5634C79.8288 33.4386 79.9103 33.3267 80.0119 33.2347C80.1134 33.1427 80.2328 33.0725 80.3626 33.0286C80.4924 32.9846 80.6298 32.9678 80.7663 32.9792C80.9029 32.9906 81.0356 33.0299 81.1563 33.0947C81.2771 33.1595 81.3832 33.2484 81.4681 33.356C81.553 33.4635 81.6149 33.5874 81.65 33.7198C81.76 34.0498 81.87 34.3798 81.97 34.7198C82.0139 34.8452 82.0324 34.978 82.0244 35.1105C82.0164 35.2431 81.9821 35.3728 81.9234 35.4919C81.8648 35.6111 81.783 35.7174 81.6828 35.8046C81.5826 35.8918 81.4661 35.9581 81.34 35.9998C81.2438 36.0139 81.1462 36.0139 81.05 35.9998ZM77.33 27.8298C77.1601 27.8301 76.9928 27.7872 76.8441 27.7049C76.6954 27.6227 76.5701 27.5039 76.48 27.3598C76.31 27.0898 76.13 26.8198 75.95 26.5498C75.8768 26.4403 75.8259 26.3173 75.8004 26.1881C75.7748 26.0588 75.775 25.9258 75.8011 25.7966C75.8271 25.6674 75.8784 25.5447 75.952 25.4354C76.0256 25.3261 76.1201 25.2325 76.23 25.1598C76.4505 25.0151 76.7192 24.9633 76.9776 25.0157C77.2361 25.0682 77.4634 25.2206 77.61 25.4398C77.8 25.7198 77.99 26.0098 78.17 26.2998C78.2403 26.4108 78.288 26.5345 78.3105 26.6639C78.3329 26.7933 78.3296 26.9259 78.3009 27.054C78.2721 27.1822 78.2183 27.3034 78.1427 27.4108C78.067 27.5181 77.971 27.6096 77.86 27.6798C77.7019 27.782 77.5182 27.8374 77.33 27.8398V27.8298ZM71.59 20.9298C71.3387 20.9317 71.096 20.8388 70.91 20.6698L70.19 19.9998C70.0862 19.9152 70.0004 19.8106 69.9378 19.6923C69.8752 19.5739 69.837 19.4441 69.8254 19.3107C69.8139 19.1773 69.8293 19.0429 69.8707 18.9156C69.9121 18.7882 69.9786 18.6705 70.0664 18.5693C70.1541 18.4681 70.2613 18.3856 70.3815 18.3267C70.5018 18.2678 70.6326 18.2336 70.7664 18.2261C70.9001 18.2187 71.0339 18.2382 71.1599 18.2835C71.286 18.3288 71.4016 18.399 71.5 18.4898C71.76 18.7198 72.01 18.9398 72.26 19.1798C72.4056 19.3161 72.5072 19.4928 72.5516 19.6873C72.596 19.8818 72.5812 20.085 72.5092 20.271C72.4371 20.457 72.3111 20.6172 72.1473 20.7311C71.9835 20.8449 71.7894 20.9071 71.59 20.9098V20.9298Z" fill="#434D59"/>
<path d="M47.31 35C47.2997 35.0461 47.2997 35.0939 47.31 35.14V35Z" fill="white"/>
</svg>
