<svg width="100" height="100" viewBox="0 0 100 100" fill="none" xmlns="http://www.w3.org/2000/svg">
<path d="M69.3 77.3702L96.33 53.0102L85.96 43.4502L76.57 47.0302L69.3 77.3702Z" fill="#434D59"/>
<path d="M69.3 78.3698C69.1205 78.3697 68.9443 78.3214 68.79 78.2298C68.6073 78.1207 68.4642 77.9561 68.3815 77.7601C68.2988 77.5641 68.2807 77.3468 68.33 77.1398L75.6 46.7998C75.6375 46.6425 75.7126 46.4966 75.8188 46.3747C75.9251 46.2528 76.0593 46.1584 76.21 46.0998L85.61 42.5198C85.7784 42.459 85.9601 42.4446 86.136 42.478C86.3119 42.5114 86.4756 42.5915 86.61 42.7098L97 52.2798C97.1031 52.3735 97.1855 52.4878 97.2419 52.6152C97.2983 52.7426 97.3274 52.8804 97.3274 53.0198C97.3274 53.1591 97.2983 53.2969 97.2419 53.4244C97.1855 53.5518 97.1031 53.6661 97 53.7598L70 78.1198C69.8074 78.29 69.5568 78.3795 69.3 78.3698ZM77.42 47.7798L71 74.4798L94.85 52.9998L85.74 44.5998L77.42 47.7798Z" fill="#434D59"/>
<path d="M69 36.9101C75.334 36.1666 81.7537 36.7836 87.83 38.7201L67.84 77.3701" fill="white"/>
<path d="M67.84 78.3698C67.6801 78.3705 67.5223 78.3328 67.38 78.2598C67.1549 78.1297 66.9893 77.917 66.9183 77.6669C66.8474 77.4167 66.8767 77.1488 67 76.9198L86.39 39.3198C80.7774 37.7072 74.9012 37.2212 69.1 37.8898C68.9687 37.9095 68.8348 37.9032 68.7059 37.8711C68.577 37.8391 68.4557 37.7819 68.349 37.703C68.2422 37.6241 68.152 37.5249 68.0835 37.4111C68.0151 37.2973 67.9697 37.1712 67.95 37.0398C67.9303 36.9085 67.9367 36.7746 67.9687 36.6457C68.0008 36.5169 68.0579 36.3956 68.1368 36.2888C68.2157 36.182 68.3149 36.0918 68.4287 36.0234C68.5425 35.9549 68.6687 35.9095 68.8 35.8898C75.2882 35.1088 81.8685 35.7399 88.09 37.7398C88.2271 37.7857 88.3526 37.8607 88.4579 37.9597C88.5632 38.0587 88.6458 38.1794 88.7 38.3134C88.7542 38.4475 88.7787 38.5916 88.7718 38.736C88.7649 38.8804 88.7267 39.0216 88.66 39.1498L68.73 77.8298C68.6455 77.9929 68.5178 78.1295 68.3608 78.2248C68.2038 78.32 68.0236 78.3702 67.84 78.3698Z" fill="#434D59"/>
<path d="M26.32 48.1802L69.3 77.3702V30.1602H26.32V48.1802Z" fill="white"/>
<path d="M69.3 78.3699C69.1006 78.3704 68.9055 78.3112 68.74 78.1999L25.76 48.9999C25.6243 48.9082 25.5132 48.7845 25.4365 48.6398C25.3597 48.4951 25.3197 48.3337 25.32 48.1699V30.1699C25.32 29.9047 25.4254 29.6504 25.6129 29.4628C25.8004 29.2753 26.0548 29.1699 26.32 29.1699H69.32C69.5852 29.1699 69.8396 29.2753 70.0271 29.4628C70.2146 29.6504 70.32 29.9047 70.32 30.1699V77.3699C70.3213 77.5525 70.2726 77.732 70.1792 77.8889C70.0858 78.0458 69.9512 78.1741 69.79 78.2599C69.6387 78.3377 69.47 78.3755 69.3 78.3699ZM27.3 47.6499L68.3 75.4899V31.1599H27.3V47.6499Z" fill="#434D59"/>
<path d="M59.19 40.3301H31.96V62.2501H59.19V40.3301Z" fill="#434D59"/>
<path d="M59.19 63.2501H32C31.7348 63.2501 31.4804 63.1447 31.2929 62.9572C31.1054 62.7696 31 62.5153 31 62.2501V40.3301C31 40.0649 31.1054 39.8105 31.2929 39.623C31.4804 39.4354 31.7348 39.3301 32 39.3301H59.19C59.4552 39.3301 59.7096 39.4354 59.8971 39.623C60.0846 39.8105 60.19 40.0649 60.19 40.3301V62.2501C60.19 62.5153 60.0846 62.7696 59.8971 62.9572C59.7096 63.1447 59.4552 63.2501 59.19 63.2501ZM33 61.2501H58.19V41.3301H33V61.2501Z" fill="white"/>
<path d="M69.3 77.3698C69.3 61.8698 51 48.2798 51 48.2798H14.34C14.34 48.2798 32.66 61.8698 32.66 77.3698H69.3Z" fill="white"/>
<path d="M69.3 78.3701H32.66C32.3948 78.3701 32.1404 78.2647 31.9529 78.0772C31.7654 77.8896 31.66 77.6353 31.66 77.3701C31.66 62.5601 13.92 49.2201 13.74 49.0801C13.5791 48.9567 13.4594 48.7874 13.3969 48.5945C13.3344 48.4017 13.332 48.1943 13.39 48.0001C13.4554 47.7996 13.5825 47.6249 13.7531 47.501C13.9237 47.377 14.1291 47.3102 14.34 47.3101H51C51.2164 47.3101 51.4269 47.3802 51.6 47.5101C52.36 48.0801 70.32 61.5801 70.32 77.4001C70.3121 77.6635 70.2006 77.9133 70.0096 78.0949C69.8186 78.2766 69.5635 78.3754 69.3 78.3701ZM33.64 76.3701H68.28C67.56 62.9401 52.78 51.0001 50.64 49.2801H17.17C22 53.4201 33.06 64.1201 33.64 76.3701Z" fill="#434D59"/>
<path d="M36.41 22.6299H4.67C4.11771 22.6299 3.67 23.0776 3.67 23.6299V33.6199C3.67 34.1722 4.11771 34.6199 4.67 34.6199H36.41C36.9623 34.6199 37.41 34.1722 37.41 33.6199V23.6299C37.41 23.0776 36.9623 22.6299 36.41 22.6299Z" fill="white"/>
<path d="M36.41 35.6201H4.67C4.13957 35.6201 3.63086 35.4094 3.25578 35.0343C2.88071 34.6593 2.67 34.1505 2.67 33.6201V23.6201C2.67 23.0897 2.88071 22.581 3.25578 22.2059C3.63086 21.8308 4.13957 21.6201 4.67 21.6201H36.41C36.9404 21.6201 37.4491 21.8308 37.8242 22.2059C38.1993 22.581 38.41 23.0897 38.41 23.6201V33.6201C38.41 34.1505 38.1993 34.6593 37.8242 35.0343C37.4491 35.4094 36.9404 35.6201 36.41 35.6201ZM4.67 23.6201V33.6201H36.41V23.6201H4.67Z" fill="#434D59"/>
<path d="M31.57 29.3101H18.28C18.0148 29.3101 17.7604 29.2047 17.5729 29.0172C17.3854 28.8296 17.28 28.5753 17.28 28.3101C17.28 28.0448 17.3854 27.7905 17.5729 27.603C17.7604 27.4154 18.0148 27.3101 18.28 27.3101H31.57C31.8352 27.3101 32.0896 27.4154 32.2771 27.603C32.4646 27.7905 32.57 28.0448 32.57 28.3101C32.57 28.5753 32.4646 28.8296 32.2771 29.0172C32.0896 29.2047 31.8352 29.3101 31.57 29.3101Z" fill="#434D59"/>
<path d="M11.21 30.9299C12.657 30.9299 13.83 29.7569 13.83 28.3099C13.83 26.863 12.657 25.6899 11.21 25.6899C9.76301 25.6899 8.59 26.863 8.59 28.3099C8.59 29.7569 9.76301 30.9299 11.21 30.9299Z" fill="#434D59"/>
</svg>
