<svg width="100" height="100" viewBox="0 0 100 100" fill="none" xmlns="http://www.w3.org/2000/svg">
<path d="M85.84 74.5702H22.13C21.8648 74.5702 21.6104 74.4649 21.4229 74.2773C21.2354 74.0898 21.13 73.8354 21.13 73.5702V33.7202C21.13 33.455 21.2354 33.2006 21.4229 33.0131C21.6104 32.8256 21.8648 32.7202 22.13 32.7202H85.84C86.1052 32.7202 86.3596 32.8256 86.5471 33.0131C86.7346 33.2006 86.84 33.455 86.84 33.7202V73.5702C86.84 73.8354 86.7346 74.0898 86.5471 74.2773C86.3596 74.4649 86.1052 74.5702 85.84 74.5702ZM23.13 72.5702H84.84V34.7202H23.13V72.5702Z" fill="#434D59"/>
<path d="M23.12 72.7699L10.39 76.8999V77.7799L96.19 78.2899V77.0099L86.81 72.6699L23.12 72.7699Z" fill="#434D59"/>
<path d="M84.15 84.9998H22.15C10.67 84.9998 9.78 79.4598 9.78 77.7798C9.78 77.5146 9.88536 77.2602 10.0729 77.0727C10.2604 76.8851 10.5148 76.7798 10.78 76.7798C11.0452 76.7798 11.2996 76.8851 11.4871 77.0727C11.6746 77.2602 11.78 77.5146 11.78 77.7798C11.78 78.9898 12.53 82.9498 22.13 82.9498H84.13C88.86 82.9498 91.95 82.2398 93.3 80.8398C93.6439 80.4267 93.8988 79.9469 94.0485 79.4307C94.1982 78.9144 94.2396 78.3728 94.17 77.8398C94.17 77.5746 94.2754 77.3202 94.4629 77.1327C94.6504 76.9451 94.9048 76.8398 95.17 76.8398C95.4352 76.8398 95.6896 76.9451 95.8771 77.1327C96.0646 77.3202 96.17 77.5746 96.17 77.8398C96.2596 78.6451 96.1785 79.4602 95.9321 80.2321C95.6857 81.004 95.2795 81.7153 94.74 82.3198C93 84.0598 89.52 84.9998 84.15 84.9998Z" fill="#434D59"/>
<path d="M14 37.4898H65C65 37.4898 62.79 24.2998 53.45 21.7298C45.18 19.4498 42.32 25.9998 42.32 25.9998C41.6135 23.6005 40.1368 21.5004 38.1181 20.0238C36.0993 18.5472 33.6506 17.7762 31.15 17.8298C22.08 17.8298 20.87 26.6398 20.87 26.6398C20.87 26.6398 16.39 17.9298 7.99999 22.1998C2.78999 24.8398 0.199993 37.4898 14 37.4898Z" fill="white"/>
<path d="M65 38.4898H14C5.88001 38.4898 3.68001 34.3698 3.10001 31.9198C2.10001 27.9998 4.20001 22.9998 7.54001 21.3098C14.06 17.9998 18.46 21.8098 20.48 24.3098C21.2072 22.0748 22.6411 20.1367 24.5656 18.7876C26.4901 17.4384 28.801 16.7513 31.15 16.8298C33.5229 16.7595 35.8645 17.3848 37.8865 18.6285C39.9085 19.8723 41.5226 21.6802 42.53 23.8298C44.15 21.8298 47.62 19.0298 53.71 20.7098C63.56 23.4198 65.89 36.7098 65.98 37.2798C66.0034 37.4238 65.9949 37.5713 65.9552 37.7117C65.9156 37.8522 65.8456 37.9823 65.7503 38.0928C65.655 38.2033 65.5367 38.2917 65.4036 38.3516C65.2705 38.4116 65.1259 38.4417 64.98 38.4398L65 38.4898ZM12.47 21.9998C11.0725 22.029 9.70171 22.3888 8.47001 23.0498C6.17001 24.2198 4.20001 28.0498 5.01001 31.4098C5.82001 34.7698 9.01001 36.4098 14.01 36.4098H63.76C62.97 33.2398 60.22 24.5498 53.18 22.6098C45.89 20.6098 43.34 26.1098 43.24 26.3498C43.155 26.5386 43.0135 26.6964 42.8349 26.8014C42.6564 26.9063 42.4497 26.9533 42.2433 26.9357C42.037 26.9181 41.8412 26.837 41.6829 26.7033C41.5247 26.5697 41.4119 26.3903 41.36 26.1898C40.7158 24.0003 39.3647 22.0857 37.5176 20.7452C35.6704 19.4046 33.4314 18.7135 31.15 18.7798C23.09 18.7798 21.9 26.4098 21.86 26.7798C21.8307 26.9916 21.7343 27.1884 21.5849 27.3414C21.4355 27.4944 21.2411 27.5954 21.03 27.6298C20.8278 27.6619 20.6206 27.6312 20.4364 27.5418C20.2522 27.4524 20.0998 27.3085 20 27.1298C19.84 26.8698 17.28 21.9998 12.47 21.9998Z" fill="#434D59"/>
<path d="M44.28 58.41L56.22 42V52.44H63.68L51.74 68.85V58.41H44.28Z" fill="#434D59"/>
</svg>
