<svg width="100" height="100" viewBox="0 0 100 100" fill="none" xmlns="http://www.w3.org/2000/svg">
<path d="M49.12 19.4702C43.8309 19.4682 38.66 21.0348 34.2613 23.9719C29.8627 26.9089 26.4338 31.0844 24.4083 35.9703C22.3829 40.8563 21.852 46.2331 22.8826 51.4208C23.9132 56.6085 26.4592 61.3741 30.1984 65.1147C33.9377 68.8554 38.7023 71.4031 43.8896 72.4357C49.0769 73.4683 54.454 72.9393 59.3407 70.9157C64.2273 68.8921 68.4041 65.4648 71.3428 61.0672C74.2815 56.6696 75.85 51.4993 75.85 46.2102C75.8421 39.1225 73.0237 32.3272 68.0128 27.3145C63.002 22.3018 56.2077 19.4808 49.12 19.4702ZM25.12 46.2002C25.1135 42.833 25.8225 39.5028 27.2 36.4302L38.63 67.8402C34.5696 65.8675 31.1465 62.7918 28.752 58.9649C26.3575 55.138 25.0885 50.7145 25.09 46.2002H25.12ZM49.12 70.2002C46.8203 70.1964 44.5332 69.8596 42.33 69.2002L49.54 48.2002L56.93 68.4402C56.9786 68.5542 57.0354 68.6645 57.1 68.7702C54.5303 69.6759 51.8247 70.1358 49.1 70.1302L49.12 70.2002ZM52.43 35.0002C53.87 34.9302 55.18 34.7802 55.18 34.7802C55.3113 34.7704 55.4394 34.7347 55.557 34.6754C55.6745 34.616 55.7793 34.5341 55.8651 34.4343C55.951 34.3345 56.0164 34.2187 56.0576 34.0936C56.0987 33.9685 56.1149 33.8365 56.105 33.7052C56.0952 33.5739 56.0595 33.4458 56.0002 33.3282C55.9408 33.2107 55.8589 33.106 55.7591 33.0201C55.6593 32.9342 55.5435 32.8688 55.4184 32.8276C55.2933 32.7865 55.1613 32.7704 55.03 32.7802C55.03 32.7802 51.13 33.0802 48.62 33.0802C46.26 33.0802 42.29 32.7802 42.29 32.7802C42.1587 32.7704 42.0267 32.7865 41.9016 32.8276C41.7765 32.8688 41.6608 32.9342 41.5609 33.0201C41.4611 33.106 41.3792 33.2107 41.3198 33.3282C41.2605 33.4458 41.2249 33.5739 41.215 33.7052C41.2052 33.8365 41.2213 33.9685 41.2624 34.0936C41.3036 34.2187 41.369 34.3345 41.4549 34.4343C41.5408 34.5341 41.6455 34.616 41.763 34.6754C41.8806 34.7347 42.0087 34.7704 42.14 34.7802C42.14 34.7802 43.37 34.9302 44.67 35.0002L48.41 45.2002L43.15 61.0002L34.4 35.0002C35.84 34.9302 37.15 34.7802 37.15 34.7802C37.4152 34.759 37.6611 34.6333 37.8337 34.4308C38.0062 34.2282 38.0912 33.9654 38.07 33.7002C38.0488 33.435 37.9231 33.1891 37.7205 33.0165C37.518 32.844 37.2552 32.759 36.99 32.7802C36.99 32.7802 33.1 33.0802 30.59 33.0802L29 33.0002C30.9127 30.0932 33.4335 27.6358 36.3883 25.7978C39.3431 23.9598 42.6616 22.7849 46.1147 22.3542C49.5678 21.9235 53.0732 22.2473 56.389 23.3032C59.7047 24.3592 62.7519 26.122 65.32 28.4702H65C63.9054 28.5119 62.8714 28.9837 62.1225 29.7832C61.3736 30.5826 60.9702 31.6452 61 32.7402C61 34.7402 62.14 36.4002 63.36 38.3802C64.6338 40.3596 65.3267 42.6566 65.36 45.0102C65.36 47.0702 64.57 49.4502 63.52 52.7802L61.13 60.7802L52.43 35.0002ZM70.22 34.7202C73.2228 40.2173 73.9624 46.669 72.2816 52.703C70.6008 58.737 66.6323 63.8772 61.22 67.0302L68.57 45.8002C69.7313 43.0756 70.3528 40.1516 70.4 37.1902C70.4001 36.3643 70.3467 35.5392 70.24 34.7202H70.22Z" fill="#434D59"/>
</svg>
