<svg width="100" height="100" viewBox="0 0 100 100" fill="none" xmlns="http://www.w3.org/2000/svg">
<path d="M34.14 56.0698L15.25 75.9998C15.0668 76.1926 14.9445 76.4351 14.8986 76.6971C14.8528 76.959 14.8853 77.2287 14.9921 77.4722C15.0989 77.7158 15.2753 77.9224 15.4991 78.066C15.7229 78.2097 15.9841 78.2841 16.25 78.2798H25.4C25.5773 78.2811 25.7526 78.3174 25.9159 78.3864C26.0792 78.4555 26.2272 78.556 26.3517 78.6823C26.4761 78.8086 26.5744 78.9581 26.6411 79.1224C26.7077 79.2867 26.7413 79.4625 26.74 79.6398L26.67 87.6398C26.6677 87.9109 26.747 88.1764 26.8977 88.4018C27.0484 88.6271 27.2635 88.8019 27.5149 88.9033C27.7663 89.0048 28.0424 89.0282 28.3073 88.9705C28.5722 88.9128 28.8136 88.7766 29 88.5798L47.85 68.6798L34.14 56.0698Z" fill="#434D59"/>
<path d="M64.62 57.0002L82.59 76.0002C82.7732 76.1929 82.8955 76.4355 82.9413 76.6974C82.9872 76.9594 82.9547 77.229 82.8479 77.4726C82.7411 77.7161 82.5647 77.9227 82.3409 78.0664C82.1171 78.21 81.8559 78.2844 81.59 78.2802H72.44C72.2627 78.2815 72.0874 78.3177 71.9241 78.3867C71.7608 78.4558 71.6128 78.5563 71.4883 78.6826C71.3639 78.8089 71.2656 78.9585 71.1989 79.1228C71.1323 79.2871 71.0987 79.4629 71.1 79.6402L71.17 87.6402C71.1723 87.9113 71.093 88.1768 70.9423 88.4021C70.7916 88.6275 70.5765 88.8022 70.3251 88.9037C70.0737 89.0051 69.7976 89.0285 69.5327 88.9708C69.2678 88.9131 69.0264 88.777 68.84 88.5802L50.93 69.6702C50.8062 69.5407 50.7097 69.3877 50.646 69.2203C50.5824 69.0529 50.553 68.8744 50.5595 68.6954C50.566 68.5164 50.6084 68.3405 50.684 68.1782C50.7597 68.0158 50.8671 67.8703 51 67.7502L62.73 57.0002C62.9824 56.7528 63.3216 56.6143 63.675 56.6143C64.0284 56.6143 64.3677 56.7528 64.62 57.0002Z" fill="#434D59"/>
<path d="M55.76 14.8899L57 16.4599C57.8199 17.4867 58.8606 18.3157 60.0447 18.8852C61.2288 19.4548 62.526 19.7503 63.84 19.7499H65.84C67.155 19.7503 68.4531 20.0467 69.6379 20.6172C70.8227 21.1877 71.8639 22.0176 72.6842 23.0454C73.5045 24.0732 74.0829 25.2725 74.3764 26.5543C74.67 27.8361 74.6712 29.1676 74.38 30.4499L73.93 32.3999C73.6386 33.6828 73.6391 35.0147 73.9317 36.2973C74.2242 37.5799 74.8012 38.7803 75.62 39.8099L76.87 41.3699C77.6913 42.3948 78.2713 43.5914 78.5671 44.8709C78.8629 46.1505 78.8669 47.4802 78.5788 48.7616C78.2906 50.0429 77.7177 51.2429 76.9026 52.2726C76.0875 53.3024 75.051 54.1354 73.87 54.7099L72.07 55.5799C70.8848 56.1493 69.8436 56.9794 69.0245 58.0081C68.2054 59.0367 67.6295 60.2373 67.34 61.5199L66.89 63.4699C66.5984 64.7567 66.0195 65.9608 65.1968 66.9923C64.374 68.0237 63.3286 68.8557 62.1389 69.426C60.9492 69.9964 59.6458 70.2903 58.3265 70.2858C57.0071 70.2813 55.7058 69.9784 54.52 69.3999L52.72 68.5399C51.5351 67.9671 50.2361 67.6695 48.92 67.6695C47.6039 67.6695 46.3049 67.9671 45.12 68.5399L43.32 69.3999C42.1364 69.969 40.8399 70.2643 39.5266 70.264C38.2134 70.2637 36.917 69.9678 35.7337 69.3983C34.5503 68.8287 33.5104 68 32.6909 66.9738C31.8715 65.9475 31.2936 64.75 31 63.4699L30.56 61.5199C30.2667 60.2375 29.6882 59.0375 28.8677 58.0092C28.0471 56.9809 27.0054 56.1506 25.82 55.5799L24 54.7099C22.819 54.1354 21.7826 53.3024 20.9674 52.2726C20.1523 51.2429 19.5794 50.0429 19.2912 48.7616C19.0031 47.4802 19.0071 46.1505 19.3029 44.8709C19.5987 43.5914 20.1787 42.3948 21 41.3699L22.24 39.8099C23.0537 38.7778 23.6252 37.5762 23.9125 36.2937C24.1998 35.0112 24.1956 33.6806 23.9 32.3999L23.46 30.4499C23.1668 29.1674 23.1666 27.8353 23.4594 26.5526C23.7522 25.27 24.3304 24.0699 25.1511 23.0417C25.9718 22.0134 27.0138 21.1834 28.1996 20.6135C29.3854 20.0436 30.6844 19.7484 32 19.7499H34C35.314 19.7503 36.6112 19.4548 37.7953 18.8852C38.9794 18.3157 40.0201 17.4867 40.84 16.4599L42.09 14.8899C42.9097 13.8644 43.9497 13.0364 45.1329 12.4675C46.3161 11.8985 47.6121 11.603 48.925 11.603C50.2379 11.603 51.534 11.8985 52.7171 12.4675C53.9003 13.0364 54.9403 13.8644 55.76 14.8899Z" fill="white"/>
<path d="M58.32 71.2802C56.8499 71.2665 55.4013 70.9248 54.08 70.2802L52.28 69.4102C51.2329 68.9016 50.0841 68.6373 48.92 68.6373C47.7559 68.6373 46.6071 68.9016 45.56 69.4102L43.76 70.2802C42.4409 70.9204 40.9944 71.2548 39.5282 71.2587C38.062 71.2625 36.6138 70.9356 35.2914 70.3022C33.969 69.6689 32.8065 68.7455 31.8903 67.6007C30.9742 66.4559 30.3281 65.1192 30 63.6902L29.55 61.7402C29.2943 60.6039 28.7844 59.5403 28.0587 58.6293C27.333 57.7183 26.4103 56.9835 25.36 56.4802L23.56 55.6102C22.2387 54.9755 21.0774 54.0512 20.1627 52.9058C19.2479 51.7604 18.6032 50.4235 18.2765 48.9945C17.9497 47.5656 17.9494 46.0813 18.2755 44.6522C18.6016 43.2231 19.2457 41.886 20.16 40.7402L21.41 39.1802C22.1383 38.2705 22.6515 37.2079 22.9113 36.072C23.1711 34.936 23.1706 33.756 22.91 32.6202L22.46 30.6802C22.1336 29.2488 22.1343 27.7622 22.4621 26.3311C22.7898 24.9 23.4363 23.5613 24.3532 22.4147C25.2701 21.2681 26.4339 20.3431 27.7578 19.7086C29.0818 19.0741 30.5319 18.7465 32 18.7502H34C35.1652 18.7537 36.316 18.4927 37.3657 17.9869C38.4154 17.4811 39.3367 16.7437 40.06 15.8302L41.31 14.2702C42.2243 13.1259 43.3844 12.202 44.7044 11.5671C46.0243 10.9322 47.4703 10.6025 48.935 10.6025C50.3997 10.6025 51.8456 10.9322 53.1656 11.5671C54.4856 12.202 55.6457 13.1259 56.56 14.2702L57.8 15.8302C58.5233 16.7437 59.4446 17.4811 60.4943 17.9869C61.544 18.4927 62.6948 18.7537 63.86 18.7502H65.86C67.3262 18.7491 68.7738 19.0788 70.095 19.7147C71.4162 20.3505 72.5769 21.2761 73.4909 22.4226C74.4048 23.5692 75.0484 24.9071 75.3738 26.3367C75.6991 27.7664 75.6978 29.2511 75.37 30.6802L74.93 32.6202C74.6651 33.755 74.6615 34.9353 74.9196 36.0717C75.1778 37.2082 75.6908 38.2711 76.42 39.1802L77.67 40.7402C78.5827 41.886 79.2258 43.2226 79.5516 44.6508C79.8773 46.0791 79.8774 47.5623 79.5518 48.9906C79.2262 50.4189 78.5832 51.7555 77.6706 52.9015C76.758 54.0474 75.5992 54.9732 74.28 55.6102L72.48 56.4802C71.4286 56.9835 70.5047 57.7181 69.7774 58.629C69.0501 59.5399 68.5382 60.6035 68.28 61.7402L67.84 63.6902C67.3403 65.841 66.1297 67.7603 64.4039 69.1377C62.6781 70.5151 60.538 71.2699 58.33 71.2802H58.32ZM48.92 66.6602C50.3874 66.6696 51.8337 67.0115 53.15 67.6602L54.95 68.5202C55.9999 69.0256 57.1502 69.288 58.3154 69.2881C59.4806 69.2881 60.6309 69.0258 61.6808 68.5205C62.7308 68.0152 63.6535 67.28 64.3804 66.3693C65.1074 65.4587 65.6199 64.396 65.88 63.2602L66.32 61.2602C66.643 59.8309 67.286 58.4934 68.2005 57.3485C69.1151 56.2036 70.2774 55.281 71.6 54.6502L73.4 53.7802C74.4424 53.2729 75.3578 52.5386 76.0792 51.6311C76.8005 50.7236 77.3094 49.6661 77.5683 48.5361C77.8273 47.4062 77.8299 46.2326 77.5758 45.1015C77.3217 43.9705 76.8174 42.9108 76.1 42.0002L74.85 40.4402C73.9361 39.2934 73.2948 37.954 72.9743 36.5231C72.6538 35.0922 72.6626 33.6072 73 32.1802L73.44 30.2302C73.6981 29.0945 73.6973 27.9153 73.4377 26.78C73.178 25.6447 72.6662 24.5824 71.94 23.6719C71.2139 22.7614 70.2922 22.0259 69.2431 21.5202C68.1941 21.0144 67.0446 20.7512 65.88 20.7502H63.88C62.4153 20.7528 60.969 20.424 59.6494 19.7884C58.3298 19.1529 57.1711 18.227 56.26 17.0802L55 15.5202C54.2741 14.6096 53.3523 13.8743 52.3032 13.369C51.254 12.8636 50.1045 12.6012 48.94 12.6012C47.7755 12.6012 46.626 12.8636 45.5768 13.369C44.5277 13.8743 43.6059 14.6096 42.88 15.5202L41.63 17.0802C40.7179 18.2283 39.5575 19.155 38.2361 19.7906C36.9146 20.4262 35.4664 20.7543 34 20.7502H32C30.8354 20.7512 29.6859 21.0144 28.6369 21.5202C27.5878 22.0259 26.6661 22.7614 25.94 23.6719C25.2138 24.5824 24.702 25.6447 24.4423 26.78C24.1826 27.9153 24.1819 29.0945 24.44 30.2302L24.89 32.1802C25.2174 33.6088 25.2174 35.093 24.8901 36.5217C24.5628 37.9504 23.9167 39.2865 23 40.4302L21.75 42.0002C21.0228 42.9101 20.5101 43.9723 20.25 45.1076C19.9898 46.243 19.989 47.4225 20.2474 48.5582C20.5059 49.694 21.0171 50.7569 21.7429 51.6679C22.4688 52.5789 23.3907 53.3145 24.44 53.8202L26.25 54.6902C27.5699 55.3234 28.7295 56.2469 29.6421 57.3916C30.5547 58.5362 31.1967 59.8724 31.52 61.3002L31.97 63.3002C32.2361 64.4304 32.7527 65.4864 33.4817 66.3901C34.2107 67.2938 35.1335 68.0222 36.1818 68.5214C37.2301 69.0206 38.3772 69.2779 39.5383 69.2742C40.6994 69.2705 41.8449 69.006 42.89 68.5002L44.69 67.6402C46.0079 66.9984 47.4541 66.6634 48.92 66.6602Z" fill="#434D59"/>
<path d="M48.92 60.2101C58.9716 60.2101 67.12 52.0616 67.12 42.0101C67.12 31.9585 58.9716 23.8101 48.92 23.8101C38.8684 23.8101 30.72 31.9585 30.72 42.0101C30.72 52.0616 38.8684 60.2101 48.92 60.2101Z" fill="white"/>
<path d="M48.92 61.1998C45.1226 61.1998 41.4105 60.0738 38.2531 57.964C35.0956 55.8543 32.6347 52.8557 31.1815 49.3473C29.7283 45.839 29.3481 41.9785 30.0889 38.2541C30.8298 34.5296 32.6584 31.1085 35.3436 28.4234C38.0287 25.7382 41.4498 23.9096 45.1743 23.1687C48.8987 22.4279 52.7592 22.8081 56.2675 24.2613C59.7759 25.7145 62.7745 28.1754 64.8842 31.3329C66.9939 34.4903 68.12 38.2024 68.12 41.9998C68.1147 47.0903 66.0902 51.9709 62.4906 55.5704C58.8911 59.17 54.0105 61.1945 48.92 61.1998ZM48.92 24.8098C45.5177 24.8098 42.1919 25.8188 39.3632 27.7092C36.5344 29.5996 34.3299 32.2865 33.0283 35.43C31.7268 38.5734 31.3868 42.0323 32.0512 45.369C32.7157 48.7058 34.3548 51.7705 36.7613 54.1756C39.1678 56.5807 42.2334 58.218 45.5706 58.8805C48.9077 59.5431 52.3664 59.201 55.5091 57.8977C58.6518 56.5943 61.3374 54.3882 63.2261 51.5583C65.1149 48.7285 66.122 45.4021 66.12 41.9998C66.1121 37.4414 64.2971 33.0722 61.0729 29.8499C57.8487 26.6276 53.4784 24.8151 48.92 24.8098Z" fill="#434D59"/>
<path d="M41.86 42.8502L45.26 46.6202L57.48 37.4502" fill="white"/>
<path d="M45.26 47.6202C45.1205 47.6199 44.9825 47.5903 44.8551 47.5335C44.7276 47.4767 44.6135 47.3938 44.52 47.2902L41.12 43.5302C41.0307 43.4327 40.9616 43.3184 40.9168 43.1941C40.8719 43.0697 40.8522 42.9377 40.8587 42.8056C40.8652 42.6735 40.8978 42.5441 40.9547 42.4247C41.0116 42.3054 41.0915 42.1985 41.19 42.1102C41.3877 41.9342 41.6472 41.8438 41.9115 41.8587C42.1759 41.8737 42.4234 41.9929 42.6 42.1902L45.39 45.2802L56.88 36.6502C57.0922 36.4911 57.3589 36.4227 57.6214 36.4602C57.884 36.4978 58.1209 36.638 58.28 36.8502C58.4391 37.0624 58.5075 37.3291 58.47 37.5916C58.4324 37.8542 58.2922 38.0911 58.08 38.2502L45.86 47.4202C45.6869 47.55 45.4764 47.6202 45.26 47.6202Z" fill="#434D59"/>
</svg>
