<svg width="100" height="100" viewBox="0 0 100 100" fill="none" xmlns="http://www.w3.org/2000/svg">
<path d="M79.57 28C79.57 28.2652 79.4646 28.5196 79.2771 28.7071C79.0896 28.8946 78.8352 29 78.57 29H74.64V27H78.58C78.8435 27.0026 79.0953 27.1092 79.2806 27.2964C79.466 27.4837 79.57 27.7365 79.57 28Z" fill="#434D59"/>
<path d="M59.08 27.04H44.31V29.01H59.08V27.04Z" fill="#434D59"/>
<path d="M28 27V29H23.84C23.5748 29 23.3204 28.8946 23.1329 28.7071C22.9454 28.5196 22.84 28.2652 22.84 28C22.84 27.7348 22.9454 27.4804 23.1329 27.2929C23.3204 27.1054 23.5748 27 23.84 27H28Z" fill="#434D59"/>
<path d="M37.93 38.02C43.4584 38.02 47.94 33.5384 47.94 28.01C47.94 22.4816 43.4584 18 37.93 18C32.4016 18 27.92 22.4816 27.92 28.01C27.92 33.5384 32.4016 38.02 37.93 38.02Z" fill="white"/>
<path d="M37.93 39C35.7544 39 33.6277 38.3549 31.8187 37.1462C30.0098 35.9375 28.5999 34.2195 27.7673 32.2095C26.9348 30.1995 26.7169 27.9878 27.1414 25.854C27.5658 23.7202 28.6134 21.7602 30.1518 20.2218C31.6902 18.6835 33.6502 17.6358 35.784 17.2114C37.9178 16.7869 40.1295 17.0048 42.1395 17.8373C44.1495 18.6699 45.8675 20.0798 47.0762 21.8887C48.2849 23.6977 48.93 25.8244 48.93 28C48.93 30.9174 47.7711 33.7153 45.7082 35.7782C43.6453 37.8411 40.8474 39 37.93 39ZM37.93 19C36.15 19 34.4099 19.5278 32.9299 20.5168C31.4498 21.5057 30.2963 22.9113 29.6151 24.5559C28.9339 26.2004 28.7557 28.01 29.1029 29.7558C29.4502 31.5016 30.3074 33.1053 31.566 34.364C32.8247 35.6226 34.4284 36.4798 36.1742 36.8271C37.92 37.1743 39.7296 36.9961 41.3741 36.3149C43.0187 35.6337 44.4243 34.4802 45.4132 33.0001C46.4022 31.5201 46.93 29.78 46.93 28C46.93 25.6131 45.9818 23.3239 44.294 21.636C42.6061 19.9482 40.3169 19 37.93 19Z" fill="#434D59"/>
<path d="M64.46 38.02C69.9884 38.02 74.47 33.5384 74.47 28.01C74.47 22.4816 69.9884 18 64.46 18C58.9316 18 54.45 22.4816 54.45 28.01C54.45 33.5384 58.9316 38.02 64.46 38.02Z" fill="white"/>
<path d="M64.46 39C62.2844 39 60.1577 38.3549 58.3487 37.1462C56.5398 35.9375 55.1299 34.2195 54.2973 32.2095C53.4648 30.1995 53.2469 27.9878 53.6714 25.854C54.0958 23.7202 55.1434 21.7602 56.6818 20.2218C58.2202 18.6835 60.1802 17.6358 62.314 17.2114C64.4478 16.7869 66.6595 17.0048 68.6695 17.8373C70.6795 18.6699 72.3975 20.0798 73.6062 21.8887C74.8149 23.6977 75.46 25.8244 75.46 28C75.46 30.9174 74.3011 33.7153 72.2382 35.7782C70.1753 37.8411 67.3774 39 64.46 39ZM64.46 19C62.68 19 60.9399 19.5278 59.4599 20.5168C57.9798 21.5057 56.8263 22.9113 56.1451 24.5559C55.4639 26.2004 55.2857 28.01 55.6329 29.7558C55.9802 31.5016 56.8374 33.1053 58.096 34.364C59.3547 35.6226 60.9584 36.4798 62.7042 36.8271C64.45 37.1743 66.2596 36.9961 67.9042 36.3149C69.5487 35.6337 70.9543 34.4802 71.9432 33.0001C72.9322 31.5201 73.46 29.78 73.46 28C73.46 25.6131 72.5118 23.3239 70.824 21.636C69.1361 19.9482 66.8469 19 64.46 19Z" fill="#434D59"/>
<path d="M85.44 52.8499L82.37 82.7499C82.37 82.7499 61.19 75.5299 50.7 85.2699C49.8627 84.5093 48.9477 83.8389 47.97 83.2699C36.97 76.6799 19.03 82.7799 19.03 82.7799L16 52.8499C18.5448 52.0397 21.183 51.5591 23.85 51.4199L29 57.9299L29.55 55.0699L43.26 51.4199H77.58C80.2504 51.5587 82.8919 52.0393 85.44 52.8499Z" fill="#434D59"/>
<path d="M50.7 80.05C50.7 80.05 59.15 69.24 77.59 69.79V35.79C59.15 35.28 50.7 46.08 50.7 46.08V80.08" fill="white"/>
<path d="M50.7 81.0498C50.5908 81.0474 50.4827 81.0271 50.38 80.9898C50.183 80.9232 50.0116 80.7969 49.8898 80.6285C49.7679 80.46 49.7016 80.2577 49.7 80.0498V46.0498C49.7013 45.8242 49.7788 45.6057 49.92 45.4298C50.27 44.9698 58.92 34.2498 77.61 34.7798C77.8752 34.7798 78.1296 34.8851 78.3171 35.0727C78.5047 35.2602 78.61 35.5145 78.61 35.7798V69.7798C78.6095 69.9145 78.5818 70.0477 78.5285 70.1714C78.4752 70.2951 78.3975 70.4068 78.3 70.4998C78.2046 70.5918 78.0918 70.664 77.9681 70.7121C77.8445 70.7602 77.7126 70.7832 77.58 70.7798C59.92 70.2298 51.58 80.5498 51.51 80.6598C51.4148 80.7835 51.292 80.8832 51.1513 80.9509C51.0107 81.0186 50.8561 81.0525 50.7 81.0498ZM51.7 46.4498V77.5498C55.04 74.4598 63.07 68.6398 76.59 68.7698V36.7698C61.06 36.6798 53.08 44.8998 51.7 46.4498Z" fill="#434D59"/>
<path d="M50.7 80.05C50.7 80.05 42.26 69.24 23.82 69.79V35.79C42.26 35.28 50.7 46.08 50.7 46.08V80.08" fill="white"/>
<path d="M50.7 81.0499C50.5498 81.0492 50.4017 81.0147 50.2666 80.9489C50.1316 80.8831 50.0131 80.7878 49.92 80.6699C49.84 80.5599 41.52 70.2499 23.85 70.7899C23.7174 70.7933 23.5855 70.7703 23.4619 70.7223C23.3383 70.6742 23.2255 70.602 23.13 70.5099C23.0325 70.417 22.9548 70.3053 22.9015 70.1816C22.8482 70.0578 22.8205 69.9246 22.82 69.7899V35.7899C22.82 35.5247 22.9254 35.2704 23.1129 35.0828C23.3004 34.8953 23.5548 34.7899 23.82 34.7899C42.54 34.2899 51.14 44.9999 51.49 45.4699C51.6276 45.6472 51.7015 45.8655 51.7 46.0899V80.0899C51.6909 80.2951 51.6189 80.4926 51.4936 80.6554C51.3684 80.8182 51.196 80.9385 51 80.9999C50.9031 81.0318 50.802 81.0486 50.7 81.0499ZM25.19 68.7699C38.47 68.7699 46.4 74.4799 49.7 77.5499V46.4499C48.34 44.9199 40.41 36.7999 25.15 36.7999H24.82V68.7999L25.19 68.7699Z" fill="#434D59"/>
<path d="M19.81 19.3002V19.3602C19.8103 19.464 19.7712 19.5639 19.7007 19.64C19.6302 19.7161 19.5335 19.7626 19.43 19.7702C18.7911 19.8648 18.1997 20.1631 17.7439 20.6207C17.288 21.0784 16.9921 21.6709 16.9 22.3102C16.8879 22.4137 16.8387 22.5092 16.7614 22.5791C16.6842 22.649 16.5842 22.6885 16.48 22.6902H16.43C16.3258 22.6885 16.2259 22.649 16.1486 22.5791C16.0714 22.5092 16.0221 22.4137 16.01 22.3102C15.9179 21.6709 15.622 21.0784 15.1661 20.6207C14.7103 20.1631 14.119 19.8648 13.48 19.7702C13.3765 19.7626 13.2798 19.7161 13.2093 19.64C13.1388 19.5639 13.0997 19.464 13.1 19.3602V19.3002C13.1017 19.1961 13.1412 19.0961 13.2111 19.0188C13.281 18.9416 13.3765 18.8923 13.48 18.8802C14.1201 18.7951 14.7142 18.501 15.17 18.0435C15.6257 17.5859 15.9175 16.9907 16 16.3502C16.0121 16.2467 16.0614 16.1512 16.1386 16.0813C16.2159 16.0114 16.3158 15.9719 16.42 15.9702H16.47C16.5742 15.9719 16.6742 16.0114 16.7514 16.0813C16.8287 16.1512 16.8779 16.2467 16.89 16.3502C16.973 16.9922 17.2663 17.5885 17.724 18.0462C18.1817 18.5039 18.7781 18.7972 19.42 18.8802C19.5253 18.89 19.6232 18.9383 19.6952 19.0158C19.7671 19.0932 19.808 19.1945 19.81 19.3002Z" fill="#434D59"/>
<path d="M94.32 43.3102V43.4002C94.3187 43.5737 94.2538 43.7407 94.1378 43.8697C94.0217 43.9987 93.8624 44.0807 93.69 44.1002C92.6163 44.2404 91.6188 44.731 90.8522 45.4957C90.0856 46.2605 89.5928 47.2568 89.45 48.3302C89.435 48.5026 89.3557 48.6631 89.2279 48.7798C89.1001 48.8965 88.9331 48.9609 88.76 48.9602H88.67C88.4965 48.9589 88.3295 48.8941 88.2005 48.778C88.0716 48.6619 87.9896 48.5026 87.97 48.3302C87.8294 47.2577 87.3385 46.2616 86.5736 45.4967C85.8087 44.7318 84.8126 44.2409 83.74 44.1002C83.5666 44.0809 83.4062 43.9993 83.2885 43.8705C83.1707 43.7418 83.1038 43.5746 83.1 43.4002V43.3102C83.1038 43.1358 83.1707 42.9687 83.2885 42.84C83.4062 42.7112 83.5666 42.6296 83.74 42.6102C84.8188 42.4736 85.822 41.9835 86.5927 41.2164C87.3634 40.4492 87.8583 39.4484 88 38.3702C88.0216 38.1987 88.1042 38.0406 88.2327 37.9249C88.3613 37.8092 88.5271 37.7437 88.7 37.7402H88.79C88.9624 37.7418 89.1282 37.807 89.2555 37.9233C89.3828 38.0395 89.4628 38.1987 89.48 38.3702C89.6223 39.4448 90.1148 40.4425 90.8813 41.209C91.6477 41.9754 92.6455 42.4679 93.72 42.6102C93.887 42.6364 94.0391 42.7213 94.1491 42.8496C94.2591 42.9779 94.3197 43.1412 94.32 43.3102Z" fill="#434D59"/>
</svg>
