<svg width="100" height="100" viewBox="0 0 100 100" fill="none" xmlns="http://www.w3.org/2000/svg">
<path d="M69.83 36C69.83 36 84.7 40.08 96.73 46.4L82.22 78.26C82.22 78.26 57.06 69.26 54.46 69.26" fill="#434D59"/>
<path d="M29.07 36C29.07 36 14.2 40.08 2.17999 46.4L16.68 78.26C16.68 78.26 41.84 69.26 44.44 69.26" fill="#434D59"/>
<path d="M69.86 33.6002V69.2502H29.07V16.9302H55.23" fill="white"/>
<path d="M69.85 70.2502H29.07C28.8048 70.2502 28.5504 70.1448 28.3629 69.9573C28.1754 69.7697 28.07 69.5154 28.07 69.2502V16.9302C28.07 16.665 28.1754 16.4106 28.3629 16.2231C28.5504 16.0355 28.8048 15.9302 29.07 15.9302H55.23C55.4952 15.9302 55.7496 16.0355 55.9371 16.2231C56.1247 16.4106 56.23 16.665 56.23 16.9302C56.23 17.1954 56.1247 17.4497 55.9371 17.6373C55.7496 17.8248 55.4952 17.9302 55.23 17.9302H30.07V68.2502H68.85V33.6002C68.85 33.335 68.9554 33.0806 69.1429 32.8931C69.3304 32.7055 69.5848 32.6002 69.85 32.6002C70.1152 32.6002 70.3696 32.7055 70.5571 32.8931C70.7447 33.0806 70.85 33.335 70.85 33.6002V69.2502C70.85 69.5154 70.7447 69.7697 70.5571 69.9573C70.3696 70.1448 70.1152 70.2502 69.85 70.2502Z" fill="#434D59"/>
<path d="M55.64 15.9702V33.6002L70.85 33.2802L55.64 15.9702Z" fill="#434D59"/>
<path d="M39.96 27.0098H39.34C36.4074 27.0098 34.03 29.3871 34.03 32.3198V32.3298C34.03 35.2624 36.4074 37.6398 39.34 37.6398H39.96C42.8926 37.6398 45.27 35.2624 45.27 32.3298V32.3198C45.27 29.3871 42.8926 27.0098 39.96 27.0098Z" fill="#434D59"/>
<path d="M64.48 44.3501H34.37C34.1048 44.3501 33.8504 44.2447 33.6629 44.0572C33.4754 43.8697 33.37 43.6153 33.37 43.3501C33.37 43.0849 33.4754 42.8305 33.6629 42.643C33.8504 42.4555 34.1048 42.3501 34.37 42.3501H64.48C64.7452 42.3501 64.9996 42.4555 65.1871 42.643C65.3746 42.8305 65.48 43.0849 65.48 43.3501C65.48 43.6153 65.3746 43.8697 65.1871 44.0572C64.9996 44.2447 64.7452 44.3501 64.48 44.3501Z" fill="#434D59"/>
<path d="M64.48 50.0698H34.37C34.1048 50.0698 33.8504 49.9645 33.6629 49.7769C33.4754 49.5894 33.37 49.335 33.37 49.0698C33.37 48.8046 33.4754 48.5503 33.6629 48.3627C33.8504 48.1752 34.1048 48.0698 34.37 48.0698H64.48C64.7452 48.0698 64.9996 48.1752 65.1871 48.3627C65.3746 48.5503 65.48 48.8046 65.48 49.0698C65.48 49.335 65.3746 49.5894 65.1871 49.7769C64.9996 49.9645 64.7452 50.0698 64.48 50.0698Z" fill="#434D59"/>
<path d="M49.43 55.7998H34.37C34.1048 55.7998 33.8504 55.6944 33.6629 55.5069C33.4754 55.3194 33.37 55.065 33.37 54.7998C33.37 54.5346 33.4754 54.2802 33.6629 54.0927C33.8504 53.9052 34.1048 53.7998 34.37 53.7998H49.43C49.6952 53.7998 49.9496 53.9052 50.1371 54.0927C50.3246 54.2802 50.43 54.5346 50.43 54.7998C50.43 55.065 50.3246 55.3194 50.1371 55.5069C49.9496 55.6944 49.6952 55.7998 49.43 55.7998Z" fill="#434D59"/>
<path d="M86.45 61.1698C86.3308 61.1694 86.2125 61.1492 86.1 61.1098L71.55 55.7298C71.3225 55.6239 71.1431 55.4362 71.0475 55.2042C70.9519 54.9721 70.947 54.7125 71.0339 54.4771C71.1208 54.2416 71.2931 54.0474 71.5165 53.9331C71.7399 53.8187 71.9982 53.7926 72.24 53.8598L86.8 59.2298C87.0218 59.3103 87.208 59.4666 87.3257 59.6711C87.4434 59.8756 87.4849 60.1152 87.443 60.3474C87.4012 60.5796 87.2785 60.7895 87.0968 60.94C86.915 61.0905 86.6859 61.1719 86.45 61.1698Z" fill="white"/>
<path d="M78.34 64.7099C78.224 64.7098 78.109 64.6895 78 64.6499L72.09 62.4699C71.9665 62.4239 71.8534 62.3541 71.7569 62.2644C71.6605 62.1747 71.5826 62.0669 71.5278 61.9471C71.473 61.8273 71.4424 61.6979 71.4376 61.5663C71.4328 61.4346 71.454 61.3033 71.5 61.1799C71.5928 60.9306 71.7809 60.7284 72.0228 60.6177C72.1426 60.5629 72.272 60.5323 72.4036 60.5275C72.5353 60.5227 72.6666 60.5439 72.79 60.5899L78.69 62.7699C78.9118 62.8504 79.098 63.0067 79.2157 63.2112C79.3334 63.4157 79.3749 63.6553 79.333 63.8875C79.2911 64.1197 79.1685 64.3296 78.9868 64.4801C78.805 64.6306 78.5759 64.712 78.34 64.7099Z" fill="white"/>
<path d="M10.64 50.7199C10.4476 50.7195 10.2595 50.6637 10.0981 50.559C9.93667 50.4544 9.80887 50.3054 9.73 50.1299C9.62179 49.8885 9.61364 49.6141 9.70736 49.3667C9.80107 49.1192 9.989 48.9191 10.23 48.8099L21.68 43.5999C21.7995 43.5454 21.9286 43.515 22.0598 43.5104C22.1911 43.5058 22.322 43.527 22.445 43.573C22.5681 43.619 22.6808 43.6887 22.7769 43.7783C22.873 43.8678 22.9505 43.9754 23.005 44.0949C23.0595 44.2144 23.0899 44.3435 23.0945 44.4748C23.0992 44.606 23.0779 44.7369 23.0319 44.8599C22.986 44.983 22.9162 45.0958 22.8267 45.1918C22.7371 45.2879 22.6295 45.3654 22.51 45.4199L11.05 50.6299C10.9212 50.6886 10.7815 50.7193 10.64 50.7199Z" fill="white"/>
<path d="M13.1 56.3301C12.872 56.3291 12.6513 56.2502 12.4743 56.1065C12.2973 55.9628 12.1747 55.7629 12.1269 55.54C12.079 55.3171 12.1088 55.0846 12.2112 54.8809C12.3136 54.6772 12.4825 54.5147 12.69 54.4201L18.41 51.8201C18.5295 51.7656 18.6586 51.7352 18.7898 51.7306C18.9211 51.726 19.052 51.7473 19.175 51.7932C19.2981 51.8392 19.4108 51.9089 19.5069 51.9985C19.603 52.088 19.6805 52.1956 19.735 52.3151C19.7895 52.4346 19.8199 52.5637 19.8245 52.695C19.8292 52.8262 19.8079 52.9571 19.7619 53.0802C19.716 53.2032 19.6462 53.316 19.5567 53.4121C19.4671 53.5081 19.3595 53.5856 19.24 53.6401L13.51 56.2401C13.383 56.3039 13.242 56.3349 13.1 56.3301Z" fill="white"/>
</svg>
