<svg width="58" height="56" viewBox="0 0 58 56" fill="none" xmlns="http://www.w3.org/2000/svg">
<path fill-rule="evenodd" clip-rule="evenodd" d="M33.05 15.48C32.8748 15.4812 32.7024 15.4364 32.55 15.35C32.3324 15.24 32.1625 15.0542 32.0723 14.8277C31.982 14.6012 31.9777 14.3495 32.06 14.12L36.06 3.66002C36.1158 3.51277 36.2055 3.38078 36.3219 3.27478C36.4384 3.16878 36.5782 3.09177 36.73 3.05002C36.8806 3.00932 37.0385 3.0044 37.1913 3.03565C37.3441 3.06691 37.4875 3.13347 37.61 3.23002L40 5.11002L44.87 1.00002C45.0506 0.85718 45.2749 0.781025 45.5051 0.78441C45.7353 0.787795 45.9573 0.870512 46.1336 1.0186C46.3099 1.16668 46.4297 1.37106 46.4727 1.59723C46.5158 1.8234 46.4795 2.0575 46.37 2.26002L40.97 11.11C40.899 11.2242 40.8058 11.3229 40.6958 11.4002C40.5859 11.4775 40.4614 11.5319 40.33 11.56C40.1988 11.5897 40.063 11.5925 39.9307 11.5685C39.7984 11.5444 39.6723 11.4939 39.56 11.42L37.71 10.2L33.83 15.1C33.7369 15.2179 33.6184 15.3132 33.4834 15.379C33.3483 15.4448 33.2002 15.4793 33.05 15.48ZM27.44 7.86L23.73 8.93L20.12 1.93C20.0129 1.71463 19.8317 1.54509 19.6098 1.45245C19.3878 1.35981 19.1399 1.35028 18.9114 1.42562C18.683 1.50095 18.4894 1.65609 18.3661 1.86261C18.2427 2.06912 18.198 2.31316 18.24 2.54999L20.24 14.95C20.2608 15.0844 20.3087 15.2131 20.381 15.3283C20.4532 15.4435 20.5481 15.5427 20.66 15.62C20.7696 15.696 20.8933 15.7493 21.0238 15.7768C21.1544 15.8043 21.289 15.8054 21.42 15.78L24.25 15.21L26.41 22.67C26.4705 22.8863 26.602 23.0759 26.7834 23.2084C26.9648 23.3408 27.1856 23.4083 27.41 23.4H27.54C27.7821 23.3683 28.0042 23.2491 28.1645 23.0648C28.3247 22.8806 28.4121 22.6442 28.41 22.4L28.73 8.83C28.7343 8.67224 28.7012 8.5157 28.6334 8.37318C28.5657 8.23066 28.4651 8.10621 28.34 8.01C28.2126 7.91539 28.0646 7.85245 27.9081 7.82637C27.7516 7.80029 27.5912 7.81181 27.44 7.86ZM55.64 41C55.2819 42.1806 54.6711 43.2692 53.85 44.19C53.931 44.3169 53.9823 44.4605 54 44.61L56 54.06C56.03 54.207 56.0266 54.3588 55.99 54.5043C55.9534 54.6498 55.8845 54.7852 55.7885 54.9004C55.6924 55.0156 55.5717 55.1078 55.4352 55.1701C55.2987 55.2323 55.15 55.263 55 55.26L40.29 54.72C40.143 54.7148 39.999 54.6772 39.8682 54.61C39.7374 54.5428 39.623 54.4475 39.5332 54.331C39.4435 54.2145 39.3805 54.0796 39.3488 53.936C39.3172 53.7923 39.3176 53.6435 39.35 53.5L41.22 45.3C40.1193 44.6317 39.1445 43.7754 38.34 42.77C37.7596 42.001 37.2445 41.1848 36.8 40.33C35.2683 37.4911 33.3011 34.9097 30.97 32.68C29.62 31.35 29.77 30.05 30.3 29.35C31.04 28.39 32.94 27.87 35.94 29.6C36.859 30.1114 37.8035 30.5753 38.77 30.99C38.79 28.82 38.84 24.91 38.93 23.56V22.41C39.03 19.01 39.18 14.35 41.78 14.35C42.3603 14.3247 42.9296 14.5133 43.38 14.88C43.5327 14.1699 43.8788 13.5158 44.38 12.99C44.6138 12.7533 44.8927 12.5659 45.2001 12.4388C45.5075 12.3117 45.8373 12.2475 46.17 12.25C47.63 12.25 48.24 13.52 48.49 14.93C48.622 14.7397 48.7944 14.5809 48.995 14.4651C49.1955 14.3492 49.4192 14.2792 49.65 14.26C49.9509 14.2221 50.2564 14.2489 50.5462 14.3385C50.8359 14.4282 51.1031 14.5787 51.33 14.78C52.26 15.6 52.7 17.29 52.78 20.42C52.7748 20.5166 52.7748 20.6134 52.78 20.71C52.8733 20.7046 52.9667 20.7046 53.06 20.71C54.86 20.62 56.4 23.56 56.86 28.1C57.3597 32.438 56.9441 36.8326 55.64 41ZM38.49 39.36C38.8848 40.1184 39.3396 40.844 39.85 41.53H39.86C40.8975 42.8165 42.2668 43.7951 43.82 44.36C44.8633 44.7464 45.9674 44.9428 47.08 44.94C48.4496 44.9389 49.7972 44.5951 51 43.94C52.3148 43.1129 53.2576 41.808 53.63 40.3C54.8539 36.3912 55.2423 32.2687 54.77 28.2C54.6742 26.4913 54.239 24.8188 53.49 23.28C53.326 25.4459 53.2859 27.6195 53.37 29.79C53.3851 29.952 53.3669 30.1153 53.3164 30.2699C53.2659 30.4245 53.1842 30.5672 53.0764 30.689C52.9687 30.8108 52.8371 30.9093 52.6898 30.9782C52.5425 31.0472 52.3826 31.0852 52.22 31.09C52.0332 31.0901 51.8494 31.0435 51.6852 30.9544C51.521 30.8654 51.3817 30.7367 51.28 30.58C51.137 30.356 51.0606 30.0958 51.06 29.83L50.93 26.83C50.912 26.3542 50.8881 25.957 50.8671 25.6094C50.8413 25.1826 50.82 24.8307 50.82 24.5L50.8155 24.4045C50.7675 23.3993 50.7282 22.5732 50.67 20.45C50.6742 19.3609 50.5602 18.2745 50.33 17.21C50.2763 16.863 50.1275 16.5376 49.9 16.27C49.67 16.69 49.28 18.13 49.28 21.5L49.01 29.3C49.0102 29.6098 48.8963 29.9089 48.69 30.14C48.5762 30.259 48.4397 30.354 48.2885 30.4193C48.1374 30.4845 47.9746 30.5188 47.81 30.52C47.6437 30.5201 47.4792 30.4867 47.326 30.4219C47.1729 30.3571 47.0344 30.2622 46.9187 30.1428C46.8031 30.0234 46.7126 29.8819 46.6527 29.7268C46.5927 29.5717 46.5646 29.4062 46.57 29.24V17.74C46.57 14.89 46.21 14.34 46.06 14.23C45.9908 14.2307 45.9224 14.2452 45.8589 14.2727C45.7953 14.3002 45.7379 14.3401 45.69 14.39C44.99 15.1 44.99 17.49 44.99 18.27V18.45C44.99 19.305 44.8851 23.4237 44.8112 26.3257L44.8112 26.3278L44.8111 26.3287C44.771 27.9057 44.74 29.1227 44.74 29.26V29.5C44.74 29.7652 44.6346 30.0196 44.4471 30.2071C44.2596 30.3947 44.0052 30.5 43.74 30.5C43.4748 30.5 43.2204 30.3947 43.0329 30.2071C42.8454 30.0196 42.74 29.7652 42.74 29.5V29.23L42.46 21.23V19.82C42.42 17.24 42.3 16.32 41.73 16.32C41.31 16.65 40.99 18.72 40.88 22.44V23.66C40.78 25.18 40.7 30.28 40.7 31.94C42.29 32.85 45.18 34.69 46 36.94C46.0444 37.0641 46.0637 37.1957 46.0571 37.3273C46.0504 37.4589 46.0178 37.5879 45.9611 37.7068C45.9044 37.8258 45.8248 37.9323 45.7268 38.0204C45.6287 38.1085 45.5143 38.1763 45.39 38.22C45.281 38.2596 45.166 38.2799 45.05 38.28C44.8445 38.2799 44.644 38.2165 44.4758 38.0984C44.3076 37.9803 44.1799 37.8133 44.11 37.62C43.44 35.77 40.09 33.86 38.85 33.28L38.74 33.2C37.4238 32.6506 36.1385 32.0297 34.89 31.34C34.1231 30.84 33.2428 30.5408 32.33 30.47C32.1589 30.4501 31.9862 30.4889 31.84 30.58C31.9555 30.8405 32.1222 31.0751 32.33 31.27C34.7901 33.6313 36.8682 36.3605 38.49 39.36ZM19.27 31C20.2341 30.5873 21.1754 30.1233 22.09 29.61C25.08 27.88 27 28.4 27.74 29.39C28.27 30.09 28.42 31.38 27.07 32.72C24.7389 34.9498 22.7717 37.5311 21.24 40.37C20.7955 41.2248 20.2804 42.041 19.7 42.81C19.2434 43.3831 18.7272 43.9061 18.16 44.37C18.2297 44.47 18.2805 44.5818 18.31 44.7L20.2 53C20.2255 53.1399 20.2208 53.2836 20.1863 53.4216C20.1518 53.5595 20.0883 53.6886 20 53.8C19.9089 53.9184 19.7925 54.0149 19.6592 54.0824C19.526 54.1499 19.3793 54.1866 19.23 54.19L4.47 54.72C4.32478 54.7188 4.18156 54.686 4.05032 54.6238C3.91907 54.5616 3.80294 54.4716 3.71 54.36C3.61282 54.2435 3.54341 54.1065 3.50703 53.9592C3.47064 53.812 3.46824 53.6584 3.5 53.51L5.23 45.18C3.84541 44.1347 2.83813 42.6677 2.36 41C1.09122 36.8459 0.702944 32.4727 1.22 28.16C1.68 23.63 3.25 20.67 5.02 20.77C5.11327 20.7651 5.20673 20.7651 5.3 20.77C5.30517 20.6734 5.30517 20.5766 5.3 20.48C5.30024 19.2387 5.43775 18.0011 5.71 16.79C5.83219 16.0372 6.18103 15.3395 6.71 14.79C6.93686 14.5887 7.2041 14.4382 7.49383 14.3485C7.78355 14.2589 8.08909 14.2321 8.39 14.27C8.6208 14.2892 8.84449 14.3593 9.04504 14.4751C9.24559 14.5909 9.41803 14.7497 9.55 14.94C9.8 13.53 10.41 12.26 11.87 12.26C12.2027 12.2575 12.5325 12.3217 12.8399 12.4488C13.1473 12.5759 13.4262 12.7634 13.66 13C14.1612 13.5258 14.5073 14.1799 14.66 14.89C15.1104 14.5233 15.6797 14.3347 16.26 14.36C18.87 14.36 19.01 19.02 19.11 22.43V23.57C19.2 24.91 19.27 28.83 19.27 31ZM19.5 39.36C21.1218 36.3605 23.2 33.6313 25.66 31.27C26.07 30.86 26.21 30.64 26.1 30.53C25.99 30.42 24.91 30.29 23.1 31.34C21.8526 32.0318 20.5672 32.6528 19.25 33.2L19.14 33.28C17.88 33.86 14.55 35.77 13.88 37.62C13.8069 37.8233 13.67 37.9974 13.4898 38.1164C13.3095 38.2353 13.0956 38.2927 12.88 38.28C12.7674 38.2787 12.6558 38.2585 12.55 38.22C12.4257 38.1763 12.3112 38.1085 12.2132 38.0204C12.1152 37.9323 12.0356 37.8258 11.9789 37.7068C11.9222 37.5879 11.8896 37.4589 11.8829 37.3273C11.8763 37.1957 11.8956 37.0641 11.94 36.94C12.75 34.7 15.64 32.86 17.23 31.99L17.2234 31.4255L17.2234 31.4251V31.425C17.2 29.3851 17.1504 25.0746 17.06 23.7V22.49C16.95 18.76 16.63 16.69 16.13 16.34C15.64 16.36 15.48 17.28 15.48 19.86V21.27L15.2 29.52C15.2 29.7852 15.0946 30.0396 14.9071 30.2271C14.7196 30.4147 14.4652 30.52 14.2 30.52C13.9348 30.52 13.6804 30.4147 13.4929 30.2271C13.3054 30.0396 13.2 29.7852 13.2 29.52V29.25C13.19 28.89 12.95 19.79 12.95 18.47V18.29L12.95 18.258C12.9501 17.4466 12.9505 15.1105 12.25 14.41C12.2016 14.3586 12.1424 14.3185 12.0768 14.2926C12.0111 14.2666 11.9405 14.2555 11.87 14.26C11.73 14.36 11.37 14.91 11.37 17.76V29.27C11.3754 29.4362 11.3473 29.6017 11.2873 29.7568C11.2274 29.9119 11.1369 30.0534 11.0213 30.1728C10.9056 30.2922 10.7671 30.3871 10.614 30.452C10.4608 30.5168 10.2963 30.5501 10.13 30.55C9.96535 30.5488 9.80262 30.5145 9.65146 30.4493C9.5003 30.384 9.36378 30.289 9.25 30.17C9.0356 29.9312 8.91794 29.621 8.92 29.3L8.66 21.61C8.66 18.17 8.27 16.72 8.04 16.3C7.84 16.48 7.35 17.24 7.27 20.48C7.24683 21.3295 7.22366 21.9882 7.2051 22.5159L7.2051 22.516L7.20509 22.5162C7.19962 22.6717 7.19455 22.8158 7.19 22.95L7.18222 23.1834L7.18222 23.1834C7.16669 23.6537 7.1545 24.0224 7.12 24.54C7.09172 24.9642 7.06844 25.4484 7.03955 26.0491C7.02758 26.298 7.01465 26.567 7 26.86L6.84 30C6.84809 30.3113 6.7328 30.6132 6.51926 30.8399C6.30571 31.0665 6.01123 31.1996 5.7 31.21C5.51322 31.2101 5.32937 31.1635 5.1652 31.0745C5.00102 30.9854 4.86173 30.8567 4.76 30.7C4.61695 30.476 4.54064 30.2158 4.54 29.95C4.63224 27.7664 4.59551 25.5793 4.43 23.4C3.68095 24.9388 3.24582 26.6113 3.15 28.32C2.67773 32.3887 3.06613 36.5112 4.29 40.42C4.62294 41.5619 5.27936 42.583 6.18 43.36C6.71471 43.7884 7.31601 44.1262 7.96 44.36C8.91677 44.7317 9.93357 44.9249 10.96 44.93C11.7149 44.9321 12.4672 44.8414 13.2 44.66C13.986 44.4735 14.743 44.1808 15.45 43.79C16.483 43.2157 17.3961 42.4485 18.14 41.53C18.6504 40.844 19.1052 40.1184 19.5 39.36Z" fill="#1B1B1B"/>
</svg>
