<svg width="45" height="63" viewBox="0 0 45 63" fill="none" xmlns="http://www.w3.org/2000/svg">
<path fill-rule="evenodd" clip-rule="evenodd" d="M42.9446 27.6437C43.0364 27.7414 43.1072 27.8568 43.1529 27.9828C43.1551 27.99 43.1585 28.0007 43.163 28.0148C43.3684 28.6597 45.8454 36.4364 42.1901 42.68C40.0672 46.2992 36.3321 48.6076 31.0656 49.5704H30.9032C30.7463 49.5717 30.5913 49.5359 30.4508 49.466L30.2884 49.524C30.4431 53.6808 29.9141 57.8347 28.7224 61.82C28.6068 62.0877 28.3945 62.302 28.128 62.4202C27.8614 62.5384 27.5601 62.5519 27.284 62.458C26.9949 62.3533 26.7592 62.1381 26.6287 61.8597C26.4982 61.5813 26.4836 61.2624 26.588 60.9732C29.9289 51.612 26.472 31.95 25.6368 27.6116C22.1723 27.3126 18.9569 25.6873 16.6618 23.0748C14.3666 20.4624 13.1689 17.0645 13.3185 13.5903C13.4682 10.116 14.9536 6.83372 17.4649 4.42827C19.9762 2.02281 23.3194 0.679993 26.7968 0.679993C30.2743 0.679993 33.6175 2.02281 36.1288 4.42827C38.6401 6.83372 40.1255 10.116 40.2752 13.5903C40.4248 17.0645 39.2271 20.4624 36.9319 23.0748C34.6368 25.6873 31.4214 27.3126 27.9568 27.6116C28.9527 32.9167 29.6575 38.2723 30.068 43.6544C31.4948 38.5388 34.766 30.6276 41.842 27.4144C41.9643 27.3597 42.0967 27.3314 42.2306 27.3314C42.3646 27.3314 42.497 27.3597 42.6192 27.4144C42.7422 27.4679 42.8529 27.5459 42.9446 27.6437ZM17.2844 8.06676C16.0594 9.89997 15.4056 12.0552 15.4056 14.26C15.4087 17.2156 16.5842 20.0493 18.6741 22.1392C20.764 24.2291 23.5977 25.4046 26.5532 25.4076C28.758 25.4076 30.9133 24.7538 32.7465 23.5289C34.5797 22.304 36.0086 20.563 36.8523 18.526C37.696 16.4891 37.9168 14.2477 37.4867 12.0852C37.0565 9.92282 35.9948 7.93651 34.4358 6.37749C32.8768 4.81847 30.8905 3.75676 28.728 3.32663C26.5656 2.8965 24.3242 3.11725 22.2872 3.96099C20.2503 4.80473 18.5093 6.23354 17.2844 8.06676ZM27.0984 22.1016C27.1126 22.3497 27.0771 22.5982 26.994 22.8324C26.9743 22.9333 26.916 23.0225 26.8315 23.081C26.747 23.1395 26.643 23.1627 26.5416 23.1456C26.4603 23.1532 26.3783 23.1401 26.3033 23.1077C26.2283 23.0753 26.1627 23.0245 26.1124 22.96C26.0203 22.781 25.9763 22.5812 25.9848 22.38V20.06C25.4043 20.0181 24.8334 19.8891 24.2912 19.6772C23.834 19.4558 23.4181 19.1576 23.0616 18.7956C22.7524 18.4544 22.5051 18.0619 22.3308 17.6356C22.1783 17.2679 22.0995 16.8738 22.0988 16.4756C22.0982 16.3389 22.1256 16.2034 22.1795 16.0777C22.2334 15.952 22.3125 15.8387 22.412 15.7448C22.5132 15.6382 22.6358 15.5542 22.7718 15.4982C22.9077 15.4422 23.0539 15.4156 23.2008 15.42C23.4467 15.4065 23.6904 15.4715 23.8968 15.6056C24.072 15.7241 24.1994 15.9008 24.2564 16.1044C24.3664 16.464 24.4981 16.8165 24.6508 17.16C24.7739 17.4164 24.9475 17.6452 25.1612 17.8328C25.4259 18.0509 25.7345 18.2092 26.066 18.2968V14.376C25.415 14.2048 24.7819 13.9718 24.1752 13.68C23.6788 13.4226 23.2557 13.0434 22.9456 12.578C22.5685 11.9198 22.4092 11.1592 22.4904 10.405C22.5717 9.65079 22.8894 8.94158 23.398 8.37883C24.1315 7.71447 25.077 7.33215 26.066 7.30003V6.40683C26.066 5.93123 26.24 5.68763 26.5996 5.68763C26.9592 5.68763 27.1448 5.91963 27.1448 6.38363V7.30003C27.6325 7.35886 28.1092 7.48779 28.56 7.68283C29.0106 7.86509 29.4091 8.156 29.72 8.52963C29.9612 8.79151 30.1607 9.08883 30.3116 9.41123C30.4408 9.67125 30.5121 9.9562 30.5204 10.2464C30.5211 10.3832 30.4937 10.5187 30.4398 10.6444C30.3859 10.7701 30.3068 10.8834 30.2072 10.9772C30.1125 11.0788 29.9974 11.1592 29.8695 11.2131C29.7416 11.2671 29.6037 11.2934 29.4648 11.2904C29.2052 11.2988 28.9516 11.2111 28.7526 11.0442C28.5535 10.8772 28.423 10.6428 28.386 10.3856C28.309 10.0553 28.1445 9.75174 27.9098 9.50683C27.6751 9.26192 27.3788 9.08465 27.052 8.99363V12.4736C27.748 12.6708 28.3048 12.8448 28.7108 12.9956C29.1366 13.1499 29.5299 13.382 29.8708 13.68C30.2207 14.0047 30.4975 14.4001 30.6828 14.84C30.8718 15.2876 30.9666 15.7694 30.9612 16.2552C30.9645 16.8831 30.8088 17.5016 30.5088 18.0532C30.1999 18.6275 29.7382 19.1052 29.1748 19.4336C28.5395 19.798 27.8293 20.0123 27.0984 20.06V22.1016ZM28.4208 15.3968C28.0311 15.0812 27.5812 14.8483 27.0984 14.7124V18.4012C27.6012 18.3309 28.0642 18.0891 28.4092 17.7168C28.7051 17.4028 28.8709 16.9883 28.8732 16.5568C28.8896 16.3419 28.8574 16.1261 28.7791 15.9253C28.7008 15.7246 28.5783 15.5439 28.4208 15.3968ZM24.8248 11.534C25.167 11.8137 25.5613 12.0226 25.9848 12.1488L26.008 8.92403C25.5853 9.02262 25.1894 9.21268 24.848 9.48083C24.7095 9.6151 24.6024 9.77829 24.5342 9.95876C24.466 10.1392 24.4385 10.3325 24.4536 10.5248C24.4391 10.7099 24.4648 10.8958 24.5289 11.07C24.5929 11.2442 24.6939 11.4025 24.8248 11.534ZM4.01962 32.7348C5.86816 30.9459 8.33255 29.9342 10.9048 29.9084C13.4444 29.8979 15.8935 30.8507 17.7582 32.5746C19.6229 34.2986 20.7646 36.6656 20.9529 39.1981C21.1413 41.7307 20.3623 44.2405 18.7732 46.2213C17.184 48.2022 14.9028 49.5068 12.3896 49.872C12.0648 51.7976 11.6008 56.8552 13.8396 60.1264C14.0134 60.3802 14.0793 60.6927 14.0228 60.9951C13.9662 61.2975 13.7918 61.565 13.538 61.7388C13.344 61.8636 13.1191 61.9319 12.8884 61.936C12.6984 61.9363 12.5113 61.8899 12.3434 61.8009C12.1755 61.7119 12.0321 61.5831 11.9256 61.4256C9.38525 57.6904 9.71005 52.424 10.0464 49.9532C7.48577 49.7076 5.11689 48.489 3.42805 46.5486C1.73922 44.6082 0.859137 42.0938 0.969198 39.5237C1.07926 36.9537 2.17108 34.5237 4.01962 32.7348ZM6.61274 46.3776C7.8832 47.2265 9.37687 47.6796 10.9048 47.6796C12.9529 47.6766 14.9161 46.8616 16.3643 45.4135C17.8125 43.9653 18.6274 42.002 18.6304 39.954C18.6304 38.4261 18.1773 36.9324 17.3284 35.6619C16.4795 34.3914 15.273 33.4012 13.8613 32.8165C12.4496 32.2318 10.8963 32.0788 9.39766 32.3769C7.89904 32.675 6.52247 33.4108 5.44202 34.4912C4.36158 35.5717 3.62579 36.9482 3.32769 38.4468C3.0296 39.9455 3.18259 41.4988 3.76732 42.9105C4.35206 44.3222 5.34227 45.5287 6.61274 46.3776ZM13.2248 39.548C12.9904 39.3376 12.719 39.1724 12.4244 39.0608C12.1229 38.9448 11.7284 38.8172 11.2645 38.678V36.1492C11.5022 36.215 11.718 36.3433 11.8894 36.5208C12.0608 36.6983 12.1814 36.9185 12.2388 37.1584C12.2646 37.3439 12.3585 37.5131 12.5021 37.6332C12.6458 37.7532 12.829 37.8156 13.016 37.808C13.1161 37.808 13.2151 37.7873 13.3069 37.7474C13.3987 37.7075 13.4813 37.6492 13.5496 37.576C13.6221 37.5103 13.6794 37.4295 13.7175 37.3394C13.7555 37.2492 13.7735 37.1518 13.7701 37.054C13.7655 36.8442 13.714 36.6381 13.6192 36.4508C13.5162 36.2166 13.3751 36.001 13.2016 35.8128C12.983 35.547 12.7048 35.3364 12.3896 35.198C12.018 35.0532 11.6272 34.9634 11.2296 34.9312V34.27C11.2296 33.9452 11.102 33.7712 10.8468 33.7712C10.5917 33.7712 10.464 33.9452 10.464 34.2816V34.9312C9.74784 34.9583 9.06321 35.233 8.52685 35.7084C8.16482 36.1191 7.93915 36.632 7.88097 37.1764C7.82279 37.7207 7.93498 38.2697 8.20205 38.7476C8.42349 39.086 8.73204 39.3585 9.09525 39.5364C9.53379 39.7478 9.99233 39.9149 10.464 40.0352V42.8772C10.2223 42.8133 9.9969 42.6986 9.80285 42.5408C9.64891 42.4038 9.52287 42.2384 9.43165 42.0536C9.32275 41.8046 9.22977 41.5489 9.15325 41.288C9.10559 41.1424 9.01196 41.0163 8.88645 40.9284C8.74765 40.8413 8.58629 40.7969 8.42245 40.8008C8.21521 40.7977 8.01505 40.8763 7.86527 41.0195C7.71549 41.1628 7.62812 41.3593 7.62205 41.5664C7.62407 41.8424 7.68332 42.1149 7.79605 42.3668C7.92262 42.6617 8.09922 42.9325 8.31805 43.1672C8.57442 43.4325 8.87713 43.6488 9.21125 43.8052C9.60826 43.9813 10.0315 44.0911 10.464 44.13V45.7772C10.4535 45.9212 10.4815 46.0653 10.5452 46.1948C10.5802 46.244 10.6277 46.2828 10.6828 46.3073C10.7379 46.3318 10.7986 46.341 10.8584 46.334C10.9208 46.3416 10.9839 46.3287 11.0383 46.2973C11.0927 46.266 11.1354 46.2178 11.1601 46.16C11.216 45.992 11.2396 45.8149 11.2296 45.638V44.1184C11.7609 44.0882 12.2775 43.9332 12.7376 43.666C13.1411 43.4296 13.4736 43.089 13.7004 42.68C13.916 42.2811 14.0277 41.8343 14.0252 41.3808C14.0289 41.0259 13.9577 40.6741 13.8164 40.3484C13.6795 40.042 13.4776 39.7689 13.2248 39.548ZM10.4524 38.4576C10.1533 38.3567 9.87446 38.2036 9.62885 38.0052C9.53539 37.9091 9.4633 37.7943 9.41732 37.6684C9.37134 37.5424 9.3525 37.4082 9.36205 37.2744C9.35127 37.1351 9.37171 36.9951 9.42188 36.8647C9.47205 36.7342 9.55068 36.6166 9.65205 36.5204C9.88543 36.3299 10.1592 36.195 10.4524 36.126V38.4576ZM12.1692 42.4364C11.9191 42.7073 11.5831 42.8835 11.218 42.9352V40.2672C11.5689 40.362 11.8966 40.5279 12.1808 40.7544C12.2927 40.859 12.3798 40.9872 12.436 41.1296C12.4922 41.2721 12.516 41.4253 12.5056 41.578C12.5174 41.7332 12.4977 41.8892 12.4479 42.0367C12.3981 42.1842 12.3191 42.3201 12.2157 42.4364H12.1692Z" fill="#1B1B1B"/>
</svg>
