<svg width="74" height="48" viewBox="0 0 74 48" fill="none" xmlns="http://www.w3.org/2000/svg">
<path fill-rule="evenodd" clip-rule="evenodd" d="M44.2997 0.0944499C44.5397 -0.0180582 44.8146 -0.0306662 45.0639 0.0593966C45.3131 0.149659 45.5163 0.335186 45.6288 0.575203C45.7414 0.81522 45.754 1.09009 45.6639 1.3394L43.6639 7.0094C43.5957 7.20454 43.4687 7.37374 43.3003 7.49372C43.132 7.6137 42.9306 7.67857 42.7239 7.6794C42.6079 7.67926 42.4929 7.65896 42.3839 7.6194C42.1347 7.52913 41.9315 7.34361 41.819 7.10359C41.7064 6.86357 41.6938 6.58871 41.7839 6.3394L43.7839 0.659397C43.8742 0.41016 44.0597 0.206958 44.2997 0.0944499ZM43.5039 20.5894L41.0139 21.1794L44.3439 31.7994C44.4255 32.0752 44.3959 32.372 44.2613 32.6263C44.1267 32.8805 43.8979 33.0719 43.6239 33.1594L41.3239 33.8894C41.2212 33.9255 41.1127 33.9424 41.0039 33.9394C40.7796 33.935 40.5624 33.8602 40.383 33.7256C40.2035 33.591 40.0709 33.4035 40.0039 33.1894L39.5839 31.8294C38.1068 31.5368 36.6087 31.3629 35.1039 31.3094C34.3412 31.2644 33.5766 31.2644 32.8139 31.3094C29.8439 31.5094 20.0839 33.2494 16.0839 33.9894L15.7739 34.0494C15.0239 34.1994 14.0339 34.4494 12.8539 34.7794L15.9339 42.9794C16.0981 43.4185 16.0951 43.9027 15.9255 44.3397C15.7558 44.7767 15.4314 45.1361 15.0139 45.3494L11.6839 47.0394C11.579 47.0947 11.4683 47.1383 11.3539 47.1694C11.1827 47.2244 11.0037 47.2514 10.8239 47.2494C10.4089 47.2505 10.0049 47.1164 9.6729 46.8674C9.34091 46.6184 9.09905 46.2681 8.9839 45.8694L6.4339 36.7294L6.0439 36.8594C5.72325 36.9748 5.38467 37.0323 5.0439 37.0294C4.38249 37.0328 3.73678 36.828 3.19832 36.4439C2.65986 36.0597 2.25596 35.5159 2.0439 34.8894L0.153899 29.0694C-0.0890423 28.3211 -0.0431415 27.5089 0.28257 26.7927C0.608282 26.0765 1.19022 25.5081 1.9139 25.1994L6.1239 23.3994L6.2739 23.3294L6.7039 23.1194L7.7039 22.6094L11.3639 20.7894H11.4539C19.6239 16.6994 24.7939 13.8694 26.5339 12.6394C27.1939 12.1594 27.8439 11.6494 28.4639 11.0994C29.738 9.97761 30.9216 8.75717 32.0039 7.4494L31.6139 6.1894C31.5359 5.92006 31.5609 5.63136 31.6839 5.3794C31.7488 5.25098 31.8389 5.13697 31.9489 5.04419C32.0588 4.95141 32.1864 4.88175 32.3239 4.8394L34.5739 4.1394C34.8507 4.06029 35.1473 4.08887 35.4039 4.2194C35.6564 4.35874 35.8434 4.59247 35.9239 4.8694L39.0139 14.7494L41.9439 14.0494C42.2289 13.9832 42.5285 14.0322 42.7776 14.1858C43.0267 14.3393 43.205 14.585 43.2739 14.8694L44.3239 19.2494C44.3818 19.5359 44.3357 19.8337 44.1939 20.0894C44.038 20.3397 43.7903 20.5192 43.5039 20.5894ZM32.6839 29.2694C33.5165 29.2194 34.3513 29.2194 35.1839 29.2694C36.427 29.31 37.6662 29.4302 38.8939 29.6294L32.6839 9.62939C31.766 10.6503 30.7911 11.6185 29.7639 12.5294C29.0939 13.1194 28.4039 13.6794 27.6939 14.1894C25.8639 15.5094 20.8639 18.2794 12.8639 22.2794C13.0635 23.9044 13.398 25.5099 13.8639 27.0794C14.3743 28.8112 15.198 30.4347 16.2939 31.8694C20.6839 31.0794 29.7439 29.4594 32.6839 29.2694ZM14.0339 43.5794L10.9239 35.3194L8.2739 36.1894L10.8739 45.1894L14.0339 43.5794ZM53.4039 27.9894L47.5439 25.3794C47.3012 25.272 47.0258 25.2654 46.7783 25.361C46.5307 25.4567 46.3313 25.6467 46.2239 25.8894C46.1165 26.1321 46.1099 26.4075 46.2055 26.655C46.3012 26.9026 46.4912 27.102 46.7339 27.2094L52.6239 29.8094C52.7496 29.8667 52.8858 29.8973 53.0239 29.8994C53.2519 29.8983 53.4726 29.8194 53.6496 29.6757C53.8266 29.532 53.9492 29.3322 53.997 29.1093C54.0449 28.8864 54.0151 28.6538 53.9127 28.4502C53.8103 28.2465 53.6414 28.0839 53.4339 27.9894H53.4039ZM72.8051 7.06634C72.9177 7.13418 73.0158 7.22357 73.0939 7.32939C73.1687 7.43929 73.2208 7.563 73.2473 7.69329C73.2737 7.82357 73.2739 7.95782 73.2478 8.08818C73.2217 8.21853 73.1699 8.34238 73.0954 8.45248C73.0209 8.56258 72.9252 8.65672 72.8139 8.7294L71.0439 10.0394C71.6239 10.5904 72.1528 11.1928 72.6239 11.8394C72.749 12.0107 72.8165 12.2173 72.8165 12.4294C72.8165 12.6415 72.749 12.8481 72.6239 13.0194C71.0831 15.0529 69.0783 16.6884 66.7769 17.7896C64.4755 18.8907 61.9441 19.4255 59.3939 19.3494C56.3926 19.3286 53.4204 18.7593 50.6239 17.6694C50.417 17.5744 50.2487 17.4115 50.1469 17.2079C50.0451 17.0042 50.0158 16.7719 50.0639 16.5494C50.2427 15.8649 50.4768 15.196 50.7639 14.5494L48.6239 13.3694C48.509 13.3037 48.4081 13.2161 48.3271 13.1114C48.2461 13.0068 48.1865 12.8872 48.1516 12.7596C48.1168 12.6319 48.1075 12.4986 48.1242 12.3673C48.1409 12.236 48.1832 12.1093 48.2489 11.9944C48.3146 11.8795 48.4022 11.7786 48.5068 11.6976C48.6115 11.6166 48.7311 11.5569 48.8587 11.5221C48.9864 11.4873 49.1197 11.478 49.251 11.4947C49.3823 11.5113 49.509 11.5537 49.6239 11.6194L51.7339 12.7594C52.267 11.8262 52.9008 10.9544 53.6239 10.1594L52.0939 7.6994C52.0095 7.47852 52.006 7.23487 52.0842 7.0117C52.1624 6.78853 52.3171 6.60029 52.521 6.4804C52.7248 6.3605 52.9645 6.31672 53.1975 6.35681C53.4306 6.3969 53.6419 6.51828 53.7939 6.6994L55.0639 8.7594C56.1748 7.86505 57.4433 7.18669 58.8039 6.7594L58.2939 4.9694C58.2227 4.71615 58.2541 4.44503 58.3814 4.21479C58.5087 3.98456 58.7215 3.81375 58.9739 3.7394C59.2285 3.66514 59.5022 3.69506 59.7347 3.82258C59.9673 3.95011 60.1396 4.16479 60.2139 4.41939L60.7639 6.3394C62.2669 6.12976 63.7967 6.22155 65.2639 6.6094L65.8839 4.16939C65.9489 3.91213 66.1134 3.69122 66.3412 3.55526C66.5691 3.4193 66.8416 3.37942 67.0989 3.4444C67.3562 3.50937 67.5771 3.67389 67.713 3.90174C67.849 4.1296 67.8889 4.40214 67.8239 4.6594L67.1539 7.2994C67.9957 7.69226 68.7963 8.16794 69.5439 8.71939L71.6939 7.1194C71.7996 7.04113 71.9196 6.98447 72.0472 6.95266C72.1748 6.92085 72.3074 6.91452 72.4375 6.93402C72.5675 6.95353 72.6924 6.99849 72.8051 7.06634ZM63.5739 13.2094H63.7039C63.8669 13.208 64.0244 13.1506 64.15 13.0468C64.2757 12.943 64.3618 12.7992 64.3939 12.6394L64.6139 11.4994C64.6189 11.4529 64.6189 11.4059 64.6139 11.3594C64.6144 11.1933 64.5566 11.0323 64.4506 10.9044C64.3447 10.7765 64.1972 10.6898 64.0339 10.6594C63.847 10.6242 63.6537 10.6644 63.4964 10.7712C63.339 10.878 63.2302 11.0427 63.1939 11.2294L62.9839 12.3794C62.9784 12.4225 62.9784 12.4662 62.9839 12.5094C62.9838 12.6769 63.043 12.8391 63.151 12.9672C63.259 13.0953 63.4088 13.1811 63.5739 13.2094ZM52.3239 16.1594C54.3835 16.8591 56.5311 17.2664 58.7039 17.3694H58.6839C59.2139 17.3894 59.7239 17.3694 60.2139 17.3494C59.1301 17.0791 58.168 16.4536 57.4811 15.5728C56.7942 14.6919 56.422 13.6064 56.4239 12.4894C56.4279 11.4639 56.7416 10.4636 57.3239 9.6194C55.0061 11.2142 53.2551 13.5045 52.3239 16.1594ZM64.3416 16.6375C66.7978 15.8552 68.9783 14.3844 70.6239 12.3994C69.0355 10.4945 66.8985 9.12566 64.5039 8.4794C65.1481 8.95532 65.6685 9.57904 66.0214 10.298C66.3743 11.0171 66.5492 11.8103 66.5316 12.6111C66.514 13.4118 66.3042 14.1966 65.92 14.8993C65.5392 15.5959 64.9981 16.1916 64.3416 16.6375Z" fill="#1B1B1B"/>
</svg>
