<?xml version="1.0" encoding="utf-8"?>
<!-- Generator: Adobe Illustrator 16.0.0, SVG Export Plug-In . SVG Version: 6.00 Build 0)  -->
<!DOCTYPE svg PUBLIC "-//W3C//DTD SVG 1.1//EN" "http://www.w3.org/Graphics/SVG/1.1/DTD/svg11.dtd">
<svg version="1.1" id="Layer_1" xmlns="http://www.w3.org/2000/svg" xmlns:xlink="http://www.w3.org/1999/xlink" x="0px" y="0px"
	 width="24px" height="15px" viewBox="0 0 24 15" enable-background="new 0 0 24 15" xml:space="preserve">
<path fill="#8E9BAA" d="M17.697,1.042l1.766,1.766l-5.984,5.984L9.445,4.758c-0.479-0.479-1.251-0.479-1.729,0l-7.357,7.369
	c-0.479,0.479-0.479,1.251,0,1.729c0.478,0.479,1.25,0.479,1.729,0l6.487-6.499l4.034,4.034c0.478,0.479,1.251,0.479,1.729,0
	l6.854-6.841l1.766,1.766C23.338,6.695,24,6.425,24,5.886V0.613C24.012,0.27,23.742,0,23.398,0h-5.26
	C17.586,0,17.316,0.662,17.697,1.042z"/>
</svg>
