<?xml version="1.0" encoding="utf-8"?>
<!-- Generator: Adobe Illustrator 16.0.0, SVG Export Plug-In . SVG Version: 6.00 Build 0)  -->
<!DOCTYPE svg PUBLIC "-//W3C//DTD SVG 1.1//EN" "http://www.w3.org/Graphics/SVG/1.1/DTD/svg11.dtd">
<svg version="1.1" id="Layer_1" xmlns="http://www.w3.org/2000/svg" xmlns:xlink="http://www.w3.org/1999/xlink" x="0px" y="0px"
	 width="24px" height="24px" viewBox="0 0 24 24" enable-background="new 0 0 24 24" xml:space="preserve">
<path fill="#07C03B" d="M21.334,0H2.667C1.2,0,0,1.2,0,2.667v18.667C0,22.8,1.2,24,2.667,24h18.667C22.8,24,24,22.8,24,21.334V2.667
	C24,1.2,22.8,0,21.334,0z M6.667,18.666c-0.733,0-1.333-0.6-1.333-1.332v-4C5.333,12.6,5.933,12,6.667,12S8,12.6,8,13.334v4
	C8,18.066,7.4,18.666,6.667,18.666z M12,18.666c-0.733,0-1.333-0.6-1.333-1.332V16c0-0.733,0.6-1.334,1.333-1.334
	s1.334,0.601,1.334,1.334v1.334C13.334,18.066,12.733,18.666,12,18.666z M12,12c-0.733,0-1.333-0.6-1.333-1.333
	c0-0.733,0.6-1.333,1.333-1.333s1.334,0.6,1.334,1.333C13.334,11.4,12.733,12,12,12z M17.334,18.666c-0.734,0-1.334-0.6-1.334-1.332
	V6.667c0-0.733,0.6-1.333,1.334-1.333c0.732,0,1.332,0.6,1.332,1.333v10.667C18.666,18.066,18.066,18.666,17.334,18.666z"/>
</svg>
