<svg width="488" height="319" viewBox="0 0 488 319" fill="none" xmlns="http://www.w3.org/2000/svg">
<path d="M10.977 145.749H185.013C186.424 145.749 187.569 146.89 187.569 148.297V220.509C187.569 221.916 186.424 223.057 185.013 223.057H10.977C9.56548 223.057 8.4212 221.916 8.4212 220.509V148.297C8.4212 146.89 9.56548 145.749 10.977 145.749Z" fill="#2F4B4C"/>
<path opacity="0.5" d="M144.069 163.725H23.04" stroke="#09292B" stroke-width="2" stroke-miterlimit="10" stroke-linecap="round"/>
<path opacity="0.5" d="M109.579 177.969H23.0404" stroke="#09292B" stroke-width="2" stroke-miterlimit="10" stroke-linecap="round"/>
<path opacity="0.5" d="M147.124 191.193H23.0404" stroke="#09292B" stroke-width="2" stroke-miterlimit="10" stroke-linecap="round"/>
<path opacity="0.5" d="M173.18 205.438H83.5744" stroke="#09292B" stroke-width="2" stroke-miterlimit="10" stroke-linecap="round"/>
<path opacity="0.5" d="M172.567 191.193H158.727" stroke="#09292B" stroke-width="2" stroke-miterlimit="10" stroke-linecap="round"/>
<path opacity="0.5" d="M173.18 177.969H121.068" stroke="#09292B" stroke-width="2" stroke-miterlimit="10" stroke-linecap="round"/>
<path d="M2.55592 173.841H66.8594C68.2709 173.841 69.4152 174.982 69.4152 176.389V227.032C69.4152 228.439 68.2709 229.58 66.8594 229.58H2.55592C1.1444 229.58 0.000137329 228.439 0.000137329 227.032V176.389C0.000137329 174.982 1.1444 173.841 2.55592 173.841Z" fill="#09292B"/>
<path opacity="0.5" d="M43.8572 184.403H8.28073" stroke="#09292B" stroke-width="2" stroke-miterlimit="10" stroke-linecap="round"/>
<path opacity="0.5" d="M23.5901 196.519H8.28101" stroke="#09292B" stroke-width="2" stroke-miterlimit="10" stroke-linecap="round"/>
<path opacity="0.5" d="M60.6108 184.403H52.4707" stroke="#09292B" stroke-width="2" stroke-miterlimit="10" stroke-linecap="round"/>
<path opacity="0.5" d="M45.6461 208.023H8.68953" stroke="#09292B" stroke-width="2" stroke-miterlimit="10" stroke-linecap="round"/>
<path opacity="0.5" d="M60.9553 220.127H8.29347" stroke="#09292B" stroke-width="2" stroke-miterlimit="10" stroke-linecap="round"/>
<path opacity="0.5" d="M60.6108 208.023H52.4707" stroke="#09292B" stroke-width="2" stroke-miterlimit="10" stroke-linecap="round"/>
<path opacity="0.5" d="M60.9553 196.519H30.3371" stroke="#09292B" stroke-width="2" stroke-miterlimit="10" stroke-linecap="round"/>
<path opacity="0.5" d="M198.354 122.141H162.79" stroke="#8E9BAA" stroke-width="2" stroke-miterlimit="10" stroke-linecap="round"/>
<path opacity="0.2" d="M153.015 168.974L187.569 190.289V166.248L153.015 168.974Z" fill="#09292B"/>
<path d="M154.19 109.082H224.257C225.796 109.082 227.043 110.326 227.043 111.86V167.038C227.043 168.572 225.796 169.816 224.257 169.816H154.19C152.652 169.816 151.405 168.572 151.405 167.038V111.86C151.405 110.326 152.652 109.082 154.19 109.082Z" fill="#09292B"/>
<path opacity="0.5" d="M178.087 134.244H162.79" stroke="#047323" stroke-width="2" stroke-miterlimit="10" stroke-linecap="round"/>
<path opacity="0.5" d="M215.108 122.141H206.98" stroke="#047323" stroke-width="2" stroke-miterlimit="10" stroke-linecap="round"/>
<path opacity="0.5" d="M215.465 157.852H196.808" stroke="#047323" stroke-width="2" stroke-miterlimit="10" stroke-linecap="round"/>
<path opacity="0.5" d="M215.108 145.749H196.808" stroke="#047323" stroke-width="2" stroke-miterlimit="10" stroke-linecap="round"/>
<path opacity="0.5" d="M215.465 134.244H184.834" stroke="#047323" stroke-width="2" stroke-miterlimit="10" stroke-linecap="round"/>
<path opacity="0.2" d="M69.4279 177.574L85.082 223.07H68.3801L69.4279 177.574Z" fill="#09292B"/>
<path d="M385.415 147.083C389.297 147.114 393.174 146.825 397.008 146.221L394.827 133.727C394.56 133.727 367.302 138.243 353.591 123.035L344.167 131.52C355.988 144.635 373.784 147.083 385.415 147.083Z" fill="#FFBC00"/>
<path d="M108.042 114.765V114.866C108.04 115.058 108.11 115.243 108.236 115.386C108.363 115.53 108.539 115.622 108.729 115.645C109.895 115.797 110.979 116.327 111.813 117.154C112.648 117.98 113.187 119.057 113.347 120.219C113.37 120.406 113.459 120.578 113.599 120.704C113.739 120.83 113.92 120.901 114.109 120.904H114.156C114.348 120.906 114.534 120.837 114.678 120.71C114.822 120.584 114.914 120.409 114.937 120.219C115.091 119.053 115.627 117.97 116.461 117.138C117.296 116.306 118.382 115.772 119.551 115.618C119.743 115.596 119.919 115.504 120.047 115.36C120.174 115.217 120.244 115.031 120.243 114.839V114.765C120.238 114.578 120.165 114.398 120.038 114.26C119.911 114.122 119.738 114.034 119.551 114.013C118.382 113.859 117.296 113.325 116.461 112.493C115.627 111.661 115.091 110.578 114.937 109.412C114.92 109.222 114.833 109.045 114.694 108.914C114.554 108.783 114.371 108.708 114.179 108.703H114.086C113.893 108.702 113.707 108.772 113.563 108.899C113.418 109.026 113.326 109.202 113.304 109.393C113.148 110.558 112.611 111.64 111.777 112.47C110.942 113.301 109.855 113.833 108.686 113.986C108.504 114.018 108.338 114.114 108.22 114.257C108.102 114.4 108.039 114.58 108.042 114.765Z" fill="#D550FF"/>
<path d="M124.68 94.2055V94.408C124.677 94.7909 124.816 95.1613 125.07 95.4487C125.323 95.7362 125.674 95.9204 126.055 95.9663C128.387 96.2706 130.555 97.3308 132.223 98.9835C133.892 100.636 134.97 102.79 135.291 105.113C135.336 105.487 135.516 105.831 135.796 106.083C136.076 106.335 136.438 106.478 136.815 106.485H136.909C137.293 106.487 137.664 106.349 137.952 106.096C138.241 105.843 138.425 105.494 138.471 105.113C138.78 102.781 139.851 100.615 141.519 98.9511C143.188 97.2875 145.36 96.2192 147.699 95.9118C148.082 95.8676 148.435 95.6842 148.69 95.3966C148.945 95.109 149.085 94.7375 149.082 94.3535V94.2055C149.072 93.8309 148.926 93.4727 148.672 93.1965C148.418 92.9203 148.073 92.7447 147.699 92.7017C145.36 92.3944 143.188 91.326 141.519 89.6624C139.851 87.9987 138.78 85.8327 138.471 83.5001C138.437 83.1195 138.264 82.7648 137.984 82.5034C137.705 82.2419 137.339 82.092 136.955 82.0821H136.768C136.383 82.0795 136.01 82.2189 135.722 82.4734C135.433 82.7279 135.249 83.0797 135.205 83.4611C134.893 85.7921 133.819 87.9554 132.15 89.6161C130.48 91.2768 128.308 92.3422 125.969 92.6472C125.604 92.7119 125.273 92.9043 125.037 93.1898C124.801 93.4753 124.674 93.8354 124.68 94.2055Z" fill="white"/>
<path d="M485.731 281.457L385.528 317.949C385.123 318.1 384.691 318.165 384.259 318.139L12.8854 301.955C12.144 301.899 11.443 301.596 10.8961 301.092C10.3491 300.588 9.98837 299.915 9.87234 299.18C9.75632 298.446 9.89185 297.694 10.2569 297.047C10.6219 296.399 11.1951 295.894 11.8834 295.613L105.466 260.782C105.87 260.629 106.301 260.556 106.734 260.567L484.716 275.09C485.462 275.143 486.167 275.447 486.718 275.952C487.268 276.457 487.632 277.133 487.75 277.871C487.867 278.609 487.732 279.365 487.365 280.016C486.999 280.667 486.423 281.175 485.731 281.457Z" fill="#2F4B4C"/>
<path d="M387.037 206.381C387.041 217.121 391.309 227.421 398.903 235.015C406.498 242.61 416.797 246.878 427.537 246.881C431.772 246.89 435.981 246.222 440.006 244.902C445.77 243.038 451.042 239.903 455.434 235.731C459.826 231.558 463.226 226.453 465.383 220.792C467.541 215.131 468.401 209.058 467.9 203.02C467.399 196.983 465.55 191.135 462.489 185.907C459.428 180.679 455.233 176.204 450.214 172.812C445.194 169.42 439.477 167.197 433.485 166.308C427.492 165.419 421.376 165.885 415.588 167.672C409.8 169.46 404.486 172.524 400.038 176.637C399.004 177.595 398.026 178.612 397.108 179.681C390.6 187.051 387.017 196.549 387.037 206.381Z" fill="#069A2F"/>
<path d="M398.707 184.4C397.905 182.931 397.365 181.335 397.108 179.681C396.918 178.083 397.451 177.208 398.377 176.789C398.897 176.532 399.494 176.478 400.051 176.637C401.84 177.056 403.438 179.263 404.351 180.975C406.101 184.171 407.091 185.541 408.955 188.586C409.26 189.118 409.564 189.651 409.907 190.146C410.403 188.44 411.343 186.896 412.631 185.673C413.919 184.449 415.509 183.59 417.238 183.182C419.499 182.948 421.774 183.469 423.707 184.666V184.539C423.649 184.161 423.649 183.776 423.707 183.398C423.761 182.423 424.094 181.485 424.668 180.695C425.242 179.905 426.031 179.298 426.941 178.946C427.789 178.75 428.672 178.764 429.514 178.985C430.355 179.206 431.131 179.627 431.774 180.214C433.069 181.322 434.16 182.648 434.995 184.133C436.353 186.264 437.684 187.939 438.978 189.981C439.242 190.325 439.471 190.695 439.663 191.084C439.485 190.717 439.392 190.313 439.392 189.905C439.392 189.496 439.485 189.093 439.663 188.725C439.852 188.295 440.172 187.936 440.576 187.698C441.1 187.414 441.69 187.275 442.285 187.295C442.881 187.315 443.46 187.493 443.963 187.812C444.981 188.49 445.821 189.404 446.411 190.475C447.809 193.074 448.92 195.817 449.722 198.657C452.935 208.102 457.59 216.992 463.522 225.014C458.603 234.473 450.161 241.617 440.018 244.902C439.181 244.103 438.534 243.076 437.583 242.366C435.921 240.996 433.638 240.805 431.507 240.387C424.087 238.941 417.657 234.299 412.038 229.25C408.461 226.016 405.112 222.553 401.725 219.103C400.355 217.839 399.198 216.361 398.301 214.727C397.502 213.053 397.032 210.554 398.225 209.375C399.417 208.195 400.964 208.766 402.334 209.298C403.191 209.656 403.997 210.125 404.732 210.694C406.444 211.962 408.803 214.042 410.934 215.767C413.065 217.492 414.422 218.926 415.564 218.203C416.705 217.48 415.107 214.968 414.08 212.837C413.052 210.706 399.315 185.732 398.707 184.4ZM416.921 199.912C417.27 200.368 417.7 200.755 418.189 201.054C418.444 201.186 418.733 201.238 419.018 201.204C419.302 201.17 419.571 201.052 419.787 200.864C420.048 200.529 420.171 200.106 420.13 199.684C419.933 198.47 419.421 197.328 418.646 196.373C418.111 195.398 417.248 194.644 416.211 194.243C415.873 194.141 415.512 194.153 415.182 194.277C414.852 194.401 414.572 194.629 414.384 194.927C414.143 195.342 414.024 195.818 414.042 196.297C415.018 197.515 415.97 198.733 416.921 199.912Z" fill="#FFC933"/>
<path d="M439.549 170.879V171.107C439.55 171.53 439.707 171.937 439.991 172.251C440.274 172.565 440.663 172.763 441.084 172.807C443.702 173.15 446.133 174.349 448 176.215C449.867 178.082 451.065 180.514 451.409 183.131C451.461 183.551 451.663 183.937 451.977 184.219C452.292 184.502 452.698 184.66 453.121 184.666H453.261C453.682 184.66 454.086 184.501 454.399 184.218C454.712 183.936 454.911 183.55 454.96 183.131C455.301 180.515 456.497 178.084 458.362 176.217C460.227 174.35 462.656 173.151 465.272 172.807C465.694 172.763 466.085 172.566 466.37 172.252C466.656 171.939 466.816 171.531 466.82 171.107V170.879C466.815 170.456 466.655 170.05 466.369 169.739C466.084 169.427 465.693 169.232 465.272 169.192C462.656 168.848 460.227 167.649 458.362 165.782C456.497 163.915 455.301 161.484 454.96 158.867C454.923 158.439 454.728 158.041 454.414 157.748C454.101 157.456 453.69 157.289 453.261 157.281H453.045C452.62 157.283 452.211 157.442 451.897 157.728C451.583 158.014 451.386 158.406 451.345 158.829C451.001 161.445 449.802 163.875 447.935 165.74C446.068 167.604 443.637 168.8 441.021 169.141C440.605 169.2 440.225 169.41 439.954 169.73C439.683 170.05 439.539 170.459 439.549 170.879Z" fill="#D550FF"/>
<path d="M365.298 244.73V244.871C365.302 245.106 365.383 245.331 365.527 245.506C365.67 245.681 365.867 245.792 366.081 245.821C367.413 246.015 368.649 246.68 369.6 247.716C370.551 248.751 371.163 250.098 371.342 251.55C371.367 251.785 371.469 252.001 371.629 252.159C371.789 252.318 371.997 252.407 372.213 252.411H372.322C372.538 252.407 372.744 252.317 372.903 252.159C373.063 252 373.163 251.784 373.186 251.55C373.363 250.091 373.976 248.736 374.931 247.696C375.886 246.656 377.129 245.989 378.468 245.799C378.678 245.771 378.872 245.662 379.016 245.492C379.159 245.322 379.242 245.102 379.251 244.871V244.752C379.249 244.517 379.168 244.291 379.024 244.116C378.88 243.941 378.682 243.83 378.468 243.803C377.129 243.612 375.886 242.945 374.931 241.905C373.976 240.865 373.363 239.51 373.186 238.051C373.166 237.816 373.066 237.598 372.907 237.439C372.747 237.28 372.538 237.191 372.322 237.19H372.213C371.996 237.191 371.787 237.279 371.626 237.438C371.465 237.597 371.364 237.816 371.342 238.051C371.166 239.509 370.554 240.863 369.6 241.903C368.646 242.943 367.405 243.611 366.067 243.803C365.859 243.832 365.667 243.942 365.526 244.112C365.385 244.282 365.305 244.501 365.298 244.73Z" fill="white"/>
<path opacity="0.2" d="M429.377 197.337C428.921 193.748 424.152 187.469 422.363 185.351L424.063 183.918C424.342 184.247 430.938 192.086 431.572 197.046L429.377 197.337Z" fill="#09292B"/>
<path opacity="0.2" d="M441.732 197.87C441.476 195.454 440.505 193.171 438.941 191.312L440.514 189.752C442.438 191.949 443.634 194.687 443.939 197.591L441.732 197.87Z" fill="#09292B"/>
<path d="M12.9233 301.955L371.347 317.581L384.323 318.139C384.754 318.163 385.185 318.098 385.591 317.949L387.57 317.226L387.443 317.099L393.201 315.159L485.794 281.457C486.507 281.189 487.106 280.684 487.489 280.026C487.873 279.369 488.018 278.599 487.9 277.847C487.783 277.094 487.409 276.406 486.843 275.897C486.277 275.388 485.553 275.089 484.792 275.052L383.523 313.104L11.9086 295.536C11.1738 295.788 10.5511 296.29 10.1504 296.955C9.74957 297.62 9.59631 298.405 9.71756 299.172C9.83884 299.939 10.2268 300.639 10.8132 301.148C11.3997 301.657 12.1469 301.942 12.9233 301.955Z" fill="#09292B"/>
<path d="M166.298 30.2937H132.435" stroke="#064F06" stroke-width="1.5" stroke-linecap="round" stroke-linejoin="round"/>
<path d="M124.442 0H179.523C181.772 0 183.596 1.82342 183.596 4.07271V63.6228C183.596 65.8721 181.772 67.6955 179.523 67.6955H124.442C122.193 67.6955 120.369 65.8721 120.369 63.6228V4.07271C120.369 1.82342 122.193 0 124.442 0Z" fill="url(#paint0_linear)"/>
<path d="M195.615 154.519C195.61 176.417 204.073 197.469 219.232 213.272C234.392 229.074 255.075 238.403 276.955 239.307C298.835 240.211 320.216 232.619 336.628 218.121C353.039 203.622 363.209 183.339 365.009 161.515C366.81 139.691 360.102 118.015 346.289 101.023C332.476 84.0307 312.628 73.0374 290.896 70.3428C269.164 67.6482 247.232 73.4609 229.687 86.5651C212.142 99.6693 200.343 119.05 196.759 140.653C195.983 145.234 195.6 149.873 195.615 154.519Z" fill="#39CD62"/>
<path d="M269.641 164.22L267.094 173.937L262.014 200.814C270.831 201.287 289.837 195.216 297.372 189.892C295.298 188.469 293.465 186.723 291.942 184.721L292.11 172.717C287.854 171.313 287.381 157.89 287.381 157.89C290.295 158.607 293.91 156.365 294.016 150.904C294.123 145.443 288.022 145.519 288.022 145.519C288.022 145.519 285.169 143.369 284.849 136.55C284.776 134.334 285.182 132.128 286.039 130.083C277.481 131.715 270.343 138.167 264.989 146.862C256.721 160.758 269.641 164.22 269.641 164.22Z" fill="#CC6E00"/>
<path d="M284.01 142.286C284.447 141.479 284.84 140.649 285.184 139.799C284.987 138.793 284.864 137.773 284.818 136.749C284.732 134.523 285.149 132.307 286.039 130.266C286.039 130.266 287.305 124.774 290.417 124.668C291.789 124.668 292.064 125.903 293.132 126.651C294.449 127.426 295.951 127.832 297.479 127.825C299.858 127.825 302.345 127.566 304.541 128.435C305.37 128.768 306.124 129.263 306.758 129.892C307.392 130.521 307.893 131.27 308.233 132.096C308.688 133.646 309.06 135.22 309.346 136.81C310.261 140.043 312.733 142.545 314.548 145.382C316.363 148.219 317.431 152.063 315.448 154.778C314.532 156.044 313.083 156.929 311.985 158.149C309.926 160.712 310.231 164.693 307.958 167.134C305.685 169.574 302.33 169.498 299.447 170.81C294.779 173.067 291.011 174.349 288.647 168.72C287.945 167.058 285.276 159.568 287.228 158.043C289.181 156.517 293.803 154.473 293.864 151.056C293.864 148.448 290.706 145.123 288.098 145.611V145.718H287.93C287.211 145.886 286.587 146.33 286.191 146.953C285.779 147.716 285.398 148.479 285.062 149.272C284.952 149.584 284.766 149.865 284.521 150.088C284.277 150.312 283.98 150.472 283.659 150.553C283.399 150.553 283.14 150.507 282.896 150.416L280.852 149.79C280.683 149.759 280.531 149.667 280.425 149.531C280.384 149.437 280.362 149.336 280.362 149.234C280.362 149.131 280.384 149.03 280.425 148.936C281.468 146.64 282.665 144.418 284.01 142.286Z" fill="#062324"/>
<path d="M196.79 141.684C198.392 146.672 200.085 151.752 201.961 156.938C206.606 170.148 212.373 182.936 219.198 195.163L216.147 210.814C223.99 219.933 233.684 227.277 244.586 232.359C255.487 237.441 267.345 240.144 279.372 240.289C291.399 240.433 303.318 238.015 314.338 233.196C325.359 228.377 335.226 221.267 343.286 212.339C335.064 205.704 319.551 193.714 310.552 190.755C297.876 186.637 293.117 183.479 293.117 183.479C293.117 183.479 270.709 189.748 263.433 179.773C256.157 169.797 233.399 152.713 228.685 146.901C226.169 143.85 216.971 126.095 208.856 110.033C201.641 95.7252 195.234 82.7443 195.234 82.7443C195.234 82.7443 184.435 79.0377 183.611 85.2459C183.214 88.4034 187.516 112.779 196.79 141.684Z" fill="#2F4B4C"/>
<path d="M183.626 85.2452L180.209 67.5815H197.232L195.249 82.7436L183.626 85.2452Z" fill="#CC6E00"/>
<path d="M166.298 40.8799H132.435" stroke="#064F06" stroke-width="1.5" stroke-linecap="round" stroke-linejoin="round"/>
<path d="M197.232 174.593C193.753 174.593 190.933 171.772 190.933 168.293C190.933 164.814 193.753 161.993 197.232 161.993C200.711 161.993 203.532 164.814 203.532 168.293C203.532 171.772 200.711 174.593 197.232 174.593Z" fill="#FFBC00"/>
<path d="M177.219 0H201.686C203.245 0 204.508 1.26342 204.508 2.82192V64.8736C204.508 66.4321 203.245 67.6955 201.686 67.6955H177.219C175.661 67.6955 174.398 66.4321 174.398 64.8736V2.82192C174.398 1.26342 175.661 0 177.219 0Z" fill="#39CD62"/>
<path d="M197.934 31.5598H190.322" stroke="#064F06" stroke-width="1.5" stroke-linecap="round" stroke-linejoin="round"/>
<path d="M197.934 40.6965H179.797" stroke="#064F06" stroke-width="1.5" stroke-linecap="round" stroke-linejoin="round"/>
<path d="M197.934 49.8335H187.058" stroke="#064F06" stroke-width="1.5" stroke-linecap="round" stroke-linejoin="round"/>
<path d="M164.484 291.934L114.839 306.394L40.1051 303.134L89.8136 288.662L164.484 291.934Z" fill="url(#paint1_linear)"/>
<path d="M257.014 296.006L207.445 310.44L122.729 306.736L172.374 292.289L257.014 296.006Z" fill="url(#paint2_linear)"/>
<path d="M339.561 299.621L290.081 314.042L215.347 310.783L264.891 296.348L339.561 299.621Z" fill="url(#paint3_linear)"/>
<path d="M386.39 285.985L347.146 297.414L272.463 294.141L311.72 282.713L386.39 285.985Z" fill="url(#paint4_linear)"/>
<path d="M211.313 278.299L172.069 289.727L97.3859 286.455L136.643 275.014L211.313 278.299Z" fill="url(#paint5_linear)"/>
<path d="M303.83 282.358L264.586 293.799L179.946 290.082L219.203 278.641L303.83 282.358Z" fill="url(#paint6_linear)"/>
<path d="M425.495 303.4L393.201 315.159L387.532 317.226L385.553 317.949C385.148 318.098 384.716 318.163 384.285 318.139L371.36 317.581L297.983 314.385L347.45 299.976L425.495 303.4Z" fill="url(#paint7_linear)"/>
<path d="M32.2157 302.792L12.9234 301.955C12.1811 301.902 11.4784 301.6 10.9296 301.097C10.3808 300.594 10.0182 299.921 9.90061 299.186C9.78304 298.451 9.91747 297.698 10.282 297.049C10.6466 296.401 11.2199 295.894 11.9087 295.613L36.7186 286.379L81.9369 288.307L32.2157 302.792Z" fill="url(#paint8_linear)"/>
<path d="M144.215 272.82L177.143 263.218L253.056 266.135L218.886 276.092L144.215 272.82Z" fill="url(#paint9_linear)"/>
<path d="M80.5289 270.017L105.491 260.732C105.896 260.58 106.327 260.507 106.759 260.516L169.126 262.913L136.326 272.464L80.5289 270.017Z" fill="url(#paint10_linear)"/>
<path d="M226.775 276.434L261.073 266.452L347.108 269.763L311.415 280.151L226.775 276.434Z" fill="url(#paint11_linear)"/>
<path d="M77.3709 272.414L128.703 274.671L89.4587 286.087L42.8197 284.121L76.2927 271.665C76.3871 271.876 76.5375 272.058 76.7275 272.19C76.9175 272.322 77.14 272.399 77.3709 272.414Z" fill="url(#paint12_linear)"/>
<path d="M467.111 286.987L401.852 284.121L439.041 273.289L484.704 275.052C485.471 275.071 486.208 275.356 486.788 275.858C487.369 276.361 487.757 277.049 487.885 277.806C488.014 278.562 487.876 279.34 487.495 280.006C487.113 280.673 486.512 281.185 485.794 281.457L468.291 287.799C468.199 287.561 468.037 287.356 467.826 287.211C467.616 287.066 467.366 286.988 467.111 286.987Z" fill="url(#paint13_linear)"/>
<path d="M319.292 280.506L355.124 270.067L431.025 272.984L393.963 283.778L319.292 280.506Z" fill="url(#paint14_linear)"/>
<path opacity="0.4" d="M81.9369 288.307L36.7186 286.328L42.8196 284.121L89.5092 286.163L128.753 274.748L77.3707 272.414C77.1239 272.403 76.8857 272.321 76.6851 272.176C76.4846 272.032 76.3305 271.833 76.2418 271.602L80.4783 270.016L136.288 272.464L169.088 262.913L177.092 263.218L144.114 272.82L218.784 276.092L252.955 266.135L260.971 266.452L226.724 276.435L311.365 280.151L347.057 269.763L355.074 270.067L319.241 280.506L393.963 283.779L431.025 272.985L439.041 273.289L401.852 284.121L467.111 286.988C467.361 287 467.601 287.087 467.802 287.236C468.003 287.384 468.155 287.589 468.24 287.825L463.953 289.398L394.267 286.328L355.023 297.744L431.71 301.105L425.495 303.375L347.45 299.951L297.983 314.36L290.094 314.017L339.561 299.595L264.89 296.323L215.334 310.757L207.445 310.415L257.014 295.981L172.374 292.264L122.729 306.711L114.839 306.369L164.484 291.909L89.8137 288.637L40.1052 303.147L32.2158 302.805L81.9369 288.307ZM347.146 297.414L386.39 285.998L311.72 282.726L272.463 294.141L347.146 297.414ZM264.586 293.799L303.83 282.383L219.203 278.667L179.946 290.083L264.586 293.799ZM172.069 289.727L211.313 278.312L136.643 275.027L97.3226 286.442L172.069 289.727Z" fill="#09292B"/>
<defs>
<linearGradient id="paint0_linear" x1="223.743" y1="93.2911" x2="52.5214" y2="-48.5523" gradientUnits="userSpaceOnUse">
<stop offset="0.26" stop-color="#39CD62" stop-opacity="0"/>
<stop offset="0.8" stop-color="#005558"/>
</linearGradient>
<linearGradient id="paint1_linear" x1="-1742.25" y1="4448.1" x2="-56057.3" y2="4448.1" gradientUnits="userSpaceOnUse">
<stop offset="0.26" stop-color="#39CD62" stop-opacity="0"/>
<stop offset="0.8" stop-color="#005558"/>
</linearGradient>
<linearGradient id="paint2_linear" x1="-1801.58" y1="4604.73" x2="-60442.6" y2="4604.73" gradientUnits="userSpaceOnUse">
<stop offset="0.26" stop-color="#39CD62" stop-opacity="0"/>
<stop offset="0.8" stop-color="#005558"/>
</linearGradient>
<linearGradient id="paint3_linear" x1="-1564.64" y1="4553.73" x2="-55807.7" y2="4553.73" gradientUnits="userSpaceOnUse">
<stop offset="0.26" stop-color="#39CD62" stop-opacity="0"/>
<stop offset="0.8" stop-color="#005558"/>
</linearGradient>
<linearGradient id="paint4_linear" x1="-1360.12" y1="3644.62" x2="-51111.1" y2="3644.62" gradientUnits="userSpaceOnUse">
<stop offset="0.26" stop-color="#39CD62" stop-opacity="0"/>
<stop offset="0.8" stop-color="#005558"/>
</linearGradient>
<linearGradient id="paint5_linear" x1="-1535.19" y1="3550.51" x2="-51286.2" y2="3550.51" gradientUnits="userSpaceOnUse">
<stop offset="0.26" stop-color="#39CD62" stop-opacity="0"/>
<stop offset="0.8" stop-color="#005558"/>
</linearGradient>
<linearGradient id="paint6_linear" x1="-1595.32" y1="3698.9" x2="-55694.4" y2="3698.9" gradientUnits="userSpaceOnUse">
<stop offset="0.26" stop-color="#39CD62" stop-opacity="0"/>
<stop offset="0.8" stop-color="#005558"/>
</linearGradient>
<linearGradient id="paint7_linear" x1="-1529.26" y1="4726.81" x2="-57212.5" y2="4726.81" gradientUnits="userSpaceOnUse">
<stop offset="0.26" stop-color="#39CD62" stop-opacity="0"/>
<stop offset="0.8" stop-color="#005558"/>
</linearGradient>
<linearGradient id="paint8_linear" x1="-1023.01" y1="4097.98" x2="-32498.6" y2="4097.98" gradientUnits="userSpaceOnUse">
<stop offset="0.26" stop-color="#39CD62" stop-opacity="0"/>
<stop offset="0.8" stop-color="#005558"/>
</linearGradient>
<linearGradient id="paint9_linear" x1="-1415.48" y1="3000.28" x2="-48945.3" y2="3000.28" gradientUnits="userSpaceOnUse">
<stop offset="0.26" stop-color="#39CD62" stop-opacity="0"/>
<stop offset="0.8" stop-color="#005558"/>
</linearGradient>
<linearGradient id="paint10_linear" x1="-1189.07" y1="2771.03" x2="-39878.7" y2="2771.03" gradientUnits="userSpaceOnUse">
<stop offset="0.26" stop-color="#39CD62" stop-opacity="0"/>
<stop offset="0.8" stop-color="#005558"/>
</linearGradient>
<linearGradient id="paint11_linear" x1="-1497.59" y1="3218.1" x2="-54045.7" y2="3218.1" gradientUnits="userSpaceOnUse">
<stop offset="0.26" stop-color="#39CD62" stop-opacity="0"/>
<stop offset="0.8" stop-color="#005558"/>
</linearGradient>
<linearGradient id="paint12_linear" x1="-1187.89" y1="3442.27" x2="-38692.2" y2="3442.27" gradientUnits="userSpaceOnUse">
<stop offset="0.26" stop-color="#39CD62" stop-opacity="0"/>
<stop offset="0.8" stop-color="#005558"/>
</linearGradient>
<linearGradient id="paint13_linear" x1="-831.681" y1="3482.85" x2="-38422.2" y2="3482.85" gradientUnits="userSpaceOnUse">
<stop offset="0.26" stop-color="#39CD62" stop-opacity="0"/>
<stop offset="0.8" stop-color="#005558"/>
</linearGradient>
<linearGradient id="paint14_linear" x1="-1281.84" y1="3263.67" x2="-50074.6" y2="3263.67" gradientUnits="userSpaceOnUse">
<stop offset="0.26" stop-color="#39CD62" stop-opacity="0"/>
<stop offset="0.8" stop-color="#005558"/>
</linearGradient>
</defs>
</svg>
