<svg width="119" height="26" viewBox="0 0 119 26" fill="none" xmlns="http://www.w3.org/2000/svg">
<path d="M31.663 4.86328H33.6764V10.4496C34.5055 9.22578 35.6109 8.63359 36.9532 8.63359C38.789 8.63359 39.8352 9.64032 39.8352 11.6538V18.5035H37.8218V12.1868C37.8218 10.805 37.3086 10.4102 36.3018 10.4102C35.6899 10.4102 35.078 10.7852 34.5252 11.5156C33.9725 12.246 33.6764 13.2132 33.6764 14.4174V18.5232H31.663V4.86328Z" fill="#829191"/>
<path d="M50.0012 14.2199H43.112C43.112 15.7399 44.0003 16.9046 45.5203 16.9046C46.606 16.9046 47.5929 16.2926 48.0667 15.2662L49.7841 15.9373C48.7971 17.8521 47.6719 18.6811 45.5203 18.6811C42.3224 18.6811 40.9801 15.9768 40.9801 13.6672C40.9801 11.3577 42.3027 8.65332 45.5203 8.65332C48.6194 8.65332 50.0012 11.18 50.0012 13.3514V14.2199ZM43.1515 12.5421H47.8693C47.6916 11.3182 46.8823 10.4299 45.5203 10.4299C44.2372 10.4102 43.3884 11.2787 43.1515 12.5421Z" fill="#829191"/>
<path d="M65.7337 8.63359C66.2074 8.63359 66.7009 8.77177 67.2142 9.02838C67.7274 9.285 68.1025 9.54162 68.3393 9.87719V4.86328H70.3528V18.5232H68.3393V17.3981C67.9643 18.0297 66.8786 18.6812 65.6942 18.6812C62.8517 18.6812 61.3514 16.8256 61.3514 13.6672C61.3712 10.5681 62.8911 8.63359 65.7337 8.63359ZM63.4833 13.6475C63.4833 14.6345 63.7202 15.4241 64.1742 16.0163C64.6283 16.5887 65.2402 16.8848 65.9706 16.8848C66.7009 16.8848 67.2931 16.5887 67.7669 16.0163C68.2209 15.4241 68.4578 14.6345 68.4578 13.6475C68.4578 12.6605 68.2209 11.8709 67.7669 11.2985C67.3129 10.7063 66.7009 10.4102 65.9706 10.4102C65.2402 10.4102 64.648 10.7063 64.1742 11.2985C63.7202 11.8709 63.4833 12.6802 63.4833 13.6475Z" fill="#829191"/>
<path d="M78.0318 10.1733L76.7684 11.2985C76.3144 10.7063 75.742 10.4102 75.0708 10.4102C74.5378 10.4102 74.1036 10.7655 74.1036 11.3775C74.1036 11.5946 74.2023 11.8117 74.3602 11.9697C74.6958 12.3052 75.0116 12.4434 75.8407 12.7593C76.5118 13.0159 76.8079 13.1146 77.3409 13.4699C78.1107 13.9239 78.4858 14.5161 78.5648 15.5623C78.5845 16.3914 78.2489 17.2007 77.637 17.7534C77.0251 18.3456 76.2157 18.6417 75.1893 18.6417C73.3337 18.6417 72.0309 17.4376 71.4189 16.0361L73.1166 15.1083C73.6298 16.2927 74.3404 16.8651 75.2485 16.8651C76.117 16.8651 76.5513 16.4506 76.5513 15.6018C76.5513 15.2662 76.4131 15.0491 76.0578 14.8319C75.8999 14.7332 75.742 14.6345 75.5643 14.5556C75.2682 14.4174 74.5576 14.1608 74.2615 14.0423C72.8797 13.4699 72.1691 12.5816 72.1691 11.3775C72.1493 10.6274 72.4652 9.91672 73.0179 9.42323C73.5706 8.89025 74.2812 8.61389 75.1498 8.61389C76.3342 8.63363 77.4001 9.22582 78.0318 10.1733Z" fill="#829191"/>
<path d="M84.4669 18.6616C83.322 18.6616 82.3547 18.1286 81.8612 17.4377V22.4517H79.8478V8.79171H81.8612V9.89714C82.2363 9.26546 83.322 8.63379 84.5064 8.63379C87.3489 8.63379 88.8491 10.4893 88.8491 13.6477C88.8491 16.7469 87.3292 18.6616 84.4669 18.6616ZM86.7172 13.6674C86.7172 12.6805 86.4804 11.8909 86.0263 11.3184C85.5723 10.7262 84.9604 10.4301 84.23 10.4301C83.4996 10.4301 82.9075 10.7262 82.4337 11.3184C81.9797 11.8909 81.7428 12.6805 81.7428 13.6674C81.7428 14.6544 81.9797 15.444 82.4337 16.0362C82.8877 16.6087 83.4996 16.9048 84.23 16.9048C84.9604 16.9048 85.5526 16.6087 86.0263 16.0362C86.5001 15.4243 86.7172 14.6347 86.7172 13.6674Z" fill="#829191"/>
<path d="M108.727 15.9965C107.938 17.7929 106.536 18.6811 104.523 18.6811C103.062 18.6811 101.917 18.2074 101.127 17.2599C100.338 16.2926 99.943 15.1082 99.943 13.6672C99.943 12.2262 100.338 11.0418 101.127 10.0943C101.917 9.12707 103.062 8.65332 104.523 8.65332C106.556 8.65332 107.938 9.54161 108.727 11.3379L106.931 12.1078C106.437 10.9826 105.628 10.4299 104.523 10.4299C102.884 10.4299 102.075 11.713 102.075 13.6672C102.075 15.6215 102.884 16.9046 104.523 16.9046C105.628 16.9046 106.437 16.3518 106.931 15.2267L108.727 15.9965Z" fill="#829191"/>
<path d="M118.439 14.2199H111.55C111.55 15.7399 112.438 16.9046 113.958 16.9046C115.064 16.9046 116.051 16.2532 116.505 15.2662L118.222 15.9373C117.235 17.8521 116.11 18.6811 113.958 18.6811C110.76 18.6811 109.418 15.9768 109.418 13.6672C109.418 11.3577 110.741 8.65332 113.958 8.65332C117.057 8.65332 118.439 11.18 118.439 13.3514V14.2199ZM111.589 12.5421H116.307C116.13 11.3182 115.32 10.4299 113.958 10.4299C112.675 10.4102 111.826 11.2787 111.589 12.5421Z" fill="#829191"/>
<path d="M55.5086 8.65332C55.9823 8.65332 56.4758 8.7915 56.9891 9.04812C57.5023 9.30473 57.8774 9.56135 58.1142 9.89693V8.81124H60.1277V18.543H58.4498L58.1142 17.4178C57.7392 18.0495 56.6535 18.7009 55.4691 18.7009C52.6266 18.7009 51.1263 16.8453 51.1263 13.687C51.1263 10.5878 52.6463 8.65332 55.5086 8.65332ZM53.2385 13.6672C53.2385 14.6542 53.4754 15.4438 53.9294 16.036C54.3834 16.6085 54.9953 16.9046 55.7257 16.9046C56.4561 16.9046 57.0483 16.6085 57.522 16.036C57.9761 15.4438 58.2129 14.6542 58.2129 13.6672C58.2129 12.6802 57.9761 11.8907 57.522 11.3182C57.068 10.726 56.4561 10.4299 55.7257 10.4299C54.9953 10.4299 54.4032 10.726 53.9294 11.3182C53.4754 11.8907 53.2385 12.6802 53.2385 13.6672Z" fill="#829191"/>
<path d="M94.1788 8.65332C94.6525 8.65332 95.146 8.7915 95.6592 9.04812C96.1725 9.30473 96.5475 9.56135 96.7844 9.89693V8.81124H98.7979V18.543H97.12L96.7844 17.4178C96.4093 18.0495 95.3237 18.7009 94.1393 18.7009C91.2967 18.7009 89.7965 16.8453 89.7965 13.687C89.7965 10.5878 91.3165 8.65332 94.1788 8.65332ZM91.9087 13.6672C91.9087 14.6542 92.1455 15.4438 92.5996 16.036C93.0536 16.6085 93.6655 16.9046 94.3959 16.9046C95.1263 16.9046 95.7185 16.6085 96.1922 16.036C96.6462 15.4438 96.8831 14.6542 96.8831 13.6672C96.8831 12.6802 96.6462 11.8907 96.1922 11.3182C95.7382 10.726 95.1263 10.4299 94.3959 10.4299C93.6655 10.4299 93.0733 10.726 92.5996 11.3182C92.1455 11.8907 91.9087 12.6802 91.9087 13.6672Z" fill="#829191"/>
<path d="M25.4449 12.4235C25.741 16.5491 23.8262 18.8982 22.6616 20.5366C20.8653 22.4316 18.5952 25.0175 12.7917 25.1557C7.87647 25.3531 5.46821 23.1817 3.45475 21.3262C0.809612 18.4244 0.118719 16.7071 0.000279603 12.4433C-0.0194602 9.81786 1.00701 7.2122 2.76385 4.92239C5.23133 1.42844 9.1793 0.263789 12.8114 0.00717141C16.6212 -0.131007 19.6611 1.78376 21.7338 3.85644C24.3592 6.62001 25.1883 9.00853 25.4449 12.4235Z" fill="#829191"/>
</svg>
