<svg width="99" height="22" viewBox="0 0 99 22" fill="none" xmlns="http://www.w3.org/2000/svg">
<path d="M6.77849 14.6603C10.0833 14.6603 11.3724 12.6422 11.3724 9.18944C11.3724 5.73744 9.86484 3.33049 6.87533 3.33049H3.52482V14.6603H6.77849ZM0 0.316193H7.31302C11.9549 0.316193 14.9444 4.06025 14.9444 9.18944C14.9444 12.0093 13.9962 14.4898 12.1734 16.0214C10.8851 17.0904 9.2079 17.6986 7.02097 17.6986H0V0.316193ZM25.0115 11.4755C25.0115 9.04379 23.8696 7.39062 21.8523 7.39062C19.8102 7.39062 18.6916 9.04379 18.6916 11.4755C18.6916 13.9065 19.8102 15.5349 21.8523 15.5349C23.8696 15.5349 25.0115 13.9065 25.0115 11.4755ZM15.338 11.4755C15.338 7.75549 17.9874 4.88683 21.8523 4.88683C25.7164 4.88683 28.3659 7.75549 28.3659 11.4755C28.3659 15.194 25.7164 18.0634 21.8523 18.0634C17.9866 18.0634 15.3372 15.1948 15.3372 11.4755H15.338ZM28.912 11.4755C28.912 7.75549 31.343 4.88683 35.1343 4.88683C38.3678 4.88683 40.3603 6.75925 40.798 9.45748H37.5652C37.3468 8.36362 36.4962 7.53626 35.2807 7.53626C33.2874 7.53626 32.2672 9.06858 32.2672 11.4755C32.2672 13.8337 33.2146 15.414 35.2319 15.414C36.569 15.414 37.5172 14.7091 37.7357 13.2991H40.9196C40.7012 15.9486 38.6343 18.0634 35.3047 18.0634C31.3678 18.0634 28.912 15.1948 28.912 11.4755ZM49.5264 17.6993V16.2406H49.4536C48.603 17.3833 47.6307 18.0394 45.8807 18.0394C43.1097 18.0394 41.5541 16.2654 41.5541 13.5416V5.22692H44.8349V12.9823C44.8349 14.441 45.4918 15.2436 46.901 15.2436C48.4565 15.2436 49.4047 14.0769 49.4047 12.4237V5.22692H52.7103V17.6993H49.5264ZM68.8153 17.6993H72.1201V5.22692H68.8153V17.6993ZM68.8153 3.48388H72.1201V0.392887H68.8153V3.48388ZM82.2173 10.9154C82.2173 9.0926 81.2451 7.53703 79.2518 7.53703C77.5746 7.53703 76.4567 8.84935 76.4567 10.9402C76.4567 13.0551 77.5746 14.2954 79.2766 14.2954C81.3667 14.2954 82.2173 12.7638 82.2173 10.9162V10.9154ZM73.4912 18.0634H76.7713C77.0393 18.8412 77.7435 19.4494 79.275 19.4494C81.1467 19.4494 82.0461 18.55 82.0461 16.848V15.4861H81.9733C81.2435 16.3127 80.2961 16.9448 78.7157 16.9448C75.9454 16.9448 73.2232 14.7571 73.2232 10.989C73.2232 7.26899 75.4589 4.88683 78.6189 4.88683C80.1745 4.88683 81.3163 5.49419 82.0701 6.54001H82.1189V5.22692H85.3029V16.7504C85.3029 18.5011 84.7435 19.6918 83.8201 20.5432C82.7743 21.5154 81.1707 21.9531 79.3238 21.9531C75.9207 21.9531 73.8306 20.4944 73.4905 18.0634H73.4912ZM89.9541 6.9289H90.0269C90.8775 5.5918 92.0202 4.88683 93.7214 4.88683C96.298 4.88683 98.0232 6.83129 98.0232 9.55431V17.6986H94.7176V10.0408C94.7176 8.70371 93.9398 7.75549 92.5547 7.75549C91.096 7.75549 90.0269 8.92217 90.0269 10.6242V17.6986H86.7213V5.22692H89.9541V6.9289ZM61.2822 7.22019C58.7056 6.66241 57.4901 6.24873 57.4901 4.83803C57.4901 3.59853 58.7296 2.79596 60.6261 2.79596C62.3559 2.79596 63.6783 3.60783 63.9495 5.22692H67.3395C66.9947 1.85162 64.4902 0.00012207 60.6501 0.00012207C56.7859 0.00012207 53.9901 1.77493 53.9901 5.20291C53.9901 8.82533 56.834 9.65192 59.9451 10.3569C62.5945 10.965 64.2477 11.3051 64.2477 13.0063C64.2477 14.6115 62.6674 15.2436 60.8693 15.2436C58.3903 15.2436 57.1989 14.417 56.9556 12.3261H53.5044C53.626 15.9974 56.2994 18.0875 61.0149 18.0875C64.9279 18.0875 67.7718 16.119 67.7718 12.5934C67.7718 8.84935 64.8551 7.99874 61.2822 7.22019Z" fill="#829191"/>
</svg>
