<svg width="97" height="28" viewBox="0 0 97 28" fill="none" xmlns="http://www.w3.org/2000/svg">
<path d="M78.2634 4.44515C79.5151 4.44515 80.4939 3.4663 80.4939 2.21465C80.4939 0.995089 79.5151 0.0162354 78.2634 0.0162354C77.0278 0.0162354 76.0008 0.995089 76.0008 2.21465C75.9687 3.45025 77.0278 4.44515 78.2634 4.44515ZM59.0073 5.98564H62.361V8.00754C63.2115 6.78798 65.089 5.68075 67.2874 5.68075C71.4756 5.68075 74.6529 9.195 74.6529 13.5276C74.6529 17.8282 71.4756 21.3745 67.2874 21.3745C65.073 21.3745 63.2276 20.2673 62.361 19.0477V27.376H59.0073V5.98564ZM66.6776 8.6815C63.9497 8.6815 62.0882 10.7836 62.0882 13.5116C62.0882 16.2235 63.9657 18.3417 66.6776 18.3417C69.3735 18.3417 71.251 16.2395 71.251 13.5116C71.251 10.8157 69.3735 8.6815 66.6776 8.6815ZM82.4195 5.98564H85.7733V8.03963C86.704 6.51519 88.4371 5.68075 90.4108 5.68075C93.9572 5.68075 96.2679 8.16801 96.2679 11.9871V21.0696H92.9141V12.5327C92.9141 10.1578 91.6785 8.7136 89.7369 8.7136C87.5064 8.7136 85.7894 10.4306 85.7894 13.64V21.0536H82.4356V5.98564H82.4195ZM33.3966 5.68075C31.4228 5.68075 29.6737 6.51519 28.7591 8.03963V0.0162354H25.4053V21.0696H28.7591V13.656C28.7591 10.4467 30.4761 8.72964 32.7066 8.72964C34.6643 8.72964 35.8838 10.1739 35.8838 12.5488V21.0696H39.2376V11.9871C39.2216 8.15196 36.9429 5.68075 33.3966 5.68075ZM79.9002 5.98564H76.5464V21.0696H79.9002V5.98564ZM49.1385 21.3585C44.6293 21.3585 41.1311 17.8924 41.1311 13.5116C41.1311 9.13082 44.6133 5.66471 49.1385 5.66471C53.6637 5.66471 57.1458 9.13082 57.1458 13.5116C57.1458 17.8924 53.6476 21.3585 49.1385 21.3585ZM49.1385 18.2775C51.8343 18.2775 53.7279 16.2075 53.7279 13.5276C53.7279 10.8478 51.8343 8.77779 49.1385 8.77779C46.4105 8.77779 44.517 10.8478 44.517 13.5276C44.517 16.2075 46.4105 18.2775 49.1385 18.2775Z" fill="#829191"/>
<path d="M13.1775 4.05984C13.1454 5.07079 12.4394 6.515 11.2198 6.515C10.4817 6.515 9.85584 5.90522 9.85584 5.16707V5.15102C9.82374 3.96356 9.2942 2.92052 8.44372 2.19841C7.80185 1.66887 6.99951 1.31584 6.13298 1.21956C6.87113 0.465358 7.93022 0 9.08559 0C10.5459 0 11.8777 0.834434 12.648 2.05399C13.0331 2.64772 13.2096 3.36983 13.1775 4.05984ZM8.41163 4.15612C9.0535 4.95846 9.43862 6.515 8.50791 7.2692C7.91418 7.7506 7.0637 7.67037 6.58229 7.12478C5.77995 6.2422 4.68877 5.77685 3.58154 5.7608C2.73106 5.72871 1.88058 5.98545 1.17452 6.46686C1.25476 5.42382 1.73616 4.39682 2.63478 3.65867C3.79015 2.72796 5.41088 2.43911 6.7909 3.00075C7.43277 3.22541 7.99441 3.62658 8.41163 4.15612ZM4.81714 7.25315C5.81205 7.46176 7.15998 8.42457 6.95137 9.57994C6.82299 10.3181 6.10089 10.7995 5.36274 10.6711H5.33064C4.14318 10.4946 2.98781 10.8476 2.15338 11.5376C1.5115 12.0511 0.998008 12.7733 0.773353 13.6077C0.163574 12.7412 -0.125268 11.666 0.0512468 10.5267C0.340089 9.08249 1.38313 7.86293 2.82734 7.38153C3.45317 7.17292 4.17527 7.12478 4.81714 7.25315ZM4.07899 11.9067C4.97761 11.4253 6.61439 11.329 7.20812 12.34C7.59324 12.9658 7.36858 13.8002 6.72671 14.1854C5.69972 14.7951 5.05785 15.774 4.83319 16.8652C4.67272 17.6675 4.75296 18.534 5.13808 19.3203C4.11108 19.0636 3.16432 18.4057 2.60269 17.4268C1.86453 16.1431 1.88058 14.5384 2.65083 13.2707C2.98781 12.693 3.48526 12.2116 4.07899 11.9067ZM6.53415 15.9184C6.91927 14.9877 8.10674 13.8644 9.19792 14.2656C9.92002 14.5223 10.2731 15.3086 10.0163 15.9826C9.63118 17.0898 9.79165 18.2613 10.3212 19.2241C10.7384 19.9622 11.3482 20.5399 12.1505 20.925C11.1717 21.3743 10.0484 21.4867 8.97326 21.0694C7.56115 20.5559 6.53415 19.3203 6.3095 17.8601C6.22926 17.2182 6.3095 16.5282 6.53415 15.9184ZM11.0593 17.4429C10.7224 16.4801 10.8989 14.8914 12.0382 14.4903C12.7603 14.2335 13.5306 14.5865 13.7873 15.2926C14.2206 16.3838 15.1031 17.1861 16.1462 17.6033C16.9164 17.9082 17.815 17.9564 18.6655 17.7478C18.2323 18.7106 17.4139 19.4969 16.3227 19.898C14.9106 20.4115 13.2899 20.1066 12.1987 19.1117C11.6691 18.6303 11.2519 18.0687 11.0593 17.4429ZM15.5204 15.7419C14.6538 15.2124 13.7231 13.8644 14.3329 12.8535C14.718 12.2277 15.5364 11.987 16.2104 12.34C17.2695 12.9016 18.4409 12.9658 19.516 12.6128C20.3183 12.34 21.0244 11.8265 21.5379 11.1204C21.8267 12.1314 21.7144 13.2386 21.1207 14.2335C20.3825 15.5173 18.9383 16.3035 17.446 16.2554C16.756 16.2875 16.0499 16.0949 15.5204 15.7419ZM17.8311 11.6179C16.8041 11.7623 15.2315 11.313 15.039 10.1576C14.8785 9.45156 15.392 8.7455 16.1462 8.61713H16.1783C17.3657 8.39248 18.3125 7.68641 18.8741 6.73965C19.3074 6.03359 19.516 5.19916 19.4358 4.33263C20.3023 4.91032 20.9763 5.85708 21.1528 6.96431C21.4095 8.40852 20.8158 9.91692 19.6604 10.8316C19.1148 11.2488 18.473 11.5537 17.8311 11.6179ZM16.9004 7.01245C16.2104 7.76665 14.718 8.42457 13.8033 7.67037C13.2096 7.18896 13.1294 6.35453 13.6268 5.77685C14.365 4.86218 14.6538 3.70681 14.4773 2.61563C14.3489 1.81329 13.9638 1.027 13.354 0.385125C14.4131 0.288844 15.5043 0.593733 16.4029 1.31584C17.5583 2.24655 18.1039 3.80309 17.783 5.23126C17.6546 5.90522 17.3336 6.53105 16.9004 7.01245Z" fill="#829191"/>
</svg>
