<svg width="176" height="137" viewBox="0 0 176 137" fill="none" xmlns="http://www.w3.org/2000/svg">
<path d="M67.1691 24.657L74.8212 14.4541" stroke="#FF8A00" stroke-width="12" stroke-linecap="round" stroke-linejoin="round"/>
<path d="M96.9276 98.628L113.932 96.0773" stroke="#FF8A00" stroke-width="12" stroke-linecap="round" stroke-linejoin="round"/>
<path d="M84.174 62.0677L86.7247 60.3672" stroke="#FF8A00" stroke-width="12" stroke-linecap="round" stroke-linejoin="round"/>
<path d="M9.35266 103.791C9.35266 103.791 21.0864 110.473 21.0864 111.509C21.0864 112.545 28.8571 136.889 28.8571 136.889L42.3262 134.817C42.3262 134.817 38.1819 109.437 38.1819 108.401C38.1819 107.365 43.3623 91.826 43.3623 91.826C43.3623 91.826 33.0014 94.4159 31.9653 94.4159C30.9292 94.4159 9.35266 103.791 9.35266 103.791Z" fill="#004446"/>
<path d="M0 99.2125L5.12194 113.082L85.0242 99.7262L57.8779 39.1111L0 99.2125Z" fill="#8E9BAA"/>
<path d="M148.138 56.0925C147.755 55.2886 147.347 54.4329 147.398 53.5252C147.475 51.5544 149.515 50.3096 151.402 49.791C153.289 49.2723 155.381 49.0908 156.758 47.7164C158.237 46.2642 158.441 43.8525 157.803 41.8816C157.166 39.9107 155.814 38.2511 154.462 36.6692L149.719 42.8152L146.965 38.9512C146.2 39.7551 145.205 40.2997 144.134 40.5072C144.44 39.2624 144.924 38.0695 145.562 36.9804C146.353 35.2688 144.108 33.5573 142.272 33.7907C140.436 34.0241 138.855 35.2429 137.044 35.606C135.233 35.969 132.836 34.7502 133.193 32.909C133.321 32.2866 133.754 31.768 134.137 31.2493C135.973 28.8117 137.044 25.8813 137.274 22.8213L140.767 25.2849C141.558 24.0401 142.196 22.6916 142.655 21.2653L146.48 22.6398L147.857 19.7353C148.852 19.8131 149.668 18.8018 149.795 17.7904C149.923 16.779 149.617 15.7677 149.464 14.7563C148.979 11.5148 150.025 8.24729 152.32 5.93931L153.748 3.39793C142.374 -1.84041 129.189 -0.984639 118.606 5.70592L120.187 7.18406L124.471 13.0448C125.134 13.9524 125.823 14.9638 125.848 16.1048C125.848 16.9087 125.517 17.6867 125.313 18.4646C124.777 20.643 125.236 22.951 126.588 24.7144C123.451 27.6447 117.866 26.8408 115.239 30.238C114.041 31.768 113.735 33.8685 112.459 35.3207C110.878 37.136 108.073 37.6546 106.849 39.7811C105.625 41.9075 106.594 44.5267 107.716 46.6532C109.093 49.2723 110.725 51.7618 112.587 54.0698C114.602 52.4879 115.061 48.6499 117.611 48.6759C118.988 48.7018 120.008 50.0244 120.416 51.3469C120.824 52.6695 120.85 54.1217 121.385 55.3924C123.12 59.6194 129.215 60.3714 131.229 64.4687C131.969 65.9469 132.046 67.6843 132.454 69.2921C132.862 70.8999 133.882 72.5596 135.488 72.8708L136.815 75.6456C137.299 75.6715 137.809 75.6715 138.294 75.6715C144.287 75.6715 150.203 74.1934 155.534 71.3667C154.717 69.8367 154.08 68.4104 154.08 68.4104C152.065 64.339 150.101 60.2158 148.138 56.0925Z" fill="url(#paint0_linear)"/>
<path d="M132.453 69.3403C132.01 67.7382 131.932 66.0327 131.201 64.5339C129.14 60.4509 122.878 59.7015 121.13 55.4894C120.582 54.1973 120.556 52.7761 120.138 51.4582C119.721 50.1403 118.677 48.7965 117.268 48.7965C114.659 48.7707 114.189 52.5952 112.128 54.1715C110.223 51.8716 108.554 49.3909 107.145 46.7809C105.997 44.6619 105.031 42.0003 106.258 39.933C107.484 37.8657 110.38 37.323 111.998 35.4883C113.302 34.0411 113.615 31.948 114.842 30.4234C117.555 27.0382 123.269 27.8392 126.478 24.9192C125.096 23.1361 124.626 20.8362 125.174 18.6914C125.383 17.9162 125.722 17.1409 125.722 16.3399C125.696 15.2028 124.991 14.2209 124.313 13.2906L119.903 7.42461L118.286 5.95166C100.439 16.96 94.96 40.2431 106.101 57.9185C112.754 68.5134 124.287 75.1546 136.889 75.6715L135.558 72.9064C133.914 72.5964 132.897 70.9425 132.453 69.3403Z" fill="#FF8A00"/>
<path d="M176 38.5494C176 23.7875 167.454 10.3934 154.125 4.25122L152.717 6.78036C150.44 9.07723 149.366 12.329 149.852 15.5549C150.005 16.5614 150.312 17.5679 150.184 18.5744C150.056 19.5809 149.238 20.5874 148.24 20.51L146.858 23.4004L143.02 22.0326C142.56 23.4262 141.92 24.7682 141.127 26.0328L137.622 23.5811C137.392 26.6264 136.317 29.5426 134.475 31.9685C134.091 32.4847 133.656 33.0008 133.528 33.6202C133.145 35.4525 135.575 36.6913 137.392 36.33C139.208 35.9687 140.795 34.7557 142.637 34.5235C144.479 34.2912 146.73 36.0203 145.937 37.6978C145.298 38.8075 144.811 39.9688 144.504 41.2076C145.579 41.0011 146.577 40.4592 147.344 39.6592L150.108 43.5045L154.841 37.3881C156.197 38.9365 157.527 40.5882 158.193 42.5496C158.858 44.511 158.628 46.9111 157.144 48.3563C155.736 49.7241 153.638 49.9306 151.771 50.4209C149.903 50.9112 147.831 52.1758 147.754 54.1372C147.728 55.0404 148.112 55.8921 148.496 56.6921C150.466 60.7955 152.436 64.8989 154.432 69.0023C157.399 75.1703 155.097 70.4217 155.89 71.9444C168.273 65.4409 176 52.5629 176 38.5494Z" fill="#FF8A00"/>
<path d="M56.4268 31.8297C59.3999 30.7177 62.712 32.1917 63.8335 35.1139L87.2009 96.0143C88.3223 98.9624 86.8358 102.247 83.8888 103.359C80.9157 104.471 77.6036 102.997 76.4821 100.074L53.0886 39.1739C51.9672 36.2259 53.4537 32.9417 56.4268 31.8297Z" fill="#004446"/>
<path d="M94.802 22.9565C98.3238 22.9565 101.179 20.1015 101.179 16.5797C101.179 13.0579 98.3238 10.2029 94.802 10.2029C91.2802 10.2029 88.4252 13.0579 88.4252 16.5797C88.4252 20.1015 91.2802 22.9565 94.802 22.9565Z" fill="#FFBC00"/>
<path d="M94.334 20.4058C93.1519 19.6931 92.1848 18.7062 91.4594 17.5274C90.6803 16.1567 90.7878 14.2926 92.1848 13.7717C93.5818 13.2508 94.334 14.7038 94.334 14.7038C94.334 14.7038 94.9251 13.3057 96.3489 13.662C97.6116 13.9636 98.3907 15.7729 97.1549 17.8563C96.4833 18.9529 95.5161 19.8575 94.334 20.4058Z" fill="white"/>
<path d="M101.604 86.7246C107.004 86.7246 111.382 82.1567 111.382 76.5218C111.382 70.8868 107.004 66.3188 101.604 66.3188C96.2037 66.3188 91.826 70.8868 91.826 76.5218C91.826 82.1567 96.2037 86.7246 101.604 86.7246Z" fill="#FFBC00"/>
<path d="M102.009 72.2705C102.933 72.2705 103.835 72.2705 104.76 72.2705C105.754 72.2705 106.24 72.8131 106.263 73.8982C106.286 75.1125 106.286 76.3268 106.263 77.5411C106.263 78.6262 105.754 79.1687 104.76 79.1687H104.043C102.009 79.1687 102.009 79.1687 100.437 80.6156C100.113 80.8998 99.8123 81.2098 99.4886 81.4681C99.3268 81.5457 99.1649 81.5973 99.0031 81.6232C98.98 81.4423 99.0031 81.2615 99.0262 81.0806C99.1649 80.6156 99.3268 80.1505 99.4886 79.6855C99.6042 79.3238 99.558 79.1687 99.188 79.1429C98.1476 79.0396 97.7777 78.6003 97.7777 77.4119C97.7777 76.2234 97.7777 75.1383 97.7777 74.0015C97.7777 72.7356 98.2401 72.2705 99.373 72.2705C100.252 72.2705 101.13 72.2705 102.009 72.2705Z" fill="white"/>
<path d="M79.4976 46.7634C84.4281 46.7634 88.4251 42.7664 88.4251 37.8359C88.4251 32.9053 84.4281 28.9083 79.4976 28.9083C74.5671 28.9083 70.5701 32.9053 70.5701 37.8359C70.5701 42.7664 74.5671 46.7634 79.4976 46.7634Z" fill="#FFBC00"/>
<path d="M75.056 36.4852L74.8224 40.7415C74.803 41.2016 75.0365 41.6043 75.3479 41.6618C75.4063 41.6618 75.4842 41.6618 75.5425 41.633L77.1774 41.0003L77.372 37.4342L75.9902 35.8813C75.7372 35.5937 75.3868 35.68 75.1922 36.0538C75.1144 36.1976 75.0754 36.3414 75.056 36.4852Z" fill="#FF8A00"/>
<path d="M79.2923 38.0598L80.6363 36.5972C80.6363 36.5972 81.0028 33.6996 80.7585 33.0373C80.5141 32.375 81.3449 31.7403 82.1758 33.1753C82.6645 34.0584 82.8355 35.1071 82.6889 36.1005C82.6889 36.1005 84.5949 35.9901 84.9615 37.3975C85.328 38.8049 83.984 42.3924 83.5442 42.5028C83.1043 42.6132 79.0724 41.7025 79.0724 41.7025L79.2923 38.0598Z" fill="#FF8A00"/>
<path d="M13.0245 38.4571C13.8694 40.0019 18.6121 47.445 19.13 47.6135C19.13 47.6135 20.0295 45.3666 21.2561 44.8048C21.2288 44.7206 14.3328 37.6145 13.8967 37.5583C13.4606 37.5021 12.2067 36.9404 13.0245 38.4571Z" fill="#FFBC00"/>
<path d="M13.4828 34.7471C13.5108 34.4434 13.903 34.2916 13.959 34.4868C14.0431 34.7471 14.1551 35.0074 14.3232 35.246C14.4633 35.4629 15.3317 36.7209 15.3037 37.2197C15.2477 37.5668 15.0796 37.8704 14.8275 38.1524L13.6789 38.2609C13.3707 37.9789 10.5414 36.9161 10.2612 36.7426C9.98108 36.569 9.53286 36.2654 9.813 36.2003C10.0651 36.1786 10.3172 36.222 10.5133 36.3305C10.3733 36.2003 10.2052 36.0919 10.0091 36.0051C9.67293 35.8533 9.16868 35.3327 9.4208 35.311C9.67293 35.2893 10.3172 35.6581 10.3453 35.6798C10.3172 35.6581 9.84101 35.1592 9.70094 35.0724C9.56087 34.9857 9.44882 34.682 9.67293 34.6603C9.89704 34.6386 10.4573 34.9423 10.9055 35.246C11.3538 35.5496 11.802 35.6581 11.83 35.6147C11.858 35.5713 10.9055 34.7688 10.6534 34.4651C10.4013 34.1615 10.4853 34.0096 10.7655 34.0096C11.0456 34.0096 12.7825 35.3761 13.3707 35.7665" fill="#FFBC00"/>
<path d="M51.0132 93.2819C50.9864 93.0474 49.2666 92.6018 45.1283 90.3271C43.731 89.9519 42.8174 90.0223 41.6619 91.2182C41.7156 91.781 41.7425 93.9854 42.3874 94.173C44.4028 94.7593 51.1207 93.9619 51.0132 93.2819Z" fill="white"/>
<path d="M47.6135 73.5243C47.588 76.0794 45.601 90.3371 45.601 90.3371L41.576 90.9759C41.576 90.9759 40.2513 84.307 40.3532 80.1676C40.4296 77.2548 41.8053 76.1305 41.7543 75.7217C41.576 74.4697 26.4949 78.5579 24.3296 75.0829C22.1642 71.608 23.1068 68.0563 23.5144 66.3188C25.374 66.881 29.4245 67.7753 33.1438 66.3444C33.1438 66.3188 47.639 70.9692 47.6135 73.5243Z" fill="#004446"/>
<path d="M44.8776 38.5612C44.9818 38.4113 44.3566 35.5619 44.2785 35.262C44.2003 34.962 44.1482 34.4622 44.3827 34.5371C44.6171 34.6121 44.7474 35.037 44.7474 35.037C44.7474 34.8371 44.7213 34.6621 44.6432 34.4871C44.539 34.1872 44.5911 33.4624 44.7734 33.5873C44.9558 33.7123 45.1381 34.4122 45.1381 34.4122C45.1381 34.4122 45.1902 33.6873 45.1642 33.5374C45.1381 33.3874 45.2684 33.0625 45.4507 33.1874C45.6331 33.3124 45.7633 33.8623 45.8415 34.3622C45.9196 34.8621 46.1541 35.212 46.1801 35.187C46.2062 35.162 46.2062 33.9623 46.2322 33.5624C46.2583 33.1624 46.4667 33.0875 46.649 33.2374C46.8313 33.3874 46.8053 35.112 46.9095 35.7369C47.0137 36.3617 47.1179 36.7616 47.2742 36.6867C47.4305 36.6117 47.691 35.6119 47.9254 35.3869C48.1599 35.162 48.5506 35.237 48.4464 35.4369C48.3162 35.7119 48.212 35.9868 48.1338 36.2618C48.0817 36.5117 47.717 38.0613 47.3263 38.4613C46.9355 38.8612 45.8154 39.1111 45.8154 39.1111L46.1801 39.0111C46.2322 38.9861 44.8776 38.5862 44.8776 38.5612Z" fill="#FFBC00"/>
<path d="M33.197 44.6124L33.1412 46.1013L32.7222 50.1642C31.2978 49.8614 29.0076 47.4388 28.058 46.3789C28.7004 46.2023 29.1193 46.1013 29.1193 46.1013L29.259 44.9152C29.9851 44.89 30.6834 42.9973 30.6834 42.9973C30.1806 42.9721 29.7338 42.5179 29.9572 41.7356C30.1806 40.9533 31.1302 41.2309 31.1302 41.2309C31.1302 41.2309 31.6888 41.0542 32.0519 40.0953C32.1636 39.7924 32.1916 39.4391 32.1636 39.1111C33.4484 39.6915 34.2863 40.9028 34.7332 42.3917C35.4035 44.6377 33.197 44.6124 33.197 44.6124Z" fill="#FFBC00"/>
<path d="M46.7632 38.8247C46.7632 38.8247 46.0558 41.1069 43.6616 44.1678C43.1718 44.7853 42.6277 45.3492 42.0291 45.913C41.6482 44.7585 40.5871 43.6845 39.9613 43.1207C42.0563 41.9661 43.8248 40.3014 45.0764 38.2609L46.7632 38.8247Z" fill="#FFBC00"/>
<path d="M34.8599 51.0346C34.8599 51.0346 34.8599 55.5368 34.6351 57.2963C34.4103 59.0558 33.536 63.7908 33.536 63.7908C33.3611 64.6188 33.2612 65.4727 33.2113 66.3265C33.2113 66.3265 29.7142 69.9749 21.3961 66.5594V66.5853C21.421 66.5335 21.421 66.4818 21.421 66.43C21.9706 63.5838 23.1446 61.5915 23.869 58.6418C24.1438 57.4516 24.3436 56.2613 24.4935 55.0711C24.5934 54.2948 24.6933 53.5186 24.7932 52.7682C24.2937 50.9053 18.8232 48.7577 18.7233 48.3954C18.6234 48.0332 18.9731 47.3087 18.9731 47.3087C18.9731 47.3087 21.1712 43.945 21.421 44.2296C21.6209 44.4625 24.8182 46.1185 26.5918 46.1185C28.3653 46.1185 28.9398 46.2478 29.3145 46.1185C29.7891 46.3513 30.1388 47.8262 31.4128 47.8779C32.7866 47.9297 32.9115 46.1185 32.9115 46.1185C33.0114 46.0667 33.1114 46.015 33.2113 45.9891C34.2104 47.2311 34.8599 51.0346 34.8599 51.0346Z" fill="#FF8A00"/>
<path d="M32.091 41.0799C32.0667 40.9544 32.0425 40.8039 32.0183 40.6784C32.091 40.553 32.1394 40.4024 32.1879 40.2519C32.2849 39.9508 32.3091 39.5995 32.2849 39.2734C32.2849 39.2734 32.3333 38.4454 31.8971 38.2948C31.7032 38.2447 31.6305 38.3952 31.4366 38.4705C31.2185 38.5206 31.0004 38.5206 30.7823 38.4705C30.443 38.3952 30.128 38.2196 29.7887 38.2697C29.5221 38.2948 29.304 38.4203 29.1343 38.6461C29.0132 38.8468 28.892 39.0475 28.7951 39.2734C28.5527 39.6999 28.0922 39.9508 27.753 40.277C27.4137 40.6031 27.0986 41.1049 27.244 41.5817C27.3167 41.8075 27.4864 41.9831 27.5833 42.2089C27.7772 42.6605 27.5591 43.2125 27.7772 43.6391C27.9953 44.0656 28.4558 44.2161 28.7951 44.5172C29.3524 45.019 29.8129 45.3703 30.3703 44.6678C30.54 44.467 31.1943 43.4885 31.0004 43.2125C30.8065 42.9365 30.2491 42.4347 30.3703 41.958C30.4672 41.5817 31.0489 41.2555 31.3639 41.4311V41.4562H31.3882C31.4851 41.5064 31.5578 41.6067 31.582 41.7071C31.6063 41.8326 31.6305 41.958 31.6548 42.0835C31.6548 42.1838 31.7032 42.2591 31.8002 42.3093C31.8244 42.3093 31.8729 42.3344 31.8971 42.3093H32.2121C32.2364 42.3093 32.2606 42.3093 32.2849 42.2842C32.3091 42.2591 32.3091 42.234 32.3091 42.2089C32.2606 41.7824 32.1637 41.4311 32.091 41.0799Z" fill="#004446"/>
<path d="M41.6618 45.9048C38.9554 48.3979 34.8701 51.0145 34.8701 51.0145C34.8701 51.0145 34.2063 47.3859 33.1594 46.1763C34.0275 45.8307 36.734 44.8434 39.5171 43.461L39.7213 43.3623C40.3086 43.856 41.3044 44.8187 41.6618 45.9048Z" fill="#FF8A00"/>
<defs>
<linearGradient id="paint0_linear" x1="106.28" y1="37.8358" x2="158.145" y2="37.8358" gradientUnits="userSpaceOnUse">
<stop stop-color="#FF9C00"/>
<stop offset="0.67" stop-color="#FFC600"/>
</linearGradient>
</defs>
</svg>
