<svg width="24" height="15" viewBox="0 0 24 15" fill="none" xmlns="http://www.w3.org/2000/svg">
<path d="M17.697 1.04226L19.4627 2.80797L13.4789 8.79178L9.44473 4.75762C8.96651 4.2794 8.19401 4.2794 7.7158 4.75762L0.35866 12.127C-0.119553 12.6052 -0.119553 13.3777 0.35866 13.8559C0.836874 14.3342 1.60937 14.3342 2.08759 13.8559L8.57413 7.35714L12.6083 11.3913C13.0865 11.8695 13.859 11.8695 14.3372 11.3913L21.1916 4.54916L22.9573 6.31488C23.3375 6.695 23.9996 6.42523 23.9996 5.88571V0.613095C24.0119 0.269762 23.7421 0 23.3988 0H18.1384C17.5866 0 17.3169 0.662142 17.697 1.04226Z" fill="#07C03B"/>
</svg>
