<?xml version="1.0" encoding="utf-8"?>
<!-- Generator: Adobe Illustrator 16.0.0, SVG Export Plug-In . SVG Version: 6.00 Build 0)  -->
<!DOCTYPE svg PUBLIC "-//W3C//DTD SVG 1.1//EN" "http://www.w3.org/Graphics/SVG/1.1/DTD/svg11.dtd">
<svg version="1.1" id="Layer_1" xmlns="http://www.w3.org/2000/svg" xmlns:xlink="http://www.w3.org/1999/xlink" x="0px" y="0px"
	 width="24px" height="18px" viewBox="0 0 24 18" enable-background="new 0 0 24 18" xml:space="preserve">
<path fill="#07C03B" d="M17.095,9.96c1.494,1.015,2.542,2.39,2.542,4.222v3.273h3.272c0.601,0,1.091-0.491,1.091-1.092v-2.182
	C24,11.804,20.105,10.396,17.095,9.96z"/>
<path fill="#07C03B" d="M8.727,8.728c2.41,0,4.364-1.954,4.364-4.364C13.091,1.954,11.137,0,8.727,0
	c-2.41,0-4.363,1.954-4.363,4.364C4.364,6.773,6.317,8.728,8.727,8.728z"/>
<path fill="#07C03B" d="M15.272,8.728c2.411,0,4.364-1.953,4.364-4.364C19.637,1.953,17.684,0,15.272,0
	c-0.513,0-0.993,0.109-1.45,0.262c0.905,1.124,1.45,2.553,1.45,4.102c0,1.549-0.545,2.978-1.45,4.102
	C14.279,8.618,14.76,8.728,15.272,8.728z"/>
<path fill="#07C03B" d="M8.727,9.818C5.814,9.818,0,11.28,0,14.182v2.182c0,0.601,0.491,1.092,1.091,1.092h15.272
	c0.6,0,1.092-0.491,1.092-1.092v-2.182C17.455,11.28,11.64,9.818,8.727,9.818z"/>
</svg>
