<svg width="300" height="22" viewBox="0 0 300 22" fill="none" xmlns="http://www.w3.org/2000/svg">
<path d="M157.928 19.5444H159.874V13.3715H164.889C168.432 13.3715 171.202 11.0972 171.202 7.87332C171.202 4.6494 168.432 2.37517 164.889 2.37517H157.928V19.5444ZM159.874 11.5221V4.22454H164.54C167.335 4.22454 169.231 5.57409 169.231 7.87332C169.231 10.1725 167.335 11.5221 164.54 11.5221H159.874Z" fill="white"/>
<path d="M189.18 19.5444H191.301L183.741 2.37517H181.62L174.06 19.5444H176.181L177.903 15.6457H187.459L189.18 19.5444ZM178.701 13.7963L182.693 4.77436L186.66 13.7963H178.701Z" fill="white"/>
<path d="M208.589 7.87332C208.589 4.6494 205.819 2.37517 202.276 2.37517H195.315V19.5444H197.261V13.3715H201.802L206.144 19.5444H208.364L203.923 13.1965C206.643 12.6217 208.589 10.5724 208.589 7.87332ZM197.261 4.22454H201.927C204.722 4.22454 206.618 5.57409 206.618 7.87332C206.618 10.1725 204.722 11.5221 201.927 11.5221H197.261V4.22454Z" fill="white"/>
<path d="M217.706 19.5444H219.652V4.22454H225.415V2.37517H211.942V4.22454H217.706V19.5444Z" fill="white"/>
<path d="M230.128 19.5444H232.074V5.57409L242.703 19.5444H244.649V2.37517H242.703V16.3455L232.074 2.37517H230.128V19.5444Z" fill="white"/>
<path d="M262.502 4.22454V2.37517H250.202V19.5444H262.502V17.695H252.173V11.722H261.479V9.87265H252.173V4.22454H262.502Z" fill="white"/>
<path d="M280.366 7.87332C280.366 4.6494 277.596 2.37517 274.053 2.37517H267.092V19.5444H269.038V13.3715H273.579L277.921 19.5444H280.141L275.7 13.1965C278.42 12.6217 280.366 10.5724 280.366 7.87332ZM269.038 4.22454H273.704C276.499 4.22454 278.395 5.57409 278.395 7.87332C278.395 10.1725 276.499 11.5221 273.704 11.5221H269.038V4.22454Z" fill="white"/>
<path d="M290.506 19.8193C294.498 19.8193 296.544 17.5951 296.544 14.871C296.544 11.847 294.198 10.6724 290.93 9.89764C288.011 9.19787 286.314 8.57308 286.314 6.79868C286.314 5.22421 287.861 3.82468 289.982 3.82468C291.778 3.82468 293.475 4.6494 294.897 6.02394L296.095 4.49945C294.523 3.04994 292.627 2.05027 290.082 2.05027C286.788 2.05027 284.343 4.19955 284.343 6.94863C284.343 9.92263 286.514 10.9973 289.957 11.797C292.951 12.4968 294.573 13.2215 294.573 15.0459C294.573 16.5954 293.225 18.0449 290.581 18.0449C288.185 18.0449 286.414 17.0202 284.967 15.5707L283.744 17.0952C285.466 18.7946 287.686 19.8193 290.506 19.8193Z" fill="white"/>
<path opacity="0.25" d="M145.121 21.978H147.009V0H145.121V21.978Z" fill="white"/>
<path d="M84.6945 13.4013C84.6945 16.9581 83.0804 16.9581 82.2194 16.9581C81.4662 16.9581 79.7443 16.9581 79.7443 13.4013V3.48549H75.6548V14.048C75.6548 18.1437 78.3452 20.9459 82.2194 20.9459C86.0936 20.9459 88.784 18.1427 88.784 14.048V3.48549H84.6945V13.4013Z" fill="white"/>
<path d="M125.051 3.0546C122.625 3.0546 120.298 4.01981 118.583 5.7379C116.867 7.45599 115.903 9.78621 115.903 12.216C115.903 14.6457 116.867 16.9759 118.583 18.694C120.298 20.4121 122.625 21.3773 125.051 21.3773C130.216 21.3773 134.198 17.3895 134.198 12.216C134.199 11.0127 133.963 9.82091 133.504 8.70893C133.045 7.59696 132.371 6.58661 131.521 5.73568C130.672 4.88476 129.663 4.20997 128.553 3.74992C127.442 3.28987 126.252 3.05359 125.051 3.0546V3.0546ZM125.051 17.1739C123.742 17.159 122.492 16.6319 121.567 15.7054C120.642 14.7788 120.115 13.5263 120.1 12.216C120.1 10.9011 120.622 9.64007 121.55 8.71028C122.479 7.78049 123.738 7.25814 125.051 7.25814C126.364 7.25814 127.623 7.78049 128.551 8.71028C129.48 9.64007 130.001 10.9011 130.001 12.216C130.003 12.8676 129.876 13.5131 129.628 14.1154C129.38 14.7177 129.015 15.2649 128.555 15.7257C128.095 16.1864 127.549 16.5515 126.947 16.8C126.346 17.0486 125.701 17.1756 125.051 17.1739V17.1739Z" fill="white"/>
<path d="M9.14735 0.683426L0 20.8384H4.62745L6.34937 16.9583H11.9455L13.6674 20.8384H18.2949L9.14735 0.683426ZM7.42562 13.509L9.14754 9.30555L10.8698 13.509H7.42562Z" fill="white"/>
<path d="M29.0557 3.59361H22.3843V20.5151H26.5814V15.665H28.8412C33.0383 15.665 35.6212 13.2938 35.6212 9.62931C35.6212 5.8571 33.146 3.59361 29.0557 3.59361ZM31.3158 9.7376C31.3158 11.1392 30.3473 12.0011 28.7329 12.0011H26.5814V7.36602H28.7337C30.4556 7.36602 31.3165 8.22829 31.3165 9.73721L31.3158 9.7376Z" fill="white"/>
<path d="M46.4898 3.59361H39.8184V20.5151H44.0154V15.665H46.2755C50.4725 15.665 53.0554 13.2938 53.0554 9.62931C52.9477 5.8571 50.4723 3.59361 46.4898 3.59361ZM48.7498 9.7376C48.7498 11.1392 47.7813 12.0011 46.167 12.0011H44.0154V7.36602H46.1677C47.7819 7.36602 48.7506 8.22829 48.7506 9.73721L48.7498 9.7376Z" fill="white"/>
<path d="M65.431 8.9824C62.0953 8.12013 61.4492 7.68909 61.4492 6.61121V6.50349C61.4492 5.53351 62.3102 4.99457 63.8168 4.99457C65.3234 4.99457 66.9376 5.64122 68.7671 6.82682L68.8746 6.93453L71.2422 3.48565L71.1347 3.37793C69.0833 1.75333 66.5395 0.878859 63.9244 0.89922C59.835 0.89922 57.0369 3.37813 57.0369 6.82721V6.93492C57.0369 11.0307 59.8358 12.0006 63.494 12.9706C66.7225 13.8329 67.2605 14.3722 67.2605 15.2341V15.3418C67.2605 16.4197 66.2919 16.9584 64.6776 16.9584C62.7413 16.9584 60.9109 16.2039 59.0814 14.695L58.9739 14.5873L56.2836 17.8207L56.3912 17.9284C58.6653 19.9725 61.6223 21.0879 64.6778 21.054C69.0901 21.054 71.8881 18.6828 71.8881 14.91C71.6728 11.354 69.1977 9.95277 65.431 8.9824Z" fill="white"/>
<path d="M102.774 21.485L97.7162 12.8627L96.2095 20.8384H92.5506L96.3173 3.0546L102.989 14.2637L109.339 3.0546L113.105 20.8384H109.231L107.725 12.9704L102.774 21.485Z" fill="white"/>
</svg>
