<svg width="512" height="512" xmlns="http://www.w3.org/2000/svg" class="svg-inline--fa fa-chart-line fa-w-16">

 <g>
  <title>background</title>
  <rect fill="none" id="canvas_background" height="602" width="802" y="-1" x="-1"/>
 </g>
 <g>
  <title>Layer 1</title>
  <path id="svg_1" d="m461.29328,115l-138.04477,0c-24.99913,0 -37.52208,31.96643 -19.84262,50.66401l37.88455,40.06624l-85.78981,90.74262l-85.78981,-90.73025c-14.61595,-15.45766 -38.30549,-15.45766 -52.90976,0l-80.31759,84.94291c-7.30798,7.72883 -7.30798,20.25571 0,27.98454l26.44903,27.97217c7.30798,7.72883 19.15275,7.72883 26.46072,0l53.85687,-56.97074l85.78981,90.73025c14.61595,15.45766 38.30549,15.45766 52.90976,0l112.25053,-118.71479l37.88455,40.06624c17.67946,18.69758 47.90525,5.45346 47.90525,-20.98531l0,-145.9821c0.01169,-10.93165 -8.36033,-19.7858 -18.69673,-19.7858z" fill="currentColor"/>
 </g>
</svg>