<?xml version="1.0" standalone="no"?>
<!DOCTYPE svg PUBLIC "-//W3C//DTD SVG 20010904//EN"
 "http://www.w3.org/TR/2001/REC-SVG-20010904/DTD/svg10.dtd">
<svg version="1.0" xmlns="http://www.w3.org/2000/svg"
 width="700.000000pt" height="700.000000pt" viewBox="0 0 700.000000 700.000000"
 preserveAspectRatio="xMidYMid meet">
<metadata>
Created by potrace 1.11, written by Peter Selinger 2001-2013
</metadata>
<g transform="translate(0.000000,700.000000) scale(0.100000,-0.100000)"
fill="#000000" stroke="none">
<path d="M4777 5984 c-1 -1 -42 -4 -92 -8 -103 -7 -139 -12 -255 -32 -113 -20
-446 -118 -525 -154 -11 -5 -65 -28 -120 -51 -582 -249 -1270 -740 -1969
-1409 -205 -195 -583 -581 -741 -755 -15 -16 -66 -73 -113 -125 -48 -52 -105
-115 -127 -140 -22 -25 -42 -47 -45 -50 -3 -3 -39 -43 -80 -90 -41 -47 -79
-90 -85 -96 -5 -6 -37 -41 -70 -79 -33 -38 -100 -114 -149 -169 -123 -140
-144 -170 -168 -249 -16 -54 -19 -85 -15 -140 6 -78 41 -177 63 -177 8 0 14 3
14 8 0 4 15 23 33 43 29 32 91 102 212 238 22 25 49 55 60 67 11 11 43 47 72
80 29 32 74 82 100 111 26 28 77 83 113 122 245 267 683 705 940 938 47 43
130 116 275 242 17 14 55 46 85 71 30 25 57 47 60 50 16 17 253 201 360 279
69 50 131 95 137 101 34 28 345 227 468 299 165 97 455 241 611 304 134 55
373 136 449 153 6 1 37 9 70 17 352 91 788 107 1120 42 39 -8 82 -16 96 -19
54 -9 188 -50 308 -94 201 -73 414 -188 609 -328 12 -9 22 -13 22 -8 0 18
-109 205 -166 285 -57 80 -227 261 -289 307 -16 12 -50 37 -75 55 -209 154
-538 294 -784 333 -21 3 -47 7 -58 9 -53 11 -342 26 -351 19z"/>
<path d="M4890 4929 c-143 -9 -173 -14 -415 -63 -96 -20 -384 -119 -505 -173
-240 -108 -439 -216 -656 -353 -113 -72 -327 -218 -373 -256 -9 -7 -56 -43
-106 -80 -83 -63 -233 -181 -245 -194 -3 -3 -26 -22 -52 -43 -26 -21 -53 -43
-60 -50 -7 -7 -29 -25 -48 -41 -35 -29 -151 -130 -199 -175 -14 -13 -64 -58
-111 -100 -95 -85 -637 -625 -745 -742 -38 -41 -110 -120 -160 -174 -49 -54
-99 -108 -110 -119 -11 -12 -94 -104 -184 -206 -409 -461 -461 -522 -483 -565
-104 -200 -24 -438 182 -538 57 -28 75 -32 150 -32 74 0 136 5 255 20 17 2 59
7 95 10 36 4 76 8 90 10 14 2 52 7 85 10 33 3 74 8 90 10 17 2 55 7 85 10 114
12 156 16 193 20 97 12 116 14 177 20 36 4 76 8 90 10 14 2 54 6 90 10 36 3
83 8 105 11 22 3 56 7 75 9 35 3 208 22 265 29 17 2 59 7 95 11 36 3 81 8 100
10 19 3 62 7 95 10 33 3 71 7 85 9 14 3 55 7 92 11 37 3 77 8 90 10 13 2 55 7
93 11 91 10 98 10 175 18 36 3 74 8 86 10 11 2 54 7 95 10 41 4 86 8 99 11 14
2 52 6 85 10 33 3 74 7 90 10 17 2 60 7 97 10 37 3 77 8 90 10 13 2 55 6 93
10 39 4 84 8 100 10 65 8 135 16 270 30 33 4 74 8 90 10 17 2 57 7 90 10 33 3
94 10 135 15 41 6 100 12 130 15 30 3 71 7 90 10 19 2 62 7 95 10 33 3 78 8
100 11 22 2 63 6 90 9 28 3 66 8 85 10 19 3 55 7 80 9 25 3 77 8 115 12 39 3
78 8 87 10 9 1 52 5 95 9 189 14 266 31 380 85 151 70 276 178 369 316 94 138
269 622 308 848 3 16 10 52 16 80 5 28 12 69 15 91 2 22 8 67 12 100 9 78 9
352 0 433 -56 496 -320 886 -782 1160 -339 200 -702 286 -1105 261z"/>
</g>
</svg>
