<svg width="232" height="56" viewBox="0 0 232 56" fill="none" xmlns="http://www.w3.org/2000/svg">
<path d="M85.7513 12.5239H73.0604C72.192 12.5239 71.4534 13.1549 71.318 14.0122L66.1852 46.5549C66.0831 47.197 66.5805 47.7759 67.2318 47.7759H73.2905C74.159 47.7759 74.8975 47.145 75.033 46.2858L76.4173 37.5086C76.5509 36.6494 77.2913 36.0185 78.1579 36.0185H82.1754C90.5352 36.0185 95.3599 31.9731 96.6199 23.9567C97.1877 20.4495 96.644 17.6938 95.0018 15.7639C93.1981 13.6447 89.9989 12.5239 85.7513 12.5239ZM87.2154 24.4094C86.5214 28.9632 83.042 28.9632 79.6777 28.9632H77.7627L79.1062 20.4587C79.186 19.9447 79.6313 19.5662 80.1509 19.5662H81.0286C83.3204 19.5662 85.4822 19.5662 86.5993 20.8725C87.2655 21.6519 87.4696 22.8099 87.2154 24.4094Z" fill="#253B80"/>
<path d="M123.688 24.2625H117.61C117.092 24.2625 116.645 24.641 116.565 25.155L116.296 26.8548L115.871 26.2387C114.556 24.3293 111.622 23.6909 108.694 23.6909C101.978 23.6909 96.2423 28.7773 95.1252 35.9123C94.5443 39.4715 95.3701 42.8748 97.3891 45.2481C99.241 47.4304 101.891 48.3397 105.044 48.3397C110.455 48.3397 113.455 44.8603 113.455 44.8603L113.184 46.549C113.082 47.1947 113.58 47.7737 114.227 47.7737H119.702C120.572 47.7737 121.307 47.1428 121.444 46.2836L124.729 25.4835C124.832 24.8433 124.337 24.2625 123.688 24.2625ZM115.216 36.0904C114.63 39.5624 111.874 41.8931 108.36 41.8931C106.595 41.8931 105.185 41.3271 104.279 40.2546C103.381 39.1894 103.04 37.6733 103.325 35.9847C103.873 32.5424 106.675 30.1356 110.136 30.1356C111.861 30.1356 113.264 30.709 114.188 31.7909C115.114 32.8839 115.482 34.4092 115.216 36.0904Z" fill="#253B80"/>
<path d="M156.053 24.2627H149.946C149.363 24.2627 148.816 24.5522 148.486 25.0365L140.063 37.4435L136.493 25.5208C136.268 24.7749 135.58 24.2627 134.8 24.2627H128.799C128.07 24.2627 127.563 24.9753 127.795 25.6619L134.522 45.4024L128.198 54.33C127.7 55.0333 128.202 56.0001 129.061 56.0001H135.16C135.739 56.0001 136.281 55.718 136.609 55.243L156.922 25.9235C157.408 25.2221 156.909 24.2627 156.053 24.2627Z" fill="#253B80"/>
<path d="M176.273 12.5239H163.58C162.713 12.5239 161.975 13.1549 161.839 14.0122L156.707 46.5549C156.605 47.197 157.102 47.7759 157.75 47.7759H164.263C164.868 47.7759 165.386 47.3343 165.48 46.7331L166.937 37.5086C167.071 36.6494 167.811 36.0185 168.678 36.0185H172.693C181.055 36.0185 185.878 31.9731 187.14 23.9567C187.709 20.4495 187.162 17.6938 185.52 15.7639C183.718 13.6447 180.52 12.5239 176.273 12.5239ZM177.737 24.4094C177.045 28.9632 173.565 28.9632 170.199 28.9632H168.286L169.631 20.4587C169.711 19.9447 170.153 19.5662 170.674 19.5662H171.552C173.842 19.5662 176.006 19.5662 177.123 20.8725C177.789 21.6519 177.991 22.8099 177.737 24.4094Z" fill="#179BD7"/>
<path d="M214.207 24.2625H208.133C207.612 24.2625 207.168 24.641 207.09 25.155L206.821 26.8548L206.395 26.2387C205.079 24.3293 202.147 23.6909 199.219 23.6909C192.503 23.6909 186.769 28.7773 185.652 35.9123C185.073 39.4715 185.895 42.8748 187.914 45.2481C189.77 47.4304 192.416 48.3397 195.569 48.3397C200.98 48.3397 203.98 44.8603 203.98 44.8603L203.709 46.549C203.607 47.1947 204.105 47.7737 204.756 47.7737H210.228C211.095 47.7737 211.834 47.1428 211.969 46.2836L215.255 25.4835C215.356 24.8433 214.858 24.2625 214.207 24.2625ZM205.736 36.0904C205.153 39.5624 202.394 41.8931 198.879 41.8931C197.118 41.8931 195.704 41.3271 194.799 40.2546C193.9 39.1894 193.563 37.6733 193.845 35.9847C194.396 32.5424 197.194 30.1356 200.655 30.1356C202.381 30.1356 203.784 30.709 204.708 31.7909C205.637 32.8839 206.005 34.4092 205.736 36.0904Z" fill="#179BD7"/>
<path d="M221.371 13.4164L216.162 46.5548C216.06 47.1969 216.557 47.7758 217.205 47.7758H222.441C223.312 47.7758 224.05 47.1449 224.184 46.2857L229.32 13.7449C229.422 13.1028 228.925 12.522 228.277 12.522H222.413C221.896 12.5238 221.45 12.9024 221.371 13.4164Z" fill="#179BD7"/>
<path d="M13.4831 54.1002L14.4536 47.9357L12.2918 47.8856H1.96875L9.14274 2.39771C9.16501 2.26039 9.23738 2.13235 9.34315 2.04142C9.44892 1.95049 9.58439 1.90039 9.72542 1.90039H27.1315C32.9101 1.90039 36.8979 3.10286 38.9799 5.47625C39.956 6.58965 40.5776 7.75315 40.8783 9.03356C41.1937 10.3771 41.1993 11.9822 40.8913 13.9399L40.869 14.0828V15.3372L41.8451 15.8902C42.6671 16.3263 43.3203 16.8255 43.8213 17.397C44.6564 18.349 45.1964 19.5589 45.4246 20.9933C45.6603 22.4685 45.5824 24.224 45.1964 26.2114C44.751 28.4976 44.031 30.4887 43.0587 32.118C42.1642 33.6192 41.0249 34.8644 39.6721 35.8293C38.3805 36.746 36.8459 37.4419 35.1109 37.8872C33.4296 38.3252 31.5127 38.546 29.4103 38.546H28.0556C27.087 38.546 26.1462 38.8949 25.4076 39.5202C24.6672 40.1586 24.1773 41.0307 24.027 41.9845L23.9249 42.5394L22.2103 53.4043L22.1324 53.8033C22.112 53.9294 22.0767 53.9925 22.0247 54.0352C21.9784 54.0742 21.9115 54.1002 21.8466 54.1002H13.4831Z" fill="#253B80"/>
<path d="M42.7702 14.2275C42.7183 14.5597 42.6589 14.8993 42.5921 15.2482C40.2966 27.0335 32.4435 31.1048 22.4136 31.1048H17.3068C16.0802 31.1048 15.0466 31.9955 14.8555 33.2054L12.2409 49.7876L11.5005 54.488C11.3761 55.2822 11.9885 55.9985 12.7901 55.9985H21.8476C22.9202 55.9985 23.8313 55.2191 24.0002 54.1614L24.0893 53.7012L25.7946 42.879L25.9041 42.2851C26.0711 41.2237 26.9841 40.4443 28.0567 40.4443H29.4113C38.1867 40.4443 45.0564 36.8815 47.0642 26.5714C47.903 22.2644 47.4688 18.6681 45.2494 16.1389C44.5776 15.3762 43.7444 14.7434 42.7702 14.2275Z" fill="#179BD7"/>
<path d="M40.367 13.2697C40.0163 13.1677 39.6544 13.0749 39.2833 12.9914C38.9103 12.9097 38.528 12.8373 38.1346 12.7743C36.7577 12.5516 35.2491 12.4458 33.6328 12.4458H19.99C19.6541 12.4458 19.3349 12.5219 19.0492 12.6592C18.4201 12.9617 17.9525 13.5573 17.8393 14.2866L14.937 32.6688L14.8535 33.2051C15.0446 31.9952 16.0783 31.1045 17.3048 31.1045H22.4116C32.4415 31.1045 40.2946 27.0313 42.5901 15.2479C42.6588 14.899 42.7163 14.5594 42.7682 14.2272C42.1874 13.9192 41.5583 13.6557 40.881 13.4312C40.714 13.3755 40.5414 13.3217 40.367 13.2697Z" fill="#222D65"/>
<path d="M17.8403 14.2867C17.9535 13.5575 18.4211 12.9618 19.0502 12.6612C19.3378 12.5239 19.6551 12.4478 19.991 12.4478H33.6338C35.2501 12.4478 36.7588 12.5536 38.1357 12.7762C38.5291 12.8393 38.9113 12.9117 39.2843 12.9933C39.6555 13.0768 40.0173 13.1696 40.368 13.2717C40.5425 13.3237 40.715 13.3775 40.8839 13.4313C41.5612 13.6558 42.1903 13.9212 42.7711 14.2274C43.454 9.87212 42.7656 6.90677 40.4107 4.22163C37.8147 1.26556 33.1291 0 27.1335 0H9.72736C8.50262 0 7.45788 0.890718 7.26861 2.10247L0.0185359 48.0579C-0.12435 48.9672 0.57709 49.7874 1.49379 49.7874H12.2399L14.9381 32.6689L17.8403 14.2867Z" fill="#253B80"/>
</svg>
