<svg xmlns="http://www.w3.org/2000/svg" viewBox="0 0 128.088 14.264">
  <defs>
    <style>
      .cls-1 {
        fill: #ffbc00;
      }

      .cls-2 {
        fill: #d8d8d8;
      }
    </style>
  </defs>
        <path id="Path_914" class="cls-2" data-name="Path 914" d="M17.739,25.605,3.626,27.156a1.138,1.138,0,0,1-.851-1.892c2.592-2.951,
        8-9.365,13.016-9.365a5.472,5.472,0,0,1,2.932.851c3.1,1.949,2.138,5.448,1.249,7.4A2.484,2.484,0,0,1,17.739,25.605Z"
        transform="translate(-2.01 -12.892)"/>
        <path id="Path_915" class="cls-2" data-name="Path 915" d="M13.717,1.495h0C8.382,1.495,3.1,7.34.134,10.727A1.119,1.119,0,0,1,
        .248,9.365C2.839,6.413,8.25,0,13.263,0A5.472,5.472,0,0,1,16.2.851a4.507,4.507,0,0,1,1.816,2.1,5.357,5.357,0,0,
        0-.53-.378,7.065,7.065,0,0,0-3.765-1.078" transform="translate(0.045)"/>

        <path id="Path_914-2" class="cls-2" data-name="Path 914" d="M17.739,25.605,3.626,27.156a1.138,1.138,0,0,1-.851-1.892c2.592-2.951,
        8-9.365,13.016-9.365a5.472,5.472,0,0,1,2.932.851c3.1,1.949,2.138,5.448,1.249,7.4A2.484,2.484,0,0,1,17.739,25.605Z"
        transform="translate(25.303 -12.892)"/>
        <path id="Path_915-2" class="cls-2" data-name="Path 915" d="M13.717,1.495h0C8.382,1.495,3.1,7.34.134,10.727A1.119,1.119,0,0,1,
        .248,9.365C2.839,6.413,8.25,0,13.263,0A5.472,5.472,0,0,1,16.2.851a4.507,4.507,0,0,1,1.816,2.1,5.357,5.357,0,0,0-.53-.378,
        7.065,7.065,0,0,0-3.765-1.078" transform="translate(27.358)"/>

        <path id="Path_914-3" class="cls-2" data-name="Path 914" d="M17.739,25.605,3.626,27.156a1.138,1.138,0,0,1-.851-1.892c2.592-2.951,
        8-9.365,13.016-9.365a5.472,5.472,0,0,1,2.932.851c3.1,1.949,2.138,5.448,1.249,7.4A2.484,2.484,0,0,1,17.739,25.605Z"
        transform="translate(52.616 -12.892)"/>
        <path id="Path_915-3" class="cls-2" data-name="Path 915" d="M13.717,1.495h0C8.382,1.495,3.1,7.34.134,10.727A1.119,1.119,0,0,1,
        .248,9.365C2.839,6.413,8.25,0,13.263,0A5.472,5.472,0,0,1,16.2.851a4.507,4.507,0,0,1,1.816,2.1,5.357,5.357,0,0,
        0-.53-.378,7.065,7.065,0,0,0-3.765-1.078" transform="translate(54.626)"/>

        <path id="Path_914-4" class="cls-2" data-name="Path 914" d="M17.739,25.605,3.626,27.156a1.138,1.138,0,0,1-.851-1.892c2.592-2.951,
        8-9.365,13.016-9.365a5.472,5.472,0,0,1,2.932.851c3.1,1.949,2.138,5.448,1.249,7.4A2.484,2.484,0,0,1,17.739,25.605Z"
        transform="translate(79.929 -12.892)"/>
        <path id="Path_915-4" class="cls-2" data-name="Path 915" d="M13.717,1.495h0C8.382,1.495,3.1,7.34.134,10.727A1.119,1.119,0,0,1,
        .248,9.365C2.839,6.413,8.25,0,13.263,0A5.472,5.472,0,0,1,16.2.851a4.507,4.507,0,0,1,1.816,2.1,5.357,5.357,0,0,
        0-.53-.378,7.065,7.065,0,0,0-3.765-1.078" transform="translate(81.984)"/>

        <path id="Path_914-5" class="cls-2" data-name="Path 914" d="M17.739,25.605,3.626,27.156a1.138,1.138,0,0,1-.851-1.892c2.592-2.951,
        8-9.365,13.016-9.365a5.472,5.472,0,0,1,2.932.851c3.1,1.949,2.138,5.448,1.249,7.4A2.484,2.484,0,0,1,17.739,25.605Z"
        transform="translate(107.242 -12.892)"/>
        <path id="Path_915-5" class="cls-2" data-name="Path 915" d="M13.717,1.495h0C8.382,1.495,3.1,7.34.134,10.727A1.119,1.119,0,0,1,
        .248,9.365C2.839,6.413,8.25,0,13.263,0A5.472,5.472,0,0,1,16.2.851a4.507,4.507,0,0,1,1.816,2.1,5.357,5.357,0,0,
        0-.53-.378,7.065,7.065,0,0,0-3.765-1.078" transform="translate(109.297)"/></svg>
