<svg xmlns="http://www.w3.org/2000/svg" viewBox="-18976.107 3242 128.088 14.264">
  <defs>
    <style>
      .cls-1 {
        fill: #ffbc00;
      }
    </style>
  </defs>
  <g id="Group_832" data-name="Group 832" transform="translate(-18976.107 3242)">
    <g id="Group_431" data-name="Group 431" transform="translate(0 0)">
      <path id="Path_914" data-name="Path 914" class="cls-1" d="M17.739,25.605,3.626,27.156a1.138,1.138,0,0,1-.851-1.892c2.592-2.951,8-9.365,13.016-9.365a5.472,5.472,0,0,1,2.932.851c3.1,1.949,2.138,5.448,1.249,7.4A2.484,2.484,0,0,1,17.739,25.605Z" transform="translate(-2.01 -12.892)"/>
      <path id="Path_915" data-name="Path 915" class="cls-1" d="M13.717,1.495h0C8.382,1.495,3.1,7.34.134,10.727A1.119,1.119,0,0,1,.248,9.365C2.839,6.413,8.25,0,13.263,0A5.472,5.472,0,0,1,16.2.851a4.507,4.507,0,0,1,1.816,2.1,5.357,5.357,0,0,0-.53-.378,7.065,7.065,0,0,0-3.765-1.078" transform="translate(0.045)"/>
    </g>
    <g id="Group_431-2" data-name="Group 431" transform="translate(27.313 0)">
      <path id="Path_914-2" data-name="Path 914" class="cls-1" d="M17.739,25.605,3.626,27.156a1.138,1.138,0,0,1-.851-1.892c2.592-2.951,8-9.365,13.016-9.365a5.472,5.472,0,0,1,2.932.851c3.1,1.949,2.138,5.448,1.249,7.4A2.484,2.484,0,0,1,17.739,25.605Z" transform="translate(-2.01 -12.892)"/>
      <path id="Path_915-2" data-name="Path 915" class="cls-1" d="M13.717,1.495h0C8.382,1.495,3.1,7.34.134,10.727A1.119,1.119,0,0,1,.248,9.365C2.839,6.413,8.25,0,13.263,0A5.472,5.472,0,0,1,16.2.851a4.507,4.507,0,0,1,1.816,2.1,5.357,5.357,0,0,0-.53-.378,7.065,7.065,0,0,0-3.765-1.078" transform="translate(0.045)"/>
    </g>
    <g id="Group_431-3" data-name="Group 431" transform="translate(54.626 0)">
      <path id="Path_914-3" data-name="Path 914" class="cls-1" d="M17.739,25.605,3.626,27.156a1.138,1.138,0,0,1-.851-1.892c2.592-2.951,8-9.365,13.016-9.365a5.472,5.472,0,0,1,2.932.851c3.1,1.949,2.138,5.448,1.249,7.4A2.484,2.484,0,0,1,17.739,25.605Z" transform="translate(-2.01 -12.892)"/>
      <path id="Path_915-3" data-name="Path 915" class="cls-1" d="M13.717,1.495h0C8.382,1.495,3.1,7.34.134,10.727A1.119,1.119,0,0,1,.248,9.365C2.839,6.413,8.25,0,13.263,0A5.472,5.472,0,0,1,16.2.851a4.507,4.507,0,0,1,1.816,2.1,5.357,5.357,0,0,0-.53-.378,7.065,7.065,0,0,0-3.765-1.078" transform="translate(0.045)"/>
    </g>
    <g id="Group_431-4" data-name="Group 431" transform="translate(81.939 0)">
      <path id="Path_914-4" data-name="Path 914" class="cls-1" d="M17.739,25.605,3.626,27.156a1.138,1.138,0,0,1-.851-1.892c2.592-2.951,8-9.365,13.016-9.365a5.472,5.472,0,0,1,2.932.851c3.1,1.949,2.138,5.448,1.249,7.4A2.484,2.484,0,0,1,17.739,25.605Z" transform="translate(-2.01 -12.892)"/>
      <path id="Path_915-4" data-name="Path 915" class="cls-1" d="M13.717,1.495h0C8.382,1.495,3.1,7.34.134,10.727A1.119,1.119,0,0,1,.248,9.365C2.839,6.413,8.25,0,13.263,0A5.472,5.472,0,0,1,16.2.851a4.507,4.507,0,0,1,1.816,2.1,5.357,5.357,0,0,0-.53-.378,7.065,7.065,0,0,0-3.765-1.078" transform="translate(0.045)"/>
    </g>
    <g id="Group_431-5" data-name="Group 431" transform="translate(109.252 0)">
      <path id="Path_914-5" data-name="Path 914" class="cls-1" d="M17.739,25.605,3.626,27.156a1.138,1.138,0,0,1-.851-1.892c2.592-2.951,8-9.365,13.016-9.365a5.472,5.472,0,0,1,2.932.851c3.1,1.949,2.138,5.448,1.249,7.4A2.484,2.484,0,0,1,17.739,25.605Z" transform="translate(-2.01 -12.892)"/>
      <path id="Path_915-5" data-name="Path 915" class="cls-1" d="M13.717,1.495h0C8.382,1.495,3.1,7.34.134,10.727A1.119,1.119,0,0,1,.248,9.365C2.839,6.413,8.25,0,13.263,0A5.472,5.472,0,0,1,16.2.851a4.507,4.507,0,0,1,1.816,2.1,5.357,5.357,0,0,0-.53-.378,7.065,7.065,0,0,0-3.765-1.078" transform="translate(0.045)"/>
    </g>
  </g>
</svg>
