<svg width="auto" height="43" viewBox="0 0 380 43" fill="none" xmlns="http://www.w3.org/2000/svg">
<g filter="url(#filter0_d)">
<rect x="1" width="378" height="41" rx="3" fill="white"/>
<path d="M110.16 25.168C111.616 25.168 112.96 24.538 113.898 23.558L112.4 22.214C111.84 22.858 111.042 23.292 110.16 23.292C108.55 23.292 107.178 21.864 107.178 20.184C107.178 18.518 108.55 17.09 110.16 17.09C111.042 17.09 111.84 17.524 112.4 18.168L113.898 16.824C112.96 15.83 111.616 15.214 110.16 15.214C107.402 15.214 105.05 17.482 105.05 20.184C105.05 22.886 107.402 25.168 110.16 25.168ZM118.676 25.168C120.818 25.168 122.61 23.432 122.61 21.374C122.61 19.316 120.818 17.594 118.676 17.594C116.52 17.594 114.714 19.316 114.714 21.374C114.714 23.432 116.52 25.168 118.676 25.168ZM118.676 23.446C117.584 23.446 116.674 22.494 116.674 21.374C116.674 20.254 117.584 19.316 118.676 19.316C119.754 19.316 120.664 20.254 120.664 21.374C120.664 22.494 119.754 23.446 118.676 23.446ZM128.179 17.594C127.241 17.594 126.429 18.014 125.995 18.672V17.762H123.951V25H125.995V20.674L126.009 20.716C126.009 19.932 126.667 19.316 127.521 19.316C128.333 19.316 128.893 19.932 128.893 20.828V25H130.867V20.394C130.867 18.756 129.747 17.594 128.179 17.594ZM136.4 23.208C136.26 23.348 135.98 23.446 135.7 23.446C135.322 23.446 135.014 23.11 135.014 22.634V19.414H136.582V17.762H135.014V15.774H133.054V17.762H132.06V19.414H133.054V22.956C133.054 24.258 133.95 25.168 135.224 25.168C135.812 25.168 136.47 24.916 136.89 24.538L136.4 23.208ZM139.192 16.768C139.794 16.768 140.284 16.264 140.284 15.648C140.284 15.074 139.794 14.556 139.192 14.556C138.562 14.556 138.072 15.074 138.072 15.648C138.072 16.264 138.562 16.768 139.192 16.768ZM138.156 25H140.2V17.762H138.156V25ZM146.171 17.594C145.233 17.594 144.421 18.014 143.987 18.672V17.762H141.943V25H143.987V20.674L144.001 20.716C144.001 19.932 144.659 19.316 145.513 19.316C146.325 19.316 146.885 19.932 146.885 20.828V25H148.859V20.394C148.859 18.756 147.739 17.594 146.171 17.594ZM155.386 17.762V22.088L155.372 22.046C155.372 22.83 154.714 23.446 153.86 23.446C153.048 23.446 152.488 22.83 152.488 21.934V17.762H150.514V22.368C150.514 24.006 151.634 25.168 153.202 25.168C154.14 25.168 154.952 24.748 155.386 24.09V25H157.43V17.762H155.386ZM162.6 23.362C161.746 23.362 161.116 22.83 160.878 22.046H166.1C166.1 19.316 164.77 17.594 162.502 17.594C160.388 17.594 158.778 19.176 158.778 21.36C158.778 23.586 160.458 25.168 162.614 25.168C163.678 25.168 164.924 24.72 165.568 24.048L164.266 22.718C163.874 23.096 163.174 23.362 162.6 23.362ZM162.586 19.4C163.412 19.4 163.944 19.862 164.14 20.576H160.906C161.172 19.848 161.816 19.4 162.586 19.4ZM174.627 17.594C173.619 17.594 172.625 17.874 171.603 18.392L172.289 19.75C172.863 19.456 173.493 19.232 174.165 19.232C175.355 19.232 175.831 19.904 175.831 20.674V20.814C175.215 20.576 174.571 20.45 173.983 20.45C172.303 20.45 170.973 21.43 170.973 22.858C170.973 24.244 172.163 25.168 173.703 25.168C174.487 25.168 175.313 24.86 175.831 24.272V25H177.805V20.674C177.805 18.784 176.517 17.594 174.627 17.594ZM174.165 23.754C173.465 23.754 172.947 23.39 172.947 22.802C172.947 22.214 173.535 21.78 174.277 21.78C174.837 21.78 175.369 21.878 175.831 22.046V22.718C175.691 23.39 174.949 23.754 174.165 23.754ZM182.244 25.168C184.022 25.168 185.184 24.258 185.184 22.83C185.184 21.248 183.798 20.828 182.552 20.506C181.572 20.24 181.278 20.128 181.278 19.736C181.278 19.484 181.628 19.302 182.132 19.302C182.748 19.302 183.504 19.54 184.162 19.946L184.988 18.49C184.19 17.958 183.168 17.594 182.132 17.594C180.424 17.594 179.29 18.574 179.304 19.946C179.318 21.374 180.466 21.78 181.95 22.144C182.692 22.34 183.224 22.48 183.224 22.928C183.224 23.25 182.832 23.474 182.286 23.474C181.32 23.474 180.508 23.124 179.864 22.662L178.982 24.076C179.85 24.776 181.082 25.168 182.244 25.168ZM190.563 26.988H194.357V25.658H192.159V16.432H194.357V15.102H190.563V26.988ZM203.314 17.244V15.382H195.908V25H197.98V21.192H202.81V19.33H197.98V17.244H203.314ZM205.747 16.768C206.349 16.768 206.839 16.264 206.839 15.648C206.839 15.074 206.349 14.556 205.747 14.556C205.117 14.556 204.627 15.074 204.627 15.648C204.627 16.264 205.117 16.768 205.747 16.768ZM204.711 25H206.755V17.762H204.711V25ZM210.584 19.106V17.762H208.54V25H210.584V21.542C210.584 20.184 211.55 19.316 213.062 19.316V17.594C211.956 17.594 211.06 18.168 210.584 19.106ZM216.957 25.168C218.735 25.168 219.897 24.258 219.897 22.83C219.897 21.248 218.511 20.828 217.265 20.506C216.285 20.24 215.991 20.128 215.991 19.736C215.991 19.484 216.341 19.302 216.845 19.302C217.461 19.302 218.217 19.54 218.875 19.946L219.701 18.49C218.903 17.958 217.881 17.594 216.845 17.594C215.137 17.594 214.003 18.574 214.017 19.946C214.031 21.374 215.179 21.78 216.663 22.144C217.405 22.34 217.937 22.48 217.937 22.928C217.937 23.25 217.545 23.474 216.999 23.474C216.033 23.474 215.221 23.124 214.577 22.662L213.695 24.076C214.563 24.776 215.795 25.168 216.957 25.168ZM225.076 23.208C224.936 23.348 224.656 23.446 224.376 23.446C223.998 23.446 223.69 23.11 223.69 22.634V19.414H225.258V17.762H223.69V15.774H221.73V17.762H220.736V19.414H221.73V22.956C221.73 24.258 222.626 25.168 223.9 25.168C224.488 25.168 225.146 24.916 225.566 24.538L225.076 23.208ZM230.896 25H232.954V18.784L237.588 25H239.66V15.382H237.588V21.598L232.954 15.382H230.896V25ZM244.832 17.594C243.824 17.594 242.83 17.874 241.808 18.392L242.494 19.75C243.068 19.456 243.698 19.232 244.37 19.232C245.56 19.232 246.036 19.904 246.036 20.674V20.814C245.42 20.576 244.776 20.45 244.188 20.45C242.508 20.45 241.178 21.43 241.178 22.858C241.178 24.244 242.368 25.168 243.908 25.168C244.692 25.168 245.518 24.86 246.036 24.272V25H248.01V20.674C248.01 18.784 246.722 17.594 244.832 17.594ZM244.37 23.754C243.67 23.754 243.152 23.39 243.152 22.802C243.152 22.214 243.74 21.78 244.482 21.78C245.042 21.78 245.574 21.878 246.036 22.046V22.718C245.896 23.39 245.154 23.754 244.37 23.754ZM258.343 17.594C257.265 17.594 256.369 18.112 255.991 18.91C255.543 18.098 254.689 17.594 253.695 17.594C252.799 17.594 252.085 18.028 251.735 18.714V17.762H249.691V25H251.735V20.632C251.735 19.862 252.309 19.316 253.135 19.316C253.877 19.316 254.409 19.904 254.409 20.744V25.014H256.369V20.632C256.369 19.862 256.957 19.316 257.769 19.316C258.525 19.316 259.057 19.904 259.057 20.744V25.014H261.017V20.394C261.017 18.756 259.855 17.594 258.343 17.594ZM266.151 23.362C265.297 23.362 264.667 22.83 264.429 22.046H269.651C269.651 19.316 268.321 17.594 266.053 17.594C263.939 17.594 262.329 19.176 262.329 21.36C262.329 23.586 264.009 25.168 266.165 25.168C267.229 25.168 268.475 24.72 269.119 24.048L267.817 22.718C267.425 23.096 266.725 23.362 266.151 23.362ZM266.137 19.4C266.963 19.4 267.495 19.862 267.691 20.576H264.457C264.723 19.848 265.367 19.4 266.137 19.4ZM270.74 26.988H274.534V15.102H270.74V16.432H272.938V25.658H270.74V26.988Z" fill="white"/>
<path d="M139.05 23.3887C139.05 23.0013 138.913 22.7051 138.64 22.5C138.366 22.2904 137.874 22.0716 137.163 21.8438C136.452 21.6113 135.889 21.3835 135.475 21.1602C134.344 20.5495 133.779 19.7269 133.779 18.6924C133.779 18.1546 133.93 17.6761 134.23 17.2568C134.536 16.833 134.971 16.5026 135.536 16.2656C136.106 16.0286 136.744 15.9102 137.45 15.9102C138.161 15.9102 138.795 16.04 139.351 16.2998C139.907 16.555 140.337 16.9173 140.643 17.3867C140.952 17.8561 141.107 18.3893 141.107 18.9863H139.057C139.057 18.5306 138.913 18.1774 138.626 17.9268C138.339 17.6715 137.936 17.5439 137.416 17.5439C136.915 17.5439 136.525 17.651 136.247 17.8652C135.969 18.0749 135.83 18.3529 135.83 18.6992C135.83 19.0228 135.992 19.2939 136.315 19.5127C136.644 19.7314 137.124 19.9365 137.758 20.1279C138.924 20.4788 139.774 20.9141 140.308 21.4336C140.841 21.9531 141.107 22.6003 141.107 23.375C141.107 24.2363 140.782 24.9131 140.13 25.4053C139.478 25.8929 138.601 26.1367 137.498 26.1367C136.732 26.1367 136.035 25.9977 135.406 25.7197C134.777 25.4372 134.297 25.0521 133.964 24.5645C133.636 24.0768 133.472 23.5117 133.472 22.8691H135.529C135.529 23.9674 136.186 24.5166 137.498 24.5166C137.986 24.5166 138.366 24.4186 138.64 24.2227C138.913 24.0221 139.05 23.7441 139.05 23.3887ZM144.963 26H142.912V16.0469H144.963V26ZM155.025 24.7422C154.656 25.1842 154.134 25.5283 153.459 25.7744C152.785 26.016 152.038 26.1367 151.217 26.1367C150.356 26.1367 149.599 25.9499 148.948 25.5762C148.301 25.1979 147.799 24.651 147.444 23.9355C147.093 23.2201 146.913 22.3792 146.904 21.4131V20.7363C146.904 19.7428 147.07 18.8838 147.403 18.1592C147.74 17.43 148.223 16.874 148.852 16.4912C149.485 16.1038 150.226 15.9102 151.074 15.9102C152.254 15.9102 153.177 16.1927 153.842 16.7578C154.508 17.3184 154.902 18.1364 155.025 19.2119H153.029C152.938 18.6423 152.735 18.2253 152.42 17.9609C152.11 17.6966 151.682 17.5645 151.135 17.5645C150.438 17.5645 149.907 17.8265 149.542 18.3506C149.178 18.8747 148.993 19.654 148.989 20.6885V21.3242C148.989 22.3678 149.187 23.1562 149.583 23.6895C149.98 24.2227 150.561 24.4893 151.327 24.4893C152.097 24.4893 152.646 24.3252 152.974 23.9971V22.2812H151.108V20.7705H155.025V24.7422ZM165.067 26H163.016L159.024 19.4512V26H156.973V16.0469H159.024L163.023 22.6094V16.0469H165.067V26ZM173.085 26H171.034V16.0469H173.085V26ZM183.366 26H181.315L177.323 19.4512V26H175.272V16.0469H177.323L181.322 22.6094V16.0469H183.366V26ZM196.955 23.1289L198.295 16.0469H200.339L198.131 26H196.066L194.446 19.3418L192.826 26H190.761L188.553 16.0469H190.597L191.944 23.1152L193.585 16.0469H195.321L196.955 23.1289ZM203.914 26H201.863V16.0469H203.914V26ZM213.388 17.708H210.339V26H208.288V17.708H205.28V16.0469H213.388V17.708ZM222.944 26H220.893V21.7344H216.894V26H214.844V16.0469H216.894V20.0801H220.893V16.0469H222.944V26ZM236.663 24.7422C236.294 25.1842 235.772 25.5283 235.098 25.7744C234.424 26.016 233.676 26.1367 232.856 26.1367C231.994 26.1367 231.238 25.9499 230.586 25.5762C229.939 25.1979 229.438 24.651 229.082 23.9355C228.731 23.2201 228.551 22.3792 228.542 21.4131V20.7363C228.542 19.7428 228.709 18.8838 229.041 18.1592C229.379 17.43 229.862 16.874 230.491 16.4912C231.124 16.1038 231.865 15.9102 232.712 15.9102C233.893 15.9102 234.815 16.1927 235.481 16.7578C236.146 17.3184 236.54 18.1364 236.663 19.2119H234.667C234.576 18.6423 234.373 18.2253 234.059 17.9609C233.749 17.6966 233.321 17.5645 232.774 17.5645C232.077 17.5645 231.546 17.8265 231.181 18.3506C230.816 18.8747 230.632 19.654 230.627 20.6885V21.3242C230.627 22.3678 230.826 23.1562 231.222 23.6895C231.619 24.2227 232.2 24.4893 232.965 24.4893C233.735 24.4893 234.285 24.3252 234.613 23.9971V22.2812H232.746V20.7705H236.663V24.7422ZM246.787 21.249C246.787 22.2288 246.614 23.0879 246.268 23.8262C245.921 24.5645 245.425 25.1341 244.777 25.5352C244.135 25.9362 243.397 26.1367 242.563 26.1367C241.738 26.1367 241.002 25.9385 240.355 25.542C239.707 25.1455 239.206 24.5804 238.851 23.8467C238.495 23.1084 238.315 22.2607 238.311 21.3037V20.8115C238.311 19.8317 238.486 18.9704 238.837 18.2275C239.192 17.4801 239.691 16.9082 240.334 16.5117C240.981 16.1107 241.719 15.9102 242.549 15.9102C243.378 15.9102 244.114 16.1107 244.757 16.5117C245.404 16.9082 245.903 17.4801 246.254 18.2275C246.609 18.9704 246.787 19.8294 246.787 20.8047V21.249ZM244.709 20.7979C244.709 19.7542 244.522 18.9613 244.149 18.4189C243.775 17.8766 243.242 17.6055 242.549 17.6055C241.861 17.6055 241.33 17.8743 240.956 18.4121C240.582 18.9453 240.393 19.7292 240.389 20.7637V21.249C240.389 22.2653 240.576 23.0537 240.949 23.6143C241.323 24.1748 241.861 24.4551 242.563 24.4551C243.251 24.4551 243.779 24.1862 244.149 23.6484C244.518 23.1061 244.705 22.3177 244.709 21.2832V20.7979ZM256.733 21.249C256.733 22.2288 256.56 23.0879 256.214 23.8262C255.867 24.5645 255.371 25.1341 254.723 25.5352C254.081 25.9362 253.343 26.1367 252.509 26.1367C251.684 26.1367 250.948 25.9385 250.301 25.542C249.653 25.1455 249.152 24.5804 248.797 23.8467C248.441 23.1084 248.261 22.2607 248.257 21.3037V20.8115C248.257 19.8317 248.432 18.9704 248.783 18.2275C249.138 17.4801 249.637 16.9082 250.28 16.5117C250.927 16.1107 251.665 15.9102 252.495 15.9102C253.324 15.9102 254.06 16.1107 254.703 16.5117C255.35 16.9082 255.849 17.4801 256.2 18.2275C256.555 18.9704 256.733 19.8294 256.733 20.8047V21.249ZM254.655 20.7979C254.655 19.7542 254.468 18.9613 254.095 18.4189C253.721 17.8766 253.188 17.6055 252.495 17.6055C251.807 17.6055 251.276 17.8743 250.902 18.4121C250.528 18.9453 250.339 19.7292 250.335 20.7637V21.249C250.335 22.2653 250.522 23.0537 250.895 23.6143C251.269 24.1748 251.807 24.4551 252.509 24.4551C253.197 24.4551 253.725 24.1862 254.095 23.6484C254.464 23.1061 254.651 22.3177 254.655 21.2832V20.7979ZM266.378 24.7422C266.009 25.1842 265.487 25.5283 264.813 25.7744C264.139 26.016 263.391 26.1367 262.571 26.1367C261.709 26.1367 260.953 25.9499 260.301 25.5762C259.654 25.1979 259.153 24.651 258.797 23.9355C258.446 23.2201 258.266 22.3792 258.257 21.4131V20.7363C258.257 19.7428 258.424 18.8838 258.756 18.1592C259.094 17.43 259.577 16.874 260.206 16.4912C260.839 16.1038 261.58 15.9102 262.427 15.9102C263.608 15.9102 264.53 16.1927 265.196 16.7578C265.861 17.3184 266.255 18.1364 266.378 19.2119H264.382C264.291 18.6423 264.088 18.2253 263.774 17.9609C263.464 17.6966 263.036 17.5645 262.489 17.5645C261.792 17.5645 261.261 17.8265 260.896 18.3506C260.531 18.8747 260.347 19.654 260.342 20.6885V21.3242C260.342 22.3678 260.541 23.1562 260.937 23.6895C261.334 24.2227 261.915 24.4893 262.68 24.4893C263.45 24.4893 264 24.3252 264.328 23.9971V22.2812H262.461V20.7705H266.378V24.7422ZM270.377 24.3525H274.732V26H268.326V16.0469H270.377V24.3525ZM282.183 21.6865H278.245V24.3525H282.866V26H276.194V16.0469H282.852V17.708H278.245V20.0801H282.183V21.6865Z" fill="black" fill-opacity="0.54"/>
<path d="M109 20.4611C109.001 19.8308 108.948 19.2015 108.842 18.5803H100.182V22.1428H105.142C105.04 22.7117 104.826 23.2541 104.51 23.7372C104.195 24.2203 103.786 24.6341 103.308 24.9537V27.2661H106.268C108.001 25.6564 109 23.2759 109 20.4611Z" fill="#4285F4"/>
<path d="M100.183 29.5014C102.661 29.5014 104.747 28.6818 106.269 27.2687L103.309 24.9562C102.485 25.5189 101.423 25.8401 100.183 25.8401C97.7874 25.8401 95.7544 24.2137 95.0275 22.022H91.978V24.4051C92.7423 25.937 93.9143 27.2249 95.3631 28.1248C96.8119 29.0248 98.4804 29.5014 100.183 29.5014Z" fill="#34A853"/>
<path d="M95.0272 22.0201C94.6429 20.8717 94.6429 19.628 95.0272 18.4795V16.0964H91.9778C91.3348 17.3852 91 18.8075 91 20.2498C91 21.6922 91.3348 23.1145 91.9778 24.4032L95.0272 22.0201Z" fill="#FBBC04"/>
<path d="M100.183 14.662C101.492 14.6404 102.757 15.1388 103.705 16.0494L106.326 13.4094C104.664 11.837 102.462 10.9738 100.183 11.0006C98.4804 11.0007 96.8119 11.4773 95.3631 12.3772C93.9143 13.2772 92.7423 14.565 91.978 16.097L95.0275 18.4801C95.7544 16.2884 97.7874 14.662 100.183 14.662Z" fill="#EA4335"/>
<rect x="1.5" y="0.5" width="377" height="40" rx="2.5" stroke="#E5E5E9"/>
<rect x="1.5" y="0.5" width="377" height="40" rx="2.5" stroke="url(#paint0_linear)"/>
</g>
<defs>
<filter id="filter0_d" x="0" y="0" width="380" height="43" filterUnits="userSpaceOnUse" color-interpolation-filters="sRGB">
<feFlood flood-opacity="0" result="BackgroundImageFix"/>
<feColorMatrix in="SourceAlpha" type="matrix" values="0 0 0 0 0 0 0 0 0 0 0 0 0 0 0 0 0 0 127 0"/>
<feOffset dy="1"/>
<feGaussianBlur stdDeviation="0.5"/>
<feColorMatrix type="matrix" values="0 0 0 0 0 0 0 0 0 0 0 0 0 0 0 0 0 0 0.03 0"/>
<feBlend mode="normal" in2="BackgroundImageFix" result="effect1_dropShadow"/>
<feBlend mode="normal" in="SourceGraphic" in2="effect1_dropShadow" result="shape"/>
</filter>
<linearGradient id="paint0_linear" x1="190" y1="0" x2="190" y2="41" gradientUnits="userSpaceOnUse">
<stop stop-color="#F5F5F9"/>
<stop offset="1" stop-color="white" stop-opacity="0"/>
</linearGradient>
</defs>
</svg>
