<svg width="915" height="82" viewBox="0 0 915 82" fill="none" xmlns="http://www.w3.org/2000/svg">
<path d="M440.4 75.2C440.4 77.5 438.5 79.4 436.2 79.4H319.2C316.9 79.4 315 77.5 315 75.2V5.2C315 2.9 316.9 1 319.2 1H436.3C438.6 1 440.5 2.9 440.5 5.2V75.2H440.4Z" fill="#13457C"/>
<path d="M384.5 45.4C387.4 33.3 379.9 21.2 367.8 18.3C355.7 15.5 343.6 23 340.7 35.1C337.8 47.2 345.3 59.3 357.4 62.2C369.5 65 381.6 57.5 384.5 45.4Z" fill="#007CC3"/>
<path d="M392.8 17.7C387 17.7 381.7 19.9 377.7 23.5C376.9 24.2 376.1 25 375.4 25.9H379.9C380.5 26.7 381.1 27.4 381.6 28.3H373.6C373.1 29.1 372.7 29.9 372.3 30.7H382.9C383.3 31.5 383.6 32.3 383.9 33.1H371.4C371.1 33.9 370.9 34.7 370.7 35.5H384.5C384.8 37 385 38.6 385 40.3C385 42.8 384.6 45.2 383.8 47.4H371.3C371.6 48.2 371.9 49 372.3 49.8H382.9C382.5 50.6 382.1 51.4 381.6 52.2H373.6C374.1 53 374.7 53.8 375.3 54.6H379.8C379.1 55.4 378.3 56.2 377.5 57C381.5 60.6 386.8 62.8 392.6 62.8C405 62.8 415.1 52.7 415.1 40.3C415.3 27.8 405.2 17.7 392.8 17.7Z" fill="#009DDD"/>
<path d="M412.3 52.7C412.3 52.3 412.6 52 413 52C413.4 52 413.7 52.3 413.7 52.7C413.7 53.1 413.4 53.4 413 53.4C412.6 53.4 412.3 53.1 412.3 52.7ZM413 53.3C413.3 53.3 413.6 53.1 413.6 52.7C413.6 52.4 413.4 52.1 413 52.1C412.6 52.1 412.4 52.3 412.4 52.7C412.4 53 412.7 53.3 413 53.3ZM412.9 53H412.8V52.4H413.1C413.2 52.4 413.2 52.4 413.3 52.4C413.4 52.4 413.4 52.5 413.4 52.6C413.4 52.7 413.4 52.7 413.3 52.8V53H413.1L413 52.7H412.9V53ZM412.9 52.7C413 52.7 413 52.7 413.1 52.7C413.1 52.7 413.1 52.7 413.1 52.6V52.5H413H412.9V52.7Z" fill="#009DDD"/>
<path d="M404.7 45.2C404.7 44.8 405 44.5 405.4 44.5C405.8 44.5 406.1 44.8 406.1 45.2C406.1 45.6 405.8 45.9 405.4 45.9C405.1 45.9 404.7 45.6 404.7 45.2ZM405.5 45.8C405.8 45.8 406.1 45.6 406.1 45.2C406.1 44.9 405.9 44.6 405.5 44.6C405.2 44.6 404.9 44.8 404.9 45.2C404.9 45.5 405.2 45.8 405.5 45.8ZM405.4 45.5H405.3V44.9H405.6C405.7 44.9 405.7 44.9 405.8 44.9C405.9 44.9 405.9 45 405.9 45.1C405.9 45.2 405.9 45.2 405.8 45.3L405.9 45.6H405.7L405.6 45.3H405.5L405.4 45.5C405.4 45.5 405.5 45.5 405.4 45.5ZM405.4 45.2C405.5 45.2 405.5 45.2 405.6 45.2C405.6 45.2 405.6 45.2 405.6 45.1V45H405.5H405.4V45.2Z" fill="white"/>
<path d="M362 34.4C361.8 35.3 361.7 35.8 361.4 36.9C359.7 36.2 357.4 35.8 355.7 36.9C354.1 37.9 353.5 39.6 353.6 41.4C353.7 42.3 354.4 43.1 355.3 43.5C356.9 44.1 358.4 43.9 360.1 43C359.9 44.1 359.7 44.9 359.5 45.7C357.5 46.3 355.5 46.5 353.5 45.8C351.7 45.2 350.2 43.5 350.1 41.8C349.7 39 351 36.1 353.8 34.8C356.4 33.5 359.3 33.7 362 34.4Z" fill="white"/>
<path d="M390.7 44.4C390.2 44.9 389.3 46.1 386.8 46.1C384.6 46.1 383.1 44.4 383.9 40.7L384.8 36.3H388.2L387.3 40.7C387 42.2 387.1 43.3 388.6 43.3C390.4 43.3 390.9 42.2 391.3 40.7L392.2 36.3H395.6L394.1 43.3C393.9 44.1 393.8 45 393.7 45.9H390.5C390.4 45.9 390.6 44.8 390.7 44.4Z" fill="white"/>
<path d="M396.7 39.4C396.7 40.6 397.5 41.4 399.3 42.1C400.7 42.6 400.9 42.7 400.9 43.2C400.9 43.8 400.3 44.1 398.9 44.1C397.9 44.1 396.9 44 395.8 43.7C395.8 43.7 395.4 45.7 395.3 45.9C396.3 46.1 397.9 46.2 398.9 46.2C402.5 46.2 404.2 45.2 404.2 43C404.2 41.7 403.5 40.9 401.8 40.3C400.3 39.8 400.2 39.7 400.2 39.3C400.2 38.8 400.8 38.5 401.9 38.5C402.6 38.5 403.5 38.6 404.4 38.6L404.9 36.4C404 36.3 402.7 36.2 401.9 36.2C398.1 36.1 396.7 37.6 396.7 39.4Z" fill="white"/>
<path d="M363.5 36.3H366.9L364.9 45.9H361.5L363.5 36.3Z" fill="white"/>
<path d="M383.8 36.3C381.3 36 380.5 37.2 379.9 37.8C380 37.3 380.1 36.8 380.1 36.3H377C376.5 39.3 375.7 42.3 375.1 45.3L374.9 45.9H378.5C378.9 43.9 379.4 41 380 40.1C380.6 39.2 381.5 38.5 382.8 38.9L383.8 36.3Z" fill="white"/>
<path d="M376 36.3C373.5 36 372.8 37.2 372.1 37.8C372.2 37.3 372.3 36.8 372.3 36.3H369.2C368.7 39.3 367.9 42.3 367.3 45.3L367.1 45.9H370.7C371.1 43.9 371.6 41 372.2 40.1C372.8 39.2 373.7 38.5 375 38.9L376 36.3Z" fill="white"/>
<path d="M125.4 75.2C125.4 77.5 123.5 79.4 121.2 79.4H4.20001C1.90001 79.4 0 77.5 0 75.2V5.2C0 2.9 1.90001 1 4.20001 1H121.3C123.6 1 125.5 2.9 125.5 5.2L125.4 75.2Z" fill="#3957A7"/>
<path d="M57.7 52H51.6L55.4 28.4H61.6L57.7 52Z" fill="white"/>
<path d="M46.4 28.4L40.6 44.6L39.9 41.1L37.8 30.5C37.8 30.5 37.6 28.4 34.9 28.4H25.2L25.1 28.8C25.1 28.8 28.1 29.4 31.5 31.5L36.9 52H43.3L53 28.4H46.4Z" fill="white"/>
<path d="M94.6 52H100.2L95.3 28.5H90.4C88.1 28.5 87.6 30.3 87.6 30.3L78.5 52H84.9L86.2 48.5H94L94.6 52ZM87.9 43.6L91.1 34.8L92.9 43.6H87.9Z" fill="white"/>
<path d="M78.9 34.1L79.8 29C79.8 29 77.1 28 74.3 28C71.3 28 64 29.3 64 35.8C64 41.9 72.5 42 72.5 45.1C72.5 48.3 64.9 47.7 62.4 45.7L61.5 51C61.5 51 64.2 52.3 68.4 52.3C72.6 52.3 78.9 50.1 78.9 44.2C78.9 38.1 70.3 37.5 70.3 34.9C70.4 32.3 76.3 32.7 78.9 34.1Z" fill="white"/>
<path d="M39.9 41.1L37.8 30.5C37.8 30.5 37.6 28.4 34.9 28.4H25.2L25.1 28.8C25.1 28.8 29.7 29.8 34.2 33.4C38.5 36.8 39.9 41.1 39.9 41.1Z" fill="#F9A533"/>
<path d="M598 75.2C598 77.5 596.1 79.4 593.8 79.4H476.7C474.4 79.4 472.5 77.5 472.5 75.2V5.2C472.5 2.9 474.4 1 476.7 1H593.8C596.1 1 598 2.9 598 5.2V75.2V75.2Z" fill="#13457C"/>
<path d="M550.2 62.7H551.3L552.5 62.6L553.6 62.4L554.7 62.2L555.8 62L556.9 61.7L557.9 61.3L559 60.9L560 60.5L560.9 60L561.9 59.4L562.8 58.9L563.7 58.2L564.5 57.6L565.4 56.9L566.1 56.1L566.9 55.3L567.6 54.5L568.3 53.6L568.9 52.8L569.5 51.8L570 50.9L570.5 49.9L571 48.9L571.4 47.9L571.7 46.9L572 45.8L572.3 44.7L572.5 43.6L572.6 42.5L572.7 41.3V40.2V39L572.6 37.9L572.5 36.7L572.3 35.6L572 34.6L571.7 33.5L571.4 32.4L571 31.4L570.5 30.4L570 29.5L569.5 28.5L568.9 27.6L568.3 26.7L567.6 25.9L566.9 25.1L566.1 24.3L565.4 23.5L564.5 22.8L563.7 22.2L562.8 21.5L561.9 20.9L560.9 20.4L560 19.9L559 19.5L557.9 19.1L556.9 18.7L555.8 18.4L554.7 18.1L553.6 17.9L552.5 17.8L551.3 17.7H550.2H549L547.9 17.8L546.8 17.9L545.6 18.1L544.5 18.4L543.5 18.7L542.4 19.1L541.4 19.5L540.4 19.9L539.4 20.4L538.5 20.9L537.6 21.5L536.7 22.2L535.9 22.8L535 23.5L534.3 24.3L533.5 25.1L532.8 25.9L532.1 26.7L531.5 27.6L530.9 28.5L530.4 29.5L529.9 30.4L529.4 31.4L529 32.4L528.7 33.5L528.4 34.6L528.1 35.6L527.9 36.7L527.8 37.9L527.7 39V40.2V41.3L527.8 42.5L527.9 43.6L528.1 44.7L528.4 45.8L528.7 46.9L529 47.9L529.4 48.9L529.9 49.9L530.4 50.9L530.9 51.8L531.5 52.8L532.1 53.6L532.8 54.5L533.5 55.3L534.3 56.1L535 56.9L535.9 57.6L536.7 58.2L537.6 58.9L538.5 59.4L539.4 60L540.4 60.5L541.4 60.9L542.4 61.3L543.5 61.7L544.5 62L545.6 62.2L546.8 62.4L547.9 62.6L549 62.7H550.2Z" fill="#EC1C2E"/>
<path d="M520.3 62.7H521.5L522.6 62.6L523.8 62.4L524.9 62.2L526 62L527 61.7L528.1 61.3L529.1 60.9L530.1 60.5L531.1 60L532 59.4L532.9 58.9L533.8 58.2L534.7 57.6L535.5 56.9L536.3 56.1L537 55.3L537.7 54.5L538.4 53.6L539 52.8L539.6 51.8L540.1 50.9L540.6 49.9L541.1 48.9L541.5 47.9L541.8 46.9L542.1 45.8L542.4 44.7L542.6 43.6L542.7 42.5L542.8 41.3V40.2V39L542.7 37.9L542.6 36.7L542.4 35.6L542.1 34.6L541.8 33.5L541.5 32.4L541.1 31.4L540.6 30.4L540.1 29.5L539.6 28.5L539 27.6L538.4 26.7L537.7 25.9L537 25.1L536.3 24.3L535.5 23.5L534.7 22.8L533.8 22.2L532.9 21.5L532 20.9L531.1 20.4L530.1 19.9L529.1 19.5L528.1 19.1L527 18.7L526 18.4L524.9 18.1L523.8 17.9L522.6 17.8L521.5 17.7H520.3H519.2L518 17.8L516.9 17.9L515.8 18.1L514.7 18.4L513.6 18.7L512.6 19.1L511.5 19.5L510.5 19.9L509.6 20.4L508.6 20.9L507.7 21.5L506.8 22.2L506 22.8L505.2 23.5L504.4 24.3L503.6 25.1L502.9 25.9L502.3 26.7L501.6 27.6L501 28.5L500.5 29.5L500 30.4L499.5 31.4L499.1 32.4L498.8 33.5L498.5 34.6L498.2 35.6L498 36.7L497.9 37.9L497.8 39V40.2V41.3L497.9 42.5L498 43.6L498.2 44.7L498.5 45.8L498.8 46.9L499.1 47.9L499.5 48.9L500 49.9L500.5 50.9L501 51.8L501.6 52.8L502.3 53.6L502.9 54.5L503.6 55.3L504.4 56.1L505.2 56.9L506 57.6L506.8 58.2L507.7 58.9L508.6 59.4L509.6 60L510.5 60.5L511.5 60.9L512.6 61.3L513.6 61.7L514.7 62L515.8 62.2L516.9 62.4L518 62.6L519.2 62.7C519.2 62.7 520.3 62.7 520.3 62.7Z" fill="#0084C4"/>
<path d="M532.5 26.3H543.9V25H533.6L532.5 26.3Z" fill="#EC1C2E"/>
<path d="M530.7 28.9H543.9V27.7H531.5L530.7 28.9Z" fill="#EC1C2E"/>
<path d="M529.4 31.6H543.9V30.4H530L529.4 31.6Z" fill="#EC1C2E"/>
<path d="M528.5 34.3H543.9V33H528.9L528.5 34.3Z" fill="#EC1C2E"/>
<path d="M527.9 37H543.9V35.7H528.1L527.9 37Z" fill="#EC1C2E"/>
<path d="M527.8 42.1H543.9V40.9H527.7L527.8 42.1Z" fill="#EC1C2E"/>
<path d="M528.2 45H543.9V43.7H527.9L528.2 45Z" fill="#EC1C2E"/>
<path d="M528.9 47.2H543.9V46H528.6L528.9 47.2Z" fill="#EC1C2E"/>
<path d="M530.1 50H543.9V48.8H529.5L530.1 50Z" fill="#EC1C2E"/>
<path d="M531.7 52.8H543.9V51.6H530.8L531.7 52.8Z" fill="#EC1C2E"/>
<path d="M533.7 55.5H543.8V54.3H532.6L533.7 55.5Z" fill="#EC1C2E"/>
<path d="M569 54L569.1 53.8L569.2 53.6L569.3 53.4L569.5 53.3L569.7 53.2L569.9 53.1H570.1H570.3L570.5 53.2L570.7 53.3L570.9 53.4L571 53.6L571.1 53.8L571.2 54H571L570.9 53.8L570.8 53.7L570.7 53.6L570.6 53.4H570.5L570.3 53.3H570.1H569.9L569.8 53.4H569.6L569.5 53.6L569.4 53.7L569.3 53.8L569.2 54H569Z" fill="#EC1C2E"/>
<path d="M569.7 54V53.7H570.1H570.2H570.3L570.4 53.8H570.5V53.9H570.6V54H570.4V53.9H570.3V53.8H570.2H570.1H569.9V54H569.7Z" fill="#EC1C2E"/>
<path d="M569 54.2V54H569.2V54.2H569Z" fill="#EC1C2E"/>
<path d="M569.7 54.2V54H569.9V54.1H570.1H570.2H570.3H570.4V54H570.6L570.5 54.1V54.2C570.5 54.2 569.7 54.2 569.7 54.2Z" fill="#EC1C2E"/>
<path d="M571 54.2V54H571.2V54.2H571Z" fill="#EC1C2E"/>
<path d="M569 54.2V54.4L569.1 54.6L569.2 54.8L569.3 55L569.5 55.1L569.7 55.2L569.9 55.3H570.1H570.3L570.5 55.2L570.7 55.1L570.9 55L571 54.8L571.1 54.6L571.2 54.4V54.2H571V54.4L570.9 54.6L570.8 54.7L570.7 54.9L570.6 55L570.5 55.1H570.3H570.1H569.9H569.8L569.6 55L569.5 54.9L569.4 54.7L569.3 54.6L569.2 54.4V54.2H569Z" fill="#EC1C2E"/>
<path d="M569.7 54.2V54.6H569.9V54.3H570.1L570.3 54.6H570.5L570.3 54.3V54.2H570.4H570.5C570.5 54.2 569.7 54.2 569.7 54.2Z" fill="#EC1C2E"/>
<path d="M545.3 38.3L545 38.2H544.9H544.7H544.6H544.5L544.3 38.1H544.2H544H543.9H543.7H543.5H543.3H543H542.7H542.5H542.2L542 38.2H541.9L541.7 38.3L541.5 38.4L541.4 38.5L541.3 38.6L541.2 38.7L541.1 38.8V38.9V39V39.2V39.3L541.2 39.5V39.6L541.3 39.7L541.6 39.9L541.8 40.1L542.1 40.2L542.4 40.3L542.8 40.4L543.1 40.6L543.5 40.7L543.8 40.8L544.1 41L544.4 41.2L544.7 41.5L544.9 41.8L545.1 42.2L545.2 42.7V43.3V43.9L545.1 44.4L545 44.9L544.8 45.3L544.6 45.6L544.3 45.9L544.1 46.2L543.8 46.4L543.4 46.6L543.1 46.8L542.7 46.9L542.4 47L542 47.1L541.7 47.2H541.3H541H540.6H540.2H539.8H539.4H539H538.7H538.4H538.2L537.9 47.1H537.7H537.5L537.3 47H537.1L536.9 46.9H536.8L536.6 46.8L536.4 46.7L536.9 44.4H537L537.1 44.5H537.2L537.4 44.6H537.6L537.8 44.7H538.1H538.3L538.6 44.8H538.9H539.2L539.5 44.9H539.8H540.1H540.4H540.7L541 44.8L541.2 44.7L541.4 44.6L541.6 44.5L541.7 44.3L541.8 44.2V44L541.9 43.9V43.7V43.5V43.4L541.8 43.3L541.7 43.2L541.6 43.1L541.5 43L541.3 42.9L541.2 42.8L541 42.7L540.8 42.6H540.6L540.5 42.5L540.2 42.4L540 42.3L539.8 42.2L539.6 42.1L539.4 42L539.2 41.9L539 41.8L538.8 41.7L538.6 41.5L538.5 41.4L538.3 41.2L538.2 41L538 40.8L537.9 40.6L537.8 40.3V40.1L537.7 39.8V39.4L537.8 39.1V38.9V38.7V38.5L537.9 38.3V38.1L538 37.9L538.1 37.7V37.6L538.2 37.4L538.3 37.3L538.4 37.1L538.5 37L538.6 36.8L538.7 36.7L538.8 36.6L539 36.5L539.1 36.4L539.3 36.3L539.5 36.2L539.6 36.1L539.8 36H540L540.2 35.9L540.4 35.8H540.7H540.9L541.2 35.7H541.4H541.7L542 35.6H542.3H542.6H543H543.4H543.7L544 35.7H544.3H544.5H544.7H544.9L545.1 35.8H545.2H545.4H545.5H545.6H545.7L545.8 35.9L545.3 38.3Z" fill="white"/>
<path d="M545.3 38.3L545 38.2H544.9H544.7H544.6H544.5L544.3 38.1H544.2H544H543.9H543.7H543.5H543.3H543H542.7H542.5H542.2L542 38.2H541.9L541.7 38.3L541.5 38.4L541.4 38.5L541.3 38.6L541.2 38.7L541.1 38.8V38.9V39V39.2V39.3L541.2 39.5V39.6L541.3 39.7L541.6 39.9L541.8 40.1L542.1 40.2L542.4 40.3L542.8 40.4L543.1 40.6L543.5 40.7L543.8 40.8L544.1 41L544.4 41.2L544.7 41.5L544.9 41.8L545.1 42.2L545.2 42.7V43.3V43.9L545.1 44.4L545 44.9L544.8 45.3L544.6 45.6L544.3 45.9L544.1 46.2L543.8 46.4L543.4 46.6L543.1 46.8L542.7 46.9L542.4 47L542 47.1L541.7 47.2H541.3H541H540.6H540.2H539.8H539.4H539H538.7H538.4H538.2L537.9 47.1H537.7H537.5L537.3 47H537.1L536.9 46.9H536.8L536.6 46.8L536.4 46.7L536.9 44.4H537L537.1 44.5H537.2L537.4 44.6H537.6L537.8 44.7H538.1H538.3L538.6 44.8H538.9H539.2L539.5 44.9H539.8H540.1H540.4H540.7L541 44.8L541.2 44.7L541.4 44.6L541.6 44.5L541.7 44.3L541.8 44.2V44L541.9 43.9V43.7V43.5V43.4L541.8 43.3L541.7 43.2L541.6 43.1L541.5 43L541.3 42.9L541.2 42.8L541 42.7L540.8 42.6H540.6L540.5 42.5L540.2 42.4L540 42.3L539.8 42.2L539.6 42.1L539.4 42L539.2 41.9L539 41.8L538.8 41.7L538.6 41.5L538.5 41.4L538.3 41.2L538.2 41L538 40.8L537.9 40.6L537.8 40.3V40.1L537.7 39.8V39.4L537.8 39.1V38.9V38.7V38.5L537.9 38.3V38.1L538 37.9L538.1 37.7V37.6L538.2 37.4L538.3 37.3L538.4 37.1L538.5 37L538.6 36.8L538.7 36.7L538.8 36.6L539 36.5L539.1 36.4L539.3 36.3L539.5 36.2L539.6 36.1L539.8 36H540L540.2 35.9L540.4 35.8H540.7H540.9L541.2 35.7H541.4H541.7L542 35.6H542.3H542.6H543H543.4H543.7L544 35.7H544.3H544.5H544.7H544.9L545.1 35.8H545.2H545.4H545.5H545.6H545.7L545.8 35.9L545.3 38.3Z" stroke="white" stroke-width="0.215"/>
<path d="M547.7 33.3H550.7L550.3 35.9H552.1L551.7 38.3L549.8 38.2L548.8 44.1V44.2V44.4V44.5L548.9 44.6V44.7H549L549.1 44.8H549.2L549.3 44.9H549.4H549.5H549.6H549.7L549.8 45H550H550.2L550.4 44.9H550.6H550.8L550.9 44.8H551H551.1L550.8 46.8H550.7L550.6 46.9H550.5H550.4V47H550.3H550.2L550.1 47.1H550H549.9H549.7L549.6 47.2H549.5H549.3H549.1H549H548.2H547.7H547.4L547 47.1L546.7 47L546.5 46.9L546.3 46.8L546.1 46.7L546 46.6L545.9 46.4L545.8 46.2L545.7 46V45.8V45.6V45.4V45.1L545.8 44.9L547.7 33.3Z" fill="white"/>
<path d="M547.7 33.3H550.7L550.3 35.9H552.1L551.7 38.3L549.8 38.2L548.8 44.1V44.2V44.4V44.5L548.9 44.6V44.7H549L549.1 44.8H549.2L549.3 44.9H549.4H549.5H549.6H549.7L549.8 45H550H550.2L550.4 44.9H550.6H550.8L550.9 44.8H551H551.1L550.8 46.8H550.7L550.6 46.9H550.5H550.4V47H550.3H550.2L550.1 47.1H550H549.9H549.7L549.6 47.2H549.5H549.3H549.1H549H548.2H547.7H547.4L547 47.1L546.7 47L546.5 46.9L546.3 46.8L546.1 46.7L546 46.6L545.9 46.4L545.8 46.2L545.7 46V45.8V45.6V45.4V45.1L545.8 44.9L547.7 33.3Z" stroke="white" stroke-width="0.215"/>
<path d="M529.7 42.3L529.6 42.5V42.7V42.9L529.7 43.1V43.3L529.8 43.5L529.9 43.6L530.1 43.8L530.2 44L530.4 44.2L530.5 44.3L530.7 44.5L530.9 44.6L531.1 44.7L531.3 44.8H531.6H531.8L532.1 44.9H532.4H532.6H532.9H533.2H533.5H533.8H534.1L534.4 44.8L534.6 44.7L534.9 44.6L535.2 44.5L535.6 44.4L535.9 44.2L536.2 44L535.7 46.7L535.5 46.8H535.4L535.2 46.9L535 47H534.9L534.7 47.1H534.6H534.4L534.2 47.2H534H533.7H533.5H533.2H532.9H532.6H532.3H532H531.7H531.5H531.2L530.9 47.1H530.7L530.4 47H530.1L529.9 46.9L529.6 46.8L529.4 46.7L529.1 46.6L528.9 46.5L528.6 46.4L528.4 46.2L528.2 46L528 45.9L527.8 45.7L527.6 45.5L527.4 45.2L527.3 45L527.1 44.7L527 44.5L526.9 44.2L526.7 43.9V43.5L526.6 43.2V42.8L526.5 42.5V42.1V41.6L526.6 41.2V41V40.8L526.7 40.7V40.5V40.3L526.8 40.1V39.9L526.9 39.6L527 39.4L527.1 39.2V39L527.3 38.7L527.4 38.5L527.5 38.3L527.6 38L527.8 37.8L528 37.6L528.1 37.4L528.3 37.2L528.5 37L528.8 36.8L529 36.6L529.3 36.5L529.5 36.3L529.8 36.2L530.2 36L530.5 35.9L530.8 35.8H531.2L531.6 35.7H532H532.5H532.7H532.9H533.1H533.3L533.5 35.8H533.8H534L534.2 35.9L534.4 36L534.6 36.1H534.8L535 36.2L535.2 36.4L535.4 36.5L535.6 36.6L535.8 36.8L535.9 37L536.1 37.1L536.2 37.4L536.4 37.6L536.5 37.8L536.6 38.1L536.7 38.3V38.6L536.8 38.9V39.3V39.6V40V40.4V40.8L536.7 41.2L536.6 41.7L536.5 42.3H528.8L529.3 40.3H533.9V40V39.7V39.5L533.8 39.3V39.1L533.7 38.9L533.6 38.7L533.5 38.6L533.4 38.4L533.2 38.3L533.1 38.2H532.9L532.8 38.1H532.6L532.4 38H532.2H532L531.8 38.1H531.6L531.4 38.2H531.3L531.1 38.3L531 38.4L530.8 38.6L530.7 38.7L530.6 38.9L530.5 39L530.4 39.2L530.3 39.4L530.2 39.6L530.1 39.8V40.1L529.7 42.3Z" fill="white"/>
<path d="M529.7 42.3L529.6 42.5V42.7V42.9L529.7 43.1V43.3L529.8 43.5L529.9 43.6L530.1 43.8L530.2 44L530.4 44.2L530.5 44.3L530.7 44.5L530.9 44.6L531.1 44.7L531.3 44.8H531.6H531.8L532.1 44.9H532.4H532.6H532.9H533.2H533.5H533.8H534.1L534.4 44.8L534.6 44.7L534.9 44.6L535.2 44.5L535.6 44.4L535.9 44.2L536.2 44L535.7 46.7L535.5 46.8H535.4L535.2 46.9L535 47H534.9L534.7 47.1H534.6H534.4L534.2 47.2H534H533.7H533.5H533.2H532.9H532.6H532.3H532H531.7H531.5H531.2L530.9 47.1H530.7L530.4 47H530.1L529.9 46.9L529.6 46.8L529.4 46.7L529.1 46.6L528.9 46.5L528.6 46.4L528.4 46.2L528.2 46L528 45.9L527.8 45.7L527.6 45.5L527.4 45.2L527.3 45L527.1 44.7L527 44.5L526.9 44.2L526.7 43.9V43.5L526.6 43.2V42.8L526.5 42.5V42.1V41.6L526.6 41.2V41V40.8L526.7 40.7V40.5V40.3L526.8 40.1V39.9L526.9 39.6L527 39.4L527.1 39.2V39L527.3 38.7L527.4 38.5L527.5 38.3L527.6 38L527.8 37.8L528 37.6L528.1 37.4L528.3 37.2L528.5 37L528.8 36.8L529 36.6L529.3 36.5L529.5 36.3L529.8 36.2L530.2 36L530.5 35.9L530.8 35.8H531.2L531.6 35.7H532H532.5H532.7H532.9H533.1H533.3L533.5 35.8H533.8H534L534.2 35.9L534.4 36L534.6 36.1H534.8L535 36.2L535.2 36.4L535.4 36.5L535.6 36.6L535.8 36.8L535.9 37L536.1 37.1L536.2 37.4L536.4 37.6L536.5 37.8L536.6 38.1L536.7 38.3V38.6L536.8 38.9V39.3V39.6V40V40.4V40.8L536.7 41.2L536.6 41.7L536.5 42.3H528.8L529.3 40.3H533.9V40V39.7V39.5L533.8 39.3V39.1L533.7 38.9L533.6 38.7L533.5 38.6L533.4 38.4L533.2 38.3L533.1 38.2H532.9L532.8 38.1H532.6L532.4 38H532.2H532L531.8 38.1H531.6L531.4 38.2H531.3L531.1 38.3L531 38.4L530.8 38.6L530.7 38.7L530.6 38.9L530.5 39L530.4 39.2L530.3 39.4L530.2 39.6L530.1 39.8V40.1L529.7 42.3Z" stroke="white" stroke-width="0.215"/>
<path d="M525.6 44.9L525.1 47.2H522.5V47V46.8V46.6L522.6 46.4V46.3V46.1L522.7 46L522.5 46.1L522.4 46.3L522.2 46.5L521.9 46.6L521.7 46.8L521.4 46.9L521.1 47L520.9 47.1L520.6 47.2L520.2 47.3L519.9 47.4H519.6H519.3H519H518.7H518.4L518 47.3L517.7 47.2L517.4 47L517.1 46.9L516.9 46.7L516.7 46.5L516.5 46.3L516.4 46.1L516.3 45.8L516.2 45.6L516.1 45.4L516 45.1V44.9L515.9 44.7V44.4V44.2V43.8L516 43.4L516.1 43L516.2 42.7L516.4 42.3L516.6 42L516.8 41.7L517.1 41.4L517.4 41.2L517.6 41L518 40.8L518.3 40.6L518.6 40.5L519 40.4L519.3 40.3L519.7 40.2H519.8H519.9H520.1L520.2 40.1H520.4H520.6H520.7H520.9L521.1 40H521.3H521.4H521.6H521.7H521.9H522H522.1H522.2H522.4H522.5H522.6H522.7H522.8H522.9H523H523.1H523.2H523.3H523.4V39.8V39.6V39.4V39.3V39.1V39L523.3 38.9V38.8L523.2 38.7L523.1 38.6L523 38.5H522.9L522.8 38.4L522.7 38.3H522.6H522.5L522.4 38.2H522.2H522.1H521.8H521.5H521.2H520.8H520.5L520.1 38.3H519.8H519.5L519.1 38.4H518.8L518.6 38.5H518.3L518.1 38.6L517.9 38.7H517.7L517.6 38.8L518.4 36.3L518.6 36.2L518.8 36.1L519.1 36L519.3 35.9H519.6L519.9 35.8H520.1H520.4H520.7L521 35.7H521.3H521.7H522H522.3H522.7H523.1L523.4 35.8H523.7L524 35.9L524.4 36L524.7 36.1L525 36.3L525.3 36.5L525.6 36.7L525.9 36.9L526.1 37.2L526.4 37.4L526.5 37.8L526.6 38.1L526.7 38.5V38.9V39.3L525.6 44.9Z" fill="white"/>
<path d="M525.6 44.9L525.1 47.2H522.5V47V46.8V46.6L522.6 46.4V46.3V46.1L522.7 46L522.5 46.1L522.4 46.3L522.2 46.5L521.9 46.6L521.7 46.8L521.4 46.9L521.1 47L520.9 47.1L520.6 47.2L520.2 47.3L519.9 47.4H519.6H519.3H519H518.7H518.4L518 47.3L517.7 47.2L517.4 47L517.1 46.9L516.9 46.7L516.7 46.5L516.5 46.3L516.4 46.1L516.3 45.8L516.2 45.6L516.1 45.4L516 45.1V44.9L515.9 44.7V44.4V44.2V43.8L516 43.4L516.1 43L516.2 42.7L516.4 42.3L516.6 42L516.8 41.7L517.1 41.4L517.4 41.2L517.6 41L518 40.8L518.3 40.6L518.6 40.5L519 40.4L519.3 40.3L519.7 40.2H519.8H519.9H520.1L520.2 40.1H520.4H520.6H520.7H520.9L521.1 40H521.3H521.4H521.6H521.7H521.9H522H522.1H522.2H522.4H522.5H522.6H522.7H522.8H522.9H523H523.1H523.2H523.3H523.4V39.8V39.6V39.4V39.3V39.1V39L523.3 38.9V38.8L523.2 38.7L523.1 38.6L523 38.5H522.9L522.8 38.4L522.7 38.3H522.6H522.5L522.4 38.2H522.2H522.1H521.8H521.5H521.2H520.8H520.5L520.1 38.3H519.8H519.5L519.1 38.4H518.8L518.6 38.5H518.3L518.1 38.6L517.9 38.7H517.7L517.6 38.8L518.4 36.3L518.6 36.2L518.8 36.1L519.1 36L519.3 35.9H519.6L519.9 35.8H520.1H520.4H520.7L521 35.7H521.3H521.7H522H522.3H522.7H523.1L523.4 35.8H523.7L524 35.9L524.4 36L524.7 36.1L525 36.3L525.3 36.5L525.6 36.7L525.9 36.9L526.1 37.2L526.4 37.4L526.5 37.8L526.6 38.1L526.7 38.5V38.9V39.3L525.6 44.9Z" stroke="white" stroke-width="0.215"/>
<path d="M523 42.1L522.8 41.9H522.6H522.5H522.4H522.2H522L521.9 42H521.7H521.5H521.3L521.2 42.1H521.1H520.9L520.8 42.2H520.7L520.6 42.3H520.4L520.3 42.4L520.1 42.5L520 42.6L519.9 42.7L519.7 42.8L519.6 42.9L519.5 43L519.4 43.2L519.3 43.3V43.5L519.2 43.7V44L519.3 44.3V44.5L519.5 44.7L519.6 44.8L519.8 44.9H520H520.2H520.5H520.8L521.1 44.8H521.3L521.5 44.7L521.7 44.6L521.9 44.5L522.1 44.4L522.2 44.3L522.3 44.1L522.4 44L522.5 43.9L522.6 43.8V43.7L522.7 43.5V43.4L522.8 43.3V43.1V42.9L522.9 42.7V42.6V42.4L523 42.2V42.1Z" fill="#0084C4"/>
<path d="M503.2 47.2H500.3L502.8 33.3H507.8L508.3 41.6L511.7 33.3H516.9L514.5 47.2H511.6L513.4 36.8H513.3L509 47.2H505.8L505.7 46.8V45.6L505.6 44L505.5 42.1L505.4 40.2L505.3 38.5L505.2 37.3V36.8H505.1H505H505.1L503.2 47.2Z" fill="white"/>
<path d="M503.2 47.2H500.3L502.8 33.3H507.8L508.3 41.6L511.7 33.3H516.9L514.5 47.2H511.6L513.4 36.8H513.3L509 47.2H505.8L505.7 46.8V45.6L505.6 44L505.5 42.1L505.4 40.2L505.3 38.5L505.2 37.3V36.8H505.1H505H505.1L503.2 47.2Z" stroke="white" stroke-width="0.215"/>
<path d="M551.6 47.2H554.6L555.6 41.2V41L555.7 40.8V40.5L555.8 40.3L555.9 40.1L556 39.9L556.1 39.7L556.3 39.5L556.4 39.4L556.6 39.2L556.9 39.1L557.1 39L557.4 38.9L557.7 38.8L558.1 38.7H558.5H558.6H558.7H558.8L558.9 38.8V38.7V38.6V38.4L559 38.1L559.1 37.9L559.2 37.6L559.3 37.3L559.4 37V36.8L559.5 36.6L559.6 36.4L559.7 36.2L559.8 36.1L559.9 35.9L560 35.8H559.9H559.8H559.7H559.6V35.7H559.5L559.2 35.8H558.9L558.6 35.9H558.3L558.1 36L557.9 36.1L557.7 36.2L557.5 36.4L557.3 36.5L557.1 36.7L557 36.8L556.8 37L556.7 37.2L556.5 37.4L556.4 37.6L556.2 37.8L556.5 35.9H553.5L551.6 47.2Z" fill="white"/>
<path d="M551.6 47.2H554.6L555.6 41.2V41L555.7 40.8V40.5L555.8 40.3L555.9 40.1L556 39.9L556.1 39.7L556.3 39.5L556.4 39.4L556.6 39.2L556.9 39.1L557.1 39L557.4 38.9L557.7 38.8L558.1 38.7H558.5H558.6H558.7H558.8L558.9 38.8V38.7V38.6V38.4L559 38.1L559.1 37.9L559.2 37.6L559.3 37.3L559.4 37V36.8L559.5 36.6L559.6 36.4L559.7 36.2L559.8 36.1L559.9 35.9L560 35.8H559.9H559.8H559.7H559.6V35.7H559.5L559.2 35.8H558.9L558.6 35.9H558.3L558.1 36L557.9 36.1L557.7 36.2L557.5 36.4L557.3 36.5L557.1 36.7L557 36.8L556.8 37L556.7 37.2L556.5 37.4L556.4 37.6L556.2 37.8L556.5 35.9H553.5L551.6 47.2Z" stroke="white" stroke-width="0.215"/>
<path d="M564.6 35.7L564.9 35.8H565.2H565.6H565.9L566.2 35.9L566.5 36L566.7 36.1L567 36.2L567.3 36.3L567.5 36.4L567.7 36.5L568 36.7L568.2 36.8L568.4 37L568.6 37.1L568.8 37.3L569 37.5L569.1 37.7L569.3 37.9L569.4 38.2L569.5 38.4L569.6 38.6L569.8 38.9V39.1L569.9 39.4L570 39.7L570.1 39.9V40.2V40.5V40.8L570.2 41.1L570.1 41.4V41.8V42.2L570 42.5V42.9L569.9 43.2L569.8 43.5L569.7 43.8L569.6 44.1L569.4 44.4L569.3 44.6L569.2 44.9L569 45.1L568.8 45.4L568.6 45.6L568.5 45.8L568.3 46L568 46.1L567.8 46.3L567.6 46.5L567.4 46.6L567.1 46.7L566.9 46.9L566.6 47L566.4 47.1L566.1 47.2H565.8L565.5 47.3H565.2L565 47.4H564.7H564.4H564.1H563.7H563.4H563.2L562.9 47.3H562.6L562.3 47.2H562L561.8 47.1L561.5 47L561.3 46.9L561 46.7L560.8 46.6L560.6 46.5L560.4 46.3L560.2 46.1L560 46L559.8 45.8L559.6 45.6L559.5 45.4L559.3 45.2L559.2 44.9L559 44.7L558.9 44.4L558.8 44.2L558.7 43.9V43.6L558.6 43.3L558.5 43V42.7V42.4V42V41.7V41.3V41L558.6 40.6L558.7 40.3V40L558.8 39.7L558.9 39.4L559 39.1L559.2 38.9L559.3 38.6L559.4 38.4L559.6 38.1L559.8 37.9L559.9 37.7L560.1 37.5L560.3 37.3L560.5 37.1L560.7 36.9L561 36.8L561.2 36.6L561.4 36.5L561.7 36.4L561.9 36.2L562.2 36.1L562.5 36H562.7L563 35.9L563.3 35.8H563.6H563.9H564.3L564.6 35.7Z" fill="white"/>
<path d="M564.6 35.7L564.9 35.8H565.2H565.6H565.9L566.2 35.9L566.5 36L566.7 36.1L567 36.2L567.3 36.3L567.5 36.4L567.7 36.5L568 36.7L568.2 36.8L568.4 37L568.6 37.1L568.8 37.3L569 37.5L569.1 37.7L569.3 37.9L569.4 38.2L569.5 38.4L569.6 38.6L569.8 38.9V39.1L569.9 39.4L570 39.7L570.1 39.9V40.2V40.5V40.8L570.2 41.1L570.1 41.4V41.8V42.2L570 42.5V42.9L569.9 43.2L569.8 43.5L569.7 43.8L569.6 44.1L569.4 44.4L569.3 44.6L569.2 44.9L569 45.1L568.8 45.4L568.6 45.6L568.5 45.8L568.3 46L568 46.1L567.8 46.3L567.6 46.5L567.4 46.6L567.1 46.7L566.9 46.9L566.6 47L566.4 47.1L566.1 47.2H565.8L565.5 47.3H565.2L565 47.4H564.7H564.4H564.1H563.7H563.4H563.2L562.9 47.3H562.6L562.3 47.2H562L561.8 47.1L561.5 47L561.3 46.9L561 46.7L560.8 46.6L560.6 46.5L560.4 46.3L560.2 46.1L560 46L559.8 45.8L559.6 45.6L559.5 45.4L559.3 45.2L559.2 44.9L559 44.7L558.9 44.4L558.8 44.2L558.7 43.9V43.6L558.6 43.3L558.5 43V42.7V42.4V42V41.7V41.3V41L558.6 40.6L558.7 40.3V40L558.8 39.7L558.9 39.4L559 39.1L559.2 38.9L559.3 38.6L559.4 38.4L559.6 38.1L559.8 37.9L559.9 37.7L560.1 37.5L560.3 37.3L560.5 37.1L560.7 36.9L561 36.8L561.2 36.6L561.4 36.5L561.7 36.4L561.9 36.2L562.2 36.1L562.5 36H562.7L563 35.9L563.3 35.8H563.6H563.9H564.3L564.6 35.7Z" stroke="white" stroke-width="0.215"/>
<path d="M569 46.7H569.9V46.8H569.5V47.5H569.3V46.8L569 46.7Z" fill="white"/>
<path d="M569 46.7H569.9V46.8H569.5V47.5H569.3V46.8L569 46.7Z" stroke="white" stroke-width="0.215"/>
<path d="M570 46.7H570.3L570.6 47.3L570.9 46.7H571.1V47.5H570.9V46.9L570.6 47.5H570.5L570.2 46.9V47.5H570V46.7V46.7Z" fill="white"/>
<path d="M570 46.7H570.3L570.6 47.3L570.9 46.7H571.1V47.5H570.9V46.9L570.6 47.5H570.5L570.2 46.9V47.5H570V46.7V46.7Z" stroke="white" stroke-width="0.215"/>
<path d="M562.2 41.2V41.6V42V42.3V42.7V42.9L562.3 43.2L562.4 43.4L562.5 43.7L562.6 43.8L562.7 44L562.9 44.1L563.1 44.2L563.3 44.3L563.5 44.4H563.7H563.9H564.2H564.4L564.6 44.3H564.8L565.1 44.1L565.3 44L565.4 43.9L565.6 43.7L565.8 43.5L565.9 43.2L566.1 43L566.2 42.7L566.3 42.4L566.4 42L566.5 41.6V41.2L566.6 40.9V40.6V40.3V40L566.5 39.8V39.5L566.4 39.3L566.3 39.1L566.2 38.9L566 38.7L565.9 38.6L565.7 38.5L565.5 38.4L565.3 38.3H565.1H564.8H564.5H564.3L564 38.4L563.8 38.5L563.5 38.7L563.3 38.8L563.1 39L563 39.2L562.8 39.5L562.7 39.7L562.6 39.9L562.5 40.2L562.4 40.4L562.3 40.7V40.9L562.2 41.2Z" fill="#EC1C2E"/>
<path d="M282.9 75.2C282.9 77.5 281 79.4 278.7 79.4H161.7C159.4 79.4 157.5 77.5 157.5 75.2V5.2C157.5 2.9 159.4 1 161.7 1H278.8C281.1 1 283 2.9 283 5.2L282.9 75.2Z" fill="#13457C"/>
<path d="M235.3 62.7H236.4L237.6 62.6L238.7 62.4L239.8 62.2L240.9 62L242 61.7L243 61.3L244 60.9L245 60.5L246 60L247 59.4L247.9 58.9L248.8 58.2L249.6 57.6L250.4 56.8L251.2 56.1L252 55.3L252.7 54.5L253.3 53.6L254 52.8L254.6 51.8L255.1 50.9L255.6 49.9L256 48.9L256.4 47.9L256.8 46.9L257.1 45.8L257.4 44.7L257.6 43.6L257.7 42.5L257.8 41.3V40.2V39L257.7 37.9L257.6 36.7L257.4 35.6L257.1 34.6L256.8 33.5L256.4 32.4L256 31.4L255.6 30.4L255.1 29.5L254.6 28.5L254 27.6L253.3 26.7L252.7 25.9L252 25.1L251.2 24.3L250.4 23.5L249.6 22.8L248.8 22.2L247.9 21.5L247 21L246 20.4L245 19.9L244 19.5L243 19.1L242 18.7L240.9 18.4L239.8 18.2L238.7 18L237.6 17.8L236.4 17.7H235.3H234.1L233 17.8L231.8 18L230.7 18.2L229.7 18.4L228.6 18.7L227.5 19.1L226.5 19.5L225.5 19.9L224.6 20.4L223.6 21L222.7 21.5L221.8 22.2L221 22.8L220.2 23.5L219.4 24.3L218.6 25.1L217.9 25.9L217.3 26.7L216.6 27.6L216.1 28.5L215.5 29.5L215 30.4L214.6 31.4L214.2 32.4L213.8 33.5L213.5 34.6L213.3 35.6L213.1 36.7L212.9 37.9L212.8 39V40.2V41.3L212.9 42.5L213.1 43.6L213.3 44.7L213.5 45.8L213.8 46.9L214.2 47.9L214.6 48.9L215 49.9L215.5 50.9L216.1 51.8L216.6 52.8L217.3 53.6L217.9 54.5L218.6 55.3L219.4 56.1L220.2 56.8L221 57.6L221.8 58.2L222.7 58.9L223.6 59.4L224.6 60L225.5 60.5L226.5 60.9L227.5 61.3L228.6 61.7L229.7 62L230.7 62.2L231.8 62.4L233 62.6L234.1 62.7C234.1 62.7 235.3 62.7 235.3 62.7Z" fill="#FBB231"/>
<path d="M205.2 62.7H206.3L207.5 62.6L208.6 62.4L209.7 62.2L210.8 62L211.9 61.7L212.9 61.3L213.9 60.9L214.9 60.5L215.9 60L216.8 59.4L217.7 58.9L218.6 58.2L219.5 57.6L220.3 56.8L221.1 56.1L221.8 55.3L222.5 54.5L223.2 53.6L223.8 52.8L224.4 51.8L224.9 50.9L225.4 49.9L225.9 48.9L226.3 47.9L226.6 46.9L226.9 45.8L227.2 44.7L227.4 43.6L227.5 42.5L227.6 41.3V40.2V39L227.5 37.9L227.4 36.7L227.2 35.6L226.9 34.6L226.6 33.5L226.3 32.4L225.9 31.4L225.4 30.4L224.9 29.5L224.4 28.5L223.8 27.6L223.2 26.7L222.5 25.9L221.8 25.1L221.1 24.3L220.3 23.5L219.5 22.8L218.6 22.2L217.7 21.5L216.8 21L215.9 20.4L214.9 19.9L213.9 19.5L212.9 19.1L211.9 18.7L210.8 18.4L209.7 18.2L208.6 18L207.5 17.8L206.3 17.7H205.2H204L202.9 17.8L201.7 18L200.6 18.2L199.5 18.4L198.5 18.7L197.4 19.1L196.4 19.5L195.4 19.9L194.4 20.4L193.5 21L192.6 21.5L191.7 22.2L190.8 22.8L190 23.5L189.2 24.3L188.5 25.1L187.8 25.9L187.1 26.7L186.5 27.6L185.9 28.5L185.3 29.5L184.8 30.4L184.4 31.4L184 32.4L183.6 33.5L183.3 34.6L183.1 35.6L182.9 36.7L182.7 37.9V39L182.6 40.2L182.7 41.3V42.5L182.9 43.6L183.1 44.7L183.3 45.8L183.6 46.9L184 47.9L184.4 48.9L184.8 49.9L185.3 50.9L185.9 51.8L186.5 52.8L187.1 53.6L187.8 54.5L188.5 55.3L189.2 56.1L190 56.8L190.8 57.6L191.7 58.2L192.6 58.9L193.5 59.4L194.4 60L195.4 60.5L196.4 60.9L197.4 61.3L198.5 61.7L199.5 62L200.6 62.2L201.7 62.4L202.9 62.6L204 62.7C204 62.7 205.2 62.7 205.2 62.7Z" fill="#EC1C2E"/>
<path d="M217.6 26.3H229.5V25.1H218.6L217.6 26.3Z" fill="#FBB231"/>
<path d="M215.8 29H229.5V27.8H216.5L215.8 29Z" fill="#FBB231"/>
<path d="M214.5 31.8H229.5V30.5H215L214.5 31.8Z" fill="#FBB231"/>
<path d="M213.5 34.5H229.5V33.2H213.9L213.5 34.5Z" fill="#FBB231"/>
<path d="M214.1 47.6H229.6V46.4H213.7L214.1 47.6Z" fill="#FBB231"/>
<path d="M215.2 50.3H229.6V49.1H214.6L215.2 50.3Z" fill="#FBB231"/>
<path d="M216.8 53H229.6V51.8H216.1L216.8 53Z" fill="#FBB231"/>
<path d="M219 55.7H229.6V54.5H218L219 55.7Z" fill="#FBB231"/>
<path d="M213 37.2H229.5V36H213.2L213 37.2Z" fill="#FBB231"/>
<path d="M223.1 44.9H229.4V43.7H223.3L223.1 44.9Z" fill="#FBB231"/>
<path d="M223.6 42.2H229.4V41H223.8L223.6 42.2Z" fill="#FBB231"/>
<path d="M212.6 41H214.2V42.2H212.7L212.6 41Z" fill="#FBB231"/>
<path d="M209.5 39.5H209.4L209.3 39.4H209.2H209.1H209H208.9H208.8H208.7L208.6 39.3H208.5H208.4H208.2H208.1H207.9H207.7L207.5 39.4H207.3H207.2H207L206.9 39.5H206.8L206.7 39.6L206.6 39.7V39.8H206.5V39.9V40V40.1V40.2V40.3L206.6 40.4L206.7 40.5L206.8 40.6L207 40.8L207.2 40.9H207.4L207.7 41L207.9 41.1L208.2 41.2L208.4 41.3L208.7 41.4L208.9 41.6L209.1 41.8L209.2 42L209.3 42.3L209.4 42.6V43V43.5V43.9L209.3 44.2L209.1 44.5L209 44.7L208.8 44.9L208.6 45.1L208.4 45.3L208.2 45.4L207.9 45.6L207.7 45.7H207.4L207.2 45.8H206.9L206.6 45.9H206.4H206.2H205.8H205.5H205.3H205H204.8L204.6 45.8H204.4H204.2H204.1H203.9L203.8 45.7H203.6H203.5L203.4 45.6H203.3L203.1 45.5L203.5 43.9H203.6H203.7L203.9 44H204H204.2L204.3 44.1H204.5H204.7H204.9L205.1 44.2H205.3H205.5H205.8H206H206.2H206.4L206.6 44.1L206.7 44L206.8 43.9L206.9 43.8L207 43.7V43.6V43.4L207.1 43.2L207 43L206.9 42.9L206.7 42.8L206.4 42.6L206.2 42.5L205.9 42.4L205.6 42.3L205.3 42.2L205 42L204.7 41.8L204.5 41.6L204.3 41.3L204.2 40.9L204.1 40.5V40V39.7L204.2 39.5L204.3 39.2L204.4 39L204.5 38.7L204.6 38.5L204.8 38.3L205 38.2L205.2 38L205.4 37.9L205.7 37.8L206 37.7H206.3L206.7 37.6H207.1H207.6H207.9H208.1H208.3H208.6H208.7H208.9H209.1H209.2L209.3 37.7H209.4H209.5H209.6H209.7H209.8L209.9 37.8L209.5 39.5Z" fill="white"/>
<path d="M209.5 39.5H209.4L209.3 39.4H209.2H209.1H209H208.9H208.8H208.7L208.6 39.3H208.5H208.4H208.2H208.1H207.9H207.7L207.5 39.4H207.3H207.2H207L206.9 39.5H206.8L206.7 39.6L206.6 39.7V39.8H206.5V39.9V40V40.1V40.2V40.3L206.6 40.4L206.7 40.5L206.8 40.6L207 40.8L207.2 40.9H207.4L207.7 41L207.9 41.1L208.2 41.2L208.4 41.3L208.7 41.4L208.9 41.6L209.1 41.8L209.2 42L209.3 42.3L209.4 42.6V43V43.5V43.9L209.3 44.2L209.1 44.5L209 44.7L208.8 44.9L208.6 45.1L208.4 45.3L208.2 45.4L207.9 45.6L207.7 45.7H207.4L207.2 45.8H206.9L206.6 45.9H206.4H206.2H205.8H205.5H205.3H205H204.8L204.6 45.8H204.4H204.2H204.1H203.9L203.8 45.7H203.6H203.5L203.4 45.6H203.3L203.1 45.5L203.5 43.9H203.6H203.7L203.9 44H204H204.2L204.3 44.1H204.5H204.7H204.9L205.1 44.2H205.3H205.5H205.8H206H206.2H206.4L206.6 44.1L206.7 44L206.8 43.9L206.9 43.8L207 43.7V43.6V43.4L207.1 43.2L207 43L206.9 42.9L206.7 42.8L206.4 42.6L206.2 42.5L205.9 42.4L205.6 42.3L205.3 42.2L205 42L204.7 41.8L204.5 41.6L204.3 41.3L204.2 40.9L204.1 40.5V40V39.7L204.2 39.5L204.3 39.2L204.4 39L204.5 38.7L204.6 38.5L204.8 38.3L205 38.2L205.2 38L205.4 37.9L205.7 37.8L206 37.7H206.3L206.7 37.6H207.1H207.6H207.9H208.1H208.3H208.6H208.7H208.9H209.1H209.2L209.3 37.7H209.4H209.5H209.6H209.7H209.8L209.9 37.8L209.5 39.5Z" stroke="white" stroke-width="0.216" stroke-miterlimit="2.6131"/>
<path d="M211.3 35.9H213.4L213.1 37.7H214.4L214.1 39.4H212.8L212 43.6V43.8L212.1 43.9V44L212.2 44.1H212.4L212.5 44.2H212.7H212.9H213.1H213.2H213.3H213.5L213.6 44.1H213.7L213.4 45.5L213.3 45.6H213.2V45.7H213.1H213H212.9L212.8 45.8H212.7H212.6H212.5H212.4H212.3H212.2H211.6H211.3H211H210.8L210.6 45.7L210.4 45.6H210.3L210.1 45.5L210 45.4L209.9 45.3V45.1V45L209.8 44.9V44.7V44.5L209.9 44.4V44.2L211.3 35.9Z" fill="white"/>
<path d="M211.3 35.9H213.4L213.1 37.7H214.4L214.1 39.4H212.8L212 43.6V43.8L212.1 43.9V44L212.2 44.1H212.4L212.5 44.2H212.7H212.9H213.1H213.2H213.3H213.5L213.6 44.1H213.7L213.4 45.5L213.3 45.6H213.2V45.7H213.1H213H212.9L212.8 45.8H212.7H212.6H212.5H212.4H212.3H212.2H211.6H211.3H211H210.8L210.6 45.7L210.4 45.6H210.3L210.1 45.5L210 45.4L209.9 45.3V45.1V45L209.8 44.9V44.7V44.5L209.9 44.4V44.2L211.3 35.9Z" stroke="white" stroke-width="0.216" stroke-miterlimit="2.6131"/>
<path d="M216.1 42.3L216 42.6V42.7L216.1 42.9V43L216.2 43.1L216.3 43.3L216.4 43.4L216.5 43.5L216.6 43.6L216.7 43.8L216.8 43.9H217L217.1 44L217.3 44.1H217.4H217.6H217.8L218 44.2H218.2H218.4H218.6H218.8H219L219.2 44.1H219.4L219.6 44H219.8L220.1 43.9L220.3 43.8L220.5 43.7L220.7 43.6L220.4 45.4L220.3 45.5H220.2L220 45.6H219.9L219.8 45.7H219.7H219.6L219.4 45.8H219.3H219.2H219H218.8H218.6H218.4H218.2H217.9H217.6H217.2H216.8L216.4 45.7L216.1 45.5L215.7 45.4L215.4 45.2L215 45L214.7 44.7L214.5 44.4L214.3 44.1L214.1 43.7L213.9 43.2V42.7L213.8 42.2L213.9 41.5V41.3L214 41V40.7L214.1 40.4L214.2 40.1L214.4 39.7L214.5 39.4L214.7 39.1L215 38.8L215.3 38.5L215.6 38.2L216 38L216.4 37.8L216.9 37.7L217.5 37.6H218.1H218.4H218.7L219 37.7H219.3L219.6 37.8L219.9 38L220.2 38.2L220.4 38.4L220.7 38.6L220.9 38.9L221 39.3L221.1 39.7L221.2 40.1V40.7L221.1 41.2L221 41.9V42.3H215.4L215.8 40.8H219.1V40.6V40.5V40.3V40.1L219 40V39.9L218.9 39.8L218.8 39.7L218.7 39.6L218.6 39.5L218.5 39.4H218.4L218.3 39.3H218.2H218L217.9 39.2L217.8 39.3H217.6H217.5L217.4 39.4H217.2L217.1 39.5L217 39.6L216.9 39.7L216.8 39.8L216.7 39.9L216.6 40V40.1L216.5 40.3L216.4 40.4V40.6V40.7L216.1 42.3Z" stroke="white" stroke-width="0.216" stroke-miterlimit="2.6131"/>
<path d="M234.2 38.2L234 38.1L233.9 38H233.7L233.6 37.9H233.5L233.4 37.8H233.2H233.1L232.9 37.7H232.8H232.6H232.5L232.3 37.6H232.1H231.9H231.7L231.5 37.7H231.3H231.1L230.9 37.8L230.7 37.9L230.5 38L230.3 38.1L230 38.3L229.9 38.5L229.7 38.7L229.5 39L229.3 39.3L229.2 39.7L229 40.1L228.9 40.6L228.8 40.9V41.1V41.4V41.7V41.9L228.9 42.2V42.4L229 42.6L229.1 42.8L229.3 43L229.4 43.2L229.6 43.4L229.8 43.5L230.1 43.6L230.3 43.7L230.6 43.8H230.7H230.8H231L231.1 43.9H231.3H231.5H231.6H231.8L232 43.8H232.2L232.4 43.7H232.6L232.8 43.6L233 43.5L233.1 43.4L233.3 43.2L232.9 45.3L232.8 45.4L232.7 45.5H232.6L232.5 45.6H232.4L232.3 45.7H232.1L231.9 45.8H231.7H231.4H231.1H230.8H230.4H230H229.6L229.3 45.7L228.9 45.6L228.6 45.4L228.2 45.2L227.9 45L227.6 44.8L227.3 44.5L227.1 44.1L226.9 43.7L226.7 43.3L226.5 42.8V42.3L226.4 41.8V41.2L226.5 40.6L226.6 40.3V40L226.7 39.7L226.8 39.4L226.9 39.1L227 38.9L227.1 38.6L227.2 38.4L227.3 38.1L227.4 37.9L227.5 37.7L227.7 37.5L227.8 37.3L228 37.1L228.1 37L228.3 36.8L228.5 36.6L228.6 36.5L228.8 36.4L229 36.3L229.2 36.1L229.4 36H229.6L229.8 35.9L230.1 35.8L230.3 35.7H230.6L230.8 35.6H231.1H231.3L231.6 35.5H231.9H232.2L232.4 35.6H232.6H232.8H233.1L233.3 35.7H233.5L233.6 35.8H233.8L234 35.9H234.1L234.2 36H234.3H234.4L234.5 36.1L234.2 38.2Z" fill="white"/>
<path d="M234.2 38.2L234 38.1L233.9 38H233.7L233.6 37.9H233.5L233.4 37.8H233.2H233.1L232.9 37.7H232.8H232.6H232.5L232.3 37.6H232.1H231.9H231.7L231.5 37.7H231.3H231.1L230.9 37.8L230.7 37.9L230.5 38L230.3 38.1L230 38.3L229.9 38.5L229.7 38.7L229.5 39L229.3 39.3L229.2 39.7L229 40.1L228.9 40.6L228.8 40.9V41.1V41.4V41.7V41.9L228.9 42.2V42.4L229 42.6L229.1 42.8L229.3 43L229.4 43.2L229.6 43.4L229.8 43.5L230.1 43.6L230.3 43.7L230.6 43.8H230.7H230.8H231L231.1 43.9H231.3H231.5H231.6H231.8L232 43.8H232.2L232.4 43.7H232.6L232.8 43.6L233 43.5L233.1 43.4L233.3 43.2L232.9 45.3L232.8 45.4L232.7 45.5H232.6L232.5 45.6H232.4L232.3 45.7H232.1L231.9 45.8H231.7H231.4H231.1H230.8H230.4H230H229.6L229.3 45.7L228.9 45.6L228.6 45.4L228.2 45.2L227.9 45L227.6 44.8L227.3 44.5L227.1 44.1L226.9 43.7L226.7 43.3L226.5 42.8V42.3L226.4 41.8V41.2L226.5 40.6L226.6 40.3V40L226.7 39.7L226.8 39.4L226.9 39.1L227 38.9L227.1 38.6L227.2 38.4L227.3 38.1L227.4 37.9L227.5 37.7L227.7 37.5L227.8 37.3L228 37.1L228.1 37L228.3 36.8L228.5 36.6L228.6 36.5L228.8 36.4L229 36.3L229.2 36.1L229.4 36H229.6L229.8 35.9L230.1 35.8L230.3 35.7H230.6L230.8 35.6H231.1H231.3L231.6 35.5H231.9H232.2L232.4 35.6H232.6H232.8H233.1L233.3 35.7H233.5L233.6 35.8H233.8L234 35.9H234.1L234.2 36H234.3H234.4L234.5 36.1L234.2 38.2Z" stroke="white" stroke-width="0.216" stroke-miterlimit="2.6131"/>
<path d="M252.9 45.8H250.7L250.9 45V44.9L250.8 45.1L250.7 45.2L250.5 45.3L250.4 45.4L250.2 45.5L250.1 45.6L250 45.7L249.8 45.8H249.7L249.5 45.9H249.4H249.2H249.1L248.9 46H248.8H248.6L248.3 45.9L247.9 45.8L247.6 45.7L247.2 45.5L247 45.3L246.7 45.1L246.5 44.8L246.3 44.5L246.2 44.1L246.1 43.8L246 43.4L245.9 43V42.6V42.2V41.8L246 41.5L246.1 41L246.3 40.6L246.4 40.2L246.6 39.8L246.8 39.5L247 39.2L247.3 38.9L247.5 38.7L247.8 38.4L248.1 38.3L248.4 38.1L248.6 38L248.9 37.8H249.3L249.6 37.7H249.9H250.1L250.3 37.8H250.5H250.7L250.9 37.9L251 38L251.2 38.1H251.3L251.4 38.2L251.5 38.3L251.6 38.4L251.7 38.5L251.8 38.6L251.9 38.7V38.8L252 38.9L252.5 35.9H254.6L252.9 45.8Z" fill="white"/>
<path d="M252.9 45.8H250.7L250.9 45V44.9L250.8 45.1L250.7 45.2L250.5 45.3L250.4 45.4L250.2 45.5L250.1 45.6L250 45.7L249.8 45.8H249.7L249.5 45.9H249.4H249.2H249.1L248.9 46H248.8H248.6L248.3 45.9L247.9 45.8L247.6 45.7L247.2 45.5L247 45.3L246.7 45.1L246.5 44.8L246.3 44.5L246.2 44.1L246.1 43.8L246 43.4L245.9 43V42.6V42.2V41.8L246 41.5L246.1 41L246.3 40.6L246.4 40.2L246.6 39.8L246.8 39.5L247 39.2L247.3 38.9L247.5 38.7L247.8 38.4L248.1 38.3L248.4 38.1L248.6 38L248.9 37.8H249.3L249.6 37.7H249.9H250.1L250.3 37.8H250.5H250.7L250.9 37.9L251 38L251.2 38.1H251.3L251.4 38.2L251.5 38.3L251.6 38.4L251.7 38.5L251.8 38.6L251.9 38.7V38.8L252 38.9L252.5 35.9H254.6L252.9 45.8Z" stroke="white" stroke-width="0.216" stroke-miterlimit="2.6131"/>
<path d="M249.4 44H249.6H249.8L250 43.9L250.2 43.8L250.3 43.7L250.5 43.6L250.6 43.5L250.8 43.3L250.9 43.2L251 43L251.1 42.9L251.2 42.7V42.5L251.3 42.3L251.4 42.1V41.9V41.7L251.5 41.4V41.2L251.4 41V40.8V40.6L251.3 40.5V40.3L251.2 40.1L251.1 40L251 39.9L250.9 39.8L250.8 39.7L250.6 39.6H250.5L250.3 39.5L250.1 39.6H249.9L249.8 39.7H249.6L249.4 39.8L249.3 40L249.2 40.1L249 40.2L248.9 40.4L248.8 40.6L248.7 40.7L248.6 40.9L248.5 41.1V41.4L248.4 41.6V41.8L248.3 42.1L248.4 42.5V42.9L248.5 43.2L248.7 43.5L248.9 43.8L249.1 44H249.4Z" fill="#FBB231"/>
<path d="M202.8 44.2L202.5 45.8H200.6V45.5L200.7 45.3V45V44.9L200.6 45.1L200.5 45.2L200.4 45.3L200.2 45.4L200 45.5L199.8 45.6L199.6 45.7L199.4 45.8H199.2L199 45.9H198.8L198.5 46H198.3H198.1H197.9L197.7 45.9H197.4L197.2 45.8L197 45.7L196.8 45.6L196.6 45.4L196.5 45.3L196.3 45.2L196.2 45L196.1 44.9V44.7L196 44.5V44.4L195.9 44.2V44V43.8V43.7V43.4L196 43.1V42.8L196.1 42.6L196.2 42.3L196.4 42.1L196.5 41.9L196.7 41.7L196.9 41.5L197.1 41.4L197.3 41.2L197.6 41.1L197.8 41L198.1 40.9L198.3 40.8H198.6H198.7H198.8H198.9H199L199.1 40.7H199.2H199.4H199.5H199.6H199.7H199.9H200L200.1 40.6H200.2H200.3L200.5 40.7H200.7H200.9H201H201.1H201.2V40.6L201.3 40.5V40.3V40.2V40L201.2 39.9L201.1 39.7L201 39.6L200.9 39.5H200.7L200.5 39.4H200.3H200.1H199.9H199.6H199.4H199.1H198.9H198.7L198.4 39.5H198.2H198L197.8 39.6H197.6L197.4 39.7H197.3L197.2 39.8H197.1L197.6 38L197.8 37.9H198L198.2 37.8H198.3L198.5 37.7H198.7H198.9H199.1L199.3 37.6H199.6H199.8H200H200.3H200.5H200.8H201L201.3 37.7H201.5H201.7L202 37.8L202.2 37.9L202.4 38L202.7 38.1L202.9 38.3L203.1 38.4L203.2 38.6L203.4 38.8L203.5 39.1L203.6 39.3V39.6V39.9V40.2L202.8 44.2Z" fill="white"/>
<path d="M202.8 44.2L202.5 45.8H200.6V45.5L200.7 45.3V45V44.9L200.6 45.1L200.5 45.2L200.4 45.3L200.2 45.4L200 45.5L199.8 45.6L199.6 45.7L199.4 45.8H199.2L199 45.9H198.8L198.5 46H198.3H198.1H197.9L197.7 45.9H197.4L197.2 45.8L197 45.7L196.8 45.6L196.6 45.4L196.5 45.3L196.3 45.2L196.2 45L196.1 44.9V44.7L196 44.5V44.4L195.9 44.2V44V43.8V43.7V43.4L196 43.1V42.8L196.1 42.6L196.2 42.3L196.4 42.1L196.5 41.9L196.7 41.7L196.9 41.5L197.1 41.4L197.3 41.2L197.6 41.1L197.8 41L198.1 40.9L198.3 40.8H198.6H198.7H198.8H198.9H199L199.1 40.7H199.2H199.4H199.5H199.6H199.7H199.9H200L200.1 40.6H200.2H200.3L200.5 40.7H200.7H200.9H201H201.1H201.2V40.6L201.3 40.5V40.3V40.2V40L201.2 39.9L201.1 39.7L201 39.6L200.9 39.5H200.7L200.5 39.4H200.3H200.1H199.9H199.6H199.4H199.1H198.9H198.7L198.4 39.5H198.2H198L197.8 39.6H197.6L197.4 39.7H197.3L197.2 39.8H197.1L197.6 38L197.8 37.9H198L198.2 37.8H198.3L198.5 37.7H198.7H198.9H199.1L199.3 37.6H199.6H199.8H200H200.3H200.5H200.8H201L201.3 37.7H201.5H201.7L202 37.8L202.2 37.9L202.4 38L202.7 38.1L202.9 38.3L203.1 38.4L203.2 38.6L203.4 38.8L203.5 39.1L203.6 39.3V39.6V39.9V40.2L202.8 44.2Z" stroke="white" stroke-width="0.216" stroke-miterlimit="2.6131"/>
<path d="M201 42.2L200.9 42.1H200.8H200.7L200.6 42H200.5H200.4L200.3 42.1H200.1H200H199.9H199.8H199.7L199.6 42.2H199.5H199.4L199.3 42.3H199.2H199.1L199 42.4H198.9L198.8 42.5L198.7 42.6L198.6 42.7H198.5L198.4 42.8V42.9L198.3 43V43.2V43.3L198.2 43.5L198.3 43.7L198.4 43.9L198.5 44L198.6 44.1H198.7L198.8 44.2H198.9H199.2L199.4 44.1H199.6H199.7L199.9 44L200 43.9H200.2L200.3 43.8L200.4 43.7L200.5 43.6L200.6 43.5V43.4H200.7V43.3V43.2L200.8 43.1V42.9L200.9 42.6V42.4L201 42.2Z" fill="#EC1C2E"/>
<path d="M186.8 45.8H184.8L186.5 35.9H190.1L190.4 41.8L192.9 35.9H196.6L194.9 45.8H192.8L194.1 38.4H194L191 45.8H188.6V45.5V44.7L188.5 43.5L188.4 42.2L188.3 40.8V39.6L188.2 38.8V38.4H188.1L186.8 45.8Z" fill="white"/>
<path d="M186.8 45.8H184.8L186.5 35.9H190.1L190.4 41.8L192.9 35.9H196.6L194.9 45.8H192.8L194.1 38.4H194L191 45.8H188.6V45.5V44.7L188.5 43.5L188.4 42.2L188.3 40.8V39.6L188.2 38.8V38.4H188.1L186.8 45.8Z" stroke="white" stroke-width="0.216" stroke-miterlimit="2.6131"/>
<path d="M240.5 44.2L240.2 45.8H238.3V45.5V45.3V45.1V45L238.2 45.1L238.1 45.2L237.9 45.3L237.8 45.4L237.6 45.5L237.5 45.6L237.3 45.7L237.1 45.8H236.9L236.7 45.9H236.4L236.2 46H236H235.8H235.6L235.4 45.9H235.1L234.9 45.8L234.7 45.7L234.5 45.6L234.3 45.4L234.1 45.3L234 45.2L233.9 45L233.8 44.9V44.7L233.7 44.5V44.4L233.6 44.2V44V43.8V43.7V43.4L233.7 43.1V42.8L233.8 42.6L233.9 42.3L234.1 42.1L234.2 41.9L234.4 41.7L234.6 41.5L234.8 41.4L235 41.2L235.3 41.1L235.5 41L235.8 40.9L236 40.8H236.3H236.4H236.5H236.7L236.8 40.7H236.9H237H237.2H237.3H237.4H237.5H237.6L237.7 40.6H237.8H238L238.2 40.7H238.4H238.5H238.7H238.8H238.9V40.6V40.5L239 40.3V40.2L238.9 40V39.9L238.8 39.7L238.7 39.6L238.5 39.5H238.4L238.2 39.4H238H237.8H237.6H237.4H237.1H236.9H236.6H236.4L236.1 39.5H235.9H235.7L235.5 39.6H235.3L235.1 39.7H235L234.9 39.8H234.8L235.3 38L235.5 37.9H235.7L235.9 37.8H236L236.2 37.7H236.4H236.6H236.8L237 37.6H237.3H237.5H237.7H238H238.2H238.5H238.7L238.9 37.7H239.2H239.4L239.6 37.8L239.9 37.9L240.1 38L240.3 38.1L240.5 38.3L240.7 38.4L240.9 38.6L241.1 38.8L241.2 39.1L241.3 39.3V39.6V39.9V40.2L240.5 44.2Z" fill="white"/>
<path d="M240.2 45.9L240.5 44.2H240.4L240.1 45.8H240.2V45.9Z" fill="white"/>
<path d="M238.2 45.8L238.3 45.9H240.2V45.8H238.3H238.2V45.9H238.3L238.2 45.8Z" fill="white"/>
<path d="M238.3 45V44.9L238.2 45.1V45.3V45.5V45.8H238.3V45.5V45.3V45V44.9V45Z" fill="white"/>
<path d="M235.4 46H235.6H235.8H236H236.2H236.4L236.7 45.9H236.9L237.1 45.8L237.3 45.7L237.5 45.6H237.7L237.8 45.4L238 45.3L238.1 45.2L238.2 45.1L238.3 45V44.9L238.2 45.1L238 45.2L237.9 45.3L237.8 45.4L237.6 45.5L237.4 45.6H237.2L237.1 45.7L236.9 45.8H236.6L236.4 45.9H236.2H236H235.8H235.6H235.4V46Z" fill="white"/>
<path d="M233.5 43.7L233.6 44V44.2V44.4L233.7 44.5V44.7L233.8 44.9L233.9 45L234 45.2L234.1 45.3L234.3 45.5L234.4 45.6L234.6 45.7L234.9 45.8L235.1 45.9L235.4 46V45.9L235.1 45.8L234.9 45.7L234.7 45.6L234.5 45.5L234.3 45.4L234.2 45.3L234.1 45.1L234 45L233.9 44.8L233.8 44.7L233.7 44.5V44.3V44.2V44L233.6 43.8L233.5 43.7Z" fill="white"/>
<path d="M236.3 40.8H236L235.7 40.9L235.5 41L235.2 41.1L235 41.2L234.8 41.3L234.6 41.5L234.4 41.7L234.2 41.9L234 42.1L233.9 42.3L233.8 42.6L233.7 42.8L233.6 43.1V43.4L233.5 43.7H233.6L233.7 43.4V43.1L233.8 42.8L233.9 42.6L234 42.3L234.1 42.1L234.3 41.9L234.4 41.7L234.6 41.6L234.8 41.4L235.1 41.3L235.3 41.1L235.5 41H235.8L236 40.9L236.3 40.8Z" fill="white"/>
<path d="M237.8 40.6H237.6H237.5H237.4H237.3H237.2L237 40.7H236.9H236.8H236.7H236.5H236.4H236.3V40.8H236.4H236.5H236.7H236.8H236.9H237L237.2 40.7H237.3H237.4H237.5H237.6L237.8 40.6Z" fill="white"/>
<path d="M238.9 40.7L238.7 40.6H238.5H238.4H238.2H238H237.8V40.7H238H238.2H238.4H238.5H238.7H238.9Z" fill="white"/>
<path d="M238.9 40.2V40.5V40.6V40.7L239 40.6V40.5L238.9 40.2Z" fill="white"/>
<path d="M238 39.4L238.2 39.5H238.4L238.5 39.6L238.6 39.7L238.7 39.8L238.8 39.9L238.9 40V40.2H239V40L238.9 39.9L238.8 39.7L238.7 39.6L238.6 39.5L238.4 39.4H238.2H238Z" fill="white"/>
<path d="M234.8 39.8H235L235.1 39.7H235.3L235.5 39.6H235.7H235.9L236.1 39.5H236.4H236.6L236.9 39.4H237.1H237.4H237.6H237.8H238L237.8 39.3H237.6H237.4H237.1L236.9 39.4H236.6H236.4H236.1L235.9 39.5H235.7H235.5L235.3 39.6H235.1L235 39.7H234.9L234.8 39.8Z" fill="white"/>
<path d="M235.3 37.9V38L234.8 39.8H234.9L235.4 38L235.3 37.9V38V37.9Z" fill="white"/>
<path d="M238.7 37.6H238.5H238.2H238H237.7H237.5H237.3H237H236.8H236.6L236.4 37.7H236.2H236L235.9 37.8H235.7L235.5 37.9H235.3L235.4 38H235.5L235.7 37.9L235.9 37.8H236.1H236.2L236.4 37.7H236.6H236.8H237H237.3H237.5H237.7H238H238.2H238.5L238.7 37.6Z" fill="white"/>
<path d="M241.3 40.2L241.4 39.9V39.6L241.3 39.3L241.2 39L241.1 38.8L240.9 38.6L240.8 38.4L240.6 38.2L240.4 38.1L240.1 38L239.9 37.9L239.6 37.8L239.4 37.7L239.2 37.6H238.9H238.7V37.7H238.9H239.1L239.4 37.8L239.6 37.9H239.8L240.1 38.1L240.3 38.2L240.5 38.3L240.7 38.5L240.9 38.7L241 38.9L241.1 39.1L241.2 39.3L241.3 39.6V39.9L241.2 40.1L241.3 40.2Z" fill="white"/>
<path d="M240.5 44.2L241.3 40.2L241.2 40.1L240.5 44.2Z" fill="white"/>
<path d="M238.6 42.2L238.5 42.1L238.4 42H238.3H238.2H238L237.9 42.1H237.8H237.7H237.6H237.5H237.4L237.3 42.2H237.2H237.1H237L236.9 42.3H236.8L236.7 42.4H236.6L236.5 42.5H236.4L236.3 42.6L236.2 42.7V42.8L236.1 42.9L236 43V43.2V43.3V43.5V43.7L236.1 43.9V44L236.3 44.1H236.4L236.5 44.2H236.6H236.9L237.1 44.1H237.3L237.5 44H237.6L237.8 43.9L237.9 43.8L238 43.7H238.1L238.2 43.6L238.3 43.5L238.4 43.4V43.3L238.5 43.2V43.1V43V42.8L238.6 42.6V42.4V42.2Z" fill="#FBB231"/>
<path d="M254.3 44.8V44.6V44.4L254.5 44.2L254.6 44.1L254.7 44L254.9 43.9L255.1 43.8H255.3H255.5L255.7 43.9L255.9 44L256.1 44.1L256.2 44.2L256.3 44.4L256.4 44.6V44.8H256.2V44.7L256.1 44.5L256 44.4L255.9 44.2L255.8 44.1L255.7 44H255.5H255.3H255.2H255L254.8 44.1L254.7 44.2L254.6 44.4V44.5L254.5 44.7V44.8H254.3V44.8Z" fill="white"/>
<path d="M255 44.8V44.4H255.4H255.5H255.6H255.7V44.5V44.6H255.8L255.7 44.7V44.8H255.4H255.5L255.6 44.7V44.6V44.5H255.5H255.4H255.1V44.8C255.1 44.8 255 44.8 255 44.8Z" fill="white"/>
<path d="M254.3 44.8V45.1V45.3L254.5 45.5L254.6 45.6L254.7 45.7L254.9 45.8L255.1 45.9H255.3H255.5L255.7 45.8L255.9 45.7L256.1 45.6L256.2 45.5L256.3 45.3L256.4 45.1V44.9V44.8H256.2V44.9V45L256.1 45.2L256 45.3L255.9 45.5L255.8 45.6L255.7 45.7H255.5H255.3H255.2H255L254.8 45.6L254.7 45.5L254.6 45.3V45.2L254.5 45V44.9V44.8C254.5 44.8 254.3 44.8 254.3 44.8Z" fill="white"/>
<path d="M255 44.8V45.3H255.1V44.9H255.3L255.6 45.3H255.7L255.5 44.9H255.6L255.7 44.8H255.4H255.3H255.1H255Z" fill="white"/>
<path d="M255.3 44.8L255.4 44.7L255.3 44.8ZM255.3 44.8L255.2 45H255.3V44.8ZM254.3 44.9V44.7L254.4 44.5L254.5 44.3L254.6 44.1L254.8 44L255 43.9L255.2 43.8H255.4H255.6L255.8 43.9L256 44L256.2 44.1L256.3 44.3L256.4 44.5L256.5 44.7V44.9V45.1L256.4 45.3L256.3 45.5L256.2 45.7L256 45.8L255.8 45.9L255.6 46H255.4H255.2L255 45.9L254.8 45.8L254.6 45.7L254.5 45.5L254.4 45.3L254.3 45.1V44.9ZM255.1 45.3H254.9V44.4H255.3H255.4H255.5H255.6H255.7V44.5V44.6V44.7V44.8H255.6H255.5L255.7 45.2H255.5L255.3 44.8H255.1V45.3V45.3ZM255.3 45.7H255.5L255.7 45.6L255.8 45.5L255.9 45.4L256 45.3L256.1 45.2V45V44.8V44.6V44.4L256 44.2L255.9 44.1L255.8 44L255.7 43.9L255.5 43.8H255.3H255.1L254.9 43.9L254.8 44L254.7 44.1L254.6 44.2L254.5 44.4V44.6V44.8V45V45.2L254.6 45.3L254.7 45.4L254.8 45.5L254.9 45.6L255.1 45.7C255.1 45.7 255.3 45.7 255.3 45.7Z" stroke="white" stroke-width="0.216" stroke-miterlimit="2.6131"/>
<path d="M241 45.8H243.2L243.9 41.5L244 41.4V41.2L244.1 41V40.9L244.2 40.7L244.3 40.5L244.4 40.4L244.5 40.2L244.7 40.1L244.8 40L245 39.9L245.2 39.8L245.4 39.7L245.6 39.6H245.9H246.2H246.3H246.4L246.7 37.6L246.5 37.7H246.3H246.1L245.9 37.8H245.8L245.6 37.9L245.5 38L245.3 38.1L245.2 38.2L245.1 38.3L244.9 38.4L244.8 38.5L244.7 38.7L244.6 38.8L244.5 38.9L244.4 39.1L244.6 37.7H242.5L241 45.8Z" fill="white"/>
<path d="M241 45.8H243.2L243.9 41.5L244 41.4V41.2L244.1 41V40.9L244.2 40.7L244.3 40.5L244.4 40.4L244.5 40.2L244.7 40.1L244.8 40L245 39.9L245.2 39.8L245.4 39.7L245.6 39.6H245.9H246.2H246.3H246.4L246.7 37.6L246.5 37.7H246.3H246.1L245.9 37.8H245.8L245.6 37.9L245.5 38L245.3 38.1L245.2 38.2L245.1 38.3L244.9 38.4L244.8 38.5L244.7 38.7L244.6 38.8L244.5 38.9L244.4 39.1L244.6 37.7H242.5L241 45.8Z" stroke="white" stroke-width="0.216" stroke-miterlimit="2.6131"/>
<path d="M220.9 45.8H223.1L223.8 41.5L223.9 41.4V41.2L224 41V40.9L224.1 40.7V40.6L224.2 40.5L224.3 40.3L224.5 40.2L224.6 40.1L224.8 40L224.9 39.9H225.2L225.4 39.8H225.7L226 39.7V39.8H226.1H226.2V39.7V39.5L226.3 39.4V39.2L226.4 38.9L226.5 38.7V38.5L226.6 38.4L226.7 38.2V38.1L226.8 38L226.9 37.8L227 37.7H226.9H226.8L226.7 37.6H226.6L226.4 37.7H226.2H226L225.8 37.8H225.6L225.5 37.9L225.3 38L225.2 38.1L225.1 38.2L224.9 38.3L224.8 38.4L224.7 38.5L224.6 38.6L224.5 38.8L224.4 38.9L224.3 39.1L224.5 37.7H222.4L220.9 45.8Z" fill="white"/>
<path d="M220.9 45.8H223.1L223.8 41.5L223.9 41.4V41.2L224 41V40.9L224.1 40.7V40.6L224.2 40.5L224.3 40.3L224.5 40.2L224.6 40.1L224.8 40L224.9 39.9H225.2L225.4 39.8H225.7L226 39.7V39.8H226.1H226.2V39.7V39.5L226.3 39.4V39.2L226.4 38.9L226.5 38.7V38.5L226.6 38.4L226.7 38.2V38.1L226.8 38L226.9 37.8L227 37.7H226.9H226.8L226.7 37.6H226.6L226.4 37.7H226.2H226L225.8 37.8H225.6L225.5 37.9L225.3 38L225.2 38.1L225.1 38.2L224.9 38.3L224.8 38.4L224.7 38.5L224.6 38.6L224.5 38.8L224.4 38.9L224.3 39.1L224.5 37.7H222.4L220.9 45.8Z" stroke="white" stroke-width="0.216" stroke-miterlimit="2.6131"/>
<path d="M254.3 53.8V53.6L254.5 53.4L254.6 53.3L254.7 53.2L254.9 53.1L255.1 53H255.3H255.5L255.7 53.1L255.9 53.2L256.1 53.3L256.2 53.4L256.3 53.6L256.4 53.8H256.2L256.1 53.7L256 53.5L255.9 53.4L255.8 53.3L255.7 53.2H255.5L255.3 53.1L255.2 53.2H255L254.8 53.3L254.7 53.4L254.6 53.5V53.7L254.5 53.8H254.3V53.8Z" fill="#FBB231"/>
<path d="M255 53.8V53.6H255.4H255.5H255.6H255.7V53.7V53.8H255.8H255.6V53.7H255.5H255.4H255.1V53.8C255.1 53.8 255 53.8 255 53.8Z" fill="#FBB231"/>
<path d="M254.3 54V53.8H254.5V54H254.3Z" fill="#FBB231"/>
<path d="M255 54V53.8H255.1V54H255.3H255.4H255.5V53.9H255.6V53.8H255.8L255.7 53.9V54H255Z" fill="#FBB231"/>
<path d="M256.2 54V53.8H256.4V54H256.2Z" fill="#FBB231"/>
<path d="M254.3 54V54.2V54.4L254.5 54.6L254.6 54.8L254.7 54.9L254.9 55L255.1 55.1H255.3H255.5L255.7 55L255.9 54.9L256.1 54.8L256.2 54.6L256.3 54.4L256.4 54.2V54H256.2V54.2L256.1 54.4L256 54.5L255.9 54.6L255.8 54.8H255.7L255.5 54.9H255.3H255.2L255 54.8H254.8L254.7 54.6L254.6 54.5V54.4L254.5 54.2V54H254.3Z" fill="#FBB231"/>
<path d="M255 54V54.4H255.1V54.1H255.3L255.6 54.4H255.7L255.5 54.1L255.6 54H255.7C255.7 54 255 54 255 54Z" fill="#FBB231"/>
<path d="M221.2 40.1L221.1 39.6L221 39.2L220.8 38.9L220.6 38.6L220.4 38.3L220.2 38.1L219.9 37.9L219.6 37.8L219.3 37.7L219 37.6L218.7 37.5H218.4H218.1H217.5L217 37.6L216.5 37.7L216.1 37.9L215.7 38.1L215.4 38.4L215.1 38.7L214.9 39L214.7 39.3L214.5 39.6L214.4 39.9L214.3 40.2L214.2 40.5L214.1 40.8V41.1V41.3V41.9V42.5L214.2 43L214.3 43.4L214.5 43.8L214.7 44.1L215 44.4L215.3 44.7L215.6 44.9L215.9 45.1L216.3 45.2L216.7 45.3L217.1 45.4L217.5 45.5H217.9H218.3H218.5H218.7H218.9H219.1H219.3H219.5H219.7H219.8H219.9H220H220.1H220.2H220.3H220.4L220.5 45.4L220.6 45.3L220.9 43.4L220.7 43.5L220.5 43.6L220.3 43.7L220.1 43.8L219.9 43.9H219.7H219.5H219.3H219.1H218.9H218.7H218.5H218.3H218.1H217.9H217.7H217.5L217.3 43.8L217.1 43.7L217 43.6L216.9 43.5L216.8 43.4L216.7 43.3L216.6 43.2L216.5 43.1L216.4 43L216.3 42.9L216.2 42.8V42.7V42.6V42.5V42.4H221.1V41.9L221.2 41.3L221.3 40.7L221.2 40.1ZM219.1 40.8H216.3V40.7V40.5V40.3L216.4 40.1L216.5 40L216.6 39.9L216.7 39.8L216.8 39.7L216.9 39.6L217 39.5L217.1 39.4L217.2 39.3L217.3 39.2H217.4H217.5H217.6H217.7H217.8H217.9H218H218.1L218.2 39.3L218.3 39.4L218.4 39.5L218.5 39.6L218.6 39.7L218.7 39.8L218.8 39.9L218.9 40V40.2V40.4V40.6L219.1 40.8Z" fill="white"/>
<path d="M756 75.2C756 77.5 754.1 79.4 751.8 79.4H634.7C632.4 79.4 630.5 77.5 630.5 75.2V5.2C630.5 2.9 632.4 1 634.7 1H751.8C754.1 1 756 2.9 756 5.2V75.2V75.2Z" fill="#E1E7EA"/>
<path d="M756.767 67.7689C756.767 74.3273 751.401 79.6933 744.843 79.6933H670.315C670.315 79.6933 740.669 68.3651 756.767 34.9766V67.7689ZM688.201 34.9766C688.201 40.0445 692.077 43.92 697.145 43.92C702.213 43.92 706.088 40.0445 706.088 34.9766C706.088 29.9087 702.213 26.0333 697.145 26.0333C692.077 26.0333 688.201 29.9087 688.201 34.9766Z" fill="#FF6D00"/>
<path d="M656.005 26.0333H659.285V43.92H656.005V26.0333ZM673.892 34.9766C673.892 40.0445 677.767 43.92 682.835 43.92C684.326 43.92 685.518 43.6219 687.009 43.0256V39.1502C685.816 40.3426 684.624 40.9389 682.835 40.9389C679.556 40.9389 677.171 38.554 677.171 34.9766C677.171 31.6974 679.556 29.0144 682.835 29.0144C684.326 29.0144 685.518 29.6106 687.009 30.8031V26.9276C685.518 26.3314 684.326 25.7352 682.835 25.7352C677.767 26.0333 673.892 30.2069 673.892 34.9766ZM713.839 37.6596L709.069 26.0333H705.492L712.945 43.92H714.733L722.186 26.0333H718.609L713.839 37.6596ZM723.677 43.92H733.216V40.9389H726.956V36.1691H732.918V33.188H726.956V29.0144H733.216V26.0333H723.677V43.92ZM746.333 31.3993C746.333 28.1201 744.246 26.0333 740.371 26.0333H735.303V43.92H738.582V36.7653H738.88L743.65 43.92H747.824L742.458 36.4672C744.842 35.871 746.333 34.0823 746.333 31.3993ZM739.476 34.3804H738.582V29.0144H739.476C741.563 29.0144 742.756 29.9087 742.756 31.6974C742.756 33.188 741.861 34.3804 739.476 34.3804ZM645.571 26.0333H640.504V43.92H645.273C652.726 43.92 654.515 37.6596 654.515 34.9766C654.813 29.6106 650.937 26.0333 645.571 26.0333ZM644.677 40.9389H643.783V29.0144H644.975C649.447 29.0144 651.236 31.9955 651.236 34.9766C651.236 36.1691 650.937 40.9389 644.677 40.9389ZM668.228 32.8899C666.141 31.9955 665.545 31.6974 665.545 30.8031C665.545 29.6106 666.737 29.0144 667.93 29.0144C668.824 29.0144 669.718 29.3125 670.613 30.505L672.401 28.1201C670.911 26.6295 669.42 26.0333 667.334 26.0333C664.352 26.0333 661.968 28.1201 661.968 31.1012C661.968 33.4861 663.16 34.6785 666.141 35.871C667.93 36.4672 669.42 37.0634 669.42 38.554C669.42 40.0445 668.228 40.9389 666.737 40.9389C665.247 40.9389 663.756 40.0445 663.16 38.554L661.073 40.6408C662.564 43.0256 664.352 43.92 667.035 43.92C670.613 43.92 672.998 41.5351 672.998 38.2559C672.998 35.5729 671.805 34.3804 668.228 32.8899Z" fill="black"/>
<g clip-path="url(#clip0)">
<path d="M915 75.2C915 77.5 913.1 79.4 910.8 79.4H793.7C791.4 79.4 789.5 77.5 789.5 75.2V5.2C789.5 2.9 791.4 1 793.7 1H910.8C913.1 1 915 2.9 915 5.2V75.2V75.2Z" fill="#1976D2"/>
<path d="M846.303 28.869L839.989 42.8623L833.705 28.869H825.652V48.967L816.679 28.869H809.884L800.719 49.7289H806.143L808.148 45.0735H818.403L820.441 49.7289H830.794V34.2357L837.664 49.7289H842.335L849.36 34.5046V49.7289H854.505V28.869H846.303ZM810.087 40.5674L813.153 33.2765L816.338 40.5674H810.087ZM893.001 39.0674L902.315 28.9228H895.69L889.732 35.3891L883.968 28.869H863.469V49.7319H883.295L889.546 42.8264L895.642 49.7857H902.246L893.001 39.0674ZM880.585 45.3514H868.6V41.2248H880.068V37.2716H868.6V33.3631L881.251 33.399L886.31 39.0674L880.585 45.3514Z" fill="white"/>
</g>
<defs>
<clipPath id="clip0">
<rect width="126" height="79" fill="white" transform="translate(788.767 1)"/>
</clipPath>
</defs>
</svg>
