<svg width="87" height="13" viewBox="0 0 87 13" fill="none" xmlns="http://www.w3.org/2000/svg">
<path d="M54.6187 7.94802C54.6187 10.1709 53.5778 10.1709 53.0225 10.1709C52.5368 10.1709 51.4263 10.1709 51.4263 7.94802V1.75098H48.7891V8.35216C48.7891 10.9118 50.5241 12.6631 53.0225 12.6631C55.521 12.6631 57.256 10.9112 57.256 8.35216V1.75098H54.6187V7.94802Z" fill="#1B1B1B"/>
<path d="M80.644 1.48145C79.0794 1.48145 77.579 2.08467 76.4727 3.15842C75.3664 4.23216 74.7449 5.68847 74.7449 7.20698C74.7449 8.72548 75.3664 10.1818 76.4727 11.2555C77.579 12.3293 79.0794 12.9325 80.644 12.9325C83.9752 12.9325 86.543 10.4403 86.543 7.20704C86.5437 6.45497 86.3916 5.71016 86.0954 5.01521C85.7991 4.32027 85.3646 3.68883 84.8167 3.15703C84.2688 2.62524 83.6183 2.20351 82.9022 1.916C82.1862 1.62848 81.4189 1.48082 80.644 1.48145ZM80.644 10.3055C79.8003 10.2962 78.9938 9.96682 78.3972 9.38774C77.8005 8.80866 77.4611 8.02593 77.4516 7.20704C77.4516 6.38526 77.7879 5.59714 78.3866 5.01605C78.9853 4.43497 79.7974 4.10852 80.644 4.10852C81.4907 4.10852 82.3028 4.43497 82.9015 5.01605C83.5002 5.59714 83.8365 6.38526 83.8365 7.20704C83.8376 7.61424 83.7558 8.01765 83.5957 8.39407C83.4357 8.77048 83.2006 9.11249 82.9039 9.40042C82.6072 9.68836 82.2548 9.91654 81.867 10.0719C81.4792 10.2272 81.0635 10.3066 80.644 10.3055Z" fill="#1B1B1B"/>
<path d="M5.89904 0L0 12.5962H2.9842L4.09465 10.1712H7.70355L8.814 12.5962H11.7982L5.89904 0ZM4.78871 8.01554L5.89916 5.38853L7.00986 8.01554H4.78871Z" fill="#1B1B1B"/>
<path d="M18.7378 1.81885H14.4354V12.3942H17.1421V9.36305H18.5994C21.3061 9.36305 22.9717 7.88114 22.9717 5.59095C22.9717 3.23345 21.3756 1.81885 18.7378 1.81885ZM20.1952 5.65863C20.1952 6.53458 19.5707 7.07323 18.5296 7.07323H17.1421V4.17647H18.5301C19.6405 4.17647 20.1957 4.71536 20.1957 5.65839L20.1952 5.65863Z" fill="#1B1B1B"/>
<path d="M29.9808 1.81885H25.6785V12.3942H28.3851V9.36305H29.8426C32.5492 9.36305 34.2149 7.88114 34.2149 5.59095C34.1454 3.23345 32.5491 1.81885 29.9808 1.81885ZM31.4383 5.65863C31.4383 6.53458 30.8137 7.07323 29.7726 7.07323H28.3851V4.17647H29.7731C30.8141 4.17647 31.4388 4.71536 31.4388 5.65839L31.4383 5.65863Z" fill="#1B1B1B"/>
<path d="M42.1959 5.18669C40.0447 4.6478 39.6281 4.37842 39.6281 3.70478V3.63746C39.6281 3.03126 40.1833 2.69444 41.1549 2.69444C42.1266 2.69444 43.1675 3.09857 44.3473 3.83953L44.4167 3.90685L45.9435 1.75141L45.8742 1.68409C44.5512 0.668772 42.9108 0.122258 41.2243 0.134983C38.5871 0.134983 36.7826 1.68421 36.7826 3.83977V3.90709C36.7826 6.46678 38.5876 7.07298 40.9468 7.67919C43.0288 8.21808 43.3757 8.55514 43.3757 9.09379V9.1611C43.3757 9.83474 42.7511 10.1714 41.71 10.1714C40.4614 10.1714 39.281 9.69987 38.1011 8.75685L38.0318 8.68953L36.2969 10.7103L36.3662 10.7776C37.8328 12.0551 39.7397 12.7522 41.7102 12.731C44.5557 12.731 46.36 11.2491 46.36 8.89124C46.2212 6.66885 44.625 5.79314 42.1959 5.18669Z" fill="#1B1B1B"/>
<path d="M66.2781 12.9998L63.0163 7.61116L62.0447 12.5957H59.6851L62.1141 1.48145L66.4165 8.48675L70.5116 1.48145L72.9405 12.5957H70.4422L69.4706 7.67848L66.2781 12.9998Z" fill="#1B1B1B"/>
</svg>
