<svg xmlns="http://www.w3.org/2000/svg" xmlns:xlink="http://www.w3.org/1999/xlink" viewBox="3272 1325 70 70">
  <defs>
    <style>
      .cls-1 {
        fill: #ffbc00;
      }

      .cls-2, .cls-5 {
        fill: none;
      }

      .cls-2 {
        stroke: #ffbc00;
        stroke-width: 4px;
      }

      .cls-3 {
        clip-path: url(#clip-path);
      }

      .cls-4 {
        stroke: none;
      }
    </style>
    <clipPath id="clip-path">
      <path id="Path_1003" data-name="Path 1003" class="cls-1" d="M0-28H8.834V-7.388H0Z" transform="translate(0 28)"/>
    </clipPath>
  </defs>
  <g id="Group_924" data-name="Group 924" transform="translate(1973 11)">
    <g id="Ellipse_143" data-name="Ellipse 143" class="cls-2" transform="translate(1299 1314)">
      <circle class="cls-4" cx="35" cy="35" r="35"/>
      <circle class="cls-5" cx="35" cy="35" r="33"/>
    </g>
    <g id="noun_1197022_cc" transform="translate(1304.247 1324.496)">
      <path id="Path_1001" data-name="Path 1001" class="cls-1" d="M30.043,45.5a1.325,1.325,0,0,1-.516-.1.118.118,0,0,0-.028-.009C18.9,41.24,13.753,36.1,13.753,29.679V9.992a1.349,1.349,0,0,1,1.619-1.321,19.3,19.3,0,0,0,6.211.051c3.758-.528,6.454-1.784,7.476-2.8a1.376,1.376,0,0,1,1.5-.325,1.343,1.343,0,0,1,.488.346c1.039,1.016,3.723,2.259,7.456,2.783a19.261,19.261,0,0,0,6.211-.051,1.349,1.349,0,0,1,1.62,1.321V29.678c0,6.425-5.157,11.565-15.76,15.717l-.013.005a1.32,1.32,0,0,1-.319.089,1.475,1.475,0,0,1-.2.015ZM16.449,11.553V29.678c0,5.1,4.448,9.367,13.6,13.025,9.148-3.659,13.6-7.922,13.6-13.025V11.553a23.862,23.862,0,0,1-5.509-.16,19.357,19.357,0,0,1-8.087-2.8,19.343,19.343,0,0,1-8.087,2.8A23.743,23.743,0,0,1,16.449,11.553Z" transform="translate(0 0)"/>
      <g id="Group_919" data-name="Group 919" transform="translate(25.55 15.392)">
        <g id="Group_918" data-name="Group 918" class="cls-3">
          <g id="Group_917" data-name="Group 917" transform="translate(0 0)">
            <path id="Path_1002" data-name="Path 1002" class="cls-1" d="M-1.21-3.012A1.459,1.459,0,0,0-.17-2.58,4.422,4.422,0,0,1,4.247,1.836,4.422,4.422,0,0,1,1.3,6v1.73A1.473,1.473,0,0,1-.17,9.2,1.473,1.473,0,0,1-1.642,7.726V6.253H-3.115A1.473,1.473,0,0,1-4.587,4.781,1.473,1.473,0,0,1-3.115,3.309H-.17A1.474,1.474,0,0,0,1.3,1.836,1.474,1.474,0,0,0-.17.363h0A4.38,4.38,0,0,1-3.293-.93,4.388,4.388,0,0,1-4.586-4.053,4.42,4.42,0,0,1-1.642-8.212v-1.73A1.473,1.473,0,0,1-.169-11.414,1.473,1.473,0,0,1,1.3-9.942v1.472H2.775A1.473,1.473,0,0,1,4.247-7,1.473,1.473,0,0,1,2.775-5.525H-.169A1.474,1.474,0,0,0-1.642-4.053,1.462,1.462,0,0,0-1.21-3.012" transform="translate(4.587 11.414)"/>
          </g>
        </g>
      </g>
    </g>
  </g>
</svg>
