<svg xmlns="http://www.w3.org/2000/svg" viewBox="2557 1325 70 70">
  <defs>
    <style>
      .cls-1, .cls-4 {
        fill: none;
      }

      .cls-1 {
        stroke: #ffbc00;
        stroke-width: 4px;
      }

      .cls-2 {
        fill: #ffbc00;
      }

      .cls-3 {
        stroke: none;
      }
    </style>
  </defs>
  <g id="Group_923" data-name="Group 923" transform="translate(1990 11)">
    <g id="Group_921" data-name="Group 921" transform="translate(-358 57)">
      <g id="Ellipse_142" data-name="Ellipse 142" class="cls-1" transform="translate(925 1257)">
        <circle class="cls-3" cx="35" cy="35" r="35"/>
        <circle class="cls-4" cx="35" cy="35" r="33"/>
      </g>
    </g>
    <g id="noun_1051762_cc" transform="translate(579.625 1324.502)">
      <g id="Group_916" data-name="Group 916" transform="translate(0.375 4.498)">
        <g id="Group_915" data-name="Group 915">
          <path id="Path_998" data-name="Path 998" class="cls-2" d="M34.227,43.069a10.845,10.845,0,0,0,8.312-3.881c.02-.02.038-.04.057-.062a10.831,10.831,0,0,0,.114-13.7,1.027,1.027,0,0,0-.1-.133l-.013-.015c-.023-.025-.043-.052-.069-.076a10.845,10.845,0,0,0-16.632.031,1.064,1.064,0,0,0-.324.4c0,.01-.006.021-.01.031a10.8,10.8,0,0,0,.142,13.262,1.078,1.078,0,0,0,.107.143A10.852,10.852,0,0,0,34.227,43.069ZM26.945,27.393a18.32,18.32,0,0,0,2.9.842,21.158,21.158,0,0,0-.324,2.9H25.567A8.657,8.657,0,0,1,26.945,27.393ZM42.886,31.13H38.581a21.131,21.131,0,0,0-.321-2.881,18.189,18.189,0,0,0,3.2-.942A8.668,8.668,0,0,1,42.886,31.13Zm-1.465,6.008A18.3,18.3,0,0,0,38.2,36.2a20.963,20.963,0,0,0,.367-2.934h4.314A8.678,8.678,0,0,1,41.421,37.138ZM32.6,38c.495-.036.994-.061,1.5-.061.478,0,.951.023,1.419.056a12.713,12.713,0,0,1-1.438,2.925l-.044,0A12.675,12.675,0,0,1,32.6,38Zm-1.32,2.4a8.737,8.737,0,0,1-2.766-1.623,17,17,0,0,1,1.936-.5A16.437,16.437,0,0,0,31.276,40.407Zm5.16-7.139a18.924,18.924,0,0,1-.341,2.631c-.658-.059-1.325-.094-2-.094-.7,0-1.4.034-2.081.1a18.937,18.937,0,0,1-.343-2.637ZM31.662,31.13a18.858,18.858,0,0,1,.3-2.577c.7.068,1.416.1,2.137.1.694,0,1.38-.036,2.055-.1a18.864,18.864,0,0,1,.3,2.572Zm6.005,7.144a16.762,16.762,0,0,1,2.207.574,8.713,8.713,0,0,1-3.12,1.708A16.456,16.456,0,0,0,37.667,38.273Zm.094-12.1a16.707,16.707,0,0,0-.856-2.276,8.712,8.712,0,0,1,3.017,1.7A16.575,16.575,0,0,1,37.761,26.169Zm-3.534-2.7h.016a13.148,13.148,0,0,1,1.373,2.986c-.5.038-1.008.064-1.522.064-.54,0-1.074-.027-1.6-.07a13.284,13.284,0,0,1,1.358-2.962C33.976,23.481,34.1,23.468,34.227,23.468Zm-3.88,2.689a16.566,16.566,0,0,1-1.888-.5,8.717,8.717,0,0,1,2.662-1.612A17.077,17.077,0,0,0,30.348,26.157Zm-.812,7.111a21.01,21.01,0,0,0,.369,2.948,18.317,18.317,0,0,0-2.929.843,8.689,8.689,0,0,1-1.409-3.791Z" transform="translate(-12.128 -13.106)"/>
          <path id="Path_999" data-name="Path 999" class="cls-2" d="M44.575,24.008a7.66,7.66,0,0,0-3.9-6.667A19.833,19.833,0,0,0,22.474,4.5C14.915,4.5,7.052,9.285,4.435,17.252a7.655,7.655,0,0,0,3.6,14.414A1.068,1.068,0,0,0,9.1,30.6V17.419A1.068,1.068,0,0,0,8.033,16.35a7.629,7.629,0,0,0-.92.061,16.956,16.956,0,0,1,30.722,0,7.615,7.615,0,0,0-.92-.061,1.069,1.069,0,0,0-1.069,1.069V30.6a1.069,1.069,0,0,0,1.069,1.069c.162,0,.32-.015.479-.025a16.966,16.966,0,0,1-10.47,8.313,2.874,2.874,0,0,0-2.346-1.217H20.37a2.88,2.88,0,1,0,0,5.76h4.208a2.883,2.883,0,0,0,2.846-2.466A19.108,19.108,0,0,0,40.082,30.987c0-.006,0-.012.006-.018A7.663,7.663,0,0,0,44.575,24.008ZM6.964,29.425a5.521,5.521,0,0,1,0-10.834ZM24.579,42.36H20.371a.743.743,0,1,1,0-1.486h4.208a.743.743,0,0,1,0,1.486ZM37.984,29.425V18.591a5.521,5.521,0,0,1,0,10.834Z" transform="translate(-0.375 -4.498)"/>
        </g>
      </g>
    </g>
  </g>
</svg>
