<?xml version="1.0" encoding="utf-8"?>
<!-- Generator: Adobe Illustrator 19.0.0, SVG Export Plug-In . SVG Version: 6.00 Build 0)  -->
<svg version="1.1" id="Layer_1" xmlns="http://www.w3.org/2000/svg" xmlns:xlink="http://www.w3.org/1999/xlink" x="0px" y="0px"
	 viewBox="-3950 3991 20.2 20.2" style="enable-background:new -3950 3991 20.2 20.2;" xml:space="preserve">
<style type="text/css">
	.st0{fill:#343D45;}
</style>
<path class="st0" d="M-3944,4007c-1.1,0-2,0.9-2,2c0,1.1,0.9,2,2,2s2-0.9,2-2C-3942,4007.9-3942.9,4007-3944,4007z M-3950,3991v2h2
	l3.6,7.6l-1.4,2.5c-0.2,0.3-0.2,0.6-0.2,1c0,1.1,0.9,2,2,2h12v-2h-11.6c-0.1,0-0.2-0.1-0.2-0.2l0-0.1l0.9-1.6h7.4
	c0.8,0,1.4-0.4,1.8-1l3.6-6.5c0.1-0.1,0.1-0.3,0.1-0.5c0-0.6-0.4-1-1-1h-14.8l-0.9-2H-3950z M-3934,4007c-1.1,0-2,0.9-2,2
	c0,1.1,0.9,2,2,2s2-0.9,2-2C-3932,4007.9-3932.9,4007-3934,4007z"/>
</svg>
