<svg width="20" height="20" viewBox="0 0 20 20" fill="none" xmlns="http://www.w3.org/2000/svg">
<path d="M16.6665 2.50016H15.8332V0.833496H14.1665V2.50016H5.83317V0.833496H4.1665V2.50016H3.33317C2.4165 2.50016 1.6665 3.25016 1.6665 4.16683V17.5002C1.6665 18.4168 2.4165 19.1668 3.33317 19.1668H16.6665C17.5832 19.1668 18.3332 18.4168 18.3332 17.5002V4.16683C18.3332 3.25016 17.5832 2.50016 16.6665 2.50016ZM16.6665 17.5002H3.33317V6.66683H16.6665V17.5002Z" fill="#FF8A00"/>
<path d="M7.77055 11.0347C7.33855 11.0347 6.89855 11.1707 6.57855 11.3787C6.71455 10.7627 7.07455 10.4267 7.65855 10.4267C8.07455 10.4267 8.37855 10.5547 8.70655 10.7947L9.41055 9.62671C8.93055 9.28271 8.33855 9.07471 7.64255 9.07471C5.93855 9.07471 4.91455 10.2507 4.91455 12.0187C4.91455 13.6507 5.73855 14.7627 7.41855 14.7627C8.65855 14.7627 9.63455 14.0027 9.63455 12.8027C9.63455 11.7067 8.79455 11.0347 7.77055 11.0347ZM7.31455 13.4507C6.81855 13.4507 6.61855 13.2347 6.54655 12.6987C6.69855 12.4347 6.96255 12.2747 7.27455 12.2747C7.67455 12.2747 8.03455 12.4907 8.03455 12.8667C8.03455 13.2027 7.74655 13.4507 7.31455 13.4507Z" fill="#FF8A00"/>
<path d="M12.7886 14.7627C14.3086 14.7627 15.3806 13.5867 15.3806 11.9147C15.3806 10.2507 14.3086 9.07471 12.7886 9.07471C11.2686 9.07471 10.1966 10.2507 10.1966 11.9147C10.1966 13.5867 11.2686 14.7627 12.7886 14.7627ZM12.7886 13.3547C12.2046 13.3547 11.7966 12.7547 11.7966 11.9147C11.7966 11.0747 12.2046 10.4827 12.7886 10.4827C13.3726 10.4827 13.7806 11.0747 13.7806 11.9147C13.7806 12.7547 13.3726 13.3547 12.7886 13.3547Z" fill="#FF8A00"/>
</svg>
