<svg width="20" height="20" viewBox="0 0 20 20" fill="none" xmlns="http://www.w3.org/2000/svg">
<path d="M16.4915 12.8417C17.2832 11.0334 17.2832 8.95842 16.4915 7.15842L14.2082 8.19175C14.7082 9.34175 14.7082 10.6501 14.2165 11.8084L16.4915 12.8417ZM12.8498 3.50841C11.0415 2.71675 8.9665 2.71675 7.15817 3.50841L8.1915 5.78341C9.34984 5.29175 10.6582 5.29175 11.8165 5.79175L12.8498 3.50841ZM3.50817 7.15008C2.7165 8.96675 2.7165 11.0334 3.50817 12.8501L5.7915 11.8084C5.2915 10.6584 5.2915 9.34175 5.7915 8.18341L3.50817 7.15008ZM7.15817 16.4917C8.9665 17.2834 11.0415 17.2834 12.8498 16.4834L11.8165 14.2084C10.6665 14.7084 9.34984 14.7084 8.19984 14.2167L7.15817 16.4917ZM9.99984 1.66675C11.0942 1.66675 12.1778 1.8823 13.1889 2.30109C14.1999 2.71987 15.1186 3.3337 15.8924 4.10752C16.6662 4.88135 17.28 5.80001 17.6988 6.81105C18.1176 7.8221 18.3332 8.90573 18.3332 10.0001C18.3332 12.2102 17.4552 14.3298 15.8924 15.8926C14.3296 17.4554 12.21 18.3334 9.99984 18.3334C8.90549 18.3334 7.82186 18.1179 6.81081 17.6991C5.79976 17.2803 4.8811 16.6665 4.10728 15.8926C2.54448 14.3298 1.6665 12.2102 1.6665 10.0001C1.6665 7.78994 2.54448 5.67033 4.10728 4.10752C5.67008 2.54472 7.7897 1.66675 9.99984 1.66675ZM9.99984 6.66675C9.11578 6.66675 8.26794 7.01794 7.64281 7.64306C7.01769 8.26818 6.6665 9.11603 6.6665 10.0001C6.6665 10.8841 7.01769 11.732 7.64281 12.3571C8.26794 12.9822 9.11578 13.3334 9.99984 13.3334C10.8839 13.3334 11.7317 12.9822 12.3569 12.3571C12.982 11.732 13.3332 10.8841 13.3332 10.0001C13.3332 9.11603 12.982 8.26818 12.3569 7.64306C11.7317 7.01794 10.8839 6.66675 9.99984 6.66675Z" fill="#FF8A00"/>
</svg>
