<svg width="20" height="20" viewBox="0 0 20 20" fill="none" xmlns="http://www.w3.org/2000/svg">
<path d="M16.6665 1.66675H3.33317C2.89114 1.66675 2.46722 1.84234 2.15466 2.1549C1.8421 2.46746 1.6665 2.89139 1.6665 3.33341V18.3334L4.99984 15.0001H16.6665C17.1085 15.0001 17.5325 14.8245 17.845 14.5119C18.1576 14.1994 18.3332 13.7754 18.3332 13.3334V3.33341C18.3332 2.89139 18.1576 2.46746 17.845 2.1549C17.5325 1.84234 17.1085 1.66675 16.6665 1.66675ZM4.99984 7.50008H14.9998V9.16675H4.99984V7.50008ZM11.6665 11.6667H4.99984V10.0001H11.6665V11.6667ZM14.9998 6.66675H4.99984V5.00008H14.9998" fill="#FF8A00"/>
</svg>
